<svg xmlns="http://www.w3.org/2000/svg" width="1200" height="1980" viewBox="0 0 1200 1980" font-family="Segoe UI, Helvetica Neue, Arial, sans-serif" font-size="13" style="font-variant-numeric: tabular-nums">
<rect width="1200" height="1980" fill="#eef2ef"/>
<g transform="translate(20,20)">
<rect width="1160" height="470" rx="12" fill="#ffffff" stroke="#dbe3de"/>
<text x="24" y="32" font-size="18" font-weight="700" letter-spacing="1.4" fill="#6741d9">ALL · NET WORTH TODAY</text>
<text x="24" y="60" font-size="21" font-weight="700" fill="#16211b">Since midnight</text>
<text x="24" y="84" fill="#5f6b65">Fri 02 Oct 2026 · started at <tspan font-weight="700" fill="#16211b">11,653,135,864</tspan> at 00:03 · now <tspan font-weight="700" fill="#16211b">10,274,856,158</tspan> at 12:23 Central</text>
<text x="1136" y="62" font-size="30" font-weight="700" text-anchor="end" fill="#c4402b">-1,378,279,706</text>
<text x="1136" y="84" font-size="11" text-anchor="end" fill="#5f6b65">Alz since 00:03</text>
<line x1="140" x2="1136" y1="428.0" y2="428.0" stroke="#e3e9e5" stroke-width="1" stroke-dasharray="3 4"/>
<text x="130" y="428.0" text-anchor="end" dominant-baseline="middle" font-weight="400" fill="#5f6b65">-2,000,000,000</text>
<line x1="140" x2="1136" y1="364.8" y2="364.8" stroke="#e3e9e5" stroke-width="1" stroke-dasharray="3 4"/>
<text x="130" y="364.8" text-anchor="end" dominant-baseline="middle" font-weight="400" fill="#5f6b65">-1,500,000,000</text>
<line x1="140" x2="1136" y1="301.6" y2="301.6" stroke="#e3e9e5" stroke-width="1" stroke-dasharray="3 4"/>
<text x="130" y="301.6" text-anchor="end" dominant-baseline="middle" font-weight="400" fill="#5f6b65">-1,000,000,000</text>
<line x1="140" x2="1136" y1="238.4" y2="238.4" stroke="#e3e9e5" stroke-width="1" stroke-dasharray="3 4"/>
<text x="130" y="238.4" text-anchor="end" dominant-baseline="middle" font-weight="400" fill="#5f6b65">-500,000,000</text>
<line x1="140" x2="1136" y1="175.2" y2="175.2" stroke="#16211b" stroke-width="1.5"/>
<text x="130" y="175.2" text-anchor="end" dominant-baseline="middle" font-weight="700" fill="#16211b">11,653,135,864</text>
<line x1="140" x2="1136" y1="112.0" y2="112.0" stroke="#e3e9e5" stroke-width="1" stroke-dasharray="3 4"/>
<text x="130" y="112.0" text-anchor="end" dominant-baseline="middle" font-weight="400" fill="#5f6b65">+500,000,000</text>
<line x1="140.0" x2="140.0" y1="428" y2="433" stroke="#5f6b65" stroke-width="1"/>
<text x="140.0" y="448" font-size="11" text-anchor="middle" fill="#5f6b65">00:00</text>
<line x1="223.0" x2="223.0" y1="428" y2="433" stroke="#5f6b65" stroke-width="1"/>
<text x="223.0" y="448" font-size="11" text-anchor="middle" fill="#5f6b65">02:00</text>
<line x1="306.0" x2="306.0" y1="428" y2="433" stroke="#5f6b65" stroke-width="1"/>
<text x="306.0" y="448" font-size="11" text-anchor="middle" fill="#5f6b65">04:00</text>
<line x1="389.0" x2="389.0" y1="112" y2="428" stroke="#e3e9e5" stroke-width="1"/>
<line x1="389.0" x2="389.0" y1="428" y2="433" stroke="#5f6b65" stroke-width="1"/>
<text x="389.0" y="448" font-size="11" text-anchor="middle" fill="#5f6b65">06:00</text>
<line x1="472.0" x2="472.0" y1="428" y2="433" stroke="#5f6b65" stroke-width="1"/>
<text x="472.0" y="448" font-size="11" text-anchor="middle" fill="#5f6b65">08:00</text>
<line x1="555.0" x2="555.0" y1="428" y2="433" stroke="#5f6b65" stroke-width="1"/>
<text x="555.0" y="448" font-size="11" text-anchor="middle" fill="#5f6b65">10:00</text>
<line x1="638.0" x2="638.0" y1="112" y2="428" stroke="#e3e9e5" stroke-width="1"/>
<line x1="638.0" x2="638.0" y1="428" y2="433" stroke="#5f6b65" stroke-width="1"/>
<text x="638.0" y="448" font-size="11" text-anchor="middle" fill="#5f6b65">12:00</text>
<line x1="721.0" x2="721.0" y1="428" y2="433" stroke="#5f6b65" stroke-width="1"/>
<text x="721.0" y="448" font-size="11" text-anchor="middle" fill="#5f6b65">14:00</text>
<line x1="804.0" x2="804.0" y1="428" y2="433" stroke="#5f6b65" stroke-width="1"/>
<text x="804.0" y="448" font-size="11" text-anchor="middle" fill="#5f6b65">16:00</text>
<line x1="887.0" x2="887.0" y1="112" y2="428" stroke="#e3e9e5" stroke-width="1"/>
<line x1="887.0" x2="887.0" y1="428" y2="433" stroke="#5f6b65" stroke-width="1"/>
<text x="887.0" y="448" font-size="11" text-anchor="middle" fill="#5f6b65">18:00</text>
<line x1="970.0" x2="970.0" y1="428" y2="433" stroke="#5f6b65" stroke-width="1"/>
<text x="970.0" y="448" font-size="11" text-anchor="middle" fill="#5f6b65">20:00</text>
<line x1="1053.0" x2="1053.0" y1="428" y2="433" stroke="#5f6b65" stroke-width="1"/>
<text x="1053.0" y="448" font-size="11" text-anchor="middle" fill="#5f6b65">22:00</text>
<line x1="1136.0" x2="1136.0" y1="428" y2="433" stroke="#5f6b65" stroke-width="1"/>
<defs><path id="shape-today" d="M142.2 175.2L142.2 175.2L145.7 175.0L149.2 175.0L152.6 170.9L156.1 170.9L159.5 170.9L163.0 173.3L166.5 173.3L169.9 173.3L173.4 308.9L176.8 309.5L180.3 309.5L183.7 309.5L187.2 309.5L190.7 268.5L194.1 268.9L197.6 269.0L201.0 269.3L204.5 269.6L208.0 269.0L211.4 268.4L214.9 269.6L218.3 270.4L221.8 270.8L225.2 267.5L228.7 264.8L232.2 261.4L235.6 262.0L239.1 259.1L242.5 259.3L246.0 259.3L249.5 259.2L252.9 259.2L256.4 259.2L259.8 355.5L263.3 355.6L266.7 353.3L270.2 353.5L273.7 353.7L277.1 354.9L280.6 355.0L284.0 358.5L287.5 365.2L291.0 365.2L294.4 371.2L297.9 374.8L301.3 375.5L304.8 377.5L308.2 378.6L311.7 378.6L315.2 375.9L318.6 376.1L322.1 376.3L325.5 281.4L329.0 281.6L332.5 280.8L335.9 281.0L339.4 281.2L342.8 281.1L346.3 281.1L349.7 281.1L353.2 281.1L356.7 281.1L360.1 281.1L363.6 281.1L367.0 281.1L370.5 281.1L374.0 280.4L377.4 267.9L380.9 267.9L384.3 267.2L387.8 265.6L391.2 262.6L394.7 261.1L398.2 260.2L401.6 259.9L405.1 259.9L408.5 253.6L412.0 253.2L415.5 252.6L418.9 252.8L422.4 251.6L425.8 251.8L429.3 247.5L432.7 247.2L436.2 241.4L439.7 236.6L443.1 236.5L446.6 236.7L450.0 237.5L453.5 237.8L457.0 235.1L460.4 232.9L463.9 232.8L467.3 232.3L470.8 232.7L474.2 232.5L477.7 230.4L481.2 229.3L484.6 227.0L488.1 226.6L491.5 225.7L495.0 225.8L498.5 227.1L501.9 227.2L505.4 227.9L508.8 228.3L512.3 228.3L515.7 228.8L519.2 228.8L522.7 228.8L526.1 228.8L529.6 228.5L533.0 228.5L536.5 234.2L540.0 232.9L543.4 232.9L546.9 229.3L550.3 229.3L553.8 329.8L557.2 328.2L560.7 328.2L564.2 326.0L567.6 325.3L571.1 325.6L574.5 325.5L578.0 325.5L581.5 323.1L584.9 321.6L588.4 320.7L591.8 320.8L595.3 353.3L598.7 352.0L602.2 351.8L605.7 351.8L609.1 350.9L612.6 350.9L616.0 350.6L619.5 350.3L623.0 350.2L626.4 350.2L629.9 349.7L633.3 349.7L636.8 349.7L640.2 349.7L643.7 349.7L647.2 349.4L650.6 349.4L654.1 349.4L654.1 175.2Z"/><path id="line-today" d="M142.2 175.2L145.7 175.0L149.2 175.0L152.6 170.9L156.1 170.9L159.5 170.9L163.0 173.3L166.5 173.3L169.9 173.3L173.4 308.9L176.8 309.5L180.3 309.5L183.7 309.5L187.2 309.5L190.7 268.5L194.1 268.9L197.6 269.0L201.0 269.3L204.5 269.6L208.0 269.0L211.4 268.4L214.9 269.6L218.3 270.4L221.8 270.8L225.2 267.5L228.7 264.8L232.2 261.4L235.6 262.0L239.1 259.1L242.5 259.3L246.0 259.3L249.5 259.2L252.9 259.2L256.4 259.2L259.8 355.5L263.3 355.6L266.7 353.3L270.2 353.5L273.7 353.7L277.1 354.9L280.6 355.0L284.0 358.5L287.5 365.2L291.0 365.2L294.4 371.2L297.9 374.8L301.3 375.5L304.8 377.5L308.2 378.6L311.7 378.6L315.2 375.9L318.6 376.1L322.1 376.3L325.5 281.4L329.0 281.6L332.5 280.8L335.9 281.0L339.4 281.2L342.8 281.1L346.3 281.1L349.7 281.1L353.2 281.1L356.7 281.1L360.1 281.1L363.6 281.1L367.0 281.1L370.5 281.1L374.0 280.4L377.4 267.9L380.9 267.9L384.3 267.2L387.8 265.6L391.2 262.6L394.7 261.1L398.2 260.2L401.6 259.9L405.1 259.9L408.5 253.6L412.0 253.2L415.5 252.6L418.9 252.8L422.4 251.6L425.8 251.8L429.3 247.5L432.7 247.2L436.2 241.4L439.7 236.6L443.1 236.5L446.6 236.7L450.0 237.5L453.5 237.8L457.0 235.1L460.4 232.9L463.9 232.8L467.3 232.3L470.8 232.7L474.2 232.5L477.7 230.4L481.2 229.3L484.6 227.0L488.1 226.6L491.5 225.7L495.0 225.8L498.5 227.1L501.9 227.2L505.4 227.9L508.8 228.3L512.3 228.3L515.7 228.8L519.2 228.8L522.7 228.8L526.1 228.8L529.6 228.5L533.0 228.5L536.5 234.2L540.0 232.9L543.4 232.9L546.9 229.3L550.3 229.3L553.8 329.8L557.2 328.2L560.7 328.2L564.2 326.0L567.6 325.3L571.1 325.6L574.5 325.5L578.0 325.5L581.5 323.1L584.9 321.6L588.4 320.7L591.8 320.8L595.3 353.3L598.7 352.0L602.2 351.8L605.7 351.8L609.1 350.9L612.6 350.9L616.0 350.6L619.5 350.3L623.0 350.2L626.4 350.2L629.9 349.7L633.3 349.7L636.8 349.7L640.2 349.7L643.7 349.7L647.2 349.4L650.6 349.4L654.1 349.4"/><clipPath id="up-today"><rect x="140" y="112" width="996" height="63.2"/></clipPath><clipPath id="down-today"><rect x="140" y="175.2" width="996" height="252.8"/></clipPath></defs>
<use href="#shape-today" fill="#1d8a53" fill-opacity="0.15" clip-path="url(#up-today)"/>
<use href="#line-today" fill="none" stroke="#1d8a53" stroke-width="2.25" stroke-linejoin="round" stroke-linecap="round" clip-path="url(#up-today)"/>
<use href="#shape-today" fill="#c4402b" fill-opacity="0.15" clip-path="url(#down-today)"/>
<use href="#line-today" fill="none" stroke="#c4402b" stroke-width="2.25" stroke-linejoin="round" stroke-linecap="round" clip-path="url(#down-today)"/>
<circle cx="654.1" cy="349.4" r="5" fill="#c4402b" stroke="#ffffff" stroke-width="2.5"/>
<text x="666.1" y="344.9" text-anchor="start" font-size="15" font-weight="700" fill="#c4402b" stroke="#ffffff" stroke-width="4" stroke-linejoin="round" paint-order="stroke">-1,378,279,706 Alz</text>
<text x="666.1" y="361.9" text-anchor="start" font-size="13" font-weight="600" fill="#16211b" stroke="#ffffff" stroke-width="4" stroke-linejoin="round" paint-order="stroke">net worth 10,274,856,158</text>
</g>
<g transform="translate(20,510)">
<rect width="1160" height="470" rx="12" fill="#ffffff" stroke="#dbe3de"/>
<text x="24" y="32" font-size="18" font-weight="700" letter-spacing="1.4" fill="#6741d9">ALL · NET WORTH BY DAY</text>
<text x="24" y="60" font-size="21" font-weight="700" fill="#16211b">Last 7 days</text>
<text x="24" y="84" fill="#5f6b65">each day starts again at its first reading after midnight</text>
<text x="1136" y="62" font-size="30" font-weight="700" text-anchor="end" fill="#1d8a53">+1,020,918,637</text>
<text x="1136" y="84" font-size="11" text-anchor="end" fill="#5f6b65">Alz, the 3 daily changes added up</text>
<rect x="282.3" y="93" width="142.3" height="335" fill="#f5f8f6"/>
<rect x="566.9" y="93" width="142.3" height="335" fill="#f5f8f6"/>
<rect x="851.4" y="93" width="142.3" height="335" fill="#f5f8f6"/>
<line x1="140" x2="1136" y1="428.0" y2="428.0" stroke="#e3e9e5" stroke-width="1" stroke-dasharray="3 4"/>
<text x="130" y="428.0" text-anchor="end" dominant-baseline="middle" font-weight="400" fill="#5f6b65">-3,000,000,000</text>
<line x1="140" x2="1136" y1="381.7" y2="381.7" stroke="#e3e9e5" stroke-width="1" stroke-dasharray="3 4"/>
<text x="130" y="381.7" text-anchor="end" dominant-baseline="middle" font-weight="400" fill="#5f6b65">-2,000,000,000</text>
<line x1="140" x2="1136" y1="335.3" y2="335.3" stroke="#e3e9e5" stroke-width="1" stroke-dasharray="3 4"/>
<text x="130" y="335.3" text-anchor="end" dominant-baseline="middle" font-weight="400" fill="#5f6b65">-1,000,000,000</text>
<line x1="140" x2="1136" y1="289.0" y2="289.0" stroke="#16211b" stroke-width="1.5"/>
<text x="130" y="289.0" text-anchor="end" dominant-baseline="middle" font-weight="700" fill="#16211b">day start</text>
<line x1="140" x2="1136" y1="242.7" y2="242.7" stroke="#e3e9e5" stroke-width="1" stroke-dasharray="3 4"/>
<text x="130" y="242.7" text-anchor="end" dominant-baseline="middle" font-weight="400" fill="#5f6b65">+1,000,000,000</text>
<line x1="140" x2="1136" y1="196.3" y2="196.3" stroke="#e3e9e5" stroke-width="1" stroke-dasharray="3 4"/>
<text x="130" y="196.3" text-anchor="end" dominant-baseline="middle" font-weight="400" fill="#5f6b65">+2,000,000,000</text>
<line x1="140" x2="1136" y1="150.0" y2="150.0" stroke="#e3e9e5" stroke-width="1" stroke-dasharray="3 4"/>
<text x="130" y="150.0" text-anchor="end" dominant-baseline="middle" font-weight="400" fill="#5f6b65">+3,000,000,000</text>
<text x="150.0" y="116" font-weight="700" fill="#16211b">Sat 26 Sep</text>
<line x1="140.0" x2="140.0" y1="428" y2="433" stroke="#5f6b65" stroke-width="1"/>
<text x="140.0" y="448" font-size="11" text-anchor="middle" fill="#5f6b65">00:00</text>
<line x1="211.1" x2="211.1" y1="428" y2="433" stroke="#5f6b65" stroke-width="1"/>
<text x="211.1" y="448" font-size="11" text-anchor="middle" fill="#5f6b65">12:00</text>
<line x1="282.3" x2="282.3" y1="428" y2="433" stroke="#5f6b65" stroke-width="1"/>
<text x="292.3" y="116" font-weight="700" fill="#16211b">Sun 27 Sep</text>
<line x1="282.3" x2="282.3" y1="428" y2="433" stroke="#5f6b65" stroke-width="1"/>
<text x="282.3" y="448" font-size="11" text-anchor="middle" fill="#5f6b65">00:00</text>
<line x1="353.4" x2="353.4" y1="428" y2="433" stroke="#5f6b65" stroke-width="1"/>
<text x="353.4" y="448" font-size="11" text-anchor="middle" fill="#5f6b65">12:00</text>
<line x1="424.6" x2="424.6" y1="428" y2="433" stroke="#5f6b65" stroke-width="1"/>
<text x="434.6" y="116" font-weight="700" fill="#16211b">Mon 28 Sep</text>
<line x1="424.6" x2="424.6" y1="428" y2="433" stroke="#5f6b65" stroke-width="1"/>
<text x="424.6" y="448" font-size="11" text-anchor="middle" fill="#5f6b65">00:00</text>
<line x1="495.7" x2="495.7" y1="428" y2="433" stroke="#5f6b65" stroke-width="1"/>
<text x="495.7" y="448" font-size="11" text-anchor="middle" fill="#5f6b65">12:00</text>
<line x1="566.9" x2="566.9" y1="428" y2="433" stroke="#5f6b65" stroke-width="1"/>
<text x="576.9" y="116" font-weight="700" fill="#16211b">Tue 29 Sep</text>
<line x1="566.9" x2="566.9" y1="428" y2="433" stroke="#5f6b65" stroke-width="1"/>
<text x="566.9" y="448" font-size="11" text-anchor="middle" fill="#5f6b65">00:00</text>
<line x1="638.0" x2="638.0" y1="428" y2="433" stroke="#5f6b65" stroke-width="1"/>
<text x="638.0" y="448" font-size="11" text-anchor="middle" fill="#5f6b65">12:00</text>
<line x1="709.1" x2="709.1" y1="428" y2="433" stroke="#5f6b65" stroke-width="1"/>
<text x="719.1" y="116" font-weight="700" fill="#16211b">Wed 30 Sep</text>
<line x1="709.1" x2="709.1" y1="428" y2="433" stroke="#5f6b65" stroke-width="1"/>
<text x="709.1" y="448" font-size="11" text-anchor="middle" fill="#5f6b65">00:00</text>
<line x1="780.3" x2="780.3" y1="428" y2="433" stroke="#5f6b65" stroke-width="1"/>
<text x="780.3" y="448" font-size="11" text-anchor="middle" fill="#5f6b65">12:00</text>
<line x1="851.4" x2="851.4" y1="428" y2="433" stroke="#5f6b65" stroke-width="1"/>
<text x="719.1" y="134" font-weight="700" fill="#1d8a53">+152,218,372</text>
<defs><path id="shape-day4" d="M830.5 289.0L830.5 289.0L832.0 288.8L833.5 288.8L835.0 288.7L836.4 288.7L837.9 288.7L839.4 287.2L840.9 287.2L842.4 287.4L843.8 286.9L845.3 286.9L846.8 286.6L848.3 285.8L849.8 283.9L851.3 281.9L851.3 289.0Z"/><path id="line-day4" d="M830.5 289.0L832.0 288.8L833.5 288.8L835.0 288.7L836.4 288.7L837.9 288.7L839.4 287.2L840.9 287.2L842.4 287.4L843.8 286.9L845.3 286.9L846.8 286.6L848.3 285.8L849.8 283.9L851.3 281.9"/><clipPath id="up-day4"><rect x="140" y="150" width="996" height="139.0"/></clipPath><clipPath id="down-day4"><rect x="140" y="289.0" width="996" height="139.0"/></clipPath></defs>
<use href="#shape-day4" fill="#1d8a53" fill-opacity="0.15" clip-path="url(#up-day4)"/>
<use href="#line-day4" fill="none" stroke="#1d8a53" stroke-width="2.25" stroke-linejoin="round" stroke-linecap="round" clip-path="url(#up-day4)"/>
<use href="#shape-day4" fill="#c4402b" fill-opacity="0.15" clip-path="url(#down-day4)"/>
<use href="#line-day4" fill="none" stroke="#c4402b" stroke-width="2.25" stroke-linejoin="round" stroke-linecap="round" clip-path="url(#down-day4)"/>
<circle cx="851.3" cy="281.9" r="5" fill="#1d8a53" stroke="#ffffff" stroke-width="2.5"/>
<text x="861.4" y="116" font-weight="700" fill="#16211b">Thu 01 Oct</text>
<line x1="851.4" x2="851.4" y1="428" y2="433" stroke="#5f6b65" stroke-width="1"/>
<text x="851.4" y="448" font-size="11" text-anchor="middle" fill="#5f6b65">00:00</text>
<line x1="922.6" x2="922.6" y1="428" y2="433" stroke="#5f6b65" stroke-width="1"/>
<text x="922.6" y="448" font-size="11" text-anchor="middle" fill="#5f6b65">12:00</text>
<line x1="993.7" x2="993.7" y1="428" y2="433" stroke="#5f6b65" stroke-width="1"/>
<text x="861.4" y="134" font-weight="700" fill="#1d8a53">+2,246,979,971</text>
<defs><path id="shape-day5" d="M851.7 289.0L851.7 289.0L853.2 289.4L854.7 288.9L856.2 288.4L857.7 271.7L859.2 271.7L860.6 271.0L862.1 269.4L863.6 269.5L865.1 267.8L866.6 267.5L868.1 268.3L869.5 268.6L871.0 268.8L872.5 268.9L874.0 268.9L875.5 268.9L876.9 268.9L878.4 268.7L879.9 268.2L881.4 267.1L882.9 266.9L884.4 266.7L885.8 266.5L887.3 266.2L888.8 265.4L890.3 263.3L891.8 262.3L893.2 261.9L894.7 260.6L896.2 259.3L897.7 257.7L899.2 257.1L900.7 256.8L902.1 256.5L903.6 254.8L905.1 254.9L906.6 242.7L908.1 243.0L909.6 258.7L911.0 258.0L912.5 254.9L914.0 255.0L915.5 254.0L917.0 253.8L918.4 253.6L919.9 252.5L921.4 251.8L922.9 251.3L924.4 249.2L925.9 247.5L927.3 244.4L928.8 243.1L930.3 242.8L931.8 242.4L933.3 239.3L934.7 239.0L936.2 238.5L937.7 235.0L939.2 234.2L940.7 232.3L942.2 232.1L943.6 232.1L945.1 231.9L946.6 227.0L948.1 226.7L949.6 226.0L951.1 224.7L952.5 224.7L954.0 224.7L955.5 223.6L957.0 223.6L958.5 223.6L959.9 222.8L961.4 222.0L962.9 221.1L964.4 220.5L965.9 219.5L967.4 217.1L968.8 215.9L970.3 213.6L971.8 213.8L973.3 213.8L974.8 213.2L976.2 195.8L977.7 195.4L979.2 195.4L980.7 195.1L982.2 195.1L983.7 193.6L985.1 193.5L986.6 192.4L988.1 191.8L989.6 185.2L991.1 184.8L992.6 184.8L993.5 184.9L993.5 289.0Z"/><path id="line-day5" d="M851.7 289.0L853.2 289.4L854.7 288.9L856.2 288.4L857.7 271.7L859.2 271.7L860.6 271.0L862.1 269.4L863.6 269.5L865.1 267.8L866.6 267.5L868.1 268.3L869.5 268.6L871.0 268.8L872.5 268.9L874.0 268.9L875.5 268.9L876.9 268.9L878.4 268.7L879.9 268.2L881.4 267.1L882.9 266.9L884.4 266.7L885.8 266.5L887.3 266.2L888.8 265.4L890.3 263.3L891.8 262.3L893.2 261.9L894.7 260.6L896.2 259.3L897.7 257.7L899.2 257.1L900.7 256.8L902.1 256.5L903.6 254.8L905.1 254.9L906.6 242.7L908.1 243.0L909.6 258.7L911.0 258.0L912.5 254.9L914.0 255.0L915.5 254.0L917.0 253.8L918.4 253.6L919.9 252.5L921.4 251.8L922.9 251.3L924.4 249.2L925.9 247.5L927.3 244.4L928.8 243.1L930.3 242.8L931.8 242.4L933.3 239.3L934.7 239.0L936.2 238.5L937.7 235.0L939.2 234.2L940.7 232.3L942.2 232.1L943.6 232.1L945.1 231.9L946.6 227.0L948.1 226.7L949.6 226.0L951.1 224.7L952.5 224.7L954.0 224.7L955.5 223.6L957.0 223.6L958.5 223.6L959.9 222.8L961.4 222.0L962.9 221.1L964.4 220.5L965.9 219.5L967.4 217.1L968.8 215.9L970.3 213.6L971.8 213.8L973.3 213.8L974.8 213.2L976.2 195.8L977.7 195.4L979.2 195.4L980.7 195.1L982.2 195.1L983.7 193.6L985.1 193.5L986.6 192.4L988.1 191.8L989.6 185.2L991.1 184.8L992.6 184.8L993.5 184.9"/><clipPath id="up-day5"><rect x="140" y="150" width="996" height="139.0"/></clipPath><clipPath id="down-day5"><rect x="140" y="289.0" width="996" height="139.0"/></clipPath></defs>
<use href="#shape-day5" fill="#1d8a53" fill-opacity="0.15" clip-path="url(#up-day5)"/>
<use href="#line-day5" fill="none" stroke="#1d8a53" stroke-width="2.25" stroke-linejoin="round" stroke-linecap="round" clip-path="url(#up-day5)"/>
<use href="#shape-day5" fill="#c4402b" fill-opacity="0.15" clip-path="url(#down-day5)"/>
<use href="#line-day5" fill="none" stroke="#c4402b" stroke-width="2.25" stroke-linejoin="round" stroke-linecap="round" clip-path="url(#down-day5)"/>
<circle cx="993.5" cy="184.9" r="5" fill="#1d8a53" stroke="#ffffff" stroke-width="2.5"/>
<text x="1003.7" y="116" font-weight="700" fill="#2b5d87">Today 02 Oct</text>
<line x1="993.7" x2="993.7" y1="428" y2="433" stroke="#5f6b65" stroke-width="1"/>
<text x="993.7" y="448" font-size="11" text-anchor="middle" fill="#5f6b65">00:00</text>
<line x1="1064.9" x2="1064.9" y1="428" y2="433" stroke="#5f6b65" stroke-width="1"/>
<text x="1064.9" y="448" font-size="11" text-anchor="middle" fill="#5f6b65">12:00</text>
<line x1="1136.0" x2="1136.0" y1="428" y2="433" stroke="#5f6b65" stroke-width="1"/>
<text x="1003.7" y="134" font-weight="700" fill="#c4402b">-1,378,279,706</text>
<defs><path id="shape-day6" d="M994.0 289.0L994.0 289.0L995.5 287.4L997.0 288.3L998.5 338.0L1000.0 338.2L1001.4 323.3L1002.9 323.6L1004.4 323.6L1005.9 322.8L1007.4 320.8L1008.9 319.8L1010.3 319.8L1011.8 354.3L1013.3 354.9L1014.8 358.6L1016.3 362.2L1017.7 363.5L1019.2 362.6L1020.7 328.0L1022.2 327.8L1023.7 327.8L1025.2 327.8L1026.6 327.8L1028.1 323.0L1029.6 321.0L1031.1 320.0L1032.6 317.6L1034.1 317.0L1035.5 315.4L1037.0 311.5L1038.5 311.9L1040.0 310.1L1041.5 310.0L1042.9 308.0L1044.4 307.5L1045.9 308.3L1047.4 308.7L1048.9 308.7L1050.4 310.6L1051.8 308.8L1053.3 345.1L1054.8 344.0L1056.3 344.1L1057.8 342.3L1059.2 353.8L1060.7 353.4L1062.2 353.2L1063.7 353.0L1065.2 353.0L1066.7 352.9L1067.2 352.9L1067.2 289.0Z"/><path id="line-day6" d="M994.0 289.0L995.5 287.4L997.0 288.3L998.5 338.0L1000.0 338.2L1001.4 323.3L1002.9 323.6L1004.4 323.6L1005.9 322.8L1007.4 320.8L1008.9 319.8L1010.3 319.8L1011.8 354.3L1013.3 354.9L1014.8 358.6L1016.3 362.2L1017.7 363.5L1019.2 362.6L1020.7 328.0L1022.2 327.8L1023.7 327.8L1025.2 327.8L1026.6 327.8L1028.1 323.0L1029.6 321.0L1031.1 320.0L1032.6 317.6L1034.1 317.0L1035.5 315.4L1037.0 311.5L1038.5 311.9L1040.0 310.1L1041.5 310.0L1042.9 308.0L1044.4 307.5L1045.9 308.3L1047.4 308.7L1048.9 308.7L1050.4 310.6L1051.8 308.8L1053.3 345.1L1054.8 344.0L1056.3 344.1L1057.8 342.3L1059.2 353.8L1060.7 353.4L1062.2 353.2L1063.7 353.0L1065.2 353.0L1066.7 352.9L1067.2 352.9"/><clipPath id="up-day6"><rect x="140" y="150" width="996" height="139.0"/></clipPath><clipPath id="down-day6"><rect x="140" y="289.0" width="996" height="139.0"/></clipPath></defs>
<use href="#shape-day6" fill="#1d8a53" fill-opacity="0.15" clip-path="url(#up-day6)"/>
<use href="#line-day6" fill="none" stroke="#1d8a53" stroke-width="2.25" stroke-linejoin="round" stroke-linecap="round" clip-path="url(#up-day6)"/>
<use href="#shape-day6" fill="#c4402b" fill-opacity="0.15" clip-path="url(#down-day6)"/>
<use href="#line-day6" fill="none" stroke="#c4402b" stroke-width="2.25" stroke-linejoin="round" stroke-linecap="round" clip-path="url(#down-day6)"/>
<circle cx="1067.2" cy="352.9" r="5" fill="#c4402b" stroke="#ffffff" stroke-width="2.5"/>
</g>
<g transform="translate(20,1000)">
<rect width="1160" height="470" rx="12" fill="#152131" stroke="#24364a"/>
<text x="24" y="32" font-size="18" font-weight="700" letter-spacing="1.4" fill="#ffd166">ALL · CONTINUOUS NETWORTH</text>
<text x="24" y="60" font-size="21" font-weight="700" fill="#eaf1f8">Today</text>
<text x="24" y="84" fill="#93a6ba">Fri 02 Oct 2026 · carried over at <tspan font-weight="700" fill="#eaf1f8">11,636,507,120</tspan> from 01 Oct 23:58 · now <tspan font-weight="700" fill="#eaf1f8">10,274,856,158</tspan> at 12:23 Central</text>
<text x="1136" y="62" font-size="30" font-weight="700" text-anchor="end" fill="#ff6b6b">-1,361,650,962</text>
<text x="1136" y="84" font-size="11" text-anchor="end" fill="#93a6ba">Alz since 01 Oct 23:58</text>
<line x1="140" x2="1136" y1="428.0" y2="428.0" stroke="#243548" stroke-width="1" stroke-dasharray="3 4"/>
<text x="130" y="428.0" text-anchor="end" dominant-baseline="middle" font-weight="400" fill="#93a6ba">-2,000,000,000</text>
<line x1="140" x2="1136" y1="364.8" y2="364.8" stroke="#243548" stroke-width="1" stroke-dasharray="3 4"/>
<text x="130" y="364.8" text-anchor="end" dominant-baseline="middle" font-weight="400" fill="#93a6ba">-1,500,000,000</text>
<line x1="140" x2="1136" y1="301.6" y2="301.6" stroke="#243548" stroke-width="1" stroke-dasharray="3 4"/>
<text x="130" y="301.6" text-anchor="end" dominant-baseline="middle" font-weight="400" fill="#93a6ba">-1,000,000,000</text>
<line x1="140" x2="1136" y1="238.4" y2="238.4" stroke="#243548" stroke-width="1" stroke-dasharray="3 4"/>
<text x="130" y="238.4" text-anchor="end" dominant-baseline="middle" font-weight="400" fill="#93a6ba">-500,000,000</text>
<line x1="140" x2="1136" y1="175.2" y2="175.2" stroke="#eaf1f8" stroke-width="1.5"/>
<text x="130" y="175.2" text-anchor="end" dominant-baseline="middle" font-weight="700" fill="#eaf1f8">11,636,507,120</text>
<line x1="140" x2="1136" y1="112.0" y2="112.0" stroke="#243548" stroke-width="1" stroke-dasharray="3 4"/>
<text x="130" y="112.0" text-anchor="end" dominant-baseline="middle" font-weight="400" fill="#93a6ba">+500,000,000</text>
<line x1="140.0" x2="140.0" y1="428" y2="433" stroke="#93a6ba" stroke-width="1"/>
<text x="140.0" y="448" font-size="11" text-anchor="middle" fill="#93a6ba">00:00</text>
<line x1="223.0" x2="223.0" y1="428" y2="433" stroke="#93a6ba" stroke-width="1"/>
<text x="223.0" y="448" font-size="11" text-anchor="middle" fill="#93a6ba">02:00</text>
<line x1="306.0" x2="306.0" y1="428" y2="433" stroke="#93a6ba" stroke-width="1"/>
<text x="306.0" y="448" font-size="11" text-anchor="middle" fill="#93a6ba">04:00</text>
<line x1="389.0" x2="389.0" y1="112" y2="428" stroke="#243548" stroke-width="1"/>
<line x1="389.0" x2="389.0" y1="428" y2="433" stroke="#93a6ba" stroke-width="1"/>
<text x="389.0" y="448" font-size="11" text-anchor="middle" fill="#93a6ba">06:00</text>
<line x1="472.0" x2="472.0" y1="428" y2="433" stroke="#93a6ba" stroke-width="1"/>
<text x="472.0" y="448" font-size="11" text-anchor="middle" fill="#93a6ba">08:00</text>
<line x1="555.0" x2="555.0" y1="428" y2="433" stroke="#93a6ba" stroke-width="1"/>
<text x="555.0" y="448" font-size="11" text-anchor="middle" fill="#93a6ba">10:00</text>
<line x1="638.0" x2="638.0" y1="112" y2="428" stroke="#243548" stroke-width="1"/>
<line x1="638.0" x2="638.0" y1="428" y2="433" stroke="#93a6ba" stroke-width="1"/>
<text x="638.0" y="448" font-size="11" text-anchor="middle" fill="#93a6ba">12:00</text>
<line x1="721.0" x2="721.0" y1="428" y2="433" stroke="#93a6ba" stroke-width="1"/>
<text x="721.0" y="448" font-size="11" text-anchor="middle" fill="#93a6ba">14:00</text>
<line x1="804.0" x2="804.0" y1="428" y2="433" stroke="#93a6ba" stroke-width="1"/>
<text x="804.0" y="448" font-size="11" text-anchor="middle" fill="#93a6ba">16:00</text>
<line x1="887.0" x2="887.0" y1="112" y2="428" stroke="#243548" stroke-width="1"/>
<line x1="887.0" x2="887.0" y1="428" y2="433" stroke="#93a6ba" stroke-width="1"/>
<text x="887.0" y="448" font-size="11" text-anchor="middle" fill="#93a6ba">18:00</text>
<line x1="970.0" x2="970.0" y1="428" y2="433" stroke="#93a6ba" stroke-width="1"/>
<text x="970.0" y="448" font-size="11" text-anchor="middle" fill="#93a6ba">20:00</text>
<line x1="1053.0" x2="1053.0" y1="428" y2="433" stroke="#93a6ba" stroke-width="1"/>
<text x="1053.0" y="448" font-size="11" text-anchor="middle" fill="#93a6ba">22:00</text>
<line x1="1136.0" x2="1136.0" y1="428" y2="433" stroke="#93a6ba" stroke-width="1"/>
<defs><path id="shape-flow-today" d="M140.0 175.2L140.0 175.2L142.2 175.2L142.2 173.1L145.7 173.1L145.7 172.9L152.6 172.9L152.6 168.8L159.5 168.8L159.5 168.8L163.0 168.8L163.0 171.2L169.9 171.2L169.9 171.2L173.4 171.2L173.4 306.8L176.8 306.8L176.8 307.4L180.3 307.4L180.3 307.4L183.7 307.4L183.7 307.4L187.2 307.4L187.2 307.4L190.7 307.4L190.7 266.4L194.1 266.4L194.1 266.7L197.6 266.7L197.6 266.9L201.0 266.9L201.0 267.2L204.5 267.2L204.5 267.5L208.0 267.5L208.0 266.9L211.4 266.9L211.4 266.2L214.9 266.2L214.9 267.5L218.3 267.5L218.3 268.3L221.8 268.3L221.8 268.7L225.2 268.7L225.2 265.3L228.7 265.3L228.7 262.7L232.2 262.7L232.2 259.3L235.6 259.3L235.6 259.9L239.1 259.9L239.1 257.0L242.5 257.0L242.5 257.2L249.5 257.2L249.5 257.1L252.9 257.1L252.9 257.1L259.8 257.1L259.8 353.4L263.3 353.4L263.3 353.5L266.7 353.5L266.7 351.2L270.2 351.2L270.2 351.4L273.7 351.4L273.7 351.6L277.1 351.6L277.1 352.8L280.6 352.8L280.6 352.9L284.0 352.9L284.0 356.4L287.5 356.4L287.5 363.1L294.4 363.1L294.4 369.1L297.9 369.1L297.9 372.7L301.3 372.7L301.3 373.4L304.8 373.4L304.8 375.4L308.2 375.4L308.2 376.5L311.7 376.5L311.7 376.5L315.2 376.5L315.2 373.8L318.6 373.8L318.6 374.0L322.1 374.0L322.1 374.2L325.5 374.2L325.5 279.3L329.0 279.3L329.0 279.5L332.5 279.5L332.5 278.7L335.9 278.7L335.9 278.9L339.4 278.9L339.4 279.1L342.8 279.1L342.8 279.0L346.3 279.0L346.3 279.0L349.7 279.0L349.7 279.0L353.2 279.0L353.2 279.0L356.7 279.0L356.7 279.0L360.1 279.0L360.1 279.0L363.6 279.0L363.6 279.0L367.0 279.0L367.0 279.0L370.5 279.0L370.5 279.0L374.0 279.0L374.0 278.3L377.4 278.3L377.4 265.8L380.9 265.8L380.9 265.8L384.3 265.8L384.3 265.1L387.8 265.1L387.8 263.5L391.2 263.5L391.2 260.5L394.7 260.5L394.7 258.9L398.2 258.9L398.2 258.1L401.6 258.1L401.6 257.8L405.1 257.8L405.1 257.8L408.5 257.8L408.5 251.5L412.0 251.5L412.0 251.1L415.5 251.1L415.5 250.5L418.9 250.5L418.9 250.7L422.4 250.7L422.4 249.5L425.8 249.5L425.8 249.7L429.3 249.7L429.3 245.4L432.7 245.4L432.7 245.1L436.2 245.1L436.2 239.3L439.7 239.3L439.7 234.5L443.1 234.5L443.1 234.4L446.6 234.4L446.6 234.6L450.0 234.6L450.0 235.4L453.5 235.4L453.5 235.7L457.0 235.7L457.0 233.0L460.4 233.0L460.4 230.8L463.9 230.8L463.9 230.7L467.3 230.7L467.3 230.2L470.8 230.2L470.8 230.6L474.2 230.6L474.2 230.4L477.7 230.4L477.7 228.3L481.2 228.3L481.2 227.2L484.6 227.2L484.6 224.9L488.1 224.9L488.1 224.5L491.5 224.5L491.5 223.6L495.0 223.6L495.0 223.7L498.5 223.7L498.5 225.0L501.9 225.0L501.9 225.1L505.4 225.1L505.4 225.8L508.8 225.8L508.8 226.2L515.7 226.2L515.7 226.7L522.7 226.7L522.7 226.7L529.6 226.7L529.6 226.4L536.5 226.4L536.5 232.1L540.0 232.1L540.0 230.8L546.9 230.8L546.9 227.2L553.8 227.2L553.8 327.7L557.2 327.7L557.2 326.1L564.2 326.1L564.2 323.9L567.6 323.9L567.6 323.2L571.1 323.2L571.1 323.5L574.5 323.5L574.5 323.4L578.0 323.4L578.0 323.4L581.5 323.4L581.5 321.0L584.9 321.0L584.9 319.5L588.4 319.5L588.4 318.6L591.8 318.6L591.8 318.7L595.3 318.7L595.3 351.2L598.7 351.2L598.7 349.9L602.2 349.9L602.2 349.7L605.7 349.7L605.7 349.7L609.1 349.7L609.1 348.8L612.6 348.8L612.6 348.8L616.0 348.8L616.0 348.5L619.5 348.5L619.5 348.2L623.0 348.2L623.0 348.1L626.4 348.1L626.4 348.1L629.9 348.1L629.9 347.6L633.3 347.6L633.3 347.6L636.8 347.6L636.8 347.6L640.2 347.6L640.2 347.6L647.2 347.6L647.2 347.3L654.1 347.3L654.1 347.3L654.1 175.2Z"/><path id="line-flow-today" d="M140.0 175.2L142.2 175.2L142.2 173.1L145.7 173.1L145.7 172.9L152.6 172.9L152.6 168.8L159.5 168.8L159.5 168.8L163.0 168.8L163.0 171.2L169.9 171.2L169.9 171.2L173.4 171.2L173.4 306.8L176.8 306.8L176.8 307.4L180.3 307.4L180.3 307.4L183.7 307.4L183.7 307.4L187.2 307.4L187.2 307.4L190.7 307.4L190.7 266.4L194.1 266.4L194.1 266.7L197.6 266.7L197.6 266.9L201.0 266.9L201.0 267.2L204.5 267.2L204.5 267.5L208.0 267.5L208.0 266.9L211.4 266.9L211.4 266.2L214.9 266.2L214.9 267.5L218.3 267.5L218.3 268.3L221.8 268.3L221.8 268.7L225.2 268.7L225.2 265.3L228.7 265.3L228.7 262.7L232.2 262.7L232.2 259.3L235.6 259.3L235.6 259.9L239.1 259.9L239.1 257.0L242.5 257.0L242.5 257.2L249.5 257.2L249.5 257.1L252.9 257.1L252.9 257.1L259.8 257.1L259.8 353.4L263.3 353.4L263.3 353.5L266.7 353.5L266.7 351.2L270.2 351.2L270.2 351.4L273.7 351.4L273.7 351.6L277.1 351.6L277.1 352.8L280.6 352.8L280.6 352.9L284.0 352.9L284.0 356.4L287.5 356.4L287.5 363.1L294.4 363.1L294.4 369.1L297.9 369.1L297.9 372.7L301.3 372.7L301.3 373.4L304.8 373.4L304.8 375.4L308.2 375.4L308.2 376.5L311.7 376.5L311.7 376.5L315.2 376.5L315.2 373.8L318.6 373.8L318.6 374.0L322.1 374.0L322.1 374.2L325.5 374.2L325.5 279.3L329.0 279.3L329.0 279.5L332.5 279.5L332.5 278.7L335.9 278.7L335.9 278.9L339.4 278.9L339.4 279.1L342.8 279.1L342.8 279.0L346.3 279.0L346.3 279.0L349.7 279.0L349.7 279.0L353.2 279.0L353.2 279.0L356.7 279.0L356.7 279.0L360.1 279.0L360.1 279.0L363.6 279.0L363.6 279.0L367.0 279.0L367.0 279.0L370.5 279.0L370.5 279.0L374.0 279.0L374.0 278.3L377.4 278.3L377.4 265.8L380.9 265.8L380.9 265.8L384.3 265.8L384.3 265.1L387.8 265.1L387.8 263.5L391.2 263.5L391.2 260.5L394.7 260.5L394.7 258.9L398.2 258.9L398.2 258.1L401.6 258.1L401.6 257.8L405.1 257.8L405.1 257.8L408.5 257.8L408.5 251.5L412.0 251.5L412.0 251.1L415.5 251.1L415.5 250.5L418.9 250.5L418.9 250.7L422.4 250.7L422.4 249.5L425.8 249.5L425.8 249.7L429.3 249.7L429.3 245.4L432.7 245.4L432.7 245.1L436.2 245.1L436.2 239.3L439.7 239.3L439.7 234.5L443.1 234.5L443.1 234.4L446.6 234.4L446.6 234.6L450.0 234.6L450.0 235.4L453.5 235.4L453.5 235.7L457.0 235.7L457.0 233.0L460.4 233.0L460.4 230.8L463.9 230.8L463.9 230.7L467.3 230.7L467.3 230.2L470.8 230.2L470.8 230.6L474.2 230.6L474.2 230.4L477.7 230.4L477.7 228.3L481.2 228.3L481.2 227.2L484.6 227.2L484.6 224.9L488.1 224.9L488.1 224.5L491.5 224.5L491.5 223.6L495.0 223.6L495.0 223.7L498.5 223.7L498.5 225.0L501.9 225.0L501.9 225.1L505.4 225.1L505.4 225.8L508.8 225.8L508.8 226.2L515.7 226.2L515.7 226.7L522.7 226.7L522.7 226.7L529.6 226.7L529.6 226.4L536.5 226.4L536.5 232.1L540.0 232.1L540.0 230.8L546.9 230.8L546.9 227.2L553.8 227.2L553.8 327.7L557.2 327.7L557.2 326.1L564.2 326.1L564.2 323.9L567.6 323.9L567.6 323.2L571.1 323.2L571.1 323.5L574.5 323.5L574.5 323.4L578.0 323.4L578.0 323.4L581.5 323.4L581.5 321.0L584.9 321.0L584.9 319.5L588.4 319.5L588.4 318.6L591.8 318.6L591.8 318.7L595.3 318.7L595.3 351.2L598.7 351.2L598.7 349.9L602.2 349.9L602.2 349.7L605.7 349.7L605.7 349.7L609.1 349.7L609.1 348.8L612.6 348.8L612.6 348.8L616.0 348.8L616.0 348.5L619.5 348.5L619.5 348.2L623.0 348.2L623.0 348.1L626.4 348.1L626.4 348.1L629.9 348.1L629.9 347.6L633.3 347.6L633.3 347.6L636.8 347.6L636.8 347.6L640.2 347.6L640.2 347.6L647.2 347.6L647.2 347.3L654.1 347.3L654.1 347.3"/><clipPath id="up-flow-today"><rect x="140" y="112" width="996" height="63.2"/></clipPath><clipPath id="down-flow-today"><rect x="140" y="175.2" width="996" height="252.8"/></clipPath></defs>
<use href="#shape-flow-today" fill="#3ddc84" fill-opacity="0.15" clip-path="url(#up-flow-today)"/>
<use href="#line-flow-today" fill="none" stroke="#3ddc84" stroke-width="2.25" stroke-linejoin="round" stroke-linecap="round" clip-path="url(#up-flow-today)"/>
<use href="#shape-flow-today" fill="#ff6b6b" fill-opacity="0.15" clip-path="url(#down-flow-today)"/>
<use href="#line-flow-today" fill="none" stroke="#ff6b6b" stroke-width="2.25" stroke-linejoin="round" stroke-linecap="round" clip-path="url(#down-flow-today)"/>
<circle cx="654.1" cy="347.3" r="5" fill="#ff6b6b" stroke="#152131" stroke-width="2.5"/>
<text x="666.1" y="342.8" text-anchor="start" font-size="15" font-weight="700" fill="#ff6b6b" stroke="#152131" stroke-width="4" stroke-linejoin="round" paint-order="stroke">-1,361,650,962 Alz</text>
<text x="666.1" y="359.8" text-anchor="start" font-size="13" font-weight="600" fill="#eaf1f8" stroke="#152131" stroke-width="4" stroke-linejoin="round" paint-order="stroke">net worth 10,274,856,158</text>
</g>
<g transform="translate(20,1490)">
<rect width="1160" height="470" rx="12" fill="#152131" stroke="#24364a"/>
<text x="24" y="32" font-size="18" font-weight="700" letter-spacing="1.4" fill="#ffd166">ALL · CONTINUOUS NETWORTH</text>
<text x="24" y="60" font-size="21" font-weight="700" fill="#eaf1f8">Last 7 days</text>
<text x="24" y="84" fill="#93a6ba">from <tspan font-weight="700" fill="#eaf1f8">9,237,308,777</tspan> at Wed 30 Sep 20:28 · now <tspan font-weight="700" fill="#eaf1f8">10,274,856,158</tspan> at Fri 02 Oct 12:23 Central</text>
<text x="1136" y="62" font-size="30" font-weight="700" text-anchor="end" fill="#3ddc84">+1,037,547,381</text>
<text x="1136" y="84" font-size="11" text-anchor="end" fill="#93a6ba">Alz since Wed 30 Sep 20:28</text>
<rect x="282.3" y="93" width="142.3" height="335" fill="#1b2b3d"/>
<rect x="566.9" y="93" width="142.3" height="335" fill="#1b2b3d"/>
<rect x="851.4" y="93" width="142.3" height="335" fill="#1b2b3d"/>
<line x1="140" x2="1136" y1="428.0" y2="428.0" stroke="#eaf1f8" stroke-width="1.5"/>
<text x="130" y="428.0" text-anchor="end" dominant-baseline="middle" font-weight="700" fill="#eaf1f8">9,237,308,777</text>
<line x1="140" x2="1136" y1="372.4" y2="372.4" stroke="#243548" stroke-width="1" stroke-dasharray="3 4"/>
<text x="130" y="372.4" text-anchor="end" dominant-baseline="middle" font-weight="400" fill="#93a6ba">+500,000,000</text>
<line x1="140" x2="1136" y1="316.8" y2="316.8" stroke="#243548" stroke-width="1" stroke-dasharray="3 4"/>
<text x="130" y="316.8" text-anchor="end" dominant-baseline="middle" font-weight="400" fill="#93a6ba">+1,000,000,000</text>
<line x1="140" x2="1136" y1="261.2" y2="261.2" stroke="#243548" stroke-width="1" stroke-dasharray="3 4"/>
<text x="130" y="261.2" text-anchor="end" dominant-baseline="middle" font-weight="400" fill="#93a6ba">+1,500,000,000</text>
<line x1="140" x2="1136" y1="205.6" y2="205.6" stroke="#243548" stroke-width="1" stroke-dasharray="3 4"/>
<text x="130" y="205.6" text-anchor="end" dominant-baseline="middle" font-weight="400" fill="#93a6ba">+2,000,000,000</text>
<line x1="140" x2="1136" y1="150.0" y2="150.0" stroke="#243548" stroke-width="1" stroke-dasharray="3 4"/>
<text x="130" y="150.0" text-anchor="end" dominant-baseline="middle" font-weight="400" fill="#93a6ba">+2,500,000,000</text>
<text x="150.0" y="116" font-weight="700" fill="#eaf1f8">Sat 26 Sep</text>
<line x1="140.0" x2="140.0" y1="428" y2="433" stroke="#93a6ba" stroke-width="1"/>
<text x="140.0" y="448" font-size="11" text-anchor="middle" fill="#93a6ba">00:00</text>
<line x1="211.1" x2="211.1" y1="428" y2="433" stroke="#93a6ba" stroke-width="1"/>
<text x="211.1" y="448" font-size="11" text-anchor="middle" fill="#93a6ba">12:00</text>
<line x1="282.3" x2="282.3" y1="428" y2="433" stroke="#93a6ba" stroke-width="1"/>
<text x="292.3" y="116" font-weight="700" fill="#eaf1f8">Sun 27 Sep</text>
<line x1="282.3" x2="282.3" y1="428" y2="433" stroke="#93a6ba" stroke-width="1"/>
<text x="282.3" y="448" font-size="11" text-anchor="middle" fill="#93a6ba">00:00</text>
<line x1="353.4" x2="353.4" y1="428" y2="433" stroke="#93a6ba" stroke-width="1"/>
<text x="353.4" y="448" font-size="11" text-anchor="middle" fill="#93a6ba">12:00</text>
<line x1="424.6" x2="424.6" y1="428" y2="433" stroke="#93a6ba" stroke-width="1"/>
<text x="434.6" y="116" font-weight="700" fill="#eaf1f8">Mon 28 Sep</text>
<line x1="424.6" x2="424.6" y1="428" y2="433" stroke="#93a6ba" stroke-width="1"/>
<text x="424.6" y="448" font-size="11" text-anchor="middle" fill="#93a6ba">00:00</text>
<line x1="495.7" x2="495.7" y1="428" y2="433" stroke="#93a6ba" stroke-width="1"/>
<text x="495.7" y="448" font-size="11" text-anchor="middle" fill="#93a6ba">12:00</text>
<line x1="566.9" x2="566.9" y1="428" y2="433" stroke="#93a6ba" stroke-width="1"/>
<text x="576.9" y="116" font-weight="700" fill="#eaf1f8">Tue 29 Sep</text>
<line x1="566.9" x2="566.9" y1="428" y2="433" stroke="#93a6ba" stroke-width="1"/>
<text x="566.9" y="448" font-size="11" text-anchor="middle" fill="#93a6ba">00:00</text>
<line x1="638.0" x2="638.0" y1="428" y2="433" stroke="#93a6ba" stroke-width="1"/>
<text x="638.0" y="448" font-size="11" text-anchor="middle" fill="#93a6ba">12:00</text>
<line x1="709.1" x2="709.1" y1="428" y2="433" stroke="#93a6ba" stroke-width="1"/>
<text x="719.1" y="116" font-weight="700" fill="#eaf1f8">Wed 30 Sep</text>
<line x1="709.1" x2="709.1" y1="428" y2="433" stroke="#93a6ba" stroke-width="1"/>
<text x="709.1" y="448" font-size="11" text-anchor="middle" fill="#93a6ba">00:00</text>
<line x1="780.3" x2="780.3" y1="428" y2="433" stroke="#93a6ba" stroke-width="1"/>
<text x="780.3" y="448" font-size="11" text-anchor="middle" fill="#93a6ba">12:00</text>
<line x1="851.4" x2="851.4" y1="428" y2="433" stroke="#93a6ba" stroke-width="1"/>
<text x="861.4" y="116" font-weight="700" fill="#eaf1f8">Thu 01 Oct</text>
<line x1="851.4" x2="851.4" y1="428" y2="433" stroke="#93a6ba" stroke-width="1"/>
<text x="851.4" y="448" font-size="11" text-anchor="middle" fill="#93a6ba">00:00</text>
<line x1="922.6" x2="922.6" y1="428" y2="433" stroke="#93a6ba" stroke-width="1"/>
<text x="922.6" y="448" font-size="11" text-anchor="middle" fill="#93a6ba">12:00</text>
<line x1="993.7" x2="993.7" y1="428" y2="433" stroke="#93a6ba" stroke-width="1"/>
<text x="1003.7" y="116" font-weight="700" fill="#7cc4ff">Today 02 Oct</text>
<line x1="993.7" x2="993.7" y1="428" y2="433" stroke="#93a6ba" stroke-width="1"/>
<text x="993.7" y="448" font-size="11" text-anchor="middle" fill="#93a6ba">00:00</text>
<line x1="1064.9" x2="1064.9" y1="428" y2="433" stroke="#93a6ba" stroke-width="1"/>
<text x="1064.9" y="448" font-size="11" text-anchor="middle" fill="#93a6ba">12:00</text>
<line x1="1136.0" x2="1136.0" y1="428" y2="433" stroke="#93a6ba" stroke-width="1"/>
<defs><path id="shape-flow-week" d="M830.5 428.0L830.5 428.0L834.0 428.0L834.0 427.4L840.4 427.4L840.4 423.7L841.9 423.7L841.9 424.0L843.4 424.0L843.4 423.0L844.8 423.0L844.8 423.0L846.3 423.0L846.3 422.4L848.3 422.4L848.3 420.3L852.7 420.3L852.7 412.1L857.7 412.1L857.7 369.6L861.1 369.6L861.1 367.9L862.6 367.9L862.6 364.3L864.6 364.3L864.6 360.3L868.1 360.3L868.1 361.3L870.0 361.3L870.0 361.9L873.5 361.9L873.5 362.9L876.5 362.9L876.5 362.9L877.9 362.9L877.9 362.4L879.4 362.4L879.4 362.0L880.9 362.0L880.9 360.7L882.4 360.7L882.4 358.0L884.4 358.0L884.4 357.5L885.8 357.5L885.8 357.1L887.3 357.1L887.3 356.3L888.8 356.3L888.8 354.5L890.3 354.5L890.3 349.4L891.8 349.4L891.8 347.0L893.2 347.0L893.2 346.1L894.7 346.1L894.7 343.0L896.2 343.0L896.2 339.8L898.7 339.8L898.7 335.4L900.2 335.4L900.2 334.3L901.6 334.3L901.6 333.2L903.1 333.2L903.1 331.0L904.6 331.0L904.6 329.1L906.1 329.1L906.1 328.0L907.6 328.0L907.6 300.7L909.6 300.7L909.6 338.4L911.0 338.4L911.0 336.7L912.5 336.7L912.5 329.1L914.5 329.1L914.5 328.7L916.0 328.7L916.0 326.9L917.5 326.9L917.5 326.5L918.9 326.5L918.9 326.1L920.4 326.1L920.4 323.4L921.9 323.4L921.9 321.8L923.4 321.8L923.4 316.1L924.9 316.1L924.9 313.8L926.4 313.8L926.4 308.3L927.8 308.3L927.8 304.1L929.3 304.1L929.3 300.2L930.8 300.2L930.8 299.3L932.3 299.3L932.3 295.9L933.8 295.9L933.8 291.9L935.2 291.9L935.2 290.8L936.7 290.8L936.7 289.2L938.2 289.2L938.2 281.4L939.7 281.4L939.7 275.5L941.2 275.5L941.2 274.5L946.1 274.5L946.1 263.6L947.6 263.6L947.6 261.5L950.6 261.5L950.6 256.8L952.0 256.8L952.0 256.8L953.5 256.8L953.5 256.8L955.5 256.8L955.5 254.2L957.0 254.2L957.0 254.0L958.5 254.0L958.5 254.0L960.4 254.0L960.4 250.2L963.9 250.2L963.9 247.3L965.4 247.3L965.4 246.6L966.9 246.6L966.9 240.0L968.3 240.0L968.3 235.8L969.8 235.8L969.8 234.8L971.3 234.8L971.3 230.1L973.3 230.1L973.3 230.6L974.8 230.6L974.8 229.1L977.7 229.1L977.7 186.4L980.7 186.4L980.7 185.7L982.7 185.7L982.7 185.7L984.6 185.7L984.6 182.1L987.6 182.1L987.6 181.5L989.6 181.5L989.6 161.9L991.1 161.9L991.1 161.1L994.0 161.1L994.0 159.4L996.5 159.4L996.5 155.6L998.5 155.6L998.5 277.0L1000.0 277.0L1000.0 277.5L1001.4 277.5L1001.4 241.7L1002.9 241.7L1002.9 242.5L1004.4 242.5L1004.4 242.4L1005.9 242.4L1005.9 240.5L1007.4 240.5L1007.4 235.7L1009.4 235.7L1009.4 233.3L1011.3 233.3L1011.3 318.1L1012.8 318.1L1012.8 316.4L1014.3 316.4L1014.3 320.6L1016.3 320.6L1016.3 335.0L1017.7 335.0L1017.7 338.3L1019.2 338.3L1019.2 336.1L1020.7 336.1L1020.7 253.0L1022.2 253.0L1022.2 252.6L1023.7 252.6L1023.7 252.5L1025.2 252.5L1025.2 252.5L1026.6 252.5L1026.6 252.5L1028.1 252.5L1028.1 240.9L1029.6 240.9L1029.6 236.3L1031.1 236.3L1031.1 233.8L1032.6 233.8L1032.6 228.0L1034.1 228.0L1034.1 226.6L1035.5 226.6L1035.5 222.7L1037.0 222.7L1037.0 213.3L1038.5 213.3L1038.5 214.4L1040.0 214.4L1040.0 210.1L1041.5 210.1L1041.5 209.8L1042.9 209.8L1042.9 204.9L1044.4 204.9L1044.4 203.9L1045.9 203.9L1045.9 205.7L1048.4 205.7L1048.4 206.5L1050.9 206.5L1050.9 210.1L1053.3 210.1L1053.3 294.0L1055.3 294.0L1055.3 291.6L1056.8 291.6L1056.8 289.4L1058.3 289.4L1058.3 287.4L1059.7 287.4L1059.7 314.7L1061.2 314.7L1061.2 314.0L1062.7 314.0L1062.7 313.3L1064.2 313.3L1064.2 312.9L1066.2 312.9L1066.2 312.6L1067.2 312.6L1067.2 312.6L1067.2 428.0Z"/><path id="line-flow-week" d="M830.5 428.0L834.0 428.0L834.0 427.4L840.4 427.4L840.4 423.7L841.9 423.7L841.9 424.0L843.4 424.0L843.4 423.0L844.8 423.0L844.8 423.0L846.3 423.0L846.3 422.4L848.3 422.4L848.3 420.3L852.7 420.3L852.7 412.1L857.7 412.1L857.7 369.6L861.1 369.6L861.1 367.9L862.6 367.9L862.6 364.3L864.6 364.3L864.6 360.3L868.1 360.3L868.1 361.3L870.0 361.3L870.0 361.9L873.5 361.9L873.5 362.9L876.5 362.9L876.5 362.9L877.9 362.9L877.9 362.4L879.4 362.4L879.4 362.0L880.9 362.0L880.9 360.7L882.4 360.7L882.4 358.0L884.4 358.0L884.4 357.5L885.8 357.5L885.8 357.1L887.3 357.1L887.3 356.3L888.8 356.3L888.8 354.5L890.3 354.5L890.3 349.4L891.8 349.4L891.8 347.0L893.2 347.0L893.2 346.1L894.7 346.1L894.7 343.0L896.2 343.0L896.2 339.8L898.7 339.8L898.7 335.4L900.2 335.4L900.2 334.3L901.6 334.3L901.6 333.2L903.1 333.2L903.1 331.0L904.6 331.0L904.6 329.1L906.1 329.1L906.1 328.0L907.6 328.0L907.6 300.7L909.6 300.7L909.6 338.4L911.0 338.4L911.0 336.7L912.5 336.7L912.5 329.1L914.5 329.1L914.5 328.7L916.0 328.7L916.0 326.9L917.5 326.9L917.5 326.5L918.9 326.5L918.9 326.1L920.4 326.1L920.4 323.4L921.9 323.4L921.9 321.8L923.4 321.8L923.4 316.1L924.9 316.1L924.9 313.8L926.4 313.8L926.4 308.3L927.8 308.3L927.8 304.1L929.3 304.1L929.3 300.2L930.8 300.2L930.8 299.3L932.3 299.3L932.3 295.9L933.8 295.9L933.8 291.9L935.2 291.9L935.2 290.8L936.7 290.8L936.7 289.2L938.2 289.2L938.2 281.4L939.7 281.4L939.7 275.5L941.2 275.5L941.2 274.5L946.1 274.5L946.1 263.6L947.6 263.6L947.6 261.5L950.6 261.5L950.6 256.8L952.0 256.8L952.0 256.8L953.5 256.8L953.5 256.8L955.5 256.8L955.5 254.2L957.0 254.2L957.0 254.0L958.5 254.0L958.5 254.0L960.4 254.0L960.4 250.2L963.9 250.2L963.9 247.3L965.4 247.3L965.4 246.6L966.9 246.6L966.9 240.0L968.3 240.0L968.3 235.8L969.8 235.8L969.8 234.8L971.3 234.8L971.3 230.1L973.3 230.1L973.3 230.6L974.8 230.6L974.8 229.1L977.7 229.1L977.7 186.4L980.7 186.4L980.7 185.7L982.7 185.7L982.7 185.7L984.6 185.7L984.6 182.1L987.6 182.1L987.6 181.5L989.6 181.5L989.6 161.9L991.1 161.9L991.1 161.1L994.0 161.1L994.0 159.4L996.5 159.4L996.5 155.6L998.5 155.6L998.5 277.0L1000.0 277.0L1000.0 277.5L1001.4 277.5L1001.4 241.7L1002.9 241.7L1002.9 242.5L1004.4 242.5L1004.4 242.4L1005.9 242.4L1005.9 240.5L1007.4 240.5L1007.4 235.7L1009.4 235.7L1009.4 233.3L1011.3 233.3L1011.3 318.1L1012.8 318.1L1012.8 316.4L1014.3 316.4L1014.3 320.6L1016.3 320.6L1016.3 335.0L1017.7 335.0L1017.7 338.3L1019.2 338.3L1019.2 336.1L1020.7 336.1L1020.7 253.0L1022.2 253.0L1022.2 252.6L1023.7 252.6L1023.7 252.5L1025.2 252.5L1025.2 252.5L1026.6 252.5L1026.6 252.5L1028.1 252.5L1028.1 240.9L1029.6 240.9L1029.6 236.3L1031.1 236.3L1031.1 233.8L1032.6 233.8L1032.6 228.0L1034.1 228.0L1034.1 226.6L1035.5 226.6L1035.5 222.7L1037.0 222.7L1037.0 213.3L1038.5 213.3L1038.5 214.4L1040.0 214.4L1040.0 210.1L1041.5 210.1L1041.5 209.8L1042.9 209.8L1042.9 204.9L1044.4 204.9L1044.4 203.9L1045.9 203.9L1045.9 205.7L1048.4 205.7L1048.4 206.5L1050.9 206.5L1050.9 210.1L1053.3 210.1L1053.3 294.0L1055.3 294.0L1055.3 291.6L1056.8 291.6L1056.8 289.4L1058.3 289.4L1058.3 287.4L1059.7 287.4L1059.7 314.7L1061.2 314.7L1061.2 314.0L1062.7 314.0L1062.7 313.3L1064.2 313.3L1064.2 312.9L1066.2 312.9L1066.2 312.6L1067.2 312.6L1067.2 312.6"/><clipPath id="up-flow-week"><rect x="140" y="150" width="996" height="278.0"/></clipPath><clipPath id="down-flow-week"><rect x="140" y="428.0" width="996" height="0.0"/></clipPath></defs>
<use href="#shape-flow-week" fill="#3ddc84" fill-opacity="0.15" clip-path="url(#up-flow-week)"/>
<use href="#line-flow-week" fill="none" stroke="#3ddc84" stroke-width="2.25" stroke-linejoin="round" stroke-linecap="round" clip-path="url(#up-flow-week)"/>
<use href="#shape-flow-week" fill="#ff6b6b" fill-opacity="0.15" clip-path="url(#down-flow-week)"/>
<use href="#line-flow-week" fill="none" stroke="#ff6b6b" stroke-width="2.25" stroke-linejoin="round" stroke-linecap="round" clip-path="url(#down-flow-week)"/>
<circle cx="1067.2" cy="312.6" r="5" fill="#3ddc84" stroke="#152131" stroke-width="2.5"/>
<text x="1055.2" y="283.6" text-anchor="end" font-size="15" font-weight="700" fill="#3ddc84" stroke="#152131" stroke-width="4" stroke-linejoin="round" paint-order="stroke">+1,037,547,381 Alz</text>
<text x="1055.2" y="300.6" text-anchor="end" font-size="13" font-weight="600" fill="#eaf1f8" stroke="#152131" stroke-width="4" stroke-linejoin="round" paint-order="stroke">net worth 10,274,856,158</text>
</g>
</svg>
