<svg xmlns="http://www.w3.org/2000/svg" width="1200" height="1000" viewBox="0 0 1200 1000" font-family="Segoe UI, Helvetica Neue, Arial, sans-serif" font-size="13" style="font-variant-numeric: tabular-nums">
<rect width="1200" height="1000" fill="#eef2ef"/>
<g transform="translate(20,20)">
<rect width="1160" height="470" rx="12" fill="#ffffff" stroke="#dbe3de"/>
<text x="24" y="32" font-size="11" font-weight="700" letter-spacing="1.4" fill="#2b5d87">CANG · NET WORTH TODAY</text>
<text x="24" y="60" font-size="21" font-weight="700" fill="#16211b">Since midnight</text>
<text x="24" y="84" fill="#5f6b65">Thu 01 Oct 2026 · started at <tspan font-weight="700" fill="#16211b">3,997,757,858</tspan> at 00:59 · now <tspan font-weight="700" fill="#16211b">4,075,187,427</tspan> at 07:22 Central</text>
<text x="1136" y="62" font-size="30" font-weight="700" text-anchor="end" fill="#1d8a53">+77,429,569</text>
<text x="1136" y="84" font-size="11" text-anchor="end" fill="#5f6b65">Alz since 00:59</text>
<line x1="140" x2="1136" y1="428.0" y2="428.0" stroke="#e3e9e5" stroke-width="1" stroke-dasharray="3 4"/>
<text x="130" y="428.0" text-anchor="end" dominant-baseline="middle" font-weight="400" fill="#5f6b65">-20,000,000</text>
<line x1="140" x2="1136" y1="364.8" y2="364.8" stroke="#16211b" stroke-width="1.5"/>
<text x="130" y="364.8" text-anchor="end" dominant-baseline="middle" font-weight="700" fill="#16211b">3,997,757,858</text>
<line x1="140" x2="1136" y1="301.6" y2="301.6" stroke="#e3e9e5" stroke-width="1" stroke-dasharray="3 4"/>
<text x="130" y="301.6" text-anchor="end" dominant-baseline="middle" font-weight="400" fill="#5f6b65">+20,000,000</text>
<line x1="140" x2="1136" y1="238.4" y2="238.4" stroke="#e3e9e5" stroke-width="1" stroke-dasharray="3 4"/>
<text x="130" y="238.4" text-anchor="end" dominant-baseline="middle" font-weight="400" fill="#5f6b65">+40,000,000</text>
<line x1="140" x2="1136" y1="175.2" y2="175.2" stroke="#e3e9e5" stroke-width="1" stroke-dasharray="3 4"/>
<text x="130" y="175.2" text-anchor="end" dominant-baseline="middle" font-weight="400" fill="#5f6b65">+60,000,000</text>
<line x1="140" x2="1136" y1="112.0" y2="112.0" stroke="#e3e9e5" stroke-width="1" stroke-dasharray="3 4"/>
<text x="130" y="112.0" text-anchor="end" dominant-baseline="middle" font-weight="400" fill="#5f6b65">+80,000,000</text>
<line x1="140.0" x2="140.0" y1="428" y2="433" stroke="#5f6b65" stroke-width="1"/>
<text x="140.0" y="448" font-size="11" text-anchor="middle" fill="#5f6b65">00:00</text>
<line x1="223.0" x2="223.0" y1="428" y2="433" stroke="#5f6b65" stroke-width="1"/>
<text x="223.0" y="448" font-size="11" text-anchor="middle" fill="#5f6b65">02:00</text>
<line x1="306.0" x2="306.0" y1="428" y2="433" stroke="#5f6b65" stroke-width="1"/>
<text x="306.0" y="448" font-size="11" text-anchor="middle" fill="#5f6b65">04:00</text>
<line x1="389.0" x2="389.0" y1="112" y2="428" stroke="#e3e9e5" stroke-width="1"/>
<line x1="389.0" x2="389.0" y1="428" y2="433" stroke="#5f6b65" stroke-width="1"/>
<text x="389.0" y="448" font-size="11" text-anchor="middle" fill="#5f6b65">06:00</text>
<line x1="472.0" x2="472.0" y1="428" y2="433" stroke="#5f6b65" stroke-width="1"/>
<text x="472.0" y="448" font-size="11" text-anchor="middle" fill="#5f6b65">08:00</text>
<line x1="555.0" x2="555.0" y1="428" y2="433" stroke="#5f6b65" stroke-width="1"/>
<text x="555.0" y="448" font-size="11" text-anchor="middle" fill="#5f6b65">10:00</text>
<line x1="638.0" x2="638.0" y1="112" y2="428" stroke="#e3e9e5" stroke-width="1"/>
<line x1="638.0" x2="638.0" y1="428" y2="433" stroke="#5f6b65" stroke-width="1"/>
<text x="638.0" y="448" font-size="11" text-anchor="middle" fill="#5f6b65">12:00</text>
<line x1="721.0" x2="721.0" y1="428" y2="433" stroke="#5f6b65" stroke-width="1"/>
<text x="721.0" y="448" font-size="11" text-anchor="middle" fill="#5f6b65">14:00</text>
<line x1="804.0" x2="804.0" y1="428" y2="433" stroke="#5f6b65" stroke-width="1"/>
<text x="804.0" y="448" font-size="11" text-anchor="middle" fill="#5f6b65">16:00</text>
<line x1="887.0" x2="887.0" y1="112" y2="428" stroke="#e3e9e5" stroke-width="1"/>
<line x1="887.0" x2="887.0" y1="428" y2="433" stroke="#5f6b65" stroke-width="1"/>
<text x="887.0" y="448" font-size="11" text-anchor="middle" fill="#5f6b65">18:00</text>
<line x1="970.0" x2="970.0" y1="428" y2="433" stroke="#5f6b65" stroke-width="1"/>
<text x="970.0" y="448" font-size="11" text-anchor="middle" fill="#5f6b65">20:00</text>
<line x1="1053.0" x2="1053.0" y1="428" y2="433" stroke="#5f6b65" stroke-width="1"/>
<text x="1053.0" y="448" font-size="11" text-anchor="middle" fill="#5f6b65">22:00</text>
<line x1="1136.0" x2="1136.0" y1="428" y2="433" stroke="#5f6b65" stroke-width="1"/>
<defs><path id="shape-today" d="M180.9 364.8L180.9 364.8L184.6 364.8L188.2 364.9L202.9 369.5L206.6 369.6L210.2 359.2L217.3 359.3L220.9 359.3L224.6 359.3L228.2 348.3L231.8 330.1L235.4 330.2L239.1 305.1L265.9 330.4L269.5 324.0L273.1 324.5L283.9 322.1L287.5 322.1L291.2 322.1L294.8 322.1L298.4 320.5L302.0 320.5L312.9 326.5L316.5 326.5L320.1 324.1L323.7 324.1L327.3 321.4L330.9 310.7L334.5 310.7L338.1 290.1L341.7 280.7L345.3 274.4L348.9 274.4L352.5 271.4L356.1 261.0L359.7 261.0L363.3 250.8L367.0 250.8L370.5 250.8L374.1 250.8L377.8 250.8L381.4 250.8L385.0 250.9L388.6 250.9L392.2 247.0L395.8 239.1L399.4 229.7L403.0 226.2L406.6 220.3L410.3 220.4L413.9 220.4L417.5 220.4L421.1 214.1L424.7 214.2L428.4 213.2L432.0 213.2L435.6 206.7L439.2 206.7L442.8 126.0L446.4 120.1L446.4 364.8Z"/><path id="line-today" d="M180.9 364.8L184.6 364.8L188.2 364.9L202.9 369.5L206.6 369.6L210.2 359.2L217.3 359.3L220.9 359.3L224.6 359.3L228.2 348.3L231.8 330.1L235.4 330.2L239.1 305.1L265.9 330.4L269.5 324.0L273.1 324.5L283.9 322.1L287.5 322.1L291.2 322.1L294.8 322.1L298.4 320.5L302.0 320.5L312.9 326.5L316.5 326.5L320.1 324.1L323.7 324.1L327.3 321.4L330.9 310.7L334.5 310.7L338.1 290.1L341.7 280.7L345.3 274.4L348.9 274.4L352.5 271.4L356.1 261.0L359.7 261.0L363.3 250.8L367.0 250.8L370.5 250.8L374.1 250.8L377.8 250.8L381.4 250.8L385.0 250.9L388.6 250.9L392.2 247.0L395.8 239.1L399.4 229.7L403.0 226.2L406.6 220.3L410.3 220.4L413.9 220.4L417.5 220.4L421.1 214.1L424.7 214.2L428.4 213.2L432.0 213.2L435.6 206.7L439.2 206.7L442.8 126.0L446.4 120.1"/><clipPath id="up-today"><rect x="140" y="112" width="996" height="252.8"/></clipPath><clipPath id="down-today"><rect x="140" y="364.8" width="996" height="63.2"/></clipPath></defs>
<use href="#shape-today" fill="#1d8a53" fill-opacity="0.15" clip-path="url(#up-today)"/>
<use href="#line-today" fill="none" stroke="#1d8a53" stroke-width="2.25" stroke-linejoin="round" stroke-linecap="round" clip-path="url(#up-today)"/>
<use href="#shape-today" fill="#c4402b" fill-opacity="0.15" clip-path="url(#down-today)"/>
<use href="#line-today" fill="none" stroke="#c4402b" stroke-width="2.25" stroke-linejoin="round" stroke-linecap="round" clip-path="url(#down-today)"/>
<circle cx="446.4" cy="120.1" r="5" fill="#1d8a53" stroke="#ffffff" stroke-width="2.5"/>
<text x="458.4" y="127.0" text-anchor="start" font-size="15" font-weight="700" fill="#1d8a53" stroke="#ffffff" stroke-width="4" stroke-linejoin="round" paint-order="stroke">+77,429,569 Alz</text>
<text x="458.4" y="144.0" text-anchor="start" font-size="13" font-weight="600" fill="#16211b" stroke="#ffffff" stroke-width="4" stroke-linejoin="round" paint-order="stroke">net worth 4,075,187,427</text>
</g>
<g transform="translate(20,510)">
<rect width="1160" height="470" rx="12" fill="#ffffff" stroke="#dbe3de"/>
<text x="24" y="32" font-size="11" font-weight="700" letter-spacing="1.4" fill="#2b5d87">CANG · NET WORTH BY DAY</text>
<text x="24" y="60" font-size="21" font-weight="700" fill="#16211b">Last 7 days</text>
<text x="24" y="84" fill="#5f6b65">each day starts again at its first reading after midnight</text>
<text x="1136" y="62" font-size="30" font-weight="700" text-anchor="end" fill="#1d8a53">+115,396,979</text>
<text x="1136" y="84" font-size="11" text-anchor="end" fill="#5f6b65">Alz, the 2 daily changes added up</text>
<rect x="282.3" y="93" width="142.3" height="335" fill="#f5f8f6"/>
<rect x="566.9" y="93" width="142.3" height="335" fill="#f5f8f6"/>
<rect x="851.4" y="93" width="142.3" height="335" fill="#f5f8f6"/>
<line x1="140" x2="1136" y1="428.0" y2="428.0" stroke="#e3e9e5" stroke-width="1" stroke-dasharray="3 4"/>
<text x="130" y="428.0" text-anchor="end" dominant-baseline="middle" font-weight="400" fill="#5f6b65">-20,000,000</text>
<line x1="140" x2="1136" y1="372.4" y2="372.4" stroke="#16211b" stroke-width="1.5"/>
<text x="130" y="372.4" text-anchor="end" dominant-baseline="middle" font-weight="700" fill="#16211b">day start</text>
<line x1="140" x2="1136" y1="316.8" y2="316.8" stroke="#e3e9e5" stroke-width="1" stroke-dasharray="3 4"/>
<text x="130" y="316.8" text-anchor="end" dominant-baseline="middle" font-weight="400" fill="#5f6b65">+20,000,000</text>
<line x1="140" x2="1136" y1="261.2" y2="261.2" stroke="#e3e9e5" stroke-width="1" stroke-dasharray="3 4"/>
<text x="130" y="261.2" text-anchor="end" dominant-baseline="middle" font-weight="400" fill="#5f6b65">+40,000,000</text>
<line x1="140" x2="1136" y1="205.6" y2="205.6" stroke="#e3e9e5" stroke-width="1" stroke-dasharray="3 4"/>
<text x="130" y="205.6" text-anchor="end" dominant-baseline="middle" font-weight="400" fill="#5f6b65">+60,000,000</text>
<line x1="140" x2="1136" y1="150.0" y2="150.0" stroke="#e3e9e5" stroke-width="1" stroke-dasharray="3 4"/>
<text x="130" y="150.0" text-anchor="end" dominant-baseline="middle" font-weight="400" fill="#5f6b65">+80,000,000</text>
<text x="150.0" y="116" font-weight="700" fill="#16211b">Fri 25 Sep</text>
<line x1="140.0" x2="140.0" y1="428" y2="433" stroke="#5f6b65" stroke-width="1"/>
<text x="140.0" y="448" font-size="11" text-anchor="middle" fill="#5f6b65">00:00</text>
<line x1="211.1" x2="211.1" y1="428" y2="433" stroke="#5f6b65" stroke-width="1"/>
<text x="211.1" y="448" font-size="11" text-anchor="middle" fill="#5f6b65">12:00</text>
<line x1="282.3" x2="282.3" y1="428" y2="433" stroke="#5f6b65" stroke-width="1"/>
<text x="292.3" y="116" font-weight="700" fill="#16211b">Sat 26 Sep</text>
<line x1="282.3" x2="282.3" y1="428" y2="433" stroke="#5f6b65" stroke-width="1"/>
<text x="282.3" y="448" font-size="11" text-anchor="middle" fill="#5f6b65">00:00</text>
<line x1="353.4" x2="353.4" y1="428" y2="433" stroke="#5f6b65" stroke-width="1"/>
<text x="353.4" y="448" font-size="11" text-anchor="middle" fill="#5f6b65">12:00</text>
<line x1="424.6" x2="424.6" y1="428" y2="433" stroke="#5f6b65" stroke-width="1"/>
<text x="434.6" y="116" font-weight="700" fill="#16211b">Sun 27 Sep</text>
<line x1="424.6" x2="424.6" y1="428" y2="433" stroke="#5f6b65" stroke-width="1"/>
<text x="424.6" y="448" font-size="11" text-anchor="middle" fill="#5f6b65">00:00</text>
<line x1="495.7" x2="495.7" y1="428" y2="433" stroke="#5f6b65" stroke-width="1"/>
<text x="495.7" y="448" font-size="11" text-anchor="middle" fill="#5f6b65">12:00</text>
<line x1="566.9" x2="566.9" y1="428" y2="433" stroke="#5f6b65" stroke-width="1"/>
<text x="576.9" y="116" font-weight="700" fill="#16211b">Mon 28 Sep</text>
<line x1="566.9" x2="566.9" y1="428" y2="433" stroke="#5f6b65" stroke-width="1"/>
<text x="566.9" y="448" font-size="11" text-anchor="middle" fill="#5f6b65">00:00</text>
<line x1="638.0" x2="638.0" y1="428" y2="433" stroke="#5f6b65" stroke-width="1"/>
<text x="638.0" y="448" font-size="11" text-anchor="middle" fill="#5f6b65">12:00</text>
<line x1="709.1" x2="709.1" y1="428" y2="433" stroke="#5f6b65" stroke-width="1"/>
<text x="719.1" y="116" font-weight="700" fill="#16211b">Tue 29 Sep</text>
<line x1="709.1" x2="709.1" y1="428" y2="433" stroke="#5f6b65" stroke-width="1"/>
<text x="709.1" y="448" font-size="11" text-anchor="middle" fill="#5f6b65">00:00</text>
<line x1="780.3" x2="780.3" y1="428" y2="433" stroke="#5f6b65" stroke-width="1"/>
<text x="780.3" y="448" font-size="11" text-anchor="middle" fill="#5f6b65">12:00</text>
<line x1="851.4" x2="851.4" y1="428" y2="433" stroke="#5f6b65" stroke-width="1"/>
<text x="861.4" y="116" font-weight="700" fill="#16211b">Wed 30 Sep</text>
<line x1="851.4" x2="851.4" y1="428" y2="433" stroke="#5f6b65" stroke-width="1"/>
<text x="851.4" y="448" font-size="11" text-anchor="middle" fill="#5f6b65">00:00</text>
<line x1="922.6" x2="922.6" y1="428" y2="433" stroke="#5f6b65" stroke-width="1"/>
<text x="922.6" y="448" font-size="11" text-anchor="middle" fill="#5f6b65">12:00</text>
<line x1="993.7" x2="993.7" y1="428" y2="433" stroke="#5f6b65" stroke-width="1"/>
<text x="861.4" y="134" font-weight="700" fill="#1d8a53">+37,967,410</text>
<defs><path id="shape-day5" d="M981.3 372.4L981.3 372.4L982.9 372.5L984.4 377.7L986.0 368.4L987.5 368.5L989.1 326.9L990.7 266.9L990.7 372.4Z"/><path id="line-day5" d="M981.3 372.4L982.9 372.5L984.4 377.7L986.0 368.4L987.5 368.5L989.1 326.9L990.7 266.9"/><clipPath id="up-day5"><rect x="140" y="150" width="996" height="222.4"/></clipPath><clipPath id="down-day5"><rect x="140" y="372.4" width="996" height="55.6"/></clipPath></defs>
<use href="#shape-day5" fill="#1d8a53" fill-opacity="0.15" clip-path="url(#up-day5)"/>
<use href="#line-day5" fill="none" stroke="#1d8a53" stroke-width="2.25" stroke-linejoin="round" stroke-linecap="round" clip-path="url(#up-day5)"/>
<use href="#shape-day5" fill="#c4402b" fill-opacity="0.15" clip-path="url(#down-day5)"/>
<use href="#line-day5" fill="none" stroke="#c4402b" stroke-width="2.25" stroke-linejoin="round" stroke-linecap="round" clip-path="url(#down-day5)"/>
<circle cx="990.7" cy="266.9" r="5" fill="#1d8a53" stroke="#ffffff" stroke-width="2.5"/>
<text x="1003.7" y="116" font-weight="700" fill="#2b5d87">Today 01 Oct</text>
<line x1="993.7" x2="993.7" y1="428" y2="433" stroke="#5f6b65" stroke-width="1"/>
<text x="993.7" y="448" font-size="11" text-anchor="middle" fill="#5f6b65">00:00</text>
<line x1="1064.9" x2="1064.9" y1="428" y2="433" stroke="#5f6b65" stroke-width="1"/>
<text x="1064.9" y="448" font-size="11" text-anchor="middle" fill="#5f6b65">12:00</text>
<line x1="1136.0" x2="1136.0" y1="428" y2="433" stroke="#5f6b65" stroke-width="1"/>
<text x="1003.7" y="134" font-weight="700" fill="#1d8a53">+77,429,569</text>
<defs><path id="shape-day6" d="M999.6 372.4L999.6 372.4L1002.7 376.6L1004.8 367.6L1006.3 357.9L1007.9 319.9L1012.7 336.9L1015.3 334.8L1016.9 333.4L1019.4 336.6L1021.0 324.8L1022.5 298.4L1024.1 290.3L1025.6 272.1L1027.2 272.1L1028.7 272.2L1030.3 261.8L1031.8 245.3L1033.4 245.4L1034.9 239.0L1036.5 233.3L1037.5 157.1L1037.5 372.4Z"/><path id="line-day6" d="M999.6 372.4L1002.7 376.6L1004.8 367.6L1006.3 357.9L1007.9 319.9L1012.7 336.9L1015.3 334.8L1016.9 333.4L1019.4 336.6L1021.0 324.8L1022.5 298.4L1024.1 290.3L1025.6 272.1L1027.2 272.1L1028.7 272.2L1030.3 261.8L1031.8 245.3L1033.4 245.4L1034.9 239.0L1036.5 233.3L1037.5 157.1"/><clipPath id="up-day6"><rect x="140" y="150" width="996" height="222.4"/></clipPath><clipPath id="down-day6"><rect x="140" y="372.4" width="996" height="55.6"/></clipPath></defs>
<use href="#shape-day6" fill="#1d8a53" fill-opacity="0.15" clip-path="url(#up-day6)"/>
<use href="#line-day6" fill="none" stroke="#1d8a53" stroke-width="2.25" stroke-linejoin="round" stroke-linecap="round" clip-path="url(#up-day6)"/>
<use href="#shape-day6" fill="#c4402b" fill-opacity="0.15" clip-path="url(#down-day6)"/>
<use href="#line-day6" fill="none" stroke="#c4402b" stroke-width="2.25" stroke-linejoin="round" stroke-linecap="round" clip-path="url(#down-day6)"/>
<circle cx="1037.5" cy="157.1" r="5" fill="#1d8a53" stroke="#ffffff" stroke-width="2.5"/>
</g>
</svg>
