<svg xmlns="http://www.w3.org/2000/svg" width="1200" height="1980" viewBox="0 0 1200 1980" font-family="Segoe UI, Helvetica Neue, Arial, sans-serif" font-size="13" style="font-variant-numeric: tabular-nums">
<rect width="1200" height="1980" fill="#eef2ef"/>
<g transform="translate(20,20)">
<rect width="1160" height="470" rx="12" fill="#ffffff" stroke="#dbe3de"/>
<text x="24" y="32" font-size="18" font-weight="700" letter-spacing="1.4" fill="#6741d9">CANG · NET WORTH TODAY</text>
<text x="24" y="60" font-size="21" font-weight="700" fill="#16211b">Since midnight</text>
<text x="24" y="84" fill="#5f6b65">Sat 03 Oct 2026 · started at <tspan font-weight="700" fill="#16211b">3,762,162,133</tspan> at 00:55 · now <tspan font-weight="700" fill="#16211b">3,920,598,895</tspan> at 22:59 Central</text>
<text x="1136" y="62" font-size="30" font-weight="700" text-anchor="end" fill="#1d8a53">+158,436,762</text>
<text x="1136" y="84" font-size="11" text-anchor="end" fill="#5f6b65">Alz since 00:55</text>
<line x1="140" x2="1136" y1="428.0" y2="428.0" stroke="#e3e9e5" stroke-width="1" stroke-dasharray="3 4"/>
<text x="130" y="428.0" text-anchor="end" dominant-baseline="middle" font-weight="400" fill="#5f6b65">-1,000,000,000</text>
<line x1="140" x2="1136" y1="364.8" y2="364.8" stroke="#16211b" stroke-width="1.5"/>
<text x="130" y="364.8" text-anchor="end" dominant-baseline="middle" font-weight="700" fill="#16211b">3,762,162,133</text>
<line x1="140" x2="1136" y1="301.6" y2="301.6" stroke="#e3e9e5" stroke-width="1" stroke-dasharray="3 4"/>
<text x="130" y="301.6" text-anchor="end" dominant-baseline="middle" font-weight="400" fill="#5f6b65">+1,000,000,000</text>
<line x1="140" x2="1136" y1="238.4" y2="238.4" stroke="#e3e9e5" stroke-width="1" stroke-dasharray="3 4"/>
<text x="130" y="238.4" text-anchor="end" dominant-baseline="middle" font-weight="400" fill="#5f6b65">+2,000,000,000</text>
<line x1="140" x2="1136" y1="175.2" y2="175.2" stroke="#e3e9e5" stroke-width="1" stroke-dasharray="3 4"/>
<text x="130" y="175.2" text-anchor="end" dominant-baseline="middle" font-weight="400" fill="#5f6b65">+3,000,000,000</text>
<line x1="140" x2="1136" y1="112.0" y2="112.0" stroke="#e3e9e5" stroke-width="1" stroke-dasharray="3 4"/>
<text x="130" y="112.0" text-anchor="end" dominant-baseline="middle" font-weight="400" fill="#5f6b65">+4,000,000,000</text>
<line x1="140.0" x2="140.0" y1="428" y2="433" stroke="#5f6b65" stroke-width="1"/>
<text x="140.0" y="448" font-size="11" text-anchor="middle" fill="#5f6b65">00:00</text>
<line x1="223.0" x2="223.0" y1="428" y2="433" stroke="#5f6b65" stroke-width="1"/>
<text x="223.0" y="448" font-size="11" text-anchor="middle" fill="#5f6b65">02:00</text>
<line x1="306.0" x2="306.0" y1="428" y2="433" stroke="#5f6b65" stroke-width="1"/>
<text x="306.0" y="448" font-size="11" text-anchor="middle" fill="#5f6b65">04:00</text>
<line x1="389.0" x2="389.0" y1="112" y2="428" stroke="#e3e9e5" stroke-width="1"/>
<line x1="389.0" x2="389.0" y1="428" y2="433" stroke="#5f6b65" stroke-width="1"/>
<text x="389.0" y="448" font-size="11" text-anchor="middle" fill="#5f6b65">06:00</text>
<line x1="472.0" x2="472.0" y1="428" y2="433" stroke="#5f6b65" stroke-width="1"/>
<text x="472.0" y="448" font-size="11" text-anchor="middle" fill="#5f6b65">08:00</text>
<line x1="555.0" x2="555.0" y1="428" y2="433" stroke="#5f6b65" stroke-width="1"/>
<text x="555.0" y="448" font-size="11" text-anchor="middle" fill="#5f6b65">10:00</text>
<line x1="638.0" x2="638.0" y1="112" y2="428" stroke="#e3e9e5" stroke-width="1"/>
<line x1="638.0" x2="638.0" y1="428" y2="433" stroke="#5f6b65" stroke-width="1"/>
<text x="638.0" y="448" font-size="11" text-anchor="middle" fill="#5f6b65">12:00</text>
<line x1="721.0" x2="721.0" y1="428" y2="433" stroke="#5f6b65" stroke-width="1"/>
<text x="721.0" y="448" font-size="11" text-anchor="middle" fill="#5f6b65">14:00</text>
<line x1="804.0" x2="804.0" y1="428" y2="433" stroke="#5f6b65" stroke-width="1"/>
<text x="804.0" y="448" font-size="11" text-anchor="middle" fill="#5f6b65">16:00</text>
<line x1="887.0" x2="887.0" y1="112" y2="428" stroke="#e3e9e5" stroke-width="1"/>
<line x1="887.0" x2="887.0" y1="428" y2="433" stroke="#5f6b65" stroke-width="1"/>
<text x="887.0" y="448" font-size="11" text-anchor="middle" fill="#5f6b65">18:00</text>
<line x1="970.0" x2="970.0" y1="428" y2="433" stroke="#5f6b65" stroke-width="1"/>
<text x="970.0" y="448" font-size="11" text-anchor="middle" fill="#5f6b65">20:00</text>
<line x1="1053.0" x2="1053.0" y1="428" y2="433" stroke="#5f6b65" stroke-width="1"/>
<text x="1053.0" y="448" font-size="11" text-anchor="middle" fill="#5f6b65">22:00</text>
<line x1="1136.0" x2="1136.0" y1="428" y2="433" stroke="#5f6b65" stroke-width="1"/>
<defs><path id="shape-today" d="M178.5 364.8L178.5 364.8L182.1 364.7L185.3 364.7L188.9 364.6L192.5 364.6L195.7 364.6L199.3 364.6L203.0 364.6L206.1 364.6L209.8 364.7L213.4 366.2L216.6 366.2L220.3 366.2L223.9 366.2L227.0 366.2L230.7 366.0L234.3 366.0L237.5 366.0L241.1 366.0L262.9 370.7L266.5 370.8L269.6 370.8L273.3 370.9L276.9 371.5L280.0 372.6L283.7 372.8L287.3 372.8L290.4 372.8L294.1 373.2L297.7 373.2L300.8 373.4L304.5 373.4L308.1 373.5L311.2 373.3L314.9 373.3L318.5 373.3L321.7 373.3L325.3 373.0L328.9 373.0L332.1 373.0L335.7 372.8L339.3 372.8L342.5 372.8L346.1 372.2L349.7 372.2L352.9 372.1L356.6 371.9L360.2 371.8L363.3 371.8L367.0 371.8L370.6 371.3L373.7 371.3L377.4 371.2L381.0 371.2L384.2 371.2L387.8 371.2L391.4 371.2L394.6 370.5L398.2 370.5L401.8 370.5L405.0 370.5L408.6 370.5L412.3 370.5L415.4 370.5L419.1 370.1L422.7 370.0L425.9 370.0L429.5 370.0L433.1 369.9L436.3 369.8L439.9 369.8L443.5 369.8L446.7 369.8L450.4 369.8L454.0 367.6L457.1 367.6L460.8 367.5L464.4 367.5L467.5 367.4L471.2 367.3L474.8 367.3L477.9 367.3L481.6 367.3L485.2 367.3L502.2 360.4L505.8 360.2L508.9 360.2L512.6 356.1L672.7 346.4L676.4 346.4L679.5 346.1L683.2 346.1L686.8 346.1L689.9 344.8L693.6 344.8L697.2 345.2L700.3 345.3L704.0 345.3L707.6 345.0L710.8 345.0L714.4 343.9L718.0 343.9L721.2 343.9L724.8 343.9L728.4 343.9L731.6 343.7L735.2 343.8L738.9 343.8L755.5 342.9L765.9 342.7L769.5 342.7L773.2 341.9L776.4 341.9L790.8 341.5L794.4 341.5L797.6 341.5L801.2 341.5L804.9 341.5L808.0 341.5L811.5 341.5L815.1 341.5L818.5 341.5L822.2 341.5L825.8 341.1L828.9 341.2L832.6 341.2L836.2 341.2L839.4 341.2L843.0 341.2L846.6 341.3L849.8 341.4L853.4 341.5L857.1 341.6L860.2 341.4L863.9 341.4L867.5 341.5L870.7 341.5L874.3 341.5L877.9 341.5L881.1 341.5L884.7 341.5L888.4 341.5L891.5 341.5L895.2 341.5L898.8 341.5L902.0 341.5L905.6 341.5L909.2 341.5L912.4 341.5L916.1 341.5L919.7 341.5L922.9 341.5L926.5 341.5L930.1 341.4L933.3 341.4L937.0 341.4L940.6 341.4L943.8 341.4L947.4 341.4L951.0 341.4L954.2 341.4L957.8 341.4L961.5 341.4L964.6 341.4L968.3 341.4L971.9 341.4L975.1 341.4L978.7 341.4L982.4 341.4L985.5 341.4L989.2 341.3L1006.0 134.1L1009.4 134.1L1055.8 355.1L1059.4 355.2L1062.6 355.2L1066.2 355.2L1069.8 355.2L1073.0 355.2L1076.6 355.2L1080.2 355.2L1083.4 355.2L1087.0 355.1L1090.6 355.1L1093.8 354.8L1093.8 364.8Z"/><path id="line-today" d="M178.5 364.8L182.1 364.7L185.3 364.7L188.9 364.6L192.5 364.6L195.7 364.6L199.3 364.6L203.0 364.6L206.1 364.6L209.8 364.7L213.4 366.2L216.6 366.2L220.3 366.2L223.9 366.2L227.0 366.2L230.7 366.0L234.3 366.0L237.5 366.0L241.1 366.0L262.9 370.7L266.5 370.8L269.6 370.8L273.3 370.9L276.9 371.5L280.0 372.6L283.7 372.8L287.3 372.8L290.4 372.8L294.1 373.2L297.7 373.2L300.8 373.4L304.5 373.4L308.1 373.5L311.2 373.3L314.9 373.3L318.5 373.3L321.7 373.3L325.3 373.0L328.9 373.0L332.1 373.0L335.7 372.8L339.3 372.8L342.5 372.8L346.1 372.2L349.7 372.2L352.9 372.1L356.6 371.9L360.2 371.8L363.3 371.8L367.0 371.8L370.6 371.3L373.7 371.3L377.4 371.2L381.0 371.2L384.2 371.2L387.8 371.2L391.4 371.2L394.6 370.5L398.2 370.5L401.8 370.5L405.0 370.5L408.6 370.5L412.3 370.5L415.4 370.5L419.1 370.1L422.7 370.0L425.9 370.0L429.5 370.0L433.1 369.9L436.3 369.8L439.9 369.8L443.5 369.8L446.7 369.8L450.4 369.8L454.0 367.6L457.1 367.6L460.8 367.5L464.4 367.5L467.5 367.4L471.2 367.3L474.8 367.3L477.9 367.3L481.6 367.3L485.2 367.3L502.2 360.4L505.8 360.2L508.9 360.2L512.6 356.1L672.7 346.4L676.4 346.4L679.5 346.1L683.2 346.1L686.8 346.1L689.9 344.8L693.6 344.8L697.2 345.2L700.3 345.3L704.0 345.3L707.6 345.0L710.8 345.0L714.4 343.9L718.0 343.9L721.2 343.9L724.8 343.9L728.4 343.9L731.6 343.7L735.2 343.8L738.9 343.8L755.5 342.9L765.9 342.7L769.5 342.7L773.2 341.9L776.4 341.9L790.8 341.5L794.4 341.5L797.6 341.5L801.2 341.5L804.9 341.5L808.0 341.5L811.5 341.5L815.1 341.5L818.5 341.5L822.2 341.5L825.8 341.1L828.9 341.2L832.6 341.2L836.2 341.2L839.4 341.2L843.0 341.2L846.6 341.3L849.8 341.4L853.4 341.5L857.1 341.6L860.2 341.4L863.9 341.4L867.5 341.5L870.7 341.5L874.3 341.5L877.9 341.5L881.1 341.5L884.7 341.5L888.4 341.5L891.5 341.5L895.2 341.5L898.8 341.5L902.0 341.5L905.6 341.5L909.2 341.5L912.4 341.5L916.1 341.5L919.7 341.5L922.9 341.5L926.5 341.5L930.1 341.4L933.3 341.4L937.0 341.4L940.6 341.4L943.8 341.4L947.4 341.4L951.0 341.4L954.2 341.4L957.8 341.4L961.5 341.4L964.6 341.4L968.3 341.4L971.9 341.4L975.1 341.4L978.7 341.4L982.4 341.4L985.5 341.4L989.2 341.3L1006.0 134.1L1009.4 134.1L1055.8 355.1L1059.4 355.2L1062.6 355.2L1066.2 355.2L1069.8 355.2L1073.0 355.2L1076.6 355.2L1080.2 355.2L1083.4 355.2L1087.0 355.1L1090.6 355.1L1093.8 354.8"/><clipPath id="up-today"><rect x="140" y="112" width="996" height="252.8"/></clipPath><clipPath id="down-today"><rect x="140" y="364.8" width="996" height="63.2"/></clipPath></defs>
<use href="#shape-today" fill="#1d8a53" fill-opacity="0.15" clip-path="url(#up-today)"/>
<use href="#line-today" fill="none" stroke="#1d8a53" stroke-width="2.25" stroke-linejoin="round" stroke-linecap="round" clip-path="url(#up-today)"/>
<use href="#shape-today" fill="#c4402b" fill-opacity="0.15" clip-path="url(#down-today)"/>
<use href="#line-today" fill="none" stroke="#c4402b" stroke-width="2.25" stroke-linejoin="round" stroke-linecap="round" clip-path="url(#down-today)"/>
<circle cx="1093.8" cy="354.8" r="5" fill="#1d8a53" stroke="#ffffff" stroke-width="2.5"/>
<text x="1081.8" y="325.8" text-anchor="end" font-size="15" font-weight="700" fill="#1d8a53" stroke="#ffffff" stroke-width="4" stroke-linejoin="round" paint-order="stroke">+158,436,762 Alz</text>
<text x="1081.8" y="342.8" text-anchor="end" font-size="13" font-weight="600" fill="#16211b" stroke="#ffffff" stroke-width="4" stroke-linejoin="round" paint-order="stroke">net worth 3,920,598,895</text>
</g>
<g transform="translate(20,510)">
<rect width="1160" height="470" rx="12" fill="#ffffff" stroke="#dbe3de"/>
<text x="24" y="32" font-size="18" font-weight="700" letter-spacing="1.4" fill="#6741d9">CANG · NET WORTH BY DAY</text>
<text x="24" y="60" font-size="21" font-weight="700" fill="#16211b">Last 7 days</text>
<text x="24" y="84" fill="#5f6b65">each day starts again at its first reading after midnight</text>
<text x="1136" y="62" font-size="30" font-weight="700" text-anchor="end" fill="#1d8a53">+923,535,721</text>
<text x="1136" y="84" font-size="11" text-anchor="end" fill="#5f6b65">Alz, the 4 daily changes added up</text>
<rect x="282.3" y="93" width="142.3" height="335" fill="#f5f8f6"/>
<rect x="566.9" y="93" width="142.3" height="335" fill="#f5f8f6"/>
<rect x="851.4" y="93" width="142.3" height="335" fill="#f5f8f6"/>
<line x1="140" x2="1136" y1="428.0" y2="428.0" stroke="#e3e9e5" stroke-width="1" stroke-dasharray="3 4"/>
<text x="130" y="428.0" text-anchor="end" dominant-baseline="middle" font-weight="400" fill="#5f6b65">-4,000,000,000</text>
<line x1="140" x2="1136" y1="358.5" y2="358.5" stroke="#e3e9e5" stroke-width="1" stroke-dasharray="3 4"/>
<text x="130" y="358.5" text-anchor="end" dominant-baseline="middle" font-weight="400" fill="#5f6b65">-2,000,000,000</text>
<line x1="140" x2="1136" y1="289.0" y2="289.0" stroke="#16211b" stroke-width="1.5"/>
<text x="130" y="289.0" text-anchor="end" dominant-baseline="middle" font-weight="700" fill="#16211b">day start</text>
<line x1="140" x2="1136" y1="219.5" y2="219.5" stroke="#e3e9e5" stroke-width="1" stroke-dasharray="3 4"/>
<text x="130" y="219.5" text-anchor="end" dominant-baseline="middle" font-weight="400" fill="#5f6b65">+2,000,000,000</text>
<line x1="140" x2="1136" y1="150.0" y2="150.0" stroke="#e3e9e5" stroke-width="1" stroke-dasharray="3 4"/>
<text x="130" y="150.0" text-anchor="end" dominant-baseline="middle" font-weight="400" fill="#5f6b65">+4,000,000,000</text>
<text x="150.0" y="116" font-weight="700" fill="#16211b">Sun 27 Sep</text>
<line x1="140.0" x2="140.0" y1="428" y2="433" stroke="#5f6b65" stroke-width="1"/>
<text x="140.0" y="448" font-size="11" text-anchor="middle" fill="#5f6b65">00:00</text>
<line x1="211.1" x2="211.1" y1="428" y2="433" stroke="#5f6b65" stroke-width="1"/>
<text x="211.1" y="448" font-size="11" text-anchor="middle" fill="#5f6b65">12:00</text>
<line x1="282.3" x2="282.3" y1="428" y2="433" stroke="#5f6b65" stroke-width="1"/>
<text x="292.3" y="116" font-weight="700" fill="#16211b">Mon 28 Sep</text>
<line x1="282.3" x2="282.3" y1="428" y2="433" stroke="#5f6b65" stroke-width="1"/>
<text x="282.3" y="448" font-size="11" text-anchor="middle" fill="#5f6b65">00:00</text>
<line x1="353.4" x2="353.4" y1="428" y2="433" stroke="#5f6b65" stroke-width="1"/>
<text x="353.4" y="448" font-size="11" text-anchor="middle" fill="#5f6b65">12:00</text>
<line x1="424.6" x2="424.6" y1="428" y2="433" stroke="#5f6b65" stroke-width="1"/>
<text x="434.6" y="116" font-weight="700" fill="#16211b">Tue 29 Sep</text>
<line x1="424.6" x2="424.6" y1="428" y2="433" stroke="#5f6b65" stroke-width="1"/>
<text x="424.6" y="448" font-size="11" text-anchor="middle" fill="#5f6b65">00:00</text>
<line x1="495.7" x2="495.7" y1="428" y2="433" stroke="#5f6b65" stroke-width="1"/>
<text x="495.7" y="448" font-size="11" text-anchor="middle" fill="#5f6b65">12:00</text>
<line x1="566.9" x2="566.9" y1="428" y2="433" stroke="#5f6b65" stroke-width="1"/>
<text x="576.9" y="116" font-weight="700" fill="#16211b">Wed 30 Sep</text>
<line x1="566.9" x2="566.9" y1="428" y2="433" stroke="#5f6b65" stroke-width="1"/>
<text x="566.9" y="448" font-size="11" text-anchor="middle" fill="#5f6b65">00:00</text>
<line x1="638.0" x2="638.0" y1="428" y2="433" stroke="#5f6b65" stroke-width="1"/>
<text x="638.0" y="448" font-size="11" text-anchor="middle" fill="#5f6b65">12:00</text>
<line x1="709.1" x2="709.1" y1="428" y2="433" stroke="#5f6b65" stroke-width="1"/>
<text x="576.9" y="134" font-weight="700" fill="#1d8a53">+37,967,410</text>
<defs><path id="shape-day3" d="M696.7 289.0L696.7 289.0L698.3 289.0L699.9 289.1L701.4 289.0L703.0 289.0L704.5 288.4L706.1 287.7L706.1 289.0Z"/><path id="line-day3" d="M696.7 289.0L698.3 289.0L699.9 289.1L701.4 289.0L703.0 289.0L704.5 288.4L706.1 287.7"/><clipPath id="up-day3"><rect x="140" y="150" width="996" height="139.0"/></clipPath><clipPath id="down-day3"><rect x="140" y="289.0" width="996" height="139.0"/></clipPath></defs>
<use href="#shape-day3" fill="#1d8a53" fill-opacity="0.15" clip-path="url(#up-day3)"/>
<use href="#line-day3" fill="none" stroke="#1d8a53" stroke-width="2.25" stroke-linejoin="round" stroke-linecap="round" clip-path="url(#up-day3)"/>
<use href="#shape-day3" fill="#c4402b" fill-opacity="0.15" clip-path="url(#down-day3)"/>
<use href="#line-day3" fill="none" stroke="#c4402b" stroke-width="2.25" stroke-linejoin="round" stroke-linecap="round" clip-path="url(#down-day3)"/>
<circle cx="706.1" cy="287.7" r="5" fill="#1d8a53" stroke="#ffffff" stroke-width="2.5"/>
<text x="719.1" y="116" font-weight="700" fill="#16211b">Thu 01 Oct</text>
<line x1="709.1" x2="709.1" y1="428" y2="433" stroke="#5f6b65" stroke-width="1"/>
<text x="709.1" y="448" font-size="11" text-anchor="middle" fill="#5f6b65">00:00</text>
<line x1="780.3" x2="780.3" y1="428" y2="433" stroke="#5f6b65" stroke-width="1"/>
<text x="780.3" y="448" font-size="11" text-anchor="middle" fill="#5f6b65">12:00</text>
<line x1="851.4" x2="851.4" y1="428" y2="433" stroke="#5f6b65" stroke-width="1"/>
<text x="719.1" y="134" font-weight="700" fill="#1d8a53">+536,837,266</text>
<defs><path id="shape-day4" d="M715.0 289.0L715.0 289.0L718.1 289.1L720.2 289.0L721.7 288.9L723.3 288.4L728.2 288.6L730.7 288.6L732.3 288.6L734.9 288.6L736.4 288.5L738.0 288.1L739.5 288.0L741.0 287.8L742.6 287.8L744.1 287.8L745.7 287.7L747.2 287.5L748.8 287.5L750.3 287.4L751.9 287.3L753.4 286.4L755.0 286.2L756.5 285.9L758.1 285.8L759.6 285.6L761.2 285.0L762.7 285.0L764.3 284.3L767.4 283.4L770.5 282.5L772.0 282.4L773.6 282.0L775.1 281.9L776.7 281.9L778.2 281.6L779.8 281.6L781.3 280.9L782.8 280.9L784.4 279.9L785.9 278.8L787.5 278.8L789.0 278.5L790.6 277.4L792.2 277.1L793.7 277.0L804.8 273.3L807.6 272.7L809.1 272.7L810.7 272.7L813.3 271.9L814.9 271.9L821.1 271.3L822.6 271.1L824.2 270.4L825.7 269.9L827.3 269.6L828.8 269.7L845.4 270.3L845.4 289.0Z"/><path id="line-day4" d="M715.0 289.0L718.1 289.1L720.2 289.0L721.7 288.9L723.3 288.4L728.2 288.6L730.7 288.6L732.3 288.6L734.9 288.6L736.4 288.5L738.0 288.1L739.5 288.0L741.0 287.8L742.6 287.8L744.1 287.8L745.7 287.7L747.2 287.5L748.8 287.5L750.3 287.4L751.9 287.3L753.4 286.4L755.0 286.2L756.5 285.9L758.1 285.8L759.6 285.6L761.2 285.0L762.7 285.0L764.3 284.3L767.4 283.4L770.5 282.5L772.0 282.4L773.6 282.0L775.1 281.9L776.7 281.9L778.2 281.6L779.8 281.6L781.3 280.9L782.8 280.9L784.4 279.9L785.9 278.8L787.5 278.8L789.0 278.5L790.6 277.4L792.2 277.1L793.7 277.0L804.8 273.3L807.6 272.7L809.1 272.7L810.7 272.7L813.3 271.9L814.9 271.9L821.1 271.3L822.6 271.1L824.2 270.4L825.7 269.9L827.3 269.6L828.8 269.7L845.4 270.3"/><clipPath id="up-day4"><rect x="140" y="150" width="996" height="139.0"/></clipPath><clipPath id="down-day4"><rect x="140" y="289.0" width="996" height="139.0"/></clipPath></defs>
<use href="#shape-day4" fill="#1d8a53" fill-opacity="0.15" clip-path="url(#up-day4)"/>
<use href="#line-day4" fill="none" stroke="#1d8a53" stroke-width="2.25" stroke-linejoin="round" stroke-linecap="round" clip-path="url(#up-day4)"/>
<use href="#shape-day4" fill="#c4402b" fill-opacity="0.15" clip-path="url(#down-day4)"/>
<use href="#line-day4" fill="none" stroke="#c4402b" stroke-width="2.25" stroke-linejoin="round" stroke-linecap="round" clip-path="url(#down-day4)"/>
<circle cx="845.4" cy="270.3" r="5" fill="#1d8a53" stroke="#ffffff" stroke-width="2.5"/>
<text x="861.4" y="116" font-weight="700" fill="#16211b">Fri 02 Oct</text>
<line x1="851.4" x2="851.4" y1="428" y2="433" stroke="#5f6b65" stroke-width="1"/>
<text x="851.4" y="448" font-size="11" text-anchor="middle" fill="#5f6b65">00:00</text>
<line x1="922.6" x2="922.6" y1="428" y2="433" stroke="#5f6b65" stroke-width="1"/>
<text x="922.6" y="448" font-size="11" text-anchor="middle" fill="#5f6b65">12:00</text>
<line x1="993.7" x2="993.7" y1="428" y2="433" stroke="#5f6b65" stroke-width="1"/>
<text x="861.4" y="134" font-weight="700" fill="#1d8a53">+190,294,283</text>
<defs><path id="shape-day5" d="M855.8 289.0L855.8 289.0L857.3 289.2L858.8 289.1L860.3 289.1L861.8 289.1L863.2 288.6L864.7 288.2L868.1 312.4L869.6 312.4L871.1 312.8L873.2 314.9L874.6 315.4L878.5 289.0L880.0 289.0L881.5 289.0L883.0 289.0L884.4 289.0L886.4 288.8L887.9 288.4L889.4 288.3L890.9 288.4L892.3 288.2L893.8 286.5L895.3 286.7L896.8 286.2L898.3 286.1L899.8 285.9L901.3 285.4L908.5 286.7L916.0 294.9L917.5 294.4L919.0 294.2L921.4 294.1L926.5 295.2L928.0 298.2L929.5 298.2L931.0 297.2L932.5 296.2L934.0 295.4L935.5 295.4L937.0 295.4L947.7 289.2L949.2 288.1L950.7 288.1L952.2 287.4L956.8 284.8L964.5 283.2L967.0 283.2L969.0 282.4L970.4 281.8L971.9 281.8L973.4 281.8L974.9 283.1L976.4 283.0L977.9 283.0L979.4 283.0L980.9 283.0L982.4 283.0L983.9 282.6L985.4 282.4L986.9 282.4L986.9 289.0Z"/><path id="line-day5" d="M855.8 289.0L857.3 289.2L858.8 289.1L860.3 289.1L861.8 289.1L863.2 288.6L864.7 288.2L868.1 312.4L869.6 312.4L871.1 312.8L873.2 314.9L874.6 315.4L878.5 289.0L880.0 289.0L881.5 289.0L883.0 289.0L884.4 289.0L886.4 288.8L887.9 288.4L889.4 288.3L890.9 288.4L892.3 288.2L893.8 286.5L895.3 286.7L896.8 286.2L898.3 286.1L899.8 285.9L901.3 285.4L908.5 286.7L916.0 294.9L917.5 294.4L919.0 294.2L921.4 294.1L926.5 295.2L928.0 298.2L929.5 298.2L931.0 297.2L932.5 296.2L934.0 295.4L935.5 295.4L937.0 295.4L947.7 289.2L949.2 288.1L950.7 288.1L952.2 287.4L956.8 284.8L964.5 283.2L967.0 283.2L969.0 282.4L970.4 281.8L971.9 281.8L973.4 281.8L974.9 283.1L976.4 283.0L977.9 283.0L979.4 283.0L980.9 283.0L982.4 283.0L983.9 282.6L985.4 282.4L986.9 282.4"/><clipPath id="up-day5"><rect x="140" y="150" width="996" height="139.0"/></clipPath><clipPath id="down-day5"><rect x="140" y="289.0" width="996" height="139.0"/></clipPath></defs>
<use href="#shape-day5" fill="#1d8a53" fill-opacity="0.15" clip-path="url(#up-day5)"/>
<use href="#line-day5" fill="none" stroke="#1d8a53" stroke-width="2.25" stroke-linejoin="round" stroke-linecap="round" clip-path="url(#up-day5)"/>
<use href="#shape-day5" fill="#c4402b" fill-opacity="0.15" clip-path="url(#down-day5)"/>
<use href="#line-day5" fill="none" stroke="#c4402b" stroke-width="2.25" stroke-linejoin="round" stroke-linecap="round" clip-path="url(#down-day5)"/>
<circle cx="986.9" cy="282.4" r="5" fill="#1d8a53" stroke="#ffffff" stroke-width="2.5"/>
<text x="1003.7" y="116" font-weight="700" fill="#2b5d87">Today 03 Oct</text>
<line x1="993.7" x2="993.7" y1="428" y2="433" stroke="#5f6b65" stroke-width="1"/>
<text x="993.7" y="448" font-size="11" text-anchor="middle" fill="#5f6b65">00:00</text>
<line x1="1064.9" x2="1064.9" y1="428" y2="433" stroke="#5f6b65" stroke-width="1"/>
<text x="1064.9" y="448" font-size="11" text-anchor="middle" fill="#5f6b65">12:00</text>
<line x1="1136.0" x2="1136.0" y1="428" y2="433" stroke="#5f6b65" stroke-width="1"/>
<text x="1003.7" y="134" font-weight="700" fill="#1d8a53">+158,436,762</text>
<defs><path id="shape-day6" d="M999.2 289.0L999.2 289.0L1000.7 288.9L1002.2 288.9L1003.7 288.9L1005.2 289.8L1006.7 289.7L1008.2 289.7L1012.2 292.3L1013.7 293.3L1015.2 293.4L1016.7 293.7L1018.2 293.7L1019.7 293.7L1021.2 293.5L1022.6 293.4L1024.1 293.0L1025.6 292.8L1027.1 292.6L1028.6 292.5L1030.1 292.1L1031.6 292.1L1033.1 292.1L1034.6 291.9L1036.0 291.7L1037.5 291.7L1039.0 290.6L1040.5 290.4L1042.0 290.4L1045.5 286.6L1046.9 284.2L1070.8 278.7L1072.3 278.0L1073.8 278.3L1075.3 278.1L1076.7 277.5L1078.2 277.4L1081.6 276.9L1084.2 276.4L1087.2 276.2L1088.7 276.2L1090.2 276.2L1091.7 275.9L1093.2 276.0L1094.7 276.1L1096.2 276.2L1097.6 276.2L1099.1 276.2L1100.6 276.2L1102.1 276.2L1103.6 276.2L1105.1 276.2L1106.6 276.2L1108.1 276.2L1109.6 276.2L1111.1 276.1L1112.6 276.1L1114.1 276.1L1117.4 162.1L1125.1 283.7L1126.5 283.7L1128.0 283.7L1129.5 283.7L1130.0 283.5L1130.0 289.0Z"/><path id="line-day6" d="M999.2 289.0L1000.7 288.9L1002.2 288.9L1003.7 288.9L1005.2 289.8L1006.7 289.7L1008.2 289.7L1012.2 292.3L1013.7 293.3L1015.2 293.4L1016.7 293.7L1018.2 293.7L1019.7 293.7L1021.2 293.5L1022.6 293.4L1024.1 293.0L1025.6 292.8L1027.1 292.6L1028.6 292.5L1030.1 292.1L1031.6 292.1L1033.1 292.1L1034.6 291.9L1036.0 291.7L1037.5 291.7L1039.0 290.6L1040.5 290.4L1042.0 290.4L1045.5 286.6L1046.9 284.2L1070.8 278.7L1072.3 278.0L1073.8 278.3L1075.3 278.1L1076.7 277.5L1078.2 277.4L1081.6 276.9L1084.2 276.4L1087.2 276.2L1088.7 276.2L1090.2 276.2L1091.7 275.9L1093.2 276.0L1094.7 276.1L1096.2 276.2L1097.6 276.2L1099.1 276.2L1100.6 276.2L1102.1 276.2L1103.6 276.2L1105.1 276.2L1106.6 276.2L1108.1 276.2L1109.6 276.2L1111.1 276.1L1112.6 276.1L1114.1 276.1L1117.4 162.1L1125.1 283.7L1126.5 283.7L1128.0 283.7L1129.5 283.7L1130.0 283.5"/><clipPath id="up-day6"><rect x="140" y="150" width="996" height="139.0"/></clipPath><clipPath id="down-day6"><rect x="140" y="289.0" width="996" height="139.0"/></clipPath></defs>
<use href="#shape-day6" fill="#1d8a53" fill-opacity="0.15" clip-path="url(#up-day6)"/>
<use href="#line-day6" fill="none" stroke="#1d8a53" stroke-width="2.25" stroke-linejoin="round" stroke-linecap="round" clip-path="url(#up-day6)"/>
<use href="#shape-day6" fill="#c4402b" fill-opacity="0.15" clip-path="url(#down-day6)"/>
<use href="#line-day6" fill="none" stroke="#c4402b" stroke-width="2.25" stroke-linejoin="round" stroke-linecap="round" clip-path="url(#down-day6)"/>
<circle cx="1130.0" cy="283.5" r="5" fill="#1d8a53" stroke="#ffffff" stroke-width="2.5"/>
</g>
<g transform="translate(20,1000)">
<rect width="1160" height="470" rx="12" fill="#152131" stroke="#24364a"/>
<text x="24" y="32" font-size="18" font-weight="700" letter-spacing="1.4" fill="#ffd166">CANG · CONTINUOUS NETWORTH</text>
<text x="24" y="60" font-size="21" font-weight="700" fill="#eaf1f8">Today</text>
<text x="24" y="84" fill="#93a6ba">Sat 03 Oct 2026 · carried over at <tspan font-weight="700" fill="#eaf1f8">3,753,933,292</tspan> from 02 Oct 22:51 · now <tspan font-weight="700" fill="#eaf1f8">3,920,598,895</tspan> at 22:59 Central</text>
<text x="1136" y="62" font-size="30" font-weight="700" text-anchor="end" fill="#3ddc84">+166,665,603</text>
<text x="1136" y="84" font-size="11" text-anchor="end" fill="#93a6ba">Alz since 02 Oct 22:51</text>
<line x1="140" x2="1136" y1="428.0" y2="428.0" stroke="#243548" stroke-width="1" stroke-dasharray="3 4"/>
<text x="130" y="428.0" text-anchor="end" dominant-baseline="middle" font-weight="400" fill="#93a6ba">-1,000,000,000</text>
<line x1="140" x2="1136" y1="364.8" y2="364.8" stroke="#eaf1f8" stroke-width="1.5"/>
<text x="130" y="364.8" text-anchor="end" dominant-baseline="middle" font-weight="700" fill="#eaf1f8">3,753,933,292</text>
<line x1="140" x2="1136" y1="301.6" y2="301.6" stroke="#243548" stroke-width="1" stroke-dasharray="3 4"/>
<text x="130" y="301.6" text-anchor="end" dominant-baseline="middle" font-weight="400" fill="#93a6ba">+1,000,000,000</text>
<line x1="140" x2="1136" y1="238.4" y2="238.4" stroke="#243548" stroke-width="1" stroke-dasharray="3 4"/>
<text x="130" y="238.4" text-anchor="end" dominant-baseline="middle" font-weight="400" fill="#93a6ba">+2,000,000,000</text>
<line x1="140" x2="1136" y1="175.2" y2="175.2" stroke="#243548" stroke-width="1" stroke-dasharray="3 4"/>
<text x="130" y="175.2" text-anchor="end" dominant-baseline="middle" font-weight="400" fill="#93a6ba">+3,000,000,000</text>
<line x1="140" x2="1136" y1="112.0" y2="112.0" stroke="#243548" stroke-width="1" stroke-dasharray="3 4"/>
<text x="130" y="112.0" text-anchor="end" dominant-baseline="middle" font-weight="400" fill="#93a6ba">+4,000,000,000</text>
<line x1="140.0" x2="140.0" y1="428" y2="433" stroke="#93a6ba" stroke-width="1"/>
<text x="140.0" y="448" font-size="11" text-anchor="middle" fill="#93a6ba">00:00</text>
<line x1="223.0" x2="223.0" y1="428" y2="433" stroke="#93a6ba" stroke-width="1"/>
<text x="223.0" y="448" font-size="11" text-anchor="middle" fill="#93a6ba">02:00</text>
<line x1="306.0" x2="306.0" y1="428" y2="433" stroke="#93a6ba" stroke-width="1"/>
<text x="306.0" y="448" font-size="11" text-anchor="middle" fill="#93a6ba">04:00</text>
<line x1="389.0" x2="389.0" y1="112" y2="428" stroke="#243548" stroke-width="1"/>
<line x1="389.0" x2="389.0" y1="428" y2="433" stroke="#93a6ba" stroke-width="1"/>
<text x="389.0" y="448" font-size="11" text-anchor="middle" fill="#93a6ba">06:00</text>
<line x1="472.0" x2="472.0" y1="428" y2="433" stroke="#93a6ba" stroke-width="1"/>
<text x="472.0" y="448" font-size="11" text-anchor="middle" fill="#93a6ba">08:00</text>
<line x1="555.0" x2="555.0" y1="428" y2="433" stroke="#93a6ba" stroke-width="1"/>
<text x="555.0" y="448" font-size="11" text-anchor="middle" fill="#93a6ba">10:00</text>
<line x1="638.0" x2="638.0" y1="112" y2="428" stroke="#243548" stroke-width="1"/>
<line x1="638.0" x2="638.0" y1="428" y2="433" stroke="#93a6ba" stroke-width="1"/>
<text x="638.0" y="448" font-size="11" text-anchor="middle" fill="#93a6ba">12:00</text>
<line x1="721.0" x2="721.0" y1="428" y2="433" stroke="#93a6ba" stroke-width="1"/>
<text x="721.0" y="448" font-size="11" text-anchor="middle" fill="#93a6ba">14:00</text>
<line x1="804.0" x2="804.0" y1="428" y2="433" stroke="#93a6ba" stroke-width="1"/>
<text x="804.0" y="448" font-size="11" text-anchor="middle" fill="#93a6ba">16:00</text>
<line x1="887.0" x2="887.0" y1="112" y2="428" stroke="#243548" stroke-width="1"/>
<line x1="887.0" x2="887.0" y1="428" y2="433" stroke="#93a6ba" stroke-width="1"/>
<text x="887.0" y="448" font-size="11" text-anchor="middle" fill="#93a6ba">18:00</text>
<line x1="970.0" x2="970.0" y1="428" y2="433" stroke="#93a6ba" stroke-width="1"/>
<text x="970.0" y="448" font-size="11" text-anchor="middle" fill="#93a6ba">20:00</text>
<line x1="1053.0" x2="1053.0" y1="428" y2="433" stroke="#93a6ba" stroke-width="1"/>
<text x="1053.0" y="448" font-size="11" text-anchor="middle" fill="#93a6ba">22:00</text>
<line x1="1136.0" x2="1136.0" y1="428" y2="433" stroke="#93a6ba" stroke-width="1"/>
<defs><path id="shape-flow-today" d="M140.0 364.8L140.0 364.8L178.5 364.8L178.5 364.3L182.1 364.3L182.1 364.1L185.3 364.1L185.3 364.1L188.9 364.1L188.9 364.1L192.5 364.1L192.5 364.1L195.7 364.1L195.7 364.1L199.3 364.1L199.3 364.1L203.0 364.1L203.0 364.1L206.1 364.1L206.1 364.1L209.8 364.1L209.8 364.1L213.4 364.1L213.4 365.7L216.6 365.7L216.6 365.7L220.3 365.7L220.3 365.7L223.9 365.7L223.9 365.7L227.0 365.7L227.0 365.7L230.7 365.7L230.7 365.5L234.3 365.5L234.3 365.5L237.5 365.5L237.5 365.5L241.1 365.5L241.1 365.5L262.9 365.5L262.9 370.2L266.5 370.2L266.5 370.2L269.6 370.2L269.6 370.3L273.3 370.3L273.3 370.4L276.9 370.4L276.9 371.0L280.0 371.0L280.0 372.1L283.7 372.1L283.7 372.2L290.4 372.2L290.4 372.3L294.1 372.3L294.1 372.7L297.7 372.7L297.7 372.7L300.8 372.7L300.8 372.8L304.5 372.8L304.5 372.9L308.1 372.9L308.1 373.0L311.2 373.0L311.2 372.8L318.5 372.8L318.5 372.8L325.3 372.8L325.3 372.5L328.9 372.5L328.9 372.5L332.1 372.5L332.1 372.5L335.7 372.5L335.7 372.3L339.3 372.3L339.3 372.3L346.1 372.3L346.1 371.7L349.7 371.7L349.7 371.7L352.9 371.7L352.9 371.6L356.6 371.6L356.6 371.3L360.2 371.3L360.2 371.2L363.3 371.2L363.3 371.2L370.6 371.2L370.6 370.7L373.7 370.7L373.7 370.8L377.4 370.8L377.4 370.7L381.0 370.7L381.0 370.6L384.2 370.6L384.2 370.6L387.8 370.6L387.8 370.7L391.4 370.7L391.4 370.7L394.6 370.7L394.6 369.9L398.2 369.9L398.2 369.9L401.8 369.9L401.8 369.9L405.0 369.9L405.0 369.9L408.6 369.9L408.6 369.9L412.3 369.9L412.3 369.9L419.1 369.9L419.1 369.5L422.7 369.5L422.7 369.5L425.9 369.5L425.9 369.5L433.1 369.5L433.1 369.3L436.3 369.3L436.3 369.3L454.0 369.3L454.0 367.1L457.1 367.1L457.1 367.1L460.8 367.1L460.8 367.0L464.4 367.0L464.4 367.0L467.5 367.0L467.5 366.9L471.2 366.9L471.2 366.8L474.8 366.8L474.8 366.8L477.9 366.8L477.9 366.8L481.6 366.8L481.6 366.8L485.2 366.8L485.2 366.8L502.2 366.8L502.2 359.8L505.8 359.8L505.8 359.7L508.9 359.7L508.9 359.7L512.6 359.7L512.6 355.6L672.7 355.6L672.7 345.9L679.5 345.9L679.5 345.5L683.2 345.5L683.2 345.5L686.8 345.5L686.8 345.5L689.9 345.5L689.9 344.3L693.6 344.3L693.6 344.3L697.2 344.3L697.2 344.6L700.3 344.6L700.3 344.8L704.0 344.8L704.0 344.8L707.6 344.8L707.6 344.5L714.4 344.5L714.4 343.3L718.0 343.3L718.0 343.4L721.2 343.4L721.2 343.4L724.8 343.4L724.8 343.4L728.4 343.4L728.4 343.4L731.6 343.4L731.6 343.2L735.2 343.2L735.2 343.2L738.9 343.2L738.9 343.2L755.5 343.2L755.5 342.3L765.9 342.3L765.9 342.2L773.2 342.2L773.2 341.4L776.4 341.4L776.4 341.4L790.8 341.4L790.8 340.9L794.4 340.9L794.4 340.9L797.6 340.9L797.6 340.9L801.2 340.9L801.2 340.9L804.9 340.9L804.9 340.9L808.0 340.9L808.0 341.0L811.5 341.0L811.5 341.0L815.1 341.0L815.1 341.0L818.5 341.0L818.5 341.0L822.2 341.0L822.2 341.0L825.8 341.0L825.8 340.5L828.9 340.5L828.9 340.6L836.2 340.6L836.2 340.6L843.0 340.6L843.0 340.7L846.6 340.7L846.6 340.8L849.8 340.8L849.8 340.9L853.4 340.9L853.4 341.0L857.1 341.0L857.1 341.0L860.2 341.0L860.2 340.8L863.9 340.8L863.9 340.9L867.5 340.9L867.5 341.0L870.7 341.0L870.7 341.0L874.3 341.0L874.3 341.0L877.9 341.0L877.9 341.0L881.1 341.0L881.1 341.0L884.7 341.0L884.7 341.0L888.4 341.0L888.4 341.0L891.5 341.0L891.5 341.0L895.2 341.0L895.2 341.0L898.8 341.0L898.8 341.0L902.0 341.0L902.0 341.0L905.6 341.0L905.6 341.0L909.2 341.0L909.2 341.0L912.4 341.0L912.4 341.0L916.1 341.0L916.1 341.0L919.7 341.0L919.7 341.0L922.9 341.0L922.9 341.0L926.5 341.0L926.5 341.0L930.1 341.0L930.1 340.9L933.3 340.9L933.3 340.9L937.0 340.9L937.0 340.9L940.6 340.9L940.6 340.9L943.8 340.9L943.8 340.9L947.4 340.9L947.4 340.9L951.0 340.9L951.0 340.9L954.2 340.9L954.2 340.9L957.8 340.9L957.8 340.9L961.5 340.9L961.5 340.9L964.6 340.9L964.6 340.9L968.3 340.9L968.3 340.9L971.9 340.9L971.9 340.9L975.1 340.9L975.1 340.9L978.7 340.9L978.7 340.9L982.4 340.9L982.4 340.9L989.2 340.9L989.2 340.8L1006.0 340.8L1006.0 133.6L1009.4 133.6L1009.4 133.6L1055.8 133.6L1055.8 354.6L1059.4 354.6L1059.4 354.6L1062.6 354.6L1062.6 354.6L1066.2 354.6L1066.2 354.6L1069.8 354.6L1069.8 354.6L1073.0 354.6L1073.0 354.6L1076.6 354.6L1076.6 354.7L1080.2 354.7L1080.2 354.7L1087.0 354.7L1087.0 354.6L1090.6 354.6L1090.6 354.6L1093.8 354.6L1093.8 354.3L1093.8 364.8Z"/><path id="line-flow-today" d="M140.0 364.8L178.5 364.8L178.5 364.3L182.1 364.3L182.1 364.1L185.3 364.1L185.3 364.1L188.9 364.1L188.9 364.1L192.5 364.1L192.5 364.1L195.7 364.1L195.7 364.1L199.3 364.1L199.3 364.1L203.0 364.1L203.0 364.1L206.1 364.1L206.1 364.1L209.8 364.1L209.8 364.1L213.4 364.1L213.4 365.7L216.6 365.7L216.6 365.7L220.3 365.7L220.3 365.7L223.9 365.7L223.9 365.7L227.0 365.7L227.0 365.7L230.7 365.7L230.7 365.5L234.3 365.5L234.3 365.5L237.5 365.5L237.5 365.5L241.1 365.5L241.1 365.5L262.9 365.5L262.9 370.2L266.5 370.2L266.5 370.2L269.6 370.2L269.6 370.3L273.3 370.3L273.3 370.4L276.9 370.4L276.9 371.0L280.0 371.0L280.0 372.1L283.7 372.1L283.7 372.2L290.4 372.2L290.4 372.3L294.1 372.3L294.1 372.7L297.7 372.7L297.7 372.7L300.8 372.7L300.8 372.8L304.5 372.8L304.5 372.9L308.1 372.9L308.1 373.0L311.2 373.0L311.2 372.8L318.5 372.8L318.5 372.8L325.3 372.8L325.3 372.5L328.9 372.5L328.9 372.5L332.1 372.5L332.1 372.5L335.7 372.5L335.7 372.3L339.3 372.3L339.3 372.3L346.1 372.3L346.1 371.7L349.7 371.7L349.7 371.7L352.9 371.7L352.9 371.6L356.6 371.6L356.6 371.3L360.2 371.3L360.2 371.2L363.3 371.2L363.3 371.2L370.6 371.2L370.6 370.7L373.7 370.7L373.7 370.8L377.4 370.8L377.4 370.7L381.0 370.7L381.0 370.6L384.2 370.6L384.2 370.6L387.8 370.6L387.8 370.7L391.4 370.7L391.4 370.7L394.6 370.7L394.6 369.9L398.2 369.9L398.2 369.9L401.8 369.9L401.8 369.9L405.0 369.9L405.0 369.9L408.6 369.9L408.6 369.9L412.3 369.9L412.3 369.9L419.1 369.9L419.1 369.5L422.7 369.5L422.7 369.5L425.9 369.5L425.9 369.5L433.1 369.5L433.1 369.3L436.3 369.3L436.3 369.3L454.0 369.3L454.0 367.1L457.1 367.1L457.1 367.1L460.8 367.1L460.8 367.0L464.4 367.0L464.4 367.0L467.5 367.0L467.5 366.9L471.2 366.9L471.2 366.8L474.8 366.8L474.8 366.8L477.9 366.8L477.9 366.8L481.6 366.8L481.6 366.8L485.2 366.8L485.2 366.8L502.2 366.8L502.2 359.8L505.8 359.8L505.8 359.7L508.9 359.7L508.9 359.7L512.6 359.7L512.6 355.6L672.7 355.6L672.7 345.9L679.5 345.9L679.5 345.5L683.2 345.5L683.2 345.5L686.8 345.5L686.8 345.5L689.9 345.5L689.9 344.3L693.6 344.3L693.6 344.3L697.2 344.3L697.2 344.6L700.3 344.6L700.3 344.8L704.0 344.8L704.0 344.8L707.6 344.8L707.6 344.5L714.4 344.5L714.4 343.3L718.0 343.3L718.0 343.4L721.2 343.4L721.2 343.4L724.8 343.4L724.8 343.4L728.4 343.4L728.4 343.4L731.6 343.4L731.6 343.2L735.2 343.2L735.2 343.2L738.9 343.2L738.9 343.2L755.5 343.2L755.5 342.3L765.9 342.3L765.9 342.2L773.2 342.2L773.2 341.4L776.4 341.4L776.4 341.4L790.8 341.4L790.8 340.9L794.4 340.9L794.4 340.9L797.6 340.9L797.6 340.9L801.2 340.9L801.2 340.9L804.9 340.9L804.9 340.9L808.0 340.9L808.0 341.0L811.5 341.0L811.5 341.0L815.1 341.0L815.1 341.0L818.5 341.0L818.5 341.0L822.2 341.0L822.2 341.0L825.8 341.0L825.8 340.5L828.9 340.5L828.9 340.6L836.2 340.6L836.2 340.6L843.0 340.6L843.0 340.7L846.6 340.7L846.6 340.8L849.8 340.8L849.8 340.9L853.4 340.9L853.4 341.0L857.1 341.0L857.1 341.0L860.2 341.0L860.2 340.8L863.9 340.8L863.9 340.9L867.5 340.9L867.5 341.0L870.7 341.0L870.7 341.0L874.3 341.0L874.3 341.0L877.9 341.0L877.9 341.0L881.1 341.0L881.1 341.0L884.7 341.0L884.7 341.0L888.4 341.0L888.4 341.0L891.5 341.0L891.5 341.0L895.2 341.0L895.2 341.0L898.8 341.0L898.8 341.0L902.0 341.0L902.0 341.0L905.6 341.0L905.6 341.0L909.2 341.0L909.2 341.0L912.4 341.0L912.4 341.0L916.1 341.0L916.1 341.0L919.7 341.0L919.7 341.0L922.9 341.0L922.9 341.0L926.5 341.0L926.5 341.0L930.1 341.0L930.1 340.9L933.3 340.9L933.3 340.9L937.0 340.9L937.0 340.9L940.6 340.9L940.6 340.9L943.8 340.9L943.8 340.9L947.4 340.9L947.4 340.9L951.0 340.9L951.0 340.9L954.2 340.9L954.2 340.9L957.8 340.9L957.8 340.9L961.5 340.9L961.5 340.9L964.6 340.9L964.6 340.9L968.3 340.9L968.3 340.9L971.9 340.9L971.9 340.9L975.1 340.9L975.1 340.9L978.7 340.9L978.7 340.9L982.4 340.9L982.4 340.9L989.2 340.9L989.2 340.8L1006.0 340.8L1006.0 133.6L1009.4 133.6L1009.4 133.6L1055.8 133.6L1055.8 354.6L1059.4 354.6L1059.4 354.6L1062.6 354.6L1062.6 354.6L1066.2 354.6L1066.2 354.6L1069.8 354.6L1069.8 354.6L1073.0 354.6L1073.0 354.6L1076.6 354.6L1076.6 354.7L1080.2 354.7L1080.2 354.7L1087.0 354.7L1087.0 354.6L1090.6 354.6L1090.6 354.6L1093.8 354.6L1093.8 354.3"/><clipPath id="up-flow-today"><rect x="140" y="112" width="996" height="252.8"/></clipPath><clipPath id="down-flow-today"><rect x="140" y="364.8" width="996" height="63.2"/></clipPath></defs>
<use href="#shape-flow-today" fill="#3ddc84" fill-opacity="0.15" clip-path="url(#up-flow-today)"/>
<use href="#line-flow-today" fill="none" stroke="#3ddc84" stroke-width="2.25" stroke-linejoin="round" stroke-linecap="round" clip-path="url(#up-flow-today)"/>
<use href="#shape-flow-today" fill="#ff6b6b" fill-opacity="0.15" clip-path="url(#down-flow-today)"/>
<use href="#line-flow-today" fill="none" stroke="#ff6b6b" stroke-width="2.25" stroke-linejoin="round" stroke-linecap="round" clip-path="url(#down-flow-today)"/>
<circle cx="1093.8" cy="354.3" r="5" fill="#3ddc84" stroke="#152131" stroke-width="2.5"/>
<text x="1081.8" y="325.3" text-anchor="end" font-size="15" font-weight="700" fill="#3ddc84" stroke="#152131" stroke-width="4" stroke-linejoin="round" paint-order="stroke">+166,665,603 Alz</text>
<text x="1081.8" y="342.3" text-anchor="end" font-size="13" font-weight="600" fill="#eaf1f8" stroke="#152131" stroke-width="4" stroke-linejoin="round" paint-order="stroke">net worth 3,920,598,895</text>
</g>
<g transform="translate(20,1490)">
<rect width="1160" height="470" rx="12" fill="#152131" stroke="#24364a"/>
<text x="24" y="32" font-size="18" font-weight="700" letter-spacing="1.4" fill="#ffd166">CANG · CONTINUOUS NETWORTH</text>
<text x="24" y="60" font-size="21" font-weight="700" fill="#eaf1f8">Last 7 days</text>
<text x="24" y="84" fill="#93a6ba">from <tspan font-weight="700" fill="#eaf1f8">3,710,142,956</tspan> at Wed 30 Sep 21:54 · now <tspan font-weight="700" fill="#eaf1f8">3,920,598,895</tspan> at Sat 03 Oct 22:59 Central</text>
<text x="1136" y="62" font-size="30" font-weight="700" text-anchor="end" fill="#3ddc84">+210,455,939</text>
<text x="1136" y="84" font-size="11" text-anchor="end" fill="#93a6ba">Alz since Wed 30 Sep 21:54</text>
<rect x="282.3" y="93" width="142.3" height="335" fill="#1b2b3d"/>
<rect x="566.9" y="93" width="142.3" height="335" fill="#1b2b3d"/>
<rect x="851.4" y="93" width="142.3" height="335" fill="#1b2b3d"/>
<line x1="140" x2="1136" y1="428.0" y2="428.0" stroke="#243548" stroke-width="1" stroke-dasharray="3 4"/>
<text x="130" y="428.0" text-anchor="end" dominant-baseline="middle" font-weight="400" fill="#93a6ba">-1,000,000,000</text>
<line x1="140" x2="1136" y1="372.4" y2="372.4" stroke="#eaf1f8" stroke-width="1.5"/>
<text x="130" y="372.4" text-anchor="end" dominant-baseline="middle" font-weight="700" fill="#eaf1f8">3,710,142,956</text>
<line x1="140" x2="1136" y1="316.8" y2="316.8" stroke="#243548" stroke-width="1" stroke-dasharray="3 4"/>
<text x="130" y="316.8" text-anchor="end" dominant-baseline="middle" font-weight="400" fill="#93a6ba">+1,000,000,000</text>
<line x1="140" x2="1136" y1="261.2" y2="261.2" stroke="#243548" stroke-width="1" stroke-dasharray="3 4"/>
<text x="130" y="261.2" text-anchor="end" dominant-baseline="middle" font-weight="400" fill="#93a6ba">+2,000,000,000</text>
<line x1="140" x2="1136" y1="205.6" y2="205.6" stroke="#243548" stroke-width="1" stroke-dasharray="3 4"/>
<text x="130" y="205.6" text-anchor="end" dominant-baseline="middle" font-weight="400" fill="#93a6ba">+3,000,000,000</text>
<line x1="140" x2="1136" y1="150.0" y2="150.0" stroke="#243548" stroke-width="1" stroke-dasharray="3 4"/>
<text x="130" y="150.0" text-anchor="end" dominant-baseline="middle" font-weight="400" fill="#93a6ba">+4,000,000,000</text>
<text x="150.0" y="116" font-weight="700" fill="#eaf1f8">Sun 27 Sep</text>
<line x1="140.0" x2="140.0" y1="428" y2="433" stroke="#93a6ba" stroke-width="1"/>
<text x="140.0" y="448" font-size="11" text-anchor="middle" fill="#93a6ba">00:00</text>
<line x1="211.1" x2="211.1" y1="428" y2="433" stroke="#93a6ba" stroke-width="1"/>
<text x="211.1" y="448" font-size="11" text-anchor="middle" fill="#93a6ba">12:00</text>
<line x1="282.3" x2="282.3" y1="428" y2="433" stroke="#93a6ba" stroke-width="1"/>
<text x="292.3" y="116" font-weight="700" fill="#eaf1f8">Mon 28 Sep</text>
<line x1="282.3" x2="282.3" y1="428" y2="433" stroke="#93a6ba" stroke-width="1"/>
<text x="282.3" y="448" font-size="11" text-anchor="middle" fill="#93a6ba">00:00</text>
<line x1="353.4" x2="353.4" y1="428" y2="433" stroke="#93a6ba" stroke-width="1"/>
<text x="353.4" y="448" font-size="11" text-anchor="middle" fill="#93a6ba">12:00</text>
<line x1="424.6" x2="424.6" y1="428" y2="433" stroke="#93a6ba" stroke-width="1"/>
<text x="434.6" y="116" font-weight="700" fill="#eaf1f8">Tue 29 Sep</text>
<line x1="424.6" x2="424.6" y1="428" y2="433" stroke="#93a6ba" stroke-width="1"/>
<text x="424.6" y="448" font-size="11" text-anchor="middle" fill="#93a6ba">00:00</text>
<line x1="495.7" x2="495.7" y1="428" y2="433" stroke="#93a6ba" stroke-width="1"/>
<text x="495.7" y="448" font-size="11" text-anchor="middle" fill="#93a6ba">12:00</text>
<line x1="566.9" x2="566.9" y1="428" y2="433" stroke="#93a6ba" stroke-width="1"/>
<text x="576.9" y="116" font-weight="700" fill="#eaf1f8">Wed 30 Sep</text>
<line x1="566.9" x2="566.9" y1="428" y2="433" stroke="#93a6ba" stroke-width="1"/>
<text x="566.9" y="448" font-size="11" text-anchor="middle" fill="#93a6ba">00:00</text>
<line x1="638.0" x2="638.0" y1="428" y2="433" stroke="#93a6ba" stroke-width="1"/>
<text x="638.0" y="448" font-size="11" text-anchor="middle" fill="#93a6ba">12:00</text>
<line x1="709.1" x2="709.1" y1="428" y2="433" stroke="#93a6ba" stroke-width="1"/>
<text x="719.1" y="116" font-weight="700" fill="#eaf1f8">Thu 01 Oct</text>
<line x1="709.1" x2="709.1" y1="428" y2="433" stroke="#93a6ba" stroke-width="1"/>
<text x="709.1" y="448" font-size="11" text-anchor="middle" fill="#93a6ba">00:00</text>
<line x1="780.3" x2="780.3" y1="428" y2="433" stroke="#93a6ba" stroke-width="1"/>
<text x="780.3" y="448" font-size="11" text-anchor="middle" fill="#93a6ba">12:00</text>
<line x1="851.4" x2="851.4" y1="428" y2="433" stroke="#93a6ba" stroke-width="1"/>
<text x="861.4" y="116" font-weight="700" fill="#eaf1f8">Fri 02 Oct</text>
<line x1="851.4" x2="851.4" y1="428" y2="433" stroke="#93a6ba" stroke-width="1"/>
<text x="851.4" y="448" font-size="11" text-anchor="middle" fill="#93a6ba">00:00</text>
<line x1="922.6" x2="922.6" y1="428" y2="433" stroke="#93a6ba" stroke-width="1"/>
<text x="922.6" y="448" font-size="11" text-anchor="middle" fill="#93a6ba">12:00</text>
<line x1="993.7" x2="993.7" y1="428" y2="433" stroke="#93a6ba" stroke-width="1"/>
<text x="1003.7" y="116" font-weight="700" fill="#7cc4ff">Today 03 Oct</text>
<line x1="993.7" x2="993.7" y1="428" y2="433" stroke="#93a6ba" stroke-width="1"/>
<text x="993.7" y="448" font-size="11" text-anchor="middle" fill="#93a6ba">00:00</text>
<line x1="1064.9" x2="1064.9" y1="428" y2="433" stroke="#93a6ba" stroke-width="1"/>
<text x="1064.9" y="448" font-size="11" text-anchor="middle" fill="#93a6ba">12:00</text>
<line x1="1136.0" x2="1136.0" y1="428" y2="433" stroke="#93a6ba" stroke-width="1"/>
<defs><path id="shape-flow-week" d="M696.7 372.4L696.7 372.4L698.3 372.4L698.3 372.4L699.9 372.4L699.9 372.5L701.4 372.5L701.4 372.3L703.0 372.3L703.0 372.3L704.5 372.3L704.5 371.5L706.1 371.5L706.1 370.3L718.1 370.3L718.1 350.8L720.2 350.8L720.2 350.7L722.3 350.7L722.3 350.2L727.1 350.2L727.1 350.2L729.7 350.2L729.7 350.2L731.8 350.2L731.8 350.1L734.9 350.1L734.9 350.1L736.4 350.1L736.4 349.9L738.5 349.9L738.5 349.2L740.0 349.2L740.0 349.0L742.1 349.0L742.1 348.8L744.1 348.8L744.1 348.8L745.7 348.8L745.7 348.6L747.2 348.6L747.2 348.3L749.3 348.3L749.3 348.2L750.9 348.2L750.9 348.2L752.9 348.2L752.9 346.5L755.0 346.5L755.0 346.2L757.0 346.2L757.0 345.9L759.1 345.9L759.1 345.4L760.7 345.4L760.7 344.3L762.2 344.3L762.2 344.3L764.3 344.3L764.3 343.2L767.9 343.2L767.9 341.9L771.5 341.9L771.5 340.1L773.1 340.1L773.1 339.5L774.6 339.5L774.6 339.4L776.1 339.4L776.1 339.4L777.7 339.4L777.7 339.4L779.2 339.4L779.2 338.9L781.3 338.9L781.3 337.9L782.8 337.9L782.8 337.9L784.9 337.9L784.9 334.5L786.5 334.5L786.5 334.5L788.5 334.5L788.5 334.0L790.1 334.0L790.1 332.4L792.2 332.4L792.2 331.7L793.7 331.7L793.7 331.6L804.8 331.6L804.8 325.7L807.6 325.7L807.6 324.7L809.1 324.7L809.1 324.7L810.7 324.7L810.7 324.7L813.3 324.7L813.3 323.4L814.9 323.4L814.9 323.4L821.1 323.4L821.1 322.5L822.6 322.5L822.6 322.1L824.2 322.1L824.2 321.0L825.7 321.0L825.7 320.2L827.3 320.2L827.3 319.7L828.8 319.7L828.8 319.8L855.8 319.8L855.8 380.5L857.3 380.5L857.3 380.8L858.8 380.8L858.8 380.7L860.3 380.7L860.3 380.7L861.8 380.7L861.8 380.7L863.2 380.7L863.2 379.9L865.2 379.9L865.2 379.2L868.7 379.2L868.7 418.0L870.1 418.0L870.1 418.1L872.1 418.1L872.1 420.8L874.1 420.8L874.1 422.8L877.5 422.8L877.5 381.0L879.5 381.0L879.5 380.6L881.0 380.6L881.0 380.6L882.5 380.6L882.5 380.6L884.0 380.6L884.0 380.6L885.5 380.6L885.5 380.4L887.4 380.4L887.4 379.5L888.9 379.5L888.9 379.5L890.4 379.5L890.4 379.5L891.9 379.5L891.9 379.2L893.4 379.2L893.4 376.6L894.9 376.6L894.9 376.6L896.4 376.6L896.4 376.8L897.9 376.8L897.9 375.9L899.3 375.9L899.3 375.6L901.8 375.6L901.8 374.8L909.5 374.8L909.5 375.4L917.0 375.4L917.0 389.2L918.5 389.2L918.5 388.8L920.9 388.8L920.9 388.8L922.4 388.8L922.4 388.7L927.6 388.7L927.6 395.2L929.0 395.2L929.0 395.2L930.6 395.2L930.6 393.7L932.5 393.7L932.5 392.1L934.0 392.1L934.0 390.8L935.5 390.8L935.5 390.8L937.0 390.8L937.0 390.8L947.7 390.8L947.7 380.8L949.2 380.8L949.2 379.1L950.7 379.1L950.7 379.1L952.2 379.1L952.2 378.0L963.5 378.0L963.5 371.3L966.0 371.3L966.0 371.3L968.0 371.3L968.0 369.9L970.0 369.9L970.0 369.1L971.5 369.1L971.5 369.1L973.0 369.1L973.0 369.1L974.5 369.1L974.5 370.5L976.0 370.5L976.0 370.9L977.5 370.9L977.5 370.9L979.0 370.9L979.0 370.9L980.9 370.9L980.9 370.9L982.4 370.9L982.4 371.0L983.9 371.0L983.9 370.2L985.4 370.2L985.4 370.0L986.9 370.0L986.9 370.0L1000.2 370.0L1000.2 369.4L1001.7 369.4L1001.7 369.4L1003.2 369.4L1003.2 369.4L1004.7 369.4L1004.7 370.7L1006.1 370.7L1006.1 370.7L1007.6 370.7L1007.6 370.6L1011.8 370.6L1011.8 374.7L1013.3 374.7L1013.3 375.4L1015.2 375.4L1015.2 376.6L1016.7 376.6L1016.7 377.0L1018.2 377.0L1018.2 377.0L1020.7 377.0L1020.7 376.7L1022.2 376.7L1022.2 376.5L1024.1 376.5L1024.1 376.0L1025.6 376.0L1025.6 375.6L1027.6 375.6L1027.6 375.2L1029.1 375.2L1029.1 375.2L1030.6 375.2L1030.6 374.5L1032.1 374.5L1032.1 374.5L1034.1 374.5L1034.1 374.1L1036.0 374.1L1036.0 373.9L1039.5 373.9L1039.5 371.9L1041.0 371.9L1041.0 371.7L1042.5 371.7L1042.5 371.7L1046.0 371.7L1046.0 365.5L1069.8 365.5L1069.8 353.4L1071.8 353.4L1071.8 353.0L1073.3 353.0L1073.3 352.2L1074.8 352.2L1074.8 352.1L1076.7 352.1L1076.7 351.1L1078.2 351.1L1078.2 351.0L1081.6 351.0L1081.6 350.2L1084.6 350.2L1084.6 349.3L1087.7 349.3L1087.7 349.0L1089.1 349.0L1089.1 349.0L1090.6 349.0L1090.6 349.0L1092.1 349.0L1092.1 348.7L1094.7 348.7L1094.7 348.9L1096.2 348.9L1096.2 349.1L1097.6 349.1L1097.6 349.0L1099.1 349.0L1099.1 349.0L1100.6 349.0L1100.6 349.0L1102.1 349.0L1102.1 349.0L1103.6 349.0L1103.6 349.0L1105.1 349.0L1105.1 349.0L1106.6 349.0L1106.6 349.0L1108.1 349.0L1108.1 349.0L1109.6 349.0L1109.6 349.0L1111.1 349.0L1111.1 348.9L1112.6 348.9L1112.6 348.9L1114.1 348.9L1114.1 348.9L1117.9 348.9L1117.9 166.5L1125.5 166.5L1125.5 361.0L1127.0 361.0L1127.0 361.0L1129.0 361.0L1129.0 361.0L1130.0 361.0L1130.0 360.7L1130.0 372.4Z"/><path id="line-flow-week" d="M696.7 372.4L698.3 372.4L698.3 372.4L699.9 372.4L699.9 372.5L701.4 372.5L701.4 372.3L703.0 372.3L703.0 372.3L704.5 372.3L704.5 371.5L706.1 371.5L706.1 370.3L718.1 370.3L718.1 350.8L720.2 350.8L720.2 350.7L722.3 350.7L722.3 350.2L727.1 350.2L727.1 350.2L729.7 350.2L729.7 350.2L731.8 350.2L731.8 350.1L734.9 350.1L734.9 350.1L736.4 350.1L736.4 349.9L738.5 349.9L738.5 349.2L740.0 349.2L740.0 349.0L742.1 349.0L742.1 348.8L744.1 348.8L744.1 348.8L745.7 348.8L745.7 348.6L747.2 348.6L747.2 348.3L749.3 348.3L749.3 348.2L750.9 348.2L750.9 348.2L752.9 348.2L752.9 346.5L755.0 346.5L755.0 346.2L757.0 346.2L757.0 345.9L759.1 345.9L759.1 345.4L760.7 345.4L760.7 344.3L762.2 344.3L762.2 344.3L764.3 344.3L764.3 343.2L767.9 343.2L767.9 341.9L771.5 341.9L771.5 340.1L773.1 340.1L773.1 339.5L774.6 339.5L774.6 339.4L776.1 339.4L776.1 339.4L777.7 339.4L777.7 339.4L779.2 339.4L779.2 338.9L781.3 338.9L781.3 337.9L782.8 337.9L782.8 337.9L784.9 337.9L784.9 334.5L786.5 334.5L786.5 334.5L788.5 334.5L788.5 334.0L790.1 334.0L790.1 332.4L792.2 332.4L792.2 331.7L793.7 331.7L793.7 331.6L804.8 331.6L804.8 325.7L807.6 325.7L807.6 324.7L809.1 324.7L809.1 324.7L810.7 324.7L810.7 324.7L813.3 324.7L813.3 323.4L814.9 323.4L814.9 323.4L821.1 323.4L821.1 322.5L822.6 322.5L822.6 322.1L824.2 322.1L824.2 321.0L825.7 321.0L825.7 320.2L827.3 320.2L827.3 319.7L828.8 319.7L828.8 319.8L855.8 319.8L855.8 380.5L857.3 380.5L857.3 380.8L858.8 380.8L858.8 380.7L860.3 380.7L860.3 380.7L861.8 380.7L861.8 380.7L863.2 380.7L863.2 379.9L865.2 379.9L865.2 379.2L868.7 379.2L868.7 418.0L870.1 418.0L870.1 418.1L872.1 418.1L872.1 420.8L874.1 420.8L874.1 422.8L877.5 422.8L877.5 381.0L879.5 381.0L879.5 380.6L881.0 380.6L881.0 380.6L882.5 380.6L882.5 380.6L884.0 380.6L884.0 380.6L885.5 380.6L885.5 380.4L887.4 380.4L887.4 379.5L888.9 379.5L888.9 379.5L890.4 379.5L890.4 379.5L891.9 379.5L891.9 379.2L893.4 379.2L893.4 376.6L894.9 376.6L894.9 376.6L896.4 376.6L896.4 376.8L897.9 376.8L897.9 375.9L899.3 375.9L899.3 375.6L901.8 375.6L901.8 374.8L909.5 374.8L909.5 375.4L917.0 375.4L917.0 389.2L918.5 389.2L918.5 388.8L920.9 388.8L920.9 388.8L922.4 388.8L922.4 388.7L927.6 388.7L927.6 395.2L929.0 395.2L929.0 395.2L930.6 395.2L930.6 393.7L932.5 393.7L932.5 392.1L934.0 392.1L934.0 390.8L935.5 390.8L935.5 390.8L937.0 390.8L937.0 390.8L947.7 390.8L947.7 380.8L949.2 380.8L949.2 379.1L950.7 379.1L950.7 379.1L952.2 379.1L952.2 378.0L963.5 378.0L963.5 371.3L966.0 371.3L966.0 371.3L968.0 371.3L968.0 369.9L970.0 369.9L970.0 369.1L971.5 369.1L971.5 369.1L973.0 369.1L973.0 369.1L974.5 369.1L974.5 370.5L976.0 370.5L976.0 370.9L977.5 370.9L977.5 370.9L979.0 370.9L979.0 370.9L980.9 370.9L980.9 370.9L982.4 370.9L982.4 371.0L983.9 371.0L983.9 370.2L985.4 370.2L985.4 370.0L986.9 370.0L986.9 370.0L1000.2 370.0L1000.2 369.4L1001.7 369.4L1001.7 369.4L1003.2 369.4L1003.2 369.4L1004.7 369.4L1004.7 370.7L1006.1 370.7L1006.1 370.7L1007.6 370.7L1007.6 370.6L1011.8 370.6L1011.8 374.7L1013.3 374.7L1013.3 375.4L1015.2 375.4L1015.2 376.6L1016.7 376.6L1016.7 377.0L1018.2 377.0L1018.2 377.0L1020.7 377.0L1020.7 376.7L1022.2 376.7L1022.2 376.5L1024.1 376.5L1024.1 376.0L1025.6 376.0L1025.6 375.6L1027.6 375.6L1027.6 375.2L1029.1 375.2L1029.1 375.2L1030.6 375.2L1030.6 374.5L1032.1 374.5L1032.1 374.5L1034.1 374.5L1034.1 374.1L1036.0 374.1L1036.0 373.9L1039.5 373.9L1039.5 371.9L1041.0 371.9L1041.0 371.7L1042.5 371.7L1042.5 371.7L1046.0 371.7L1046.0 365.5L1069.8 365.5L1069.8 353.4L1071.8 353.4L1071.8 353.0L1073.3 353.0L1073.3 352.2L1074.8 352.2L1074.8 352.1L1076.7 352.1L1076.7 351.1L1078.2 351.1L1078.2 351.0L1081.6 351.0L1081.6 350.2L1084.6 350.2L1084.6 349.3L1087.7 349.3L1087.7 349.0L1089.1 349.0L1089.1 349.0L1090.6 349.0L1090.6 349.0L1092.1 349.0L1092.1 348.7L1094.7 348.7L1094.7 348.9L1096.2 348.9L1096.2 349.1L1097.6 349.1L1097.6 349.0L1099.1 349.0L1099.1 349.0L1100.6 349.0L1100.6 349.0L1102.1 349.0L1102.1 349.0L1103.6 349.0L1103.6 349.0L1105.1 349.0L1105.1 349.0L1106.6 349.0L1106.6 349.0L1108.1 349.0L1108.1 349.0L1109.6 349.0L1109.6 349.0L1111.1 349.0L1111.1 348.9L1112.6 348.9L1112.6 348.9L1114.1 348.9L1114.1 348.9L1117.9 348.9L1117.9 166.5L1125.5 166.5L1125.5 361.0L1127.0 361.0L1127.0 361.0L1129.0 361.0L1129.0 361.0L1130.0 361.0L1130.0 360.7"/><clipPath id="up-flow-week"><rect x="140" y="150" width="996" height="222.4"/></clipPath><clipPath id="down-flow-week"><rect x="140" y="372.4" width="996" height="55.6"/></clipPath></defs>
<use href="#shape-flow-week" fill="#3ddc84" fill-opacity="0.15" clip-path="url(#up-flow-week)"/>
<use href="#line-flow-week" fill="none" stroke="#3ddc84" stroke-width="2.25" stroke-linejoin="round" stroke-linecap="round" clip-path="url(#up-flow-week)"/>
<use href="#shape-flow-week" fill="#ff6b6b" fill-opacity="0.15" clip-path="url(#down-flow-week)"/>
<use href="#line-flow-week" fill="none" stroke="#ff6b6b" stroke-width="2.25" stroke-linejoin="round" stroke-linecap="round" clip-path="url(#down-flow-week)"/>
<circle cx="1130.0" cy="360.7" r="5" fill="#3ddc84" stroke="#152131" stroke-width="2.5"/>
<text x="1118.0" y="331.7" text-anchor="end" font-size="15" font-weight="700" fill="#3ddc84" stroke="#152131" stroke-width="4" stroke-linejoin="round" paint-order="stroke">+210,455,939 Alz</text>
<text x="1118.0" y="348.7" text-anchor="end" font-size="13" font-weight="600" fill="#eaf1f8" stroke="#152131" stroke-width="4" stroke-linejoin="round" paint-order="stroke">net worth 3,920,598,895</text>
</g>
</svg>
