<svg xmlns="http://www.w3.org/2000/svg" width="1200" height="1980" viewBox="0 0 1200 1980" font-family="Segoe UI, Helvetica Neue, Arial, sans-serif" font-size="13" style="font-variant-numeric: tabular-nums">
<rect width="1200" height="1980" fill="#eef2ef"/>
<g transform="translate(20,20)">
<rect width="1160" height="470" rx="12" fill="#ffffff" stroke="#dbe3de"/>
<text x="24" y="32" font-size="18" font-weight="700" letter-spacing="1.4" fill="#6741d9">CANG · NET WORTH TODAY</text>
<text x="24" y="60" font-size="21" font-weight="700" fill="#16211b">Since midnight</text>
<text x="24" y="84" fill="#5f6b65">Sat 10 Oct 2026 · started at <tspan font-weight="700" fill="#16211b">3,434,240,934</tspan> at 00:03 · now <tspan font-weight="700" fill="#16211b">3,436,494,390</tspan> at 16:44 Central</text>
<text x="1136" y="62" font-size="30" font-weight="700" text-anchor="end" fill="#1d8a53">+2,253,456</text>
<text x="1136" y="84" font-size="11" text-anchor="end" fill="#5f6b65">Alz since 00:03</text>
<line x1="140" x2="1136" y1="428.0" y2="428.0" stroke="#e3e9e5" stroke-width="1" stroke-dasharray="3 4"/>
<text x="130" y="428.0" text-anchor="end" dominant-baseline="middle" font-weight="400" fill="#5f6b65">-400,000,000</text>
<line x1="140" x2="1136" y1="364.8" y2="364.8" stroke="#e3e9e5" stroke-width="1" stroke-dasharray="3 4"/>
<text x="130" y="364.8" text-anchor="end" dominant-baseline="middle" font-weight="400" fill="#5f6b65">-300,000,000</text>
<line x1="140" x2="1136" y1="301.6" y2="301.6" stroke="#e3e9e5" stroke-width="1" stroke-dasharray="3 4"/>
<text x="130" y="301.6" text-anchor="end" dominant-baseline="middle" font-weight="400" fill="#5f6b65">-200,000,000</text>
<line x1="140" x2="1136" y1="238.4" y2="238.4" stroke="#e3e9e5" stroke-width="1" stroke-dasharray="3 4"/>
<text x="130" y="238.4" text-anchor="end" dominant-baseline="middle" font-weight="400" fill="#5f6b65">-100,000,000</text>
<line x1="140" x2="1136" y1="175.2" y2="175.2" stroke="#16211b" stroke-width="1.5"/>
<text x="130" y="175.2" text-anchor="end" dominant-baseline="middle" font-weight="700" fill="#16211b">3,434,240,934</text>
<line x1="140" x2="1136" y1="112.0" y2="112.0" stroke="#e3e9e5" stroke-width="1" stroke-dasharray="3 4"/>
<text x="130" y="112.0" text-anchor="end" dominant-baseline="middle" font-weight="400" fill="#5f6b65">+100,000,000</text>
<line x1="140.0" x2="140.0" y1="428" y2="433" stroke="#5f6b65" stroke-width="1"/>
<text x="140.0" y="448" font-size="11" text-anchor="middle" fill="#5f6b65">00:00</text>
<line x1="223.0" x2="223.0" y1="428" y2="433" stroke="#5f6b65" stroke-width="1"/>
<text x="223.0" y="448" font-size="11" text-anchor="middle" fill="#5f6b65">02:00</text>
<line x1="306.0" x2="306.0" y1="428" y2="433" stroke="#5f6b65" stroke-width="1"/>
<text x="306.0" y="448" font-size="11" text-anchor="middle" fill="#5f6b65">04:00</text>
<line x1="389.0" x2="389.0" y1="112" y2="428" stroke="#e3e9e5" stroke-width="1"/>
<line x1="389.0" x2="389.0" y1="428" y2="433" stroke="#5f6b65" stroke-width="1"/>
<text x="389.0" y="448" font-size="11" text-anchor="middle" fill="#5f6b65">06:00</text>
<line x1="472.0" x2="472.0" y1="428" y2="433" stroke="#5f6b65" stroke-width="1"/>
<text x="472.0" y="448" font-size="11" text-anchor="middle" fill="#5f6b65">08:00</text>
<line x1="555.0" x2="555.0" y1="428" y2="433" stroke="#5f6b65" stroke-width="1"/>
<text x="555.0" y="448" font-size="11" text-anchor="middle" fill="#5f6b65">10:00</text>
<line x1="638.0" x2="638.0" y1="112" y2="428" stroke="#e3e9e5" stroke-width="1"/>
<line x1="638.0" x2="638.0" y1="428" y2="433" stroke="#5f6b65" stroke-width="1"/>
<text x="638.0" y="448" font-size="11" text-anchor="middle" fill="#5f6b65">12:00</text>
<line x1="721.0" x2="721.0" y1="428" y2="433" stroke="#5f6b65" stroke-width="1"/>
<text x="721.0" y="448" font-size="11" text-anchor="middle" fill="#5f6b65">14:00</text>
<line x1="804.0" x2="804.0" y1="428" y2="433" stroke="#5f6b65" stroke-width="1"/>
<text x="804.0" y="448" font-size="11" text-anchor="middle" fill="#5f6b65">16:00</text>
<line x1="887.0" x2="887.0" y1="112" y2="428" stroke="#e3e9e5" stroke-width="1"/>
<line x1="887.0" x2="887.0" y1="428" y2="433" stroke="#5f6b65" stroke-width="1"/>
<text x="887.0" y="448" font-size="11" text-anchor="middle" fill="#5f6b65">18:00</text>
<line x1="970.0" x2="970.0" y1="428" y2="433" stroke="#5f6b65" stroke-width="1"/>
<text x="970.0" y="448" font-size="11" text-anchor="middle" fill="#5f6b65">20:00</text>
<line x1="1053.0" x2="1053.0" y1="428" y2="433" stroke="#5f6b65" stroke-width="1"/>
<text x="1053.0" y="448" font-size="11" text-anchor="middle" fill="#5f6b65">22:00</text>
<line x1="1136.0" x2="1136.0" y1="428" y2="433" stroke="#5f6b65" stroke-width="1"/>
<defs><path id="shape-today" d="M142.4 175.2L142.4 175.2L146.1 175.2L149.7 175.2L152.9 175.2L156.6 175.2L160.2 174.8L163.4 174.8L167.0 174.8L170.7 174.4L173.9 173.6L177.6 173.6L181.2 173.6L184.4 173.6L188.1 173.6L191.7 173.6L194.9 173.6L198.5 173.6L202.2 173.6L205.4 173.6L209.1 173.6L212.7 173.6L215.9 173.6L219.6 173.6L223.2 173.6L226.4 173.6L230.1 173.6L233.7 173.6L236.9 173.6L240.6 173.6L258.4 170.2L262.1 169.6L265.2 167.9L268.9 167.9L272.5 163.2L275.7 162.2L279.3 161.4L282.9 161.4L286.1 161.4L293.7 225.3L296.7 225.3L300.3 223.7L303.9 223.7L307.1 223.7L310.7 223.8L314.4 223.8L317.5 223.8L321.2 223.9L324.8 222.3L328.0 220.9L331.7 220.9L335.3 219.5L338.5 217.2L342.2 229.1L345.8 229.1L349.0 229.1L352.6 224.0L356.3 224.0L359.5 224.0L363.2 217.9L366.8 217.8L370.0 218.3L373.7 218.4L377.3 218.4L380.5 218.4L384.1 218.4L387.7 218.4L390.9 218.4L394.5 218.4L398.1 217.6L401.3 217.7L404.9 217.7L408.5 217.7L411.7 217.7L415.3 217.7L418.9 217.7L422.1 217.7L425.7 216.8L429.3 214.9L432.5 214.8L436.1 214.9L439.7 214.9L442.9 214.9L446.6 213.2L450.2 212.2L453.3 212.2L457.0 212.2L460.6 212.2L463.8 213.8L467.4 213.8L471.1 213.8L474.2 213.8L477.9 213.1L481.5 212.3L495.4 199.6L499.0 199.1L502.1 199.1L505.8 189.4L509.4 186.5L584.8 297.4L588.4 296.2L591.6 296.2L595.3 296.2L598.9 291.0L602.1 291.0L605.7 291.0L609.4 291.0L612.5 291.0L616.2 291.0L619.8 291.0L622.9 291.0L626.6 291.0L630.2 291.0L633.4 289.0L637.1 287.5L679.9 406.7L683.5 406.7L686.7 405.7L690.3 405.7L694.0 405.8L697.1 392.7L700.8 392.7L704.4 392.8L707.6 392.8L711.2 392.8L714.9 384.6L718.0 384.6L721.7 370.5L725.3 365.1L728.5 365.1L732.1 365.1L735.8 365.2L738.9 365.2L796.8 190.9L800.4 190.9L803.6 181.6L807.2 181.6L810.9 180.1L814.0 179.3L817.7 178.8L821.3 178.8L824.5 178.8L828.1 178.8L831.8 178.2L834.9 173.8L834.9 175.2Z"/><path id="line-today" d="M142.4 175.2L146.1 175.2L149.7 175.2L152.9 175.2L156.6 175.2L160.2 174.8L163.4 174.8L167.0 174.8L170.7 174.4L173.9 173.6L177.6 173.6L181.2 173.6L184.4 173.6L188.1 173.6L191.7 173.6L194.9 173.6L198.5 173.6L202.2 173.6L205.4 173.6L209.1 173.6L212.7 173.6L215.9 173.6L219.6 173.6L223.2 173.6L226.4 173.6L230.1 173.6L233.7 173.6L236.9 173.6L240.6 173.6L258.4 170.2L262.1 169.6L265.2 167.9L268.9 167.9L272.5 163.2L275.7 162.2L279.3 161.4L282.9 161.4L286.1 161.4L293.7 225.3L296.7 225.3L300.3 223.7L303.9 223.7L307.1 223.7L310.7 223.8L314.4 223.8L317.5 223.8L321.2 223.9L324.8 222.3L328.0 220.9L331.7 220.9L335.3 219.5L338.5 217.2L342.2 229.1L345.8 229.1L349.0 229.1L352.6 224.0L356.3 224.0L359.5 224.0L363.2 217.9L366.8 217.8L370.0 218.3L373.7 218.4L377.3 218.4L380.5 218.4L384.1 218.4L387.7 218.4L390.9 218.4L394.5 218.4L398.1 217.6L401.3 217.7L404.9 217.7L408.5 217.7L411.7 217.7L415.3 217.7L418.9 217.7L422.1 217.7L425.7 216.8L429.3 214.9L432.5 214.8L436.1 214.9L439.7 214.9L442.9 214.9L446.6 213.2L450.2 212.2L453.3 212.2L457.0 212.2L460.6 212.2L463.8 213.8L467.4 213.8L471.1 213.8L474.2 213.8L477.9 213.1L481.5 212.3L495.4 199.6L499.0 199.1L502.1 199.1L505.8 189.4L509.4 186.5L584.8 297.4L588.4 296.2L591.6 296.2L595.3 296.2L598.9 291.0L602.1 291.0L605.7 291.0L609.4 291.0L612.5 291.0L616.2 291.0L619.8 291.0L622.9 291.0L626.6 291.0L630.2 291.0L633.4 289.0L637.1 287.5L679.9 406.7L683.5 406.7L686.7 405.7L690.3 405.7L694.0 405.8L697.1 392.7L700.8 392.7L704.4 392.8L707.6 392.8L711.2 392.8L714.9 384.6L718.0 384.6L721.7 370.5L725.3 365.1L728.5 365.1L732.1 365.1L735.8 365.2L738.9 365.2L796.8 190.9L800.4 190.9L803.6 181.6L807.2 181.6L810.9 180.1L814.0 179.3L817.7 178.8L821.3 178.8L824.5 178.8L828.1 178.8L831.8 178.2L834.9 173.8"/><clipPath id="up-today"><rect x="140" y="112" width="996" height="63.2"/></clipPath><clipPath id="down-today"><rect x="140" y="175.2" width="996" height="252.8"/></clipPath></defs>
<use href="#shape-today" fill="#1d8a53" fill-opacity="0.15" clip-path="url(#up-today)"/>
<use href="#line-today" fill="none" stroke="#1d8a53" stroke-width="2.25" stroke-linejoin="round" stroke-linecap="round" clip-path="url(#up-today)"/>
<use href="#shape-today" fill="#c4402b" fill-opacity="0.15" clip-path="url(#down-today)"/>
<use href="#line-today" fill="none" stroke="#c4402b" stroke-width="2.25" stroke-linejoin="round" stroke-linecap="round" clip-path="url(#down-today)"/>
<circle cx="834.9" cy="173.8" r="5" fill="#1d8a53" stroke="#ffffff" stroke-width="2.5"/>
<text x="846.9" y="169.3" text-anchor="start" font-size="15" font-weight="700" fill="#1d8a53" stroke="#ffffff" stroke-width="4" stroke-linejoin="round" paint-order="stroke">+2,253,456 Alz</text>
<text x="846.9" y="186.3" text-anchor="start" font-size="13" font-weight="600" fill="#16211b" stroke="#ffffff" stroke-width="4" stroke-linejoin="round" paint-order="stroke">net worth 3,436,494,390</text>
</g>
<g transform="translate(20,510)">
<rect width="1160" height="470" rx="12" fill="#ffffff" stroke="#dbe3de"/>
<text x="24" y="32" font-size="18" font-weight="700" letter-spacing="1.4" fill="#6741d9">CANG · NET WORTH BY DAY</text>
<text x="24" y="60" font-size="21" font-weight="700" fill="#16211b">Last 7 days</text>
<text x="24" y="84" fill="#5f6b65">each day starts again at its first reading after midnight</text>
<text x="1136" y="62" font-size="30" font-weight="700" text-anchor="end" fill="#1d8a53">+1,423,957,949</text>
<text x="1136" y="84" font-size="11" text-anchor="end" fill="#5f6b65">Alz, the 7 daily changes added up</text>
<rect x="282.3" y="93" width="142.3" height="335" fill="#f5f8f6"/>
<rect x="566.9" y="93" width="142.3" height="335" fill="#f5f8f6"/>
<rect x="851.4" y="93" width="142.3" height="335" fill="#f5f8f6"/>
<line x1="140" x2="1136" y1="428.0" y2="428.0" stroke="#e3e9e5" stroke-width="1" stroke-dasharray="3 4"/>
<text x="130" y="428.0" text-anchor="end" dominant-baseline="middle" font-weight="400" fill="#5f6b65">-2,000,000,000</text>
<line x1="140" x2="1136" y1="358.5" y2="358.5" stroke="#e3e9e5" stroke-width="1" stroke-dasharray="3 4"/>
<text x="130" y="358.5" text-anchor="end" dominant-baseline="middle" font-weight="400" fill="#5f6b65">-1,000,000,000</text>
<line x1="140" x2="1136" y1="289.0" y2="289.0" stroke="#16211b" stroke-width="1.5"/>
<text x="130" y="289.0" text-anchor="end" dominant-baseline="middle" font-weight="700" fill="#16211b">day start</text>
<line x1="140" x2="1136" y1="219.5" y2="219.5" stroke="#e3e9e5" stroke-width="1" stroke-dasharray="3 4"/>
<text x="130" y="219.5" text-anchor="end" dominant-baseline="middle" font-weight="400" fill="#5f6b65">+1,000,000,000</text>
<line x1="140" x2="1136" y1="150.0" y2="150.0" stroke="#e3e9e5" stroke-width="1" stroke-dasharray="3 4"/>
<text x="130" y="150.0" text-anchor="end" dominant-baseline="middle" font-weight="400" fill="#5f6b65">+2,000,000,000</text>
<text x="150.0" y="116" font-weight="700" fill="#16211b">Sun 04 Oct</text>
<line x1="140.0" x2="140.0" y1="428" y2="433" stroke="#5f6b65" stroke-width="1"/>
<text x="140.0" y="448" font-size="11" text-anchor="middle" fill="#5f6b65">00:00</text>
<line x1="211.1" x2="211.1" y1="428" y2="433" stroke="#5f6b65" stroke-width="1"/>
<text x="211.1" y="448" font-size="11" text-anchor="middle" fill="#5f6b65">12:00</text>
<line x1="282.3" x2="282.3" y1="428" y2="433" stroke="#5f6b65" stroke-width="1"/>
<text x="150.0" y="134" font-weight="700" fill="#1d8a53">+104,038,725</text>
<defs><path id="shape-day0" d="M152.0 289.0L152.0 289.0L157.6 286.2L159.1 286.0L161.1 286.3L162.6 286.8L164.1 287.7L166.5 287.6L168.0 287.6L169.5 287.0L170.9 287.0L172.4 286.9L173.9 287.0L175.4 287.0L176.9 287.0L178.4 287.0L182.5 286.7L184.0 286.7L185.4 286.6L186.9 284.4L188.4 283.4L191.4 283.8L192.9 283.8L225.2 343.9L227.9 345.4L229.4 345.2L230.9 344.8L232.3 344.7L235.0 352.7L236.1 354.4L237.5 354.3L239.0 354.2L240.5 344.2L242.0 344.2L243.5 344.1L245.0 358.9L246.5 358.9L248.0 358.9L249.5 358.9L251.0 358.9L252.5 358.9L254.0 358.9L260.0 375.1L261.4 375.1L262.9 375.1L271.0 349.7L272.5 349.7L274.0 347.6L275.5 347.5L277.0 346.8L278.5 346.6L280.8 281.8L281.3 281.8L281.3 289.0Z"/><path id="line-day0" d="M152.0 289.0L157.6 286.2L159.1 286.0L161.1 286.3L162.6 286.8L164.1 287.7L166.5 287.6L168.0 287.6L169.5 287.0L170.9 287.0L172.4 286.9L173.9 287.0L175.4 287.0L176.9 287.0L178.4 287.0L182.5 286.7L184.0 286.7L185.4 286.6L186.9 284.4L188.4 283.4L191.4 283.8L192.9 283.8L225.2 343.9L227.9 345.4L229.4 345.2L230.9 344.8L232.3 344.7L235.0 352.7L236.1 354.4L237.5 354.3L239.0 354.2L240.5 344.2L242.0 344.2L243.5 344.1L245.0 358.9L246.5 358.9L248.0 358.9L249.5 358.9L251.0 358.9L252.5 358.9L254.0 358.9L260.0 375.1L261.4 375.1L262.9 375.1L271.0 349.7L272.5 349.7L274.0 347.6L275.5 347.5L277.0 346.8L278.5 346.6L280.8 281.8L281.3 281.8"/><clipPath id="up-day0"><rect x="140" y="150" width="996" height="139.0"/></clipPath><clipPath id="down-day0"><rect x="140" y="289.0" width="996" height="139.0"/></clipPath></defs>
<use href="#shape-day0" fill="#1d8a53" fill-opacity="0.15" clip-path="url(#up-day0)"/>
<use href="#line-day0" fill="none" stroke="#1d8a53" stroke-width="2.25" stroke-linejoin="round" stroke-linecap="round" clip-path="url(#up-day0)"/>
<use href="#shape-day0" fill="#c4402b" fill-opacity="0.15" clip-path="url(#down-day0)"/>
<use href="#line-day0" fill="none" stroke="#c4402b" stroke-width="2.25" stroke-linejoin="round" stroke-linecap="round" clip-path="url(#down-day0)"/>
<circle cx="281.3" cy="281.8" r="5" fill="#1d8a53" stroke="#ffffff" stroke-width="2.5"/>
<text x="292.3" y="116" font-weight="700" fill="#16211b">Mon 05 Oct</text>
<line x1="282.3" x2="282.3" y1="428" y2="433" stroke="#5f6b65" stroke-width="1"/>
<text x="282.3" y="448" font-size="11" text-anchor="middle" fill="#5f6b65">00:00</text>
<line x1="353.4" x2="353.4" y1="428" y2="433" stroke="#5f6b65" stroke-width="1"/>
<text x="353.4" y="448" font-size="11" text-anchor="middle" fill="#5f6b65">12:00</text>
<line x1="424.6" x2="424.6" y1="428" y2="433" stroke="#5f6b65" stroke-width="1"/>
<text x="292.3" y="134" font-weight="700" fill="#1d8a53">+1,311,214,937</text>
<defs><path id="shape-day1" d="M286.4 289.0L286.4 289.0L287.9 289.0L289.4 288.9L290.9 288.9L292.3 288.6L293.8 288.6L295.5 288.6L296.9 287.9L298.4 287.9L299.9 287.6L301.4 287.6L302.9 288.1L304.4 288.1L306.4 287.9L307.9 287.9L309.4 287.9L310.9 287.7L312.4 287.6L313.9 287.5L315.4 287.0L316.9 287.0L318.4 287.1L319.9 286.8L321.3 286.8L322.9 286.8L324.4 286.8L342.9 303.0L344.9 301.4L346.3 301.4L347.8 301.3L349.3 301.3L350.8 300.6L353.2 299.8L354.7 299.1L356.2 298.4L357.7 298.2L372.4 193.8L373.9 208.6L375.4 205.8L376.9 205.8L378.4 205.8L379.9 204.9L381.4 205.0L382.9 204.5L384.3 206.1L385.8 206.1L387.3 205.8L423.7 198.1L424.2 197.9L424.2 289.0Z"/><path id="line-day1" d="M286.4 289.0L287.9 289.0L289.4 288.9L290.9 288.9L292.3 288.6L293.8 288.6L295.5 288.6L296.9 287.9L298.4 287.9L299.9 287.6L301.4 287.6L302.9 288.1L304.4 288.1L306.4 287.9L307.9 287.9L309.4 287.9L310.9 287.7L312.4 287.6L313.9 287.5L315.4 287.0L316.9 287.0L318.4 287.1L319.9 286.8L321.3 286.8L322.9 286.8L324.4 286.8L342.9 303.0L344.9 301.4L346.3 301.4L347.8 301.3L349.3 301.3L350.8 300.6L353.2 299.8L354.7 299.1L356.2 298.4L357.7 298.2L372.4 193.8L373.9 208.6L375.4 205.8L376.9 205.8L378.4 205.8L379.9 204.9L381.4 205.0L382.9 204.5L384.3 206.1L385.8 206.1L387.3 205.8L423.7 198.1L424.2 197.9"/><clipPath id="up-day1"><rect x="140" y="150" width="996" height="139.0"/></clipPath><clipPath id="down-day1"><rect x="140" y="289.0" width="996" height="139.0"/></clipPath></defs>
<use href="#shape-day1" fill="#1d8a53" fill-opacity="0.15" clip-path="url(#up-day1)"/>
<use href="#line-day1" fill="none" stroke="#1d8a53" stroke-width="2.25" stroke-linejoin="round" stroke-linecap="round" clip-path="url(#up-day1)"/>
<use href="#shape-day1" fill="#c4402b" fill-opacity="0.15" clip-path="url(#down-day1)"/>
<use href="#line-day1" fill="none" stroke="#c4402b" stroke-width="2.25" stroke-linejoin="round" stroke-linecap="round" clip-path="url(#down-day1)"/>
<circle cx="424.2" cy="197.9" r="5" fill="#1d8a53" stroke="#ffffff" stroke-width="2.5"/>
<text x="434.6" y="116" font-weight="700" fill="#16211b">Tue 06 Oct</text>
<line x1="424.6" x2="424.6" y1="428" y2="433" stroke="#5f6b65" stroke-width="1"/>
<text x="424.6" y="448" font-size="11" text-anchor="middle" fill="#5f6b65">00:00</text>
<line x1="495.7" x2="495.7" y1="428" y2="433" stroke="#5f6b65" stroke-width="1"/>
<text x="495.7" y="448" font-size="11" text-anchor="middle" fill="#5f6b65">12:00</text>
<line x1="566.9" x2="566.9" y1="428" y2="433" stroke="#5f6b65" stroke-width="1"/>
<text x="434.6" y="134" font-weight="700" fill="#c4402b">-414,085,893</text>
<defs><path id="shape-day2" d="M424.7 289.0L424.7 289.0L426.2 288.6L427.7 288.5L429.2 288.1L430.7 287.7L432.2 287.7L433.6 287.7L435.1 287.2L436.6 287.1L438.1 287.0L439.6 286.9L441.1 286.6L442.6 286.4L444.1 286.4L445.6 285.9L447.1 285.7L448.6 285.0L450.1 282.8L451.6 282.8L453.1 282.2L454.6 282.2L456.1 281.6L457.6 281.4L459.1 280.3L460.6 280.3L462.1 279.3L463.6 279.2L465.1 278.5L466.5 278.2L468.0 277.0L472.8 274.9L474.3 274.7L475.8 274.3L477.3 274.1L478.8 273.5L480.3 272.5L481.8 272.0L483.3 287.4L484.8 287.4L486.3 287.4L487.8 287.4L489.3 287.4L490.8 287.4L492.2 287.4L493.7 287.4L495.2 287.4L496.7 287.4L499.2 286.3L500.7 284.8L502.2 268.9L503.7 268.4L505.2 267.6L506.7 268.7L508.2 268.7L509.6 268.9L511.1 264.3L512.6 264.3L514.1 263.3L515.6 262.8L517.1 262.8L518.6 262.4L520.1 262.4L521.6 262.2L523.1 262.1L524.6 261.9L526.1 261.8L527.6 261.6L529.0 261.5L530.5 261.4L538.2 317.1L541.3 317.7L542.8 317.9L544.2 317.9L545.2 317.8L545.2 289.0Z"/><path id="line-day2" d="M424.7 289.0L426.2 288.6L427.7 288.5L429.2 288.1L430.7 287.7L432.2 287.7L433.6 287.7L435.1 287.2L436.6 287.1L438.1 287.0L439.6 286.9L441.1 286.6L442.6 286.4L444.1 286.4L445.6 285.9L447.1 285.7L448.6 285.0L450.1 282.8L451.6 282.8L453.1 282.2L454.6 282.2L456.1 281.6L457.6 281.4L459.1 280.3L460.6 280.3L462.1 279.3L463.6 279.2L465.1 278.5L466.5 278.2L468.0 277.0L472.8 274.9L474.3 274.7L475.8 274.3L477.3 274.1L478.8 273.5L480.3 272.5L481.8 272.0L483.3 287.4L484.8 287.4L486.3 287.4L487.8 287.4L489.3 287.4L490.8 287.4L492.2 287.4L493.7 287.4L495.2 287.4L496.7 287.4L499.2 286.3L500.7 284.8L502.2 268.9L503.7 268.4L505.2 267.6L506.7 268.7L508.2 268.7L509.6 268.9L511.1 264.3L512.6 264.3L514.1 263.3L515.6 262.8L517.1 262.8L518.6 262.4L520.1 262.4L521.6 262.2L523.1 262.1L524.6 261.9L526.1 261.8L527.6 261.6L529.0 261.5L530.5 261.4L538.2 317.1L541.3 317.7L542.8 317.9L544.2 317.9L545.2 317.8"/><clipPath id="up-day2"><rect x="140" y="150" width="996" height="139.0"/></clipPath><clipPath id="down-day2"><rect x="140" y="289.0" width="996" height="139.0"/></clipPath></defs>
<use href="#shape-day2" fill="#1d8a53" fill-opacity="0.15" clip-path="url(#up-day2)"/>
<use href="#line-day2" fill="none" stroke="#1d8a53" stroke-width="2.25" stroke-linejoin="round" stroke-linecap="round" clip-path="url(#up-day2)"/>
<use href="#shape-day2" fill="#c4402b" fill-opacity="0.15" clip-path="url(#down-day2)"/>
<use href="#line-day2" fill="none" stroke="#c4402b" stroke-width="2.25" stroke-linejoin="round" stroke-linecap="round" clip-path="url(#down-day2)"/>
<circle cx="545.2" cy="317.8" r="5" fill="#c4402b" stroke="#ffffff" stroke-width="2.5"/>
<text x="576.9" y="116" font-weight="700" fill="#16211b">Wed 07 Oct</text>
<line x1="566.9" x2="566.9" y1="428" y2="433" stroke="#5f6b65" stroke-width="1"/>
<text x="566.9" y="448" font-size="11" text-anchor="middle" fill="#5f6b65">00:00</text>
<line x1="638.0" x2="638.0" y1="428" y2="433" stroke="#5f6b65" stroke-width="1"/>
<text x="638.0" y="448" font-size="11" text-anchor="middle" fill="#5f6b65">12:00</text>
<line x1="709.1" x2="709.1" y1="428" y2="433" stroke="#5f6b65" stroke-width="1"/>
<text x="576.9" y="134" font-weight="700" fill="#c4402b">-382,530,422</text>
<defs><path id="shape-day3" d="M572.6 289.0L572.6 289.0L574.1 284.4L575.6 283.9L577.1 284.0L578.6 283.7L580.1 283.3L618.1 273.1L619.6 271.2L621.1 271.2L622.6 262.4L626.9 256.9L628.4 255.3L629.9 253.6L631.4 252.4L632.9 252.7L634.4 253.0L635.9 253.7L637.3 254.2L638.8 254.7L640.3 254.3L641.8 254.0L643.3 253.7L644.8 253.7L646.3 253.7L647.8 253.6L649.3 253.6L650.8 253.4L652.3 253.1L704.8 315.7L706.3 315.8L707.8 315.6L708.7 315.6L708.7 289.0Z"/><path id="line-day3" d="M572.6 289.0L574.1 284.4L575.6 283.9L577.1 284.0L578.6 283.7L580.1 283.3L618.1 273.1L619.6 271.2L621.1 271.2L622.6 262.4L626.9 256.9L628.4 255.3L629.9 253.6L631.4 252.4L632.9 252.7L634.4 253.0L635.9 253.7L637.3 254.2L638.8 254.7L640.3 254.3L641.8 254.0L643.3 253.7L644.8 253.7L646.3 253.7L647.8 253.6L649.3 253.6L650.8 253.4L652.3 253.1L704.8 315.7L706.3 315.8L707.8 315.6L708.7 315.6"/><clipPath id="up-day3"><rect x="140" y="150" width="996" height="139.0"/></clipPath><clipPath id="down-day3"><rect x="140" y="289.0" width="996" height="139.0"/></clipPath></defs>
<use href="#shape-day3" fill="#1d8a53" fill-opacity="0.15" clip-path="url(#up-day3)"/>
<use href="#line-day3" fill="none" stroke="#1d8a53" stroke-width="2.25" stroke-linejoin="round" stroke-linecap="round" clip-path="url(#up-day3)"/>
<use href="#shape-day3" fill="#c4402b" fill-opacity="0.15" clip-path="url(#down-day3)"/>
<use href="#line-day3" fill="none" stroke="#c4402b" stroke-width="2.25" stroke-linejoin="round" stroke-linecap="round" clip-path="url(#down-day3)"/>
<circle cx="708.7" cy="315.6" r="5" fill="#c4402b" stroke="#ffffff" stroke-width="2.5"/>
<text x="719.1" y="116" font-weight="700" fill="#16211b">Thu 08 Oct</text>
<line x1="709.1" x2="709.1" y1="428" y2="433" stroke="#5f6b65" stroke-width="1"/>
<text x="709.1" y="448" font-size="11" text-anchor="middle" fill="#5f6b65">00:00</text>
<line x1="780.3" x2="780.3" y1="428" y2="433" stroke="#5f6b65" stroke-width="1"/>
<text x="780.3" y="448" font-size="11" text-anchor="middle" fill="#5f6b65">12:00</text>
<line x1="851.4" x2="851.4" y1="428" y2="433" stroke="#5f6b65" stroke-width="1"/>
<text x="719.1" y="134" font-weight="700" fill="#1d8a53">+863,495,960</text>
<defs><path id="shape-day4" d="M709.3 289.0L709.3 289.0L712.9 281.4L714.3 281.0L715.8 280.8L717.3 280.3L718.8 279.9L720.3 279.1L721.8 278.4L723.3 277.8L725.9 277.7L727.4 277.4L728.8 276.1L730.3 276.0L731.8 276.0L733.3 274.3L734.8 274.0L736.3 273.1L737.8 272.9L739.3 272.6L740.8 272.3L742.2 270.9L743.7 270.7L745.2 270.2L746.7 269.2L748.2 270.6L749.7 270.7L751.2 270.4L752.7 269.7L754.2 269.6L755.7 269.5L757.1 269.5L758.6 269.2L760.1 269.1L768.0 311.7L769.5 310.6L770.9 310.6L772.4 310.4L773.9 310.4L775.4 309.5L776.9 309.5L778.4 304.8L779.9 300.4L792.2 235.7L793.7 235.6L797.3 229.4L798.8 229.1L800.3 228.4L802.6 232.8L804.1 232.4L805.6 232.2L807.1 232.2L808.6 231.9L810.1 231.6L811.6 230.8L813.1 230.5L814.5 230.3L823.3 225.2L824.8 225.2L826.3 225.2L827.8 224.8L829.3 224.5L830.8 224.5L832.3 223.2L850.3 229.0L851.2 229.0L851.2 289.0Z"/><path id="line-day4" d="M709.3 289.0L712.9 281.4L714.3 281.0L715.8 280.8L717.3 280.3L718.8 279.9L720.3 279.1L721.8 278.4L723.3 277.8L725.9 277.7L727.4 277.4L728.8 276.1L730.3 276.0L731.8 276.0L733.3 274.3L734.8 274.0L736.3 273.1L737.8 272.9L739.3 272.6L740.8 272.3L742.2 270.9L743.7 270.7L745.2 270.2L746.7 269.2L748.2 270.6L749.7 270.7L751.2 270.4L752.7 269.7L754.2 269.6L755.7 269.5L757.1 269.5L758.6 269.2L760.1 269.1L768.0 311.7L769.5 310.6L770.9 310.6L772.4 310.4L773.9 310.4L775.4 309.5L776.9 309.5L778.4 304.8L779.9 300.4L792.2 235.7L793.7 235.6L797.3 229.4L798.8 229.1L800.3 228.4L802.6 232.8L804.1 232.4L805.6 232.2L807.1 232.2L808.6 231.9L810.1 231.6L811.6 230.8L813.1 230.5L814.5 230.3L823.3 225.2L824.8 225.2L826.3 225.2L827.8 224.8L829.3 224.5L830.8 224.5L832.3 223.2L850.3 229.0L851.2 229.0"/><clipPath id="up-day4"><rect x="140" y="150" width="996" height="139.0"/></clipPath><clipPath id="down-day4"><rect x="140" y="289.0" width="996" height="139.0"/></clipPath></defs>
<use href="#shape-day4" fill="#1d8a53" fill-opacity="0.15" clip-path="url(#up-day4)"/>
<use href="#line-day4" fill="none" stroke="#1d8a53" stroke-width="2.25" stroke-linejoin="round" stroke-linecap="round" clip-path="url(#up-day4)"/>
<use href="#shape-day4" fill="#c4402b" fill-opacity="0.15" clip-path="url(#down-day4)"/>
<use href="#line-day4" fill="none" stroke="#c4402b" stroke-width="2.25" stroke-linejoin="round" stroke-linecap="round" clip-path="url(#down-day4)"/>
<circle cx="851.2" cy="229.0" r="5" fill="#1d8a53" stroke="#ffffff" stroke-width="2.5"/>
<text x="861.4" y="116" font-weight="700" fill="#16211b">Fri 09 Oct</text>
<line x1="851.4" x2="851.4" y1="428" y2="433" stroke="#5f6b65" stroke-width="1"/>
<text x="851.4" y="448" font-size="11" text-anchor="middle" fill="#5f6b65">00:00</text>
<line x1="922.6" x2="922.6" y1="428" y2="433" stroke="#5f6b65" stroke-width="1"/>
<text x="922.6" y="448" font-size="11" text-anchor="middle" fill="#5f6b65">12:00</text>
<line x1="993.7" x2="993.7" y1="428" y2="433" stroke="#5f6b65" stroke-width="1"/>
<text x="861.4" y="134" font-weight="700" fill="#c4402b">-60,428,814</text>
<defs><path id="shape-day5" d="M855.8 289.0L855.8 289.0L857.3 285.7L858.8 283.3L860.3 282.2L861.8 281.4L863.3 281.4L864.8 281.4L867.6 281.0L869.1 280.6L870.6 279.3L872.6 286.0L874.1 285.2L875.6 283.6L877.1 282.6L878.6 282.6L880.0 282.6L881.5 279.8L883.0 278.2L884.5 278.2L886.0 277.8L887.5 280.0L889.0 279.7L890.5 279.3L892.0 279.3L893.5 275.9L895.0 277.6L896.5 277.8L898.0 277.8L899.5 277.7L901.0 277.7L902.5 277.5L913.4 328.8L914.9 328.8L916.4 328.7L917.9 328.5L919.4 328.2L920.9 328.2L922.4 328.5L932.8 289.4L934.3 289.4L935.8 288.7L940.5 288.4L942.0 288.5L943.5 288.0L945.0 288.0L946.5 288.0L948.0 288.0L949.5 288.0L951.0 288.0L952.5 288.4L954.0 288.4L955.5 288.4L968.6 294.0L970.1 294.0L971.6 294.0L973.1 294.0L974.6 294.0L976.1 294.0L977.6 294.0L979.0 294.0L980.6 294.0L982.1 293.9L983.6 293.9L985.1 293.7L986.6 293.6L988.0 293.4L989.6 293.2L991.1 293.2L992.5 293.2L993.6 293.2L993.6 289.0Z"/><path id="line-day5" d="M855.8 289.0L857.3 285.7L858.8 283.3L860.3 282.2L861.8 281.4L863.3 281.4L864.8 281.4L867.6 281.0L869.1 280.6L870.6 279.3L872.6 286.0L874.1 285.2L875.6 283.6L877.1 282.6L878.6 282.6L880.0 282.6L881.5 279.8L883.0 278.2L884.5 278.2L886.0 277.8L887.5 280.0L889.0 279.7L890.5 279.3L892.0 279.3L893.5 275.9L895.0 277.6L896.5 277.8L898.0 277.8L899.5 277.7L901.0 277.7L902.5 277.5L913.4 328.8L914.9 328.8L916.4 328.7L917.9 328.5L919.4 328.2L920.9 328.2L922.4 328.5L932.8 289.4L934.3 289.4L935.8 288.7L940.5 288.4L942.0 288.5L943.5 288.0L945.0 288.0L946.5 288.0L948.0 288.0L949.5 288.0L951.0 288.0L952.5 288.4L954.0 288.4L955.5 288.4L968.6 294.0L970.1 294.0L971.6 294.0L973.1 294.0L974.6 294.0L976.1 294.0L977.6 294.0L979.0 294.0L980.6 294.0L982.1 293.9L983.6 293.9L985.1 293.7L986.6 293.6L988.0 293.4L989.6 293.2L991.1 293.2L992.5 293.2L993.6 293.2"/><clipPath id="up-day5"><rect x="140" y="150" width="996" height="139.0"/></clipPath><clipPath id="down-day5"><rect x="140" y="289.0" width="996" height="139.0"/></clipPath></defs>
<use href="#shape-day5" fill="#1d8a53" fill-opacity="0.15" clip-path="url(#up-day5)"/>
<use href="#line-day5" fill="none" stroke="#1d8a53" stroke-width="2.25" stroke-linejoin="round" stroke-linecap="round" clip-path="url(#up-day5)"/>
<use href="#shape-day5" fill="#c4402b" fill-opacity="0.15" clip-path="url(#down-day5)"/>
<use href="#line-day5" fill="none" stroke="#c4402b" stroke-width="2.25" stroke-linejoin="round" stroke-linecap="round" clip-path="url(#down-day5)"/>
<circle cx="993.6" cy="293.2" r="5" fill="#c4402b" stroke="#ffffff" stroke-width="2.5"/>
<text x="1003.7" y="116" font-weight="700" fill="#2b5d87">Today 10 Oct</text>
<line x1="993.7" x2="993.7" y1="428" y2="433" stroke="#5f6b65" stroke-width="1"/>
<text x="993.7" y="448" font-size="11" text-anchor="middle" fill="#5f6b65">00:00</text>
<line x1="1064.9" x2="1064.9" y1="428" y2="433" stroke="#5f6b65" stroke-width="1"/>
<text x="1064.9" y="448" font-size="11" text-anchor="middle" fill="#5f6b65">12:00</text>
<line x1="1136.0" x2="1136.0" y1="428" y2="433" stroke="#5f6b65" stroke-width="1"/>
<text x="1003.7" y="134" font-weight="700" fill="#1d8a53">+2,253,456</text>
<defs><path id="shape-day6" d="M994.1 289.0L994.1 289.0L995.6 289.0L997.1 289.0L998.6 288.8L1000.1 288.8L1001.6 288.8L1003.1 288.8L1004.6 288.8L1006.1 288.8L1007.6 288.8L1011.2 288.4L1012.6 287.7L1014.1 287.5L1016.1 294.5L1017.6 294.3L1019.1 294.3L1020.6 294.0L1022.1 293.6L1023.6 294.9L1025.1 294.4L1026.6 293.7L1028.1 293.7L1029.6 293.7L1031.0 293.7L1032.5 293.7L1034.0 293.7L1035.5 293.4L1037.0 293.4L1038.5 293.1L1040.0 293.2L1041.5 293.2L1044.5 291.7L1046.0 290.6L1057.8 302.3L1059.3 301.7L1060.8 301.7L1062.3 301.7L1063.7 301.7L1070.8 314.5L1072.3 314.4L1073.8 312.9L1075.3 312.9L1076.8 310.5L1078.3 309.9L1087.5 290.7L1089.0 289.7L1090.5 289.4L1092.0 289.4L1093.0 288.8L1093.0 289.0Z"/><path id="line-day6" d="M994.1 289.0L995.6 289.0L997.1 289.0L998.6 288.8L1000.1 288.8L1001.6 288.8L1003.1 288.8L1004.6 288.8L1006.1 288.8L1007.6 288.8L1011.2 288.4L1012.6 287.7L1014.1 287.5L1016.1 294.5L1017.6 294.3L1019.1 294.3L1020.6 294.0L1022.1 293.6L1023.6 294.9L1025.1 294.4L1026.6 293.7L1028.1 293.7L1029.6 293.7L1031.0 293.7L1032.5 293.7L1034.0 293.7L1035.5 293.4L1037.0 293.4L1038.5 293.1L1040.0 293.2L1041.5 293.2L1044.5 291.7L1046.0 290.6L1057.8 302.3L1059.3 301.7L1060.8 301.7L1062.3 301.7L1063.7 301.7L1070.8 314.5L1072.3 314.4L1073.8 312.9L1075.3 312.9L1076.8 310.5L1078.3 309.9L1087.5 290.7L1089.0 289.7L1090.5 289.4L1092.0 289.4L1093.0 288.8"/><clipPath id="up-day6"><rect x="140" y="150" width="996" height="139.0"/></clipPath><clipPath id="down-day6"><rect x="140" y="289.0" width="996" height="139.0"/></clipPath></defs>
<use href="#shape-day6" fill="#1d8a53" fill-opacity="0.15" clip-path="url(#up-day6)"/>
<use href="#line-day6" fill="none" stroke="#1d8a53" stroke-width="2.25" stroke-linejoin="round" stroke-linecap="round" clip-path="url(#up-day6)"/>
<use href="#shape-day6" fill="#c4402b" fill-opacity="0.15" clip-path="url(#down-day6)"/>
<use href="#line-day6" fill="none" stroke="#c4402b" stroke-width="2.25" stroke-linejoin="round" stroke-linecap="round" clip-path="url(#down-day6)"/>
<circle cx="1093.0" cy="288.8" r="5" fill="#1d8a53" stroke="#ffffff" stroke-width="2.5"/>
</g>
<g transform="translate(20,1000)">
<rect width="1160" height="470" rx="12" fill="#152131" stroke="#24364a"/>
<text x="24" y="32" font-size="18" font-weight="700" letter-spacing="1.4" fill="#ffd166">CANG · CONTINUOUS NETWORTH</text>
<text x="24" y="60" font-size="21" font-weight="700" fill="#eaf1f8">Today</text>
<text x="24" y="84" fill="#93a6ba">Sat 10 Oct 2026 · carried over at <tspan font-weight="700" fill="#eaf1f8">3,434,244,312</tspan> from 09 Oct 23:58 · now <tspan font-weight="700" fill="#eaf1f8">3,436,494,390</tspan> at 16:44 Central</text>
<text x="1136" y="62" font-size="30" font-weight="700" text-anchor="end" fill="#3ddc84">+2,250,078</text>
<text x="1136" y="84" font-size="11" text-anchor="end" fill="#93a6ba">Alz since 09 Oct 23:58</text>
<line x1="140" x2="1136" y1="428.0" y2="428.0" stroke="#243548" stroke-width="1" stroke-dasharray="3 4"/>
<text x="130" y="428.0" text-anchor="end" dominant-baseline="middle" font-weight="400" fill="#93a6ba">-400,000,000</text>
<line x1="140" x2="1136" y1="364.8" y2="364.8" stroke="#243548" stroke-width="1" stroke-dasharray="3 4"/>
<text x="130" y="364.8" text-anchor="end" dominant-baseline="middle" font-weight="400" fill="#93a6ba">-300,000,000</text>
<line x1="140" x2="1136" y1="301.6" y2="301.6" stroke="#243548" stroke-width="1" stroke-dasharray="3 4"/>
<text x="130" y="301.6" text-anchor="end" dominant-baseline="middle" font-weight="400" fill="#93a6ba">-200,000,000</text>
<line x1="140" x2="1136" y1="238.4" y2="238.4" stroke="#243548" stroke-width="1" stroke-dasharray="3 4"/>
<text x="130" y="238.4" text-anchor="end" dominant-baseline="middle" font-weight="400" fill="#93a6ba">-100,000,000</text>
<line x1="140" x2="1136" y1="175.2" y2="175.2" stroke="#eaf1f8" stroke-width="1.5"/>
<text x="130" y="175.2" text-anchor="end" dominant-baseline="middle" font-weight="700" fill="#eaf1f8">3,434,244,312</text>
<line x1="140" x2="1136" y1="112.0" y2="112.0" stroke="#243548" stroke-width="1" stroke-dasharray="3 4"/>
<text x="130" y="112.0" text-anchor="end" dominant-baseline="middle" font-weight="400" fill="#93a6ba">+100,000,000</text>
<line x1="140.0" x2="140.0" y1="428" y2="433" stroke="#93a6ba" stroke-width="1"/>
<text x="140.0" y="448" font-size="11" text-anchor="middle" fill="#93a6ba">00:00</text>
<line x1="223.0" x2="223.0" y1="428" y2="433" stroke="#93a6ba" stroke-width="1"/>
<text x="223.0" y="448" font-size="11" text-anchor="middle" fill="#93a6ba">02:00</text>
<line x1="306.0" x2="306.0" y1="428" y2="433" stroke="#93a6ba" stroke-width="1"/>
<text x="306.0" y="448" font-size="11" text-anchor="middle" fill="#93a6ba">04:00</text>
<line x1="389.0" x2="389.0" y1="112" y2="428" stroke="#243548" stroke-width="1"/>
<line x1="389.0" x2="389.0" y1="428" y2="433" stroke="#93a6ba" stroke-width="1"/>
<text x="389.0" y="448" font-size="11" text-anchor="middle" fill="#93a6ba">06:00</text>
<line x1="472.0" x2="472.0" y1="428" y2="433" stroke="#93a6ba" stroke-width="1"/>
<text x="472.0" y="448" font-size="11" text-anchor="middle" fill="#93a6ba">08:00</text>
<line x1="555.0" x2="555.0" y1="428" y2="433" stroke="#93a6ba" stroke-width="1"/>
<text x="555.0" y="448" font-size="11" text-anchor="middle" fill="#93a6ba">10:00</text>
<line x1="638.0" x2="638.0" y1="112" y2="428" stroke="#243548" stroke-width="1"/>
<line x1="638.0" x2="638.0" y1="428" y2="433" stroke="#93a6ba" stroke-width="1"/>
<text x="638.0" y="448" font-size="11" text-anchor="middle" fill="#93a6ba">12:00</text>
<line x1="721.0" x2="721.0" y1="428" y2="433" stroke="#93a6ba" stroke-width="1"/>
<text x="721.0" y="448" font-size="11" text-anchor="middle" fill="#93a6ba">14:00</text>
<line x1="804.0" x2="804.0" y1="428" y2="433" stroke="#93a6ba" stroke-width="1"/>
<text x="804.0" y="448" font-size="11" text-anchor="middle" fill="#93a6ba">16:00</text>
<line x1="887.0" x2="887.0" y1="112" y2="428" stroke="#243548" stroke-width="1"/>
<line x1="887.0" x2="887.0" y1="428" y2="433" stroke="#93a6ba" stroke-width="1"/>
<text x="887.0" y="448" font-size="11" text-anchor="middle" fill="#93a6ba">18:00</text>
<line x1="970.0" x2="970.0" y1="428" y2="433" stroke="#93a6ba" stroke-width="1"/>
<text x="970.0" y="448" font-size="11" text-anchor="middle" fill="#93a6ba">20:00</text>
<line x1="1053.0" x2="1053.0" y1="428" y2="433" stroke="#93a6ba" stroke-width="1"/>
<text x="1053.0" y="448" font-size="11" text-anchor="middle" fill="#93a6ba">22:00</text>
<line x1="1136.0" x2="1136.0" y1="428" y2="433" stroke="#93a6ba" stroke-width="1"/>
<defs><path id="shape-flow-today" d="M140.0 175.2L140.0 175.2L142.4 175.2L142.4 175.2L146.1 175.2L146.1 175.2L149.7 175.2L149.7 175.2L152.9 175.2L152.9 175.2L156.6 175.2L156.6 175.2L160.2 175.2L160.2 174.8L163.4 174.8L163.4 174.8L167.0 174.8L167.0 174.8L170.7 174.8L170.7 174.4L173.9 174.4L173.9 173.6L177.6 173.6L177.6 173.6L181.2 173.6L181.2 173.6L184.4 173.6L184.4 173.6L188.1 173.6L188.1 173.6L191.7 173.6L191.7 173.6L194.9 173.6L194.9 173.6L198.5 173.6L198.5 173.6L258.4 173.6L258.4 170.2L262.1 170.2L262.1 169.6L265.2 169.6L265.2 167.9L272.5 167.9L272.5 163.2L275.7 163.2L275.7 162.2L279.3 162.2L279.3 161.4L282.9 161.4L282.9 161.4L286.1 161.4L286.1 161.4L293.7 161.4L293.7 225.3L296.7 225.3L296.7 225.3L300.3 225.3L300.3 223.7L303.9 223.7L303.9 223.7L307.1 223.7L307.1 223.7L310.7 223.7L310.7 223.8L314.4 223.8L314.4 223.8L317.5 223.8L317.5 223.8L321.2 223.8L321.2 223.9L324.8 223.9L324.8 222.3L328.0 222.3L328.0 220.9L335.3 220.9L335.3 219.5L338.5 219.5L338.5 217.2L342.2 217.2L342.2 229.1L345.8 229.1L345.8 229.1L349.0 229.1L349.0 229.1L352.6 229.1L352.6 224.0L356.3 224.0L356.3 224.0L363.2 224.0L363.2 217.9L366.8 217.9L366.8 217.8L370.0 217.8L370.0 218.3L373.7 218.3L373.7 218.4L377.3 218.4L377.3 218.4L380.5 218.4L380.5 218.4L384.1 218.4L384.1 218.4L387.7 218.4L387.7 218.4L390.9 218.4L390.9 218.4L394.5 218.4L394.5 218.4L398.1 218.4L398.1 217.6L401.3 217.6L401.3 217.7L404.9 217.7L404.9 217.7L408.5 217.7L408.5 217.7L411.7 217.7L411.7 217.7L415.3 217.7L415.3 217.7L418.9 217.7L418.9 217.7L422.1 217.7L422.1 217.7L425.7 217.7L425.7 216.8L429.3 216.8L429.3 214.9L432.5 214.9L432.5 214.8L436.1 214.8L436.1 214.9L439.7 214.9L439.7 214.9L442.9 214.9L442.9 214.9L446.6 214.9L446.6 213.2L450.2 213.2L450.2 212.2L453.3 212.2L453.3 212.2L457.0 212.2L457.0 212.2L460.6 212.2L460.6 212.2L463.8 212.2L463.8 213.8L467.4 213.8L467.4 213.8L471.1 213.8L471.1 213.8L474.2 213.8L474.2 213.8L477.9 213.8L477.9 213.1L481.5 213.1L481.5 212.3L495.4 212.3L495.4 199.6L499.0 199.6L499.0 199.1L505.8 199.1L505.8 189.4L509.4 189.4L509.4 186.5L584.8 186.5L584.8 297.4L588.4 297.4L588.4 296.2L591.6 296.2L591.6 296.2L595.3 296.2L595.3 296.2L598.9 296.2L598.9 291.0L602.1 291.0L602.1 291.0L605.7 291.0L605.7 291.0L609.4 291.0L609.4 291.0L612.5 291.0L612.5 291.0L616.2 291.0L616.2 291.0L619.8 291.0L619.8 291.0L622.9 291.0L622.9 291.0L626.6 291.0L626.6 291.0L630.2 291.0L630.2 291.0L633.4 291.0L633.4 289.1L637.1 289.1L637.1 287.5L679.9 287.5L679.9 406.7L683.5 406.7L683.5 406.7L686.7 406.7L686.7 405.7L690.3 405.7L690.3 405.7L694.0 405.7L694.0 405.8L697.1 405.8L697.1 392.7L700.8 392.7L700.8 392.7L704.4 392.7L704.4 392.8L707.6 392.8L707.6 392.8L714.9 392.8L714.9 384.6L721.7 384.6L721.7 370.6L725.3 370.6L725.3 365.1L728.5 365.1L728.5 365.1L732.1 365.1L732.1 365.1L735.8 365.1L735.8 365.2L738.9 365.2L738.9 365.2L796.8 365.2L796.8 190.9L803.6 190.9L803.6 181.6L810.9 181.6L810.9 180.1L814.0 180.1L814.0 179.3L817.7 179.3L817.7 178.8L821.3 178.8L821.3 178.8L824.5 178.8L824.5 178.8L828.1 178.8L828.1 178.8L831.8 178.8L831.8 178.2L834.9 178.2L834.9 173.8L834.9 175.2Z"/><path id="line-flow-today" d="M140.0 175.2L142.4 175.2L142.4 175.2L146.1 175.2L146.1 175.2L149.7 175.2L149.7 175.2L152.9 175.2L152.9 175.2L156.6 175.2L156.6 175.2L160.2 175.2L160.2 174.8L163.4 174.8L163.4 174.8L167.0 174.8L167.0 174.8L170.7 174.8L170.7 174.4L173.9 174.4L173.9 173.6L177.6 173.6L177.6 173.6L181.2 173.6L181.2 173.6L184.4 173.6L184.4 173.6L188.1 173.6L188.1 173.6L191.7 173.6L191.7 173.6L194.9 173.6L194.9 173.6L198.5 173.6L198.5 173.6L258.4 173.6L258.4 170.2L262.1 170.2L262.1 169.6L265.2 169.6L265.2 167.9L272.5 167.9L272.5 163.2L275.7 163.2L275.7 162.2L279.3 162.2L279.3 161.4L282.9 161.4L282.9 161.4L286.1 161.4L286.1 161.4L293.7 161.4L293.7 225.3L296.7 225.3L296.7 225.3L300.3 225.3L300.3 223.7L303.9 223.7L303.9 223.7L307.1 223.7L307.1 223.7L310.7 223.7L310.7 223.8L314.4 223.8L314.4 223.8L317.5 223.8L317.5 223.8L321.2 223.8L321.2 223.9L324.8 223.9L324.8 222.3L328.0 222.3L328.0 220.9L335.3 220.9L335.3 219.5L338.5 219.5L338.5 217.2L342.2 217.2L342.2 229.1L345.8 229.1L345.8 229.1L349.0 229.1L349.0 229.1L352.6 229.1L352.6 224.0L356.3 224.0L356.3 224.0L363.2 224.0L363.2 217.9L366.8 217.9L366.8 217.8L370.0 217.8L370.0 218.3L373.7 218.3L373.7 218.4L377.3 218.4L377.3 218.4L380.5 218.4L380.5 218.4L384.1 218.4L384.1 218.4L387.7 218.4L387.7 218.4L390.9 218.4L390.9 218.4L394.5 218.4L394.5 218.4L398.1 218.4L398.1 217.6L401.3 217.6L401.3 217.7L404.9 217.7L404.9 217.7L408.5 217.7L408.5 217.7L411.7 217.7L411.7 217.7L415.3 217.7L415.3 217.7L418.9 217.7L418.9 217.7L422.1 217.7L422.1 217.7L425.7 217.7L425.7 216.8L429.3 216.8L429.3 214.9L432.5 214.9L432.5 214.8L436.1 214.8L436.1 214.9L439.7 214.9L439.7 214.9L442.9 214.9L442.9 214.9L446.6 214.9L446.6 213.2L450.2 213.2L450.2 212.2L453.3 212.2L453.3 212.2L457.0 212.2L457.0 212.2L460.6 212.2L460.6 212.2L463.8 212.2L463.8 213.8L467.4 213.8L467.4 213.8L471.1 213.8L471.1 213.8L474.2 213.8L474.2 213.8L477.9 213.8L477.9 213.1L481.5 213.1L481.5 212.3L495.4 212.3L495.4 199.6L499.0 199.6L499.0 199.1L505.8 199.1L505.8 189.4L509.4 189.4L509.4 186.5L584.8 186.5L584.8 297.4L588.4 297.4L588.4 296.2L591.6 296.2L591.6 296.2L595.3 296.2L595.3 296.2L598.9 296.2L598.9 291.0L602.1 291.0L602.1 291.0L605.7 291.0L605.7 291.0L609.4 291.0L609.4 291.0L612.5 291.0L612.5 291.0L616.2 291.0L616.2 291.0L619.8 291.0L619.8 291.0L622.9 291.0L622.9 291.0L626.6 291.0L626.6 291.0L630.2 291.0L630.2 291.0L633.4 291.0L633.4 289.1L637.1 289.1L637.1 287.5L679.9 287.5L679.9 406.7L683.5 406.7L683.5 406.7L686.7 406.7L686.7 405.7L690.3 405.7L690.3 405.7L694.0 405.7L694.0 405.8L697.1 405.8L697.1 392.7L700.8 392.7L700.8 392.7L704.4 392.7L704.4 392.8L707.6 392.8L707.6 392.8L714.9 392.8L714.9 384.6L721.7 384.6L721.7 370.6L725.3 370.6L725.3 365.1L728.5 365.1L728.5 365.1L732.1 365.1L732.1 365.1L735.8 365.1L735.8 365.2L738.9 365.2L738.9 365.2L796.8 365.2L796.8 190.9L803.6 190.9L803.6 181.6L810.9 181.6L810.9 180.1L814.0 180.1L814.0 179.3L817.7 179.3L817.7 178.8L821.3 178.8L821.3 178.8L824.5 178.8L824.5 178.8L828.1 178.8L828.1 178.8L831.8 178.8L831.8 178.2L834.9 178.2L834.9 173.8"/><clipPath id="up-flow-today"><rect x="140" y="112" width="996" height="63.2"/></clipPath><clipPath id="down-flow-today"><rect x="140" y="175.2" width="996" height="252.8"/></clipPath></defs>
<use href="#shape-flow-today" fill="#3ddc84" fill-opacity="0.15" clip-path="url(#up-flow-today)"/>
<use href="#line-flow-today" fill="none" stroke="#3ddc84" stroke-width="2.25" stroke-linejoin="round" stroke-linecap="round" clip-path="url(#up-flow-today)"/>
<use href="#shape-flow-today" fill="#ff6b6b" fill-opacity="0.15" clip-path="url(#down-flow-today)"/>
<use href="#line-flow-today" fill="none" stroke="#ff6b6b" stroke-width="2.25" stroke-linejoin="round" stroke-linecap="round" clip-path="url(#down-flow-today)"/>
<circle cx="834.9" cy="173.8" r="5" fill="#3ddc84" stroke="#152131" stroke-width="2.5"/>
<text x="846.9" y="169.3" text-anchor="start" font-size="15" font-weight="700" fill="#3ddc84" stroke="#152131" stroke-width="4" stroke-linejoin="round" paint-order="stroke">+2,250,078 Alz</text>
<text x="846.9" y="186.3" text-anchor="start" font-size="13" font-weight="600" fill="#eaf1f8" stroke="#152131" stroke-width="4" stroke-linejoin="round" paint-order="stroke">net worth 3,436,494,390</text>
</g>
<g transform="translate(20,1490)">
<rect width="1160" height="470" rx="12" fill="#152131" stroke="#24364a"/>
<text x="24" y="32" font-size="18" font-weight="700" letter-spacing="1.4" fill="#ffd166">CANG · CONTINUOUS NETWORTH</text>
<text x="24" y="60" font-size="21" font-weight="700" fill="#eaf1f8">Last 7 days</text>
<text x="24" y="84" fill="#93a6ba">from <tspan font-weight="700" fill="#eaf1f8">3,920,522,401</tspan> at Sat 03 Oct 23:09 · now <tspan font-weight="700" fill="#eaf1f8">3,436,494,390</tspan> at Sat 10 Oct 16:44 Central</text>
<text x="1136" y="62" font-size="30" font-weight="700" text-anchor="end" fill="#ff6b6b">-484,028,011</text>
<text x="1136" y="84" font-size="11" text-anchor="end" fill="#93a6ba">Alz since Sat 03 Oct 23:09</text>
<rect x="282.3" y="93" width="142.3" height="335" fill="#1b2b3d"/>
<rect x="566.9" y="93" width="142.3" height="335" fill="#1b2b3d"/>
<rect x="851.4" y="93" width="142.3" height="335" fill="#1b2b3d"/>
<line x1="140" x2="1136" y1="428.0" y2="428.0" stroke="#243548" stroke-width="1" stroke-dasharray="3 4"/>
<text x="130" y="428.0" text-anchor="end" dominant-baseline="middle" font-weight="400" fill="#93a6ba">-4,000,000,000</text>
<line x1="140" x2="1136" y1="372.4" y2="372.4" stroke="#243548" stroke-width="1" stroke-dasharray="3 4"/>
<text x="130" y="372.4" text-anchor="end" dominant-baseline="middle" font-weight="400" fill="#93a6ba">-3,000,000,000</text>
<line x1="140" x2="1136" y1="316.8" y2="316.8" stroke="#243548" stroke-width="1" stroke-dasharray="3 4"/>
<text x="130" y="316.8" text-anchor="end" dominant-baseline="middle" font-weight="400" fill="#93a6ba">-2,000,000,000</text>
<line x1="140" x2="1136" y1="261.2" y2="261.2" stroke="#243548" stroke-width="1" stroke-dasharray="3 4"/>
<text x="130" y="261.2" text-anchor="end" dominant-baseline="middle" font-weight="400" fill="#93a6ba">-1,000,000,000</text>
<line x1="140" x2="1136" y1="205.6" y2="205.6" stroke="#eaf1f8" stroke-width="1.5"/>
<text x="130" y="205.6" text-anchor="end" dominant-baseline="middle" font-weight="700" fill="#eaf1f8">3,920,522,401</text>
<line x1="140" x2="1136" y1="150.0" y2="150.0" stroke="#243548" stroke-width="1" stroke-dasharray="3 4"/>
<text x="130" y="150.0" text-anchor="end" dominant-baseline="middle" font-weight="400" fill="#93a6ba">+1,000,000,000</text>
<text x="150.0" y="116" font-weight="700" fill="#eaf1f8">Sun 04 Oct</text>
<line x1="140.0" x2="140.0" y1="428" y2="433" stroke="#93a6ba" stroke-width="1"/>
<text x="140.0" y="448" font-size="11" text-anchor="middle" fill="#93a6ba">00:00</text>
<line x1="211.1" x2="211.1" y1="428" y2="433" stroke="#93a6ba" stroke-width="1"/>
<text x="211.1" y="448" font-size="11" text-anchor="middle" fill="#93a6ba">12:00</text>
<line x1="282.3" x2="282.3" y1="428" y2="433" stroke="#93a6ba" stroke-width="1"/>
<text x="292.3" y="116" font-weight="700" fill="#eaf1f8">Mon 05 Oct</text>
<line x1="282.3" x2="282.3" y1="428" y2="433" stroke="#93a6ba" stroke-width="1"/>
<text x="282.3" y="448" font-size="11" text-anchor="middle" fill="#93a6ba">00:00</text>
<line x1="353.4" x2="353.4" y1="428" y2="433" stroke="#93a6ba" stroke-width="1"/>
<text x="353.4" y="448" font-size="11" text-anchor="middle" fill="#93a6ba">12:00</text>
<line x1="424.6" x2="424.6" y1="428" y2="433" stroke="#93a6ba" stroke-width="1"/>
<text x="434.6" y="116" font-weight="700" fill="#eaf1f8">Tue 06 Oct</text>
<line x1="424.6" x2="424.6" y1="428" y2="433" stroke="#93a6ba" stroke-width="1"/>
<text x="424.6" y="448" font-size="11" text-anchor="middle" fill="#93a6ba">00:00</text>
<line x1="495.7" x2="495.7" y1="428" y2="433" stroke="#93a6ba" stroke-width="1"/>
<text x="495.7" y="448" font-size="11" text-anchor="middle" fill="#93a6ba">12:00</text>
<line x1="566.9" x2="566.9" y1="428" y2="433" stroke="#93a6ba" stroke-width="1"/>
<text x="576.9" y="116" font-weight="700" fill="#eaf1f8">Wed 07 Oct</text>
<line x1="566.9" x2="566.9" y1="428" y2="433" stroke="#93a6ba" stroke-width="1"/>
<text x="566.9" y="448" font-size="11" text-anchor="middle" fill="#93a6ba">00:00</text>
<line x1="638.0" x2="638.0" y1="428" y2="433" stroke="#93a6ba" stroke-width="1"/>
<text x="638.0" y="448" font-size="11" text-anchor="middle" fill="#93a6ba">12:00</text>
<line x1="709.1" x2="709.1" y1="428" y2="433" stroke="#93a6ba" stroke-width="1"/>
<text x="719.1" y="116" font-weight="700" fill="#eaf1f8">Thu 08 Oct</text>
<line x1="709.1" x2="709.1" y1="428" y2="433" stroke="#93a6ba" stroke-width="1"/>
<text x="709.1" y="448" font-size="11" text-anchor="middle" fill="#93a6ba">00:00</text>
<line x1="780.3" x2="780.3" y1="428" y2="433" stroke="#93a6ba" stroke-width="1"/>
<text x="780.3" y="448" font-size="11" text-anchor="middle" fill="#93a6ba">12:00</text>
<line x1="851.4" x2="851.4" y1="428" y2="433" stroke="#93a6ba" stroke-width="1"/>
<text x="861.4" y="116" font-weight="700" fill="#eaf1f8">Fri 09 Oct</text>
<line x1="851.4" x2="851.4" y1="428" y2="433" stroke="#93a6ba" stroke-width="1"/>
<text x="851.4" y="448" font-size="11" text-anchor="middle" fill="#93a6ba">00:00</text>
<line x1="922.6" x2="922.6" y1="428" y2="433" stroke="#93a6ba" stroke-width="1"/>
<text x="922.6" y="448" font-size="11" text-anchor="middle" fill="#93a6ba">12:00</text>
<line x1="993.7" x2="993.7" y1="428" y2="433" stroke="#93a6ba" stroke-width="1"/>
<text x="1003.7" y="116" font-weight="700" fill="#7cc4ff">Today 10 Oct</text>
<line x1="993.7" x2="993.7" y1="428" y2="433" stroke="#93a6ba" stroke-width="1"/>
<text x="993.7" y="448" font-size="11" text-anchor="middle" fill="#93a6ba">00:00</text>
<line x1="1064.9" x2="1064.9" y1="428" y2="433" stroke="#93a6ba" stroke-width="1"/>
<text x="1064.9" y="448" font-size="11" text-anchor="middle" fill="#93a6ba">12:00</text>
<line x1="1136.0" x2="1136.0" y1="428" y2="433" stroke="#93a6ba" stroke-width="1"/>
<defs><path id="shape-flow-week" d="M140.0 205.6L140.0 205.6L157.6 205.6L157.6 301.6L159.1 301.6L159.1 301.5L161.1 301.5L161.1 301.7L163.6 301.7L163.6 302.2L165.0 302.2L165.0 302.8L168.5 302.8L168.5 302.7L170.0 302.7L170.0 302.3L171.5 302.3L171.5 302.2L172.9 302.2L172.9 302.2L174.4 302.2L174.4 302.2L175.9 302.2L175.9 302.2L177.4 302.2L177.4 302.3L182.5 302.3L182.5 302.0L184.0 302.0L184.0 302.0L186.0 302.0L186.0 300.2L187.4 300.2L187.4 300.1L190.5 300.1L190.5 299.5L191.9 299.5L191.9 299.8L224.1 299.8L224.1 347.6L225.6 347.6L225.6 347.8L228.9 347.8L228.9 348.9L231.4 348.9L231.4 348.4L235.0 348.4L235.0 354.8L237.0 354.8L237.0 356.2L238.5 356.2L238.5 356.0L240.0 356.0L240.0 356.0L241.5 356.0L241.5 348.0L243.0 348.0L243.0 347.9L244.5 347.9L244.5 359.8L260.0 359.8L260.0 372.8L273.5 372.8L273.5 363.1L276.1 363.1L276.1 350.2L277.5 350.2L277.5 350.0L279.1 350.0L279.1 349.9L281.3 349.9L281.3 298.1L287.4 298.1L287.4 292.0L288.9 292.0L288.9 291.9L290.4 291.9L290.4 291.9L291.9 291.9L291.9 291.7L293.4 291.7L293.4 291.7L295.5 291.7L295.5 291.7L297.5 291.7L297.5 291.1L299.0 291.1L299.0 291.0L300.5 291.0L300.5 290.9L301.9 290.9L301.9 290.9L303.4 290.9L303.4 291.2L304.9 291.2L304.9 291.2L307.0 291.2L307.0 291.1L308.4 291.1L308.4 291.1L309.9 291.1L309.9 291.1L311.4 291.1L311.4 290.9L313.4 290.9L313.4 290.8L314.9 290.8L314.9 290.5L316.4 290.5L316.4 290.4L317.9 290.4L317.9 290.5L319.4 290.5L319.4 290.2L320.8 290.2L320.8 290.2L322.3 290.2L322.3 290.2L323.8 290.2L323.8 290.2L342.9 290.2L342.9 303.2L344.9 303.2L344.9 301.9L346.3 301.9L346.3 301.9L347.8 301.9L347.8 301.8L349.3 301.8L349.3 301.8L350.8 301.8L350.8 301.3L353.2 301.3L353.2 300.6L354.7 300.6L354.7 300.1L356.2 300.1L356.2 299.5L358.2 299.5L358.2 299.3L374.4 299.3L374.4 226.0L376.4 226.0L376.4 225.4L377.9 225.4L377.9 225.4L379.4 225.4L379.4 224.7L380.9 224.7L380.9 224.7L382.3 224.7L382.3 224.4L384.9 224.4L384.9 225.6L386.4 225.6L386.4 225.7L387.8 225.7L387.8 225.4L424.2 225.4L424.2 219.1L426.2 219.1L426.2 218.8L427.7 218.8L427.7 218.7L429.7 218.7L429.7 218.3L431.2 218.3L431.2 218.1L432.7 218.1L432.7 218.1L434.2 218.1L434.2 217.7L435.7 217.7L435.7 217.7L437.2 217.7L437.2 217.5L439.2 217.5L439.2 217.4L441.1 217.4L441.1 217.1L442.6 217.1L442.6 217.0L444.6 217.0L444.6 216.6L446.1 216.6L446.1 216.6L448.1 216.6L448.1 215.9L451.1 215.9L451.1 214.1L453.1 214.1L453.1 213.7L456.1 213.7L456.1 213.2L457.6 213.2L457.6 213.0L459.6 213.0L459.6 212.1L462.6 212.1L462.6 211.4L464.6 211.4L464.6 210.6L467.6 210.6L467.6 209.7L472.3 209.7L472.3 207.9L474.3 207.9L474.3 207.7L476.2 207.7L476.2 207.3L477.7 207.3L477.7 207.1L479.8 207.1L479.8 205.9L482.2 205.9L482.2 205.3L500.7 205.3L500.7 215.7L503.2 215.7L503.2 202.9L504.6 202.9L504.6 202.0L506.1 202.0L506.1 202.7L507.6 202.7L507.6 202.8L509.1 202.8L509.1 202.9L510.6 202.9L510.6 201.4L512.1 201.4L512.1 199.3L514.1 199.3L514.1 198.5L516.1 198.5L516.1 198.2L517.6 198.2L517.6 198.2L519.1 198.2L519.1 197.8L520.6 197.8L520.6 197.8L522.1 197.8L522.1 197.6L523.6 197.6L523.6 197.5L525.5 197.5L525.5 197.4L527.0 197.4L527.0 197.1L529.0 197.1L529.0 197.1L530.5 197.1L530.5 197.0L538.2 197.0L538.2 241.5L541.3 241.5L541.3 242.1L542.8 242.1L542.8 242.2L544.7 242.2L544.7 242.1L573.6 242.1L573.6 252.0L575.6 252.0L575.6 251.7L577.6 251.7L577.6 251.5L579.1 251.5L579.1 251.4L617.2 251.4L617.2 243.0L619.6 243.0L619.6 241.4L627.9 241.4L627.9 228.8L630.9 228.8L630.9 226.5L632.9 226.5L632.9 226.6L634.4 226.6L634.4 226.9L636.4 226.9L636.4 227.3L637.9 227.3L637.9 228.0L639.4 228.0L639.4 228.2L642.8 228.2L642.8 227.4L644.3 227.4L644.3 227.7L645.8 227.7L645.8 227.6L647.8 227.6L647.8 227.4L649.3 227.4L649.3 227.4L650.8 227.4L650.8 227.2L652.3 227.2L652.3 227.0L705.3 227.0L705.3 277.0L706.8 277.0L706.8 277.1L708.3 277.1L708.3 277.0L711.9 277.0L711.9 270.9L713.9 270.9L713.9 270.7L715.8 270.7L715.8 270.4L717.3 270.4L717.3 270.0L718.8 270.0L718.8 269.7L720.8 269.7L720.8 268.9L722.3 268.9L722.3 268.5L725.4 268.5L725.4 267.9L726.8 267.9L726.8 267.7L728.8 267.7L728.8 266.7L730.8 266.7L730.8 266.5L732.3 266.5L732.3 266.5L733.8 266.5L733.8 265.2L735.8 265.2L735.8 264.5L737.3 264.5L737.3 264.1L738.7 264.1L738.7 263.9L740.2 263.9L740.2 263.9L741.7 263.9L741.7 263.0L743.7 263.0L743.7 262.3L746.2 262.3L746.2 261.1L747.7 261.1L747.7 262.2L750.1 262.2L750.1 262.2L751.6 262.2L751.6 261.9L753.1 261.9L753.1 261.4L755.1 261.4L755.1 261.4L756.6 261.4L756.6 261.4L758.1 261.4L758.1 261.2L759.6 261.2L759.6 261.1L767.4 261.1L767.4 295.1L769.9 295.1L769.9 294.3L771.4 294.3L771.4 294.1L772.9 294.1L772.9 294.1L775.4 294.1L775.4 293.4L777.9 293.4L777.9 289.6L791.3 289.6L791.3 233.2L792.8 233.2L792.8 234.2L794.2 234.2L794.2 234.1L797.8 234.1L797.8 229.3L799.3 229.3L799.3 229.1L802.1 229.1L802.1 232.2L803.6 232.2L803.6 231.7L805.1 231.7L805.1 231.6L806.6 231.6L806.6 231.6L808.1 231.6L808.1 231.6L809.6 231.6L809.6 231.2L811.6 231.2L811.6 230.4L813.1 230.4L813.1 230.1L814.5 230.1L814.5 230.0L823.3 230.0L823.3 225.9L824.8 225.9L824.8 225.9L826.8 225.9L826.8 225.6L828.3 225.6L828.3 225.4L829.8 225.4L829.8 225.4L831.8 225.4L831.8 224.3L849.7 224.3L849.7 229.0L851.2 229.0L851.2 229.0L858.8 229.0L858.8 224.8L860.8 224.8L860.8 223.2L862.3 223.2L862.3 223.2L863.8 223.2L863.8 223.2L865.3 223.2L865.3 223.2L868.1 223.2L868.1 222.8L870.1 222.8L870.1 221.5L872.1 221.5L872.1 226.8L873.5 226.8L873.5 226.3L875.6 226.3L875.6 225.0L877.6 225.0L877.6 224.2L879.1 224.2L879.1 224.2L881.5 224.2L881.5 221.9L883.6 221.9L883.6 220.6L885.1 220.6L885.1 220.6L886.5 220.6L886.5 222.1L888.0 222.1L888.0 222.1L890.0 222.1L890.0 221.5L893.0 221.5L893.0 219.2L894.5 219.2L894.5 219.1L896.0 219.1L896.0 220.3L897.5 220.3L897.5 220.3L899.0 220.3L899.0 220.2L900.5 220.2L900.5 220.2L902.0 220.2L902.0 220.2L912.9 220.2L912.9 260.9L914.4 260.9L914.4 261.1L915.9 261.1L915.9 261.0L917.4 261.0L917.4 260.9L918.9 260.9L918.9 260.6L920.4 260.6L920.4 260.6L921.9 260.6L921.9 260.9L932.3 260.9L932.3 229.5L933.8 229.5L933.8 229.6L935.3 229.6L935.3 229.6L936.8 229.6L936.8 229.1L941.5 229.1L941.5 228.8L944.5 228.8L944.5 228.5L946.0 228.5L946.0 228.5L947.5 228.5L947.5 228.5L949.0 228.5L949.0 228.5L950.5 228.5L950.5 228.5L952.0 228.5L952.0 228.8L953.5 228.8L953.5 228.8L955.0 228.8L955.0 228.8L968.1 228.8L968.1 233.3L969.6 233.3L969.6 233.3L971.1 233.3L971.1 233.3L972.6 233.3L972.6 233.3L974.1 233.3L974.1 233.3L975.6 233.3L975.6 233.3L977.1 233.3L977.1 233.3L978.6 233.3L978.6 233.3L980.1 233.3L980.1 233.3L981.6 233.3L981.6 233.2L983.1 233.2L983.1 233.2L984.6 233.2L984.6 233.2L986.1 233.2L986.1 233.0L987.6 233.0L987.6 232.8L989.6 232.8L989.6 232.6L991.1 232.6L991.1 232.6L992.5 232.6L992.5 232.6L994.1 232.6L994.1 232.6L995.6 232.6L995.6 232.6L997.1 232.6L997.1 232.6L998.6 232.6L998.6 232.5L1000.1 232.5L1000.1 232.5L1001.6 232.5L1001.6 232.5L1011.2 232.5L1011.2 232.1L1013.1 232.1L1013.1 231.5L1014.6 231.5L1014.6 231.4L1016.6 231.4L1016.6 236.9L1018.1 236.9L1018.1 236.9L1019.6 236.9L1019.6 236.9L1021.6 236.9L1021.6 236.5L1023.1 236.5L1023.1 237.4L1024.6 237.4L1024.6 236.9L1026.6 236.9L1026.6 236.4L1028.1 236.4L1028.1 236.4L1029.6 236.4L1029.6 236.4L1031.0 236.4L1031.0 236.4L1032.5 236.4L1032.5 236.4L1034.0 236.4L1034.0 236.4L1035.5 236.4L1035.5 236.1L1037.0 236.1L1037.0 236.1L1038.5 236.1L1038.5 235.9L1040.0 235.9L1040.0 236.0L1041.5 236.0L1041.5 236.0L1044.5 236.0L1044.5 234.8L1046.5 234.8L1046.5 233.6L1058.2 233.6L1058.2 243.3L1059.7 243.3L1059.7 242.8L1061.2 242.8L1061.2 242.8L1062.7 242.8L1062.7 242.8L1064.2 242.8L1064.2 242.7L1071.4 242.7L1071.4 253.0L1072.9 253.0L1072.9 252.9L1074.3 252.9L1074.3 251.8L1076.8 251.8L1076.8 249.8L1078.3 249.8L1078.3 249.3L1087.5 249.3L1087.5 234.0L1090.0 234.0L1090.0 233.0L1091.5 233.0L1091.5 233.0L1093.0 233.0L1093.0 232.5L1093.0 205.6Z"/><path id="line-flow-week" d="M140.0 205.6L157.6 205.6L157.6 301.6L159.1 301.6L159.1 301.5L161.1 301.5L161.1 301.7L163.6 301.7L163.6 302.2L165.0 302.2L165.0 302.8L168.5 302.8L168.5 302.7L170.0 302.7L170.0 302.3L171.5 302.3L171.5 302.2L172.9 302.2L172.9 302.2L174.4 302.2L174.4 302.2L175.9 302.2L175.9 302.2L177.4 302.2L177.4 302.3L182.5 302.3L182.5 302.0L184.0 302.0L184.0 302.0L186.0 302.0L186.0 300.2L187.4 300.2L187.4 300.1L190.5 300.1L190.5 299.5L191.9 299.5L191.9 299.8L224.1 299.8L224.1 347.6L225.6 347.6L225.6 347.8L228.9 347.8L228.9 348.9L231.4 348.9L231.4 348.4L235.0 348.4L235.0 354.8L237.0 354.8L237.0 356.2L238.5 356.2L238.5 356.0L240.0 356.0L240.0 356.0L241.5 356.0L241.5 348.0L243.0 348.0L243.0 347.9L244.5 347.9L244.5 359.8L260.0 359.8L260.0 372.8L273.5 372.8L273.5 363.1L276.1 363.1L276.1 350.2L277.5 350.2L277.5 350.0L279.1 350.0L279.1 349.9L281.3 349.9L281.3 298.1L287.4 298.1L287.4 292.0L288.9 292.0L288.9 291.9L290.4 291.9L290.4 291.9L291.9 291.9L291.9 291.7L293.4 291.7L293.4 291.7L295.5 291.7L295.5 291.7L297.5 291.7L297.5 291.1L299.0 291.1L299.0 291.0L300.5 291.0L300.5 290.9L301.9 290.9L301.9 290.9L303.4 290.9L303.4 291.2L304.9 291.2L304.9 291.2L307.0 291.2L307.0 291.1L308.4 291.1L308.4 291.1L309.9 291.1L309.9 291.1L311.4 291.1L311.4 290.9L313.4 290.9L313.4 290.8L314.9 290.8L314.9 290.5L316.4 290.5L316.4 290.4L317.9 290.4L317.9 290.5L319.4 290.5L319.4 290.2L320.8 290.2L320.8 290.2L322.3 290.2L322.3 290.2L323.8 290.2L323.8 290.2L342.9 290.2L342.9 303.2L344.9 303.2L344.9 301.9L346.3 301.9L346.3 301.9L347.8 301.9L347.8 301.8L349.3 301.8L349.3 301.8L350.8 301.8L350.8 301.3L353.2 301.3L353.2 300.6L354.7 300.6L354.7 300.1L356.2 300.1L356.2 299.5L358.2 299.5L358.2 299.3L374.4 299.3L374.4 226.0L376.4 226.0L376.4 225.4L377.9 225.4L377.9 225.4L379.4 225.4L379.4 224.7L380.9 224.7L380.9 224.7L382.3 224.7L382.3 224.4L384.9 224.4L384.9 225.6L386.4 225.6L386.4 225.7L387.8 225.7L387.8 225.4L424.2 225.4L424.2 219.1L426.2 219.1L426.2 218.8L427.7 218.8L427.7 218.7L429.7 218.7L429.7 218.3L431.2 218.3L431.2 218.1L432.7 218.1L432.7 218.1L434.2 218.1L434.2 217.7L435.7 217.7L435.7 217.7L437.2 217.7L437.2 217.5L439.2 217.5L439.2 217.4L441.1 217.4L441.1 217.1L442.6 217.1L442.6 217.0L444.6 217.0L444.6 216.6L446.1 216.6L446.1 216.6L448.1 216.6L448.1 215.9L451.1 215.9L451.1 214.1L453.1 214.1L453.1 213.7L456.1 213.7L456.1 213.2L457.6 213.2L457.6 213.0L459.6 213.0L459.6 212.1L462.6 212.1L462.6 211.4L464.6 211.4L464.6 210.6L467.6 210.6L467.6 209.7L472.3 209.7L472.3 207.9L474.3 207.9L474.3 207.7L476.2 207.7L476.2 207.3L477.7 207.3L477.7 207.1L479.8 207.1L479.8 205.9L482.2 205.9L482.2 205.3L500.7 205.3L500.7 215.7L503.2 215.7L503.2 202.9L504.6 202.9L504.6 202.0L506.1 202.0L506.1 202.7L507.6 202.7L507.6 202.8L509.1 202.8L509.1 202.9L510.6 202.9L510.6 201.4L512.1 201.4L512.1 199.3L514.1 199.3L514.1 198.5L516.1 198.5L516.1 198.2L517.6 198.2L517.6 198.2L519.1 198.2L519.1 197.8L520.6 197.8L520.6 197.8L522.1 197.8L522.1 197.6L523.6 197.6L523.6 197.5L525.5 197.5L525.5 197.4L527.0 197.4L527.0 197.1L529.0 197.1L529.0 197.1L530.5 197.1L530.5 197.0L538.2 197.0L538.2 241.5L541.3 241.5L541.3 242.1L542.8 242.1L542.8 242.2L544.7 242.2L544.7 242.1L573.6 242.1L573.6 252.0L575.6 252.0L575.6 251.7L577.6 251.7L577.6 251.5L579.1 251.5L579.1 251.4L617.2 251.4L617.2 243.0L619.6 243.0L619.6 241.4L627.9 241.4L627.9 228.8L630.9 228.8L630.9 226.5L632.9 226.5L632.9 226.6L634.4 226.6L634.4 226.9L636.4 226.9L636.4 227.3L637.9 227.3L637.9 228.0L639.4 228.0L639.4 228.2L642.8 228.2L642.8 227.4L644.3 227.4L644.3 227.7L645.8 227.7L645.8 227.6L647.8 227.6L647.8 227.4L649.3 227.4L649.3 227.4L650.8 227.4L650.8 227.2L652.3 227.2L652.3 227.0L705.3 227.0L705.3 277.0L706.8 277.0L706.8 277.1L708.3 277.1L708.3 277.0L711.9 277.0L711.9 270.9L713.9 270.9L713.9 270.7L715.8 270.7L715.8 270.4L717.3 270.4L717.3 270.0L718.8 270.0L718.8 269.7L720.8 269.7L720.8 268.9L722.3 268.9L722.3 268.5L725.4 268.5L725.4 267.9L726.8 267.9L726.8 267.7L728.8 267.7L728.8 266.7L730.8 266.7L730.8 266.5L732.3 266.5L732.3 266.5L733.8 266.5L733.8 265.2L735.8 265.2L735.8 264.5L737.3 264.5L737.3 264.1L738.7 264.1L738.7 263.9L740.2 263.9L740.2 263.9L741.7 263.9L741.7 263.0L743.7 263.0L743.7 262.3L746.2 262.3L746.2 261.1L747.7 261.1L747.7 262.2L750.1 262.2L750.1 262.2L751.6 262.2L751.6 261.9L753.1 261.9L753.1 261.4L755.1 261.4L755.1 261.4L756.6 261.4L756.6 261.4L758.1 261.4L758.1 261.2L759.6 261.2L759.6 261.1L767.4 261.1L767.4 295.1L769.9 295.1L769.9 294.3L771.4 294.3L771.4 294.1L772.9 294.1L772.9 294.1L775.4 294.1L775.4 293.4L777.9 293.4L777.9 289.6L791.3 289.6L791.3 233.2L792.8 233.2L792.8 234.2L794.2 234.2L794.2 234.1L797.8 234.1L797.8 229.3L799.3 229.3L799.3 229.1L802.1 229.1L802.1 232.2L803.6 232.2L803.6 231.7L805.1 231.7L805.1 231.6L806.6 231.6L806.6 231.6L808.1 231.6L808.1 231.6L809.6 231.6L809.6 231.2L811.6 231.2L811.6 230.4L813.1 230.4L813.1 230.1L814.5 230.1L814.5 230.0L823.3 230.0L823.3 225.9L824.8 225.9L824.8 225.9L826.8 225.9L826.8 225.6L828.3 225.6L828.3 225.4L829.8 225.4L829.8 225.4L831.8 225.4L831.8 224.3L849.7 224.3L849.7 229.0L851.2 229.0L851.2 229.0L858.8 229.0L858.8 224.8L860.8 224.8L860.8 223.2L862.3 223.2L862.3 223.2L863.8 223.2L863.8 223.2L865.3 223.2L865.3 223.2L868.1 223.2L868.1 222.8L870.1 222.8L870.1 221.5L872.1 221.5L872.1 226.8L873.5 226.8L873.5 226.3L875.6 226.3L875.6 225.0L877.6 225.0L877.6 224.2L879.1 224.2L879.1 224.2L881.5 224.2L881.5 221.9L883.6 221.9L883.6 220.6L885.1 220.6L885.1 220.6L886.5 220.6L886.5 222.1L888.0 222.1L888.0 222.1L890.0 222.1L890.0 221.5L893.0 221.5L893.0 219.2L894.5 219.2L894.5 219.1L896.0 219.1L896.0 220.3L897.5 220.3L897.5 220.3L899.0 220.3L899.0 220.2L900.5 220.2L900.5 220.2L902.0 220.2L902.0 220.2L912.9 220.2L912.9 260.9L914.4 260.9L914.4 261.1L915.9 261.1L915.9 261.0L917.4 261.0L917.4 260.9L918.9 260.9L918.9 260.6L920.4 260.6L920.4 260.6L921.9 260.6L921.9 260.9L932.3 260.9L932.3 229.5L933.8 229.5L933.8 229.6L935.3 229.6L935.3 229.6L936.8 229.6L936.8 229.1L941.5 229.1L941.5 228.8L944.5 228.8L944.5 228.5L946.0 228.5L946.0 228.5L947.5 228.5L947.5 228.5L949.0 228.5L949.0 228.5L950.5 228.5L950.5 228.5L952.0 228.5L952.0 228.8L953.5 228.8L953.5 228.8L955.0 228.8L955.0 228.8L968.1 228.8L968.1 233.3L969.6 233.3L969.6 233.3L971.1 233.3L971.1 233.3L972.6 233.3L972.6 233.3L974.1 233.3L974.1 233.3L975.6 233.3L975.6 233.3L977.1 233.3L977.1 233.3L978.6 233.3L978.6 233.3L980.1 233.3L980.1 233.3L981.6 233.3L981.6 233.2L983.1 233.2L983.1 233.2L984.6 233.2L984.6 233.2L986.1 233.2L986.1 233.0L987.6 233.0L987.6 232.8L989.6 232.8L989.6 232.6L991.1 232.6L991.1 232.6L992.5 232.6L992.5 232.6L994.1 232.6L994.1 232.6L995.6 232.6L995.6 232.6L997.1 232.6L997.1 232.6L998.6 232.6L998.6 232.5L1000.1 232.5L1000.1 232.5L1001.6 232.5L1001.6 232.5L1011.2 232.5L1011.2 232.1L1013.1 232.1L1013.1 231.5L1014.6 231.5L1014.6 231.4L1016.6 231.4L1016.6 236.9L1018.1 236.9L1018.1 236.9L1019.6 236.9L1019.6 236.9L1021.6 236.9L1021.6 236.5L1023.1 236.5L1023.1 237.4L1024.6 237.4L1024.6 236.9L1026.6 236.9L1026.6 236.4L1028.1 236.4L1028.1 236.4L1029.6 236.4L1029.6 236.4L1031.0 236.4L1031.0 236.4L1032.5 236.4L1032.5 236.4L1034.0 236.4L1034.0 236.4L1035.5 236.4L1035.5 236.1L1037.0 236.1L1037.0 236.1L1038.5 236.1L1038.5 235.9L1040.0 235.9L1040.0 236.0L1041.5 236.0L1041.5 236.0L1044.5 236.0L1044.5 234.8L1046.5 234.8L1046.5 233.6L1058.2 233.6L1058.2 243.3L1059.7 243.3L1059.7 242.8L1061.2 242.8L1061.2 242.8L1062.7 242.8L1062.7 242.8L1064.2 242.8L1064.2 242.7L1071.4 242.7L1071.4 253.0L1072.9 253.0L1072.9 252.9L1074.3 252.9L1074.3 251.8L1076.8 251.8L1076.8 249.8L1078.3 249.8L1078.3 249.3L1087.5 249.3L1087.5 234.0L1090.0 234.0L1090.0 233.0L1091.5 233.0L1091.5 233.0L1093.0 233.0L1093.0 232.5"/><clipPath id="up-flow-week"><rect x="140" y="150" width="996" height="55.6"/></clipPath><clipPath id="down-flow-week"><rect x="140" y="205.6" width="996" height="222.4"/></clipPath></defs>
<use href="#shape-flow-week" fill="#3ddc84" fill-opacity="0.15" clip-path="url(#up-flow-week)"/>
<use href="#line-flow-week" fill="none" stroke="#3ddc84" stroke-width="2.25" stroke-linejoin="round" stroke-linecap="round" clip-path="url(#up-flow-week)"/>
<use href="#shape-flow-week" fill="#ff6b6b" fill-opacity="0.15" clip-path="url(#down-flow-week)"/>
<use href="#line-flow-week" fill="none" stroke="#ff6b6b" stroke-width="2.25" stroke-linejoin="round" stroke-linecap="round" clip-path="url(#down-flow-week)"/>
<circle cx="1093.0" cy="232.5" r="5" fill="#ff6b6b" stroke="#152131" stroke-width="2.5"/>
<text x="1081.0" y="203.5" text-anchor="end" font-size="15" font-weight="700" fill="#ff6b6b" stroke="#152131" stroke-width="4" stroke-linejoin="round" paint-order="stroke">-484,028,011 Alz</text>
<text x="1081.0" y="220.5" text-anchor="end" font-size="13" font-weight="600" fill="#eaf1f8" stroke="#152131" stroke-width="4" stroke-linejoin="round" paint-order="stroke">net worth 3,436,494,390</text>
</g>
</svg>
