<svg xmlns="http://www.w3.org/2000/svg" width="1200" height="1000" viewBox="0 0 1200 1000" font-family="Segoe UI, Helvetica Neue, Arial, sans-serif" font-size="13" style="font-variant-numeric: tabular-nums">
<rect width="1200" height="1000" fill="#eef2ef"/>
<g transform="translate(20,20)">
<rect width="1160" height="470" rx="12" fill="#ffffff" stroke="#dbe3de"/>
<text x="24" y="32" font-size="11" font-weight="700" letter-spacing="1.4" fill="#2b5d87">BOT · NET WORTH TODAY</text>
<text x="24" y="60" font-size="21" font-weight="700" fill="#16211b">Since midnight</text>
<text x="24" y="84" fill="#5f6b65">Thu 01 Oct 2026 · started at <tspan font-weight="700" fill="#16211b">2,384,184,542</tspan> at 00:00 · now <tspan font-weight="700" fill="#16211b">2,738,666,039</tspan> at 09:27 Central</text>
<text x="1136" y="62" font-size="30" font-weight="700" text-anchor="end" fill="#1d8a53">+354,481,497</text>
<text x="1136" y="84" font-size="11" text-anchor="end" fill="#5f6b65">Alz since 00:00</text>
<line x1="140" x2="1136" y1="428.0" y2="428.0" stroke="#e3e9e5" stroke-width="1" stroke-dasharray="3 4"/>
<text x="130" y="428.0" text-anchor="end" dominant-baseline="middle" font-weight="400" fill="#5f6b65">-100,000,000</text>
<line x1="140" x2="1136" y1="375.3" y2="375.3" stroke="#16211b" stroke-width="1.5"/>
<text x="130" y="375.3" text-anchor="end" dominant-baseline="middle" font-weight="700" fill="#16211b">2,384,184,542</text>
<line x1="140" x2="1136" y1="322.7" y2="322.7" stroke="#e3e9e5" stroke-width="1" stroke-dasharray="3 4"/>
<text x="130" y="322.7" text-anchor="end" dominant-baseline="middle" font-weight="400" fill="#5f6b65">+100,000,000</text>
<line x1="140" x2="1136" y1="270.0" y2="270.0" stroke="#e3e9e5" stroke-width="1" stroke-dasharray="3 4"/>
<text x="130" y="270.0" text-anchor="end" dominant-baseline="middle" font-weight="400" fill="#5f6b65">+200,000,000</text>
<line x1="140" x2="1136" y1="217.3" y2="217.3" stroke="#e3e9e5" stroke-width="1" stroke-dasharray="3 4"/>
<text x="130" y="217.3" text-anchor="end" dominant-baseline="middle" font-weight="400" fill="#5f6b65">+300,000,000</text>
<line x1="140" x2="1136" y1="164.7" y2="164.7" stroke="#e3e9e5" stroke-width="1" stroke-dasharray="3 4"/>
<text x="130" y="164.7" text-anchor="end" dominant-baseline="middle" font-weight="400" fill="#5f6b65">+400,000,000</text>
<line x1="140" x2="1136" y1="112.0" y2="112.0" stroke="#e3e9e5" stroke-width="1" stroke-dasharray="3 4"/>
<text x="130" y="112.0" text-anchor="end" dominant-baseline="middle" font-weight="400" fill="#5f6b65">+500,000,000</text>
<line x1="140.0" x2="140.0" y1="428" y2="433" stroke="#5f6b65" stroke-width="1"/>
<text x="140.0" y="448" font-size="11" text-anchor="middle" fill="#5f6b65">00:00</text>
<line x1="223.0" x2="223.0" y1="428" y2="433" stroke="#5f6b65" stroke-width="1"/>
<text x="223.0" y="448" font-size="11" text-anchor="middle" fill="#5f6b65">02:00</text>
<line x1="306.0" x2="306.0" y1="428" y2="433" stroke="#5f6b65" stroke-width="1"/>
<text x="306.0" y="448" font-size="11" text-anchor="middle" fill="#5f6b65">04:00</text>
<line x1="389.0" x2="389.0" y1="112" y2="428" stroke="#e3e9e5" stroke-width="1"/>
<line x1="389.0" x2="389.0" y1="428" y2="433" stroke="#5f6b65" stroke-width="1"/>
<text x="389.0" y="448" font-size="11" text-anchor="middle" fill="#5f6b65">06:00</text>
<line x1="472.0" x2="472.0" y1="428" y2="433" stroke="#5f6b65" stroke-width="1"/>
<text x="472.0" y="448" font-size="11" text-anchor="middle" fill="#5f6b65">08:00</text>
<line x1="555.0" x2="555.0" y1="428" y2="433" stroke="#5f6b65" stroke-width="1"/>
<text x="555.0" y="448" font-size="11" text-anchor="middle" fill="#5f6b65">10:00</text>
<line x1="638.0" x2="638.0" y1="112" y2="428" stroke="#e3e9e5" stroke-width="1"/>
<line x1="638.0" x2="638.0" y1="428" y2="433" stroke="#5f6b65" stroke-width="1"/>
<text x="638.0" y="448" font-size="11" text-anchor="middle" fill="#5f6b65">12:00</text>
<line x1="721.0" x2="721.0" y1="428" y2="433" stroke="#5f6b65" stroke-width="1"/>
<text x="721.0" y="448" font-size="11" text-anchor="middle" fill="#5f6b65">14:00</text>
<line x1="804.0" x2="804.0" y1="428" y2="433" stroke="#5f6b65" stroke-width="1"/>
<text x="804.0" y="448" font-size="11" text-anchor="middle" fill="#5f6b65">16:00</text>
<line x1="887.0" x2="887.0" y1="112" y2="428" stroke="#e3e9e5" stroke-width="1"/>
<line x1="887.0" x2="887.0" y1="428" y2="433" stroke="#5f6b65" stroke-width="1"/>
<text x="887.0" y="448" font-size="11" text-anchor="middle" fill="#5f6b65">18:00</text>
<line x1="970.0" x2="970.0" y1="428" y2="433" stroke="#5f6b65" stroke-width="1"/>
<text x="970.0" y="448" font-size="11" text-anchor="middle" fill="#5f6b65">20:00</text>
<line x1="1053.0" x2="1053.0" y1="428" y2="433" stroke="#5f6b65" stroke-width="1"/>
<text x="1053.0" y="448" font-size="11" text-anchor="middle" fill="#5f6b65">22:00</text>
<line x1="1136.0" x2="1136.0" y1="428" y2="433" stroke="#5f6b65" stroke-width="1"/>
<defs><path id="shape-today" d="M140.1 375.3L140.1 375.3L143.7 375.3L147.5 380.3L151.1 380.3L154.8 380.3L158.3 380.3L161.9 373.9L165.6 373.9L169.1 373.9L172.8 368.2L176.5 368.2L180.0 368.2L183.6 364.1L187.3 364.1L203.1 355.7L206.8 355.7L210.4 355.7L213.9 339.3L217.6 339.3L221.2 339.3L224.8 339.3L228.4 339.3L232.0 285.4L235.5 285.4L239.2 285.4L242.8 285.4L246.3 285.4L250.0 285.4L253.6 294.3L257.1 294.7L260.8 294.7L272.9 294.6L276.6 294.6L280.2 294.6L283.7 294.9L287.3 294.9L290.9 294.9L294.5 294.9L298.1 295.1L301.8 295.1L305.3 295.1L308.9 295.1L312.5 294.6L316.0 294.6L319.6 294.6L323.3 292.9L326.8 292.9L330.4 292.9L334.1 292.9L337.6 292.9L341.2 292.9L344.8 292.9L348.4 224.1L352.0 224.1L355.6 224.1L359.2 224.1L362.9 224.1L366.5 223.3L370.1 223.3L373.8 222.5L377.3 222.5L381.0 222.5L384.7 161.2L388.2 161.2L391.8 161.2L395.5 161.2L399.0 161.2L402.6 151.3L406.1 151.3L409.7 150.7L413.3 150.7L417.0 150.7L420.6 150.7L424.2 286.6L427.7 286.8L431.3 286.8L434.7 285.3L438.2 285.3L441.8 285.3L445.5 285.3L449.2 280.6L452.8 280.6L456.5 280.6L460.0 212.0L463.5 212.0L467.2 212.0L470.9 306.7L474.6 306.0L478.2 306.0L481.9 306.0L485.6 305.2L489.1 305.2L492.6 305.2L496.3 305.2L500.0 305.2L503.7 295.4L507.3 295.9L510.8 295.9L514.5 296.7L518.2 296.7L521.6 291.4L525.3 291.4L528.8 188.6L532.3 188.6L532.3 375.3Z"/><path id="line-today" d="M140.1 375.3L143.7 375.3L147.5 380.3L151.1 380.3L154.8 380.3L158.3 380.3L161.9 373.9L165.6 373.9L169.1 373.9L172.8 368.2L176.5 368.2L180.0 368.2L183.6 364.1L187.3 364.1L203.1 355.7L206.8 355.7L210.4 355.7L213.9 339.3L217.6 339.3L221.2 339.3L224.8 339.3L228.4 339.3L232.0 285.4L235.5 285.4L239.2 285.4L242.8 285.4L246.3 285.4L250.0 285.4L253.6 294.3L257.1 294.7L260.8 294.7L272.9 294.6L276.6 294.6L280.2 294.6L283.7 294.9L287.3 294.9L290.9 294.9L294.5 294.9L298.1 295.1L301.8 295.1L305.3 295.1L308.9 295.1L312.5 294.6L316.0 294.6L319.6 294.6L323.3 292.9L326.8 292.9L330.4 292.9L334.1 292.9L337.6 292.9L341.2 292.9L344.8 292.9L348.4 224.1L352.0 224.1L355.6 224.1L359.2 224.1L362.9 224.1L366.5 223.3L370.1 223.3L373.8 222.5L377.3 222.5L381.0 222.5L384.7 161.2L388.2 161.2L391.8 161.2L395.5 161.2L399.0 161.2L402.6 151.3L406.1 151.3L409.7 150.7L413.3 150.7L417.0 150.7L420.6 150.7L424.2 286.6L427.7 286.8L431.3 286.8L434.7 285.3L438.2 285.3L441.8 285.3L445.5 285.3L449.2 280.6L452.8 280.6L456.5 280.6L460.0 212.0L463.5 212.0L467.2 212.0L470.9 306.7L474.6 306.0L478.2 306.0L481.9 306.0L485.6 305.2L489.1 305.2L492.6 305.2L496.3 305.2L500.0 305.2L503.7 295.4L507.3 295.9L510.8 295.9L514.5 296.7L518.2 296.7L521.6 291.4L525.3 291.4L528.8 188.6L532.3 188.6"/><clipPath id="up-today"><rect x="140" y="112" width="996" height="263.3"/></clipPath><clipPath id="down-today"><rect x="140" y="375.3" width="996" height="52.7"/></clipPath></defs>
<use href="#shape-today" fill="#1d8a53" fill-opacity="0.15" clip-path="url(#up-today)"/>
<use href="#line-today" fill="none" stroke="#1d8a53" stroke-width="2.25" stroke-linejoin="round" stroke-linecap="round" clip-path="url(#up-today)"/>
<use href="#shape-today" fill="#c4402b" fill-opacity="0.15" clip-path="url(#down-today)"/>
<use href="#line-today" fill="none" stroke="#c4402b" stroke-width="2.25" stroke-linejoin="round" stroke-linecap="round" clip-path="url(#down-today)"/>
<circle cx="532.3" cy="188.6" r="5" fill="#1d8a53" stroke="#ffffff" stroke-width="2.5"/>
<text x="544.3" y="184.1" text-anchor="start" font-size="15" font-weight="700" fill="#1d8a53" stroke="#ffffff" stroke-width="4" stroke-linejoin="round" paint-order="stroke">+354,481,497 Alz</text>
<text x="544.3" y="201.1" text-anchor="start" font-size="13" font-weight="600" fill="#16211b" stroke="#ffffff" stroke-width="4" stroke-linejoin="round" paint-order="stroke">net worth 2,738,666,039</text>
</g>
<g transform="translate(20,510)">
<rect width="1160" height="470" rx="12" fill="#ffffff" stroke="#dbe3de"/>
<text x="24" y="32" font-size="11" font-weight="700" letter-spacing="1.4" fill="#2b5d87">BOT · NET WORTH BY DAY</text>
<text x="24" y="60" font-size="21" font-weight="700" fill="#16211b">Last 7 days</text>
<text x="24" y="84" fill="#5f6b65">each day starts again at its first reading after midnight</text>
<text x="1136" y="62" font-size="30" font-weight="700" text-anchor="end" fill="#1d8a53">+471,551,904</text>
<text x="1136" y="84" font-size="11" text-anchor="end" fill="#5f6b65">Alz, the 2 daily changes added up</text>
<rect x="282.3" y="93" width="142.3" height="335" fill="#f5f8f6"/>
<rect x="566.9" y="93" width="142.3" height="335" fill="#f5f8f6"/>
<rect x="851.4" y="93" width="142.3" height="335" fill="#f5f8f6"/>
<line x1="140" x2="1136" y1="428.0" y2="428.0" stroke="#e3e9e5" stroke-width="1" stroke-dasharray="3 4"/>
<text x="130" y="428.0" text-anchor="end" dominant-baseline="middle" font-weight="400" fill="#5f6b65">-100,000,000</text>
<line x1="140" x2="1136" y1="381.7" y2="381.7" stroke="#16211b" stroke-width="1.5"/>
<text x="130" y="381.7" text-anchor="end" dominant-baseline="middle" font-weight="700" fill="#16211b">day start</text>
<line x1="140" x2="1136" y1="335.3" y2="335.3" stroke="#e3e9e5" stroke-width="1" stroke-dasharray="3 4"/>
<text x="130" y="335.3" text-anchor="end" dominant-baseline="middle" font-weight="400" fill="#5f6b65">+100,000,000</text>
<line x1="140" x2="1136" y1="289.0" y2="289.0" stroke="#e3e9e5" stroke-width="1" stroke-dasharray="3 4"/>
<text x="130" y="289.0" text-anchor="end" dominant-baseline="middle" font-weight="400" fill="#5f6b65">+200,000,000</text>
<line x1="140" x2="1136" y1="242.7" y2="242.7" stroke="#e3e9e5" stroke-width="1" stroke-dasharray="3 4"/>
<text x="130" y="242.7" text-anchor="end" dominant-baseline="middle" font-weight="400" fill="#5f6b65">+300,000,000</text>
<line x1="140" x2="1136" y1="196.3" y2="196.3" stroke="#e3e9e5" stroke-width="1" stroke-dasharray="3 4"/>
<text x="130" y="196.3" text-anchor="end" dominant-baseline="middle" font-weight="400" fill="#5f6b65">+400,000,000</text>
<line x1="140" x2="1136" y1="150.0" y2="150.0" stroke="#e3e9e5" stroke-width="1" stroke-dasharray="3 4"/>
<text x="130" y="150.0" text-anchor="end" dominant-baseline="middle" font-weight="400" fill="#5f6b65">+500,000,000</text>
<text x="150.0" y="116" font-weight="700" fill="#16211b">Fri 25 Sep</text>
<line x1="140.0" x2="140.0" y1="428" y2="433" stroke="#5f6b65" stroke-width="1"/>
<text x="140.0" y="448" font-size="11" text-anchor="middle" fill="#5f6b65">00:00</text>
<line x1="211.1" x2="211.1" y1="428" y2="433" stroke="#5f6b65" stroke-width="1"/>
<text x="211.1" y="448" font-size="11" text-anchor="middle" fill="#5f6b65">12:00</text>
<line x1="282.3" x2="282.3" y1="428" y2="433" stroke="#5f6b65" stroke-width="1"/>
<text x="292.3" y="116" font-weight="700" fill="#16211b">Sat 26 Sep</text>
<line x1="282.3" x2="282.3" y1="428" y2="433" stroke="#5f6b65" stroke-width="1"/>
<text x="282.3" y="448" font-size="11" text-anchor="middle" fill="#5f6b65">00:00</text>
<line x1="353.4" x2="353.4" y1="428" y2="433" stroke="#5f6b65" stroke-width="1"/>
<text x="353.4" y="448" font-size="11" text-anchor="middle" fill="#5f6b65">12:00</text>
<line x1="424.6" x2="424.6" y1="428" y2="433" stroke="#5f6b65" stroke-width="1"/>
<text x="434.6" y="116" font-weight="700" fill="#16211b">Sun 27 Sep</text>
<line x1="424.6" x2="424.6" y1="428" y2="433" stroke="#5f6b65" stroke-width="1"/>
<text x="424.6" y="448" font-size="11" text-anchor="middle" fill="#5f6b65">00:00</text>
<line x1="495.7" x2="495.7" y1="428" y2="433" stroke="#5f6b65" stroke-width="1"/>
<text x="495.7" y="448" font-size="11" text-anchor="middle" fill="#5f6b65">12:00</text>
<line x1="566.9" x2="566.9" y1="428" y2="433" stroke="#5f6b65" stroke-width="1"/>
<text x="576.9" y="116" font-weight="700" fill="#16211b">Mon 28 Sep</text>
<line x1="566.9" x2="566.9" y1="428" y2="433" stroke="#5f6b65" stroke-width="1"/>
<text x="566.9" y="448" font-size="11" text-anchor="middle" fill="#5f6b65">00:00</text>
<line x1="638.0" x2="638.0" y1="428" y2="433" stroke="#5f6b65" stroke-width="1"/>
<text x="638.0" y="448" font-size="11" text-anchor="middle" fill="#5f6b65">12:00</text>
<line x1="709.1" x2="709.1" y1="428" y2="433" stroke="#5f6b65" stroke-width="1"/>
<text x="719.1" y="116" font-weight="700" fill="#16211b">Tue 29 Sep</text>
<line x1="709.1" x2="709.1" y1="428" y2="433" stroke="#5f6b65" stroke-width="1"/>
<text x="709.1" y="448" font-size="11" text-anchor="middle" fill="#5f6b65">00:00</text>
<line x1="780.3" x2="780.3" y1="428" y2="433" stroke="#5f6b65" stroke-width="1"/>
<text x="780.3" y="448" font-size="11" text-anchor="middle" fill="#5f6b65">12:00</text>
<line x1="851.4" x2="851.4" y1="428" y2="433" stroke="#5f6b65" stroke-width="1"/>
<text x="861.4" y="116" font-weight="700" fill="#16211b">Wed 30 Sep</text>
<line x1="851.4" x2="851.4" y1="428" y2="433" stroke="#5f6b65" stroke-width="1"/>
<text x="851.4" y="448" font-size="11" text-anchor="middle" fill="#5f6b65">00:00</text>
<line x1="922.6" x2="922.6" y1="428" y2="433" stroke="#5f6b65" stroke-width="1"/>
<text x="922.6" y="448" font-size="11" text-anchor="middle" fill="#5f6b65">12:00</text>
<line x1="993.7" x2="993.7" y1="428" y2="433" stroke="#5f6b65" stroke-width="1"/>
<text x="861.4" y="134" font-weight="700" fill="#1d8a53">+117,070,407</text>
<defs><path id="shape-day5" d="M972.8 381.7L972.8 381.7L974.3 379.4L975.9 379.0L977.4 379.0L979.0 379.0L985.1 363.7L986.6 360.1L988.1 360.2L989.6 355.9L991.2 346.7L992.7 327.4L993.2 327.4L993.2 381.7Z"/><path id="line-day5" d="M972.8 381.7L974.3 379.4L975.9 379.0L977.4 379.0L979.0 379.0L985.1 363.7L986.6 360.1L988.1 360.2L989.6 355.9L991.2 346.7L992.7 327.4L993.2 327.4"/><clipPath id="up-day5"><rect x="140" y="150" width="996" height="231.7"/></clipPath><clipPath id="down-day5"><rect x="140" y="381.7" width="996" height="46.3"/></clipPath></defs>
<use href="#shape-day5" fill="#1d8a53" fill-opacity="0.15" clip-path="url(#up-day5)"/>
<use href="#line-day5" fill="none" stroke="#1d8a53" stroke-width="2.25" stroke-linejoin="round" stroke-linecap="round" clip-path="url(#up-day5)"/>
<use href="#shape-day5" fill="#c4402b" fill-opacity="0.15" clip-path="url(#down-day5)"/>
<use href="#line-day5" fill="none" stroke="#c4402b" stroke-width="2.25" stroke-linejoin="round" stroke-linecap="round" clip-path="url(#down-day5)"/>
<circle cx="993.2" cy="327.4" r="5" fill="#1d8a53" stroke="#ffffff" stroke-width="2.5"/>
<text x="1003.7" y="116" font-weight="700" fill="#2b5d87">Today 01 Oct</text>
<line x1="993.7" x2="993.7" y1="428" y2="433" stroke="#5f6b65" stroke-width="1"/>
<text x="993.7" y="448" font-size="11" text-anchor="middle" fill="#5f6b65">00:00</text>
<line x1="1064.9" x2="1064.9" y1="428" y2="433" stroke="#5f6b65" stroke-width="1"/>
<text x="1064.9" y="448" font-size="11" text-anchor="middle" fill="#5f6b65">12:00</text>
<line x1="1136.0" x2="1136.0" y1="428" y2="433" stroke="#5f6b65" stroke-width="1"/>
<text x="1003.7" y="134" font-weight="700" fill="#1d8a53">+354,481,497</text>
<defs><path id="shape-day6" d="M993.7 381.7L993.7 381.7L995.3 386.0L996.8 380.4L998.4 375.4L999.9 371.8L1003.3 364.4L1004.8 350.0L1006.3 350.0L1007.9 302.6L1009.4 302.6L1011.0 310.7L1013.7 310.7L1015.3 310.9L1016.8 311.1L1018.4 310.6L1019.9 309.1L1021.4 309.2L1023.0 309.2L1024.5 248.7L1026.1 248.0L1027.6 247.2L1029.2 193.3L1030.7 193.3L1032.2 184.0L1033.8 184.0L1035.3 303.8L1036.8 302.4L1038.4 298.4L1039.9 237.9L1041.5 320.7L1043.1 319.9L1044.6 319.9L1046.2 311.8L1047.7 312.5L1049.3 217.4L1049.8 217.4L1049.8 381.7Z"/><path id="line-day6" d="M993.7 381.7L995.3 386.0L996.8 380.4L998.4 375.4L999.9 371.8L1003.3 364.4L1004.8 350.0L1006.3 350.0L1007.9 302.6L1009.4 302.6L1011.0 310.7L1013.7 310.7L1015.3 310.9L1016.8 311.1L1018.4 310.6L1019.9 309.1L1021.4 309.2L1023.0 309.2L1024.5 248.7L1026.1 248.0L1027.6 247.2L1029.2 193.3L1030.7 193.3L1032.2 184.0L1033.8 184.0L1035.3 303.8L1036.8 302.4L1038.4 298.4L1039.9 237.9L1041.5 320.7L1043.1 319.9L1044.6 319.9L1046.2 311.8L1047.7 312.5L1049.3 217.4L1049.8 217.4"/><clipPath id="up-day6"><rect x="140" y="150" width="996" height="231.7"/></clipPath><clipPath id="down-day6"><rect x="140" y="381.7" width="996" height="46.3"/></clipPath></defs>
<use href="#shape-day6" fill="#1d8a53" fill-opacity="0.15" clip-path="url(#up-day6)"/>
<use href="#line-day6" fill="none" stroke="#1d8a53" stroke-width="2.25" stroke-linejoin="round" stroke-linecap="round" clip-path="url(#up-day6)"/>
<use href="#shape-day6" fill="#c4402b" fill-opacity="0.15" clip-path="url(#down-day6)"/>
<use href="#line-day6" fill="none" stroke="#c4402b" stroke-width="2.25" stroke-linejoin="round" stroke-linecap="round" clip-path="url(#down-day6)"/>
<circle cx="1049.8" cy="217.4" r="5" fill="#1d8a53" stroke="#ffffff" stroke-width="2.5"/>
</g>
</svg>
