<svg xmlns="http://www.w3.org/2000/svg" width="1200" height="1980" viewBox="0 0 1200 1980" font-family="Segoe UI, Helvetica Neue, Arial, sans-serif" font-size="13" style="font-variant-numeric: tabular-nums">
<rect width="1200" height="1980" fill="#eef2ef"/>
<g transform="translate(20,20)">
<rect width="1160" height="470" rx="12" fill="#ffffff" stroke="#dbe3de"/>
<text x="24" y="32" font-size="18" font-weight="700" letter-spacing="1.4" fill="#6741d9">BOT · NET WORTH TODAY</text>
<text x="24" y="60" font-size="21" font-weight="700" fill="#16211b">Since midnight</text>
<text x="24" y="84" fill="#5f6b65">Sat 10 Oct 2026 · started at <tspan font-weight="700" fill="#16211b">3,771,434,180</tspan> at 00:03 · now <tspan font-weight="700" fill="#16211b">3,994,548,310</tspan> at 16:24 Central</text>
<text x="1136" y="62" font-size="30" font-weight="700" text-anchor="end" fill="#1d8a53">+223,114,130</text>
<text x="1136" y="84" font-size="11" text-anchor="end" fill="#5f6b65">Alz since 00:03</text>
<line x1="140" x2="1136" y1="428.0" y2="428.0" stroke="#e3e9e5" stroke-width="1" stroke-dasharray="3 4"/>
<text x="130" y="428.0" text-anchor="end" dominant-baseline="middle" font-weight="400" fill="#5f6b65">-400,000,000</text>
<line x1="140" x2="1136" y1="349.0" y2="349.0" stroke="#e3e9e5" stroke-width="1" stroke-dasharray="3 4"/>
<text x="130" y="349.0" text-anchor="end" dominant-baseline="middle" font-weight="400" fill="#5f6b65">-200,000,000</text>
<line x1="140" x2="1136" y1="270.0" y2="270.0" stroke="#16211b" stroke-width="1.5"/>
<text x="130" y="270.0" text-anchor="end" dominant-baseline="middle" font-weight="700" fill="#16211b">3,771,434,180</text>
<line x1="140" x2="1136" y1="191.0" y2="191.0" stroke="#e3e9e5" stroke-width="1" stroke-dasharray="3 4"/>
<text x="130" y="191.0" text-anchor="end" dominant-baseline="middle" font-weight="400" fill="#5f6b65">+200,000,000</text>
<line x1="140" x2="1136" y1="112.0" y2="112.0" stroke="#e3e9e5" stroke-width="1" stroke-dasharray="3 4"/>
<text x="130" y="112.0" text-anchor="end" dominant-baseline="middle" font-weight="400" fill="#5f6b65">+400,000,000</text>
<line x1="140.0" x2="140.0" y1="428" y2="433" stroke="#5f6b65" stroke-width="1"/>
<text x="140.0" y="448" font-size="11" text-anchor="middle" fill="#5f6b65">00:00</text>
<line x1="223.0" x2="223.0" y1="428" y2="433" stroke="#5f6b65" stroke-width="1"/>
<text x="223.0" y="448" font-size="11" text-anchor="middle" fill="#5f6b65">02:00</text>
<line x1="306.0" x2="306.0" y1="428" y2="433" stroke="#5f6b65" stroke-width="1"/>
<text x="306.0" y="448" font-size="11" text-anchor="middle" fill="#5f6b65">04:00</text>
<line x1="389.0" x2="389.0" y1="112" y2="428" stroke="#e3e9e5" stroke-width="1"/>
<line x1="389.0" x2="389.0" y1="428" y2="433" stroke="#5f6b65" stroke-width="1"/>
<text x="389.0" y="448" font-size="11" text-anchor="middle" fill="#5f6b65">06:00</text>
<line x1="472.0" x2="472.0" y1="428" y2="433" stroke="#5f6b65" stroke-width="1"/>
<text x="472.0" y="448" font-size="11" text-anchor="middle" fill="#5f6b65">08:00</text>
<line x1="555.0" x2="555.0" y1="428" y2="433" stroke="#5f6b65" stroke-width="1"/>
<text x="555.0" y="448" font-size="11" text-anchor="middle" fill="#5f6b65">10:00</text>
<line x1="638.0" x2="638.0" y1="112" y2="428" stroke="#e3e9e5" stroke-width="1"/>
<line x1="638.0" x2="638.0" y1="428" y2="433" stroke="#5f6b65" stroke-width="1"/>
<text x="638.0" y="448" font-size="11" text-anchor="middle" fill="#5f6b65">12:00</text>
<line x1="721.0" x2="721.0" y1="428" y2="433" stroke="#5f6b65" stroke-width="1"/>
<text x="721.0" y="448" font-size="11" text-anchor="middle" fill="#5f6b65">14:00</text>
<line x1="804.0" x2="804.0" y1="428" y2="433" stroke="#5f6b65" stroke-width="1"/>
<text x="804.0" y="448" font-size="11" text-anchor="middle" fill="#5f6b65">16:00</text>
<line x1="887.0" x2="887.0" y1="112" y2="428" stroke="#e3e9e5" stroke-width="1"/>
<line x1="887.0" x2="887.0" y1="428" y2="433" stroke="#5f6b65" stroke-width="1"/>
<text x="887.0" y="448" font-size="11" text-anchor="middle" fill="#5f6b65">18:00</text>
<line x1="970.0" x2="970.0" y1="428" y2="433" stroke="#5f6b65" stroke-width="1"/>
<text x="970.0" y="448" font-size="11" text-anchor="middle" fill="#5f6b65">20:00</text>
<line x1="1053.0" x2="1053.0" y1="428" y2="433" stroke="#5f6b65" stroke-width="1"/>
<text x="1053.0" y="448" font-size="11" text-anchor="middle" fill="#5f6b65">22:00</text>
<line x1="1136.0" x2="1136.0" y1="428" y2="433" stroke="#5f6b65" stroke-width="1"/>
<defs><path id="shape-today" d="M142.4 270.0L142.4 270.0L145.8 270.0L149.5 270.0L152.9 270.0L156.4 270.0L160.0 270.0L163.5 270.0L167.2 270.0L170.9 270.0L174.0 270.0L177.5 261.8L181.2 261.8L184.6 261.8L188.4 261.8L192.0 261.8L195.2 261.8L198.7 261.8L202.3 261.8L205.9 261.4L209.4 261.4L213.1 261.4L216.2 261.4L219.8 261.4L223.4 261.4L226.6 261.4L230.2 261.3L233.8 261.3L237.3 261.3L240.8 261.3L244.4 261.3L259.7 371.3L263.3 371.3L266.4 369.4L270.1 369.8L273.7 369.9L276.8 369.9L280.5 369.9L284.1 370.0L287.2 370.0L290.7 370.0L294.3 370.0L297.7 370.0L301.2 370.0L304.8 370.0L308.2 370.0L311.7 370.0L315.3 370.1L318.7 370.1L322.5 370.1L326.0 370.1L329.2 370.1L332.8 370.1L336.3 367.2L339.8 367.3L343.5 372.6L347.1 372.7L350.2 372.6L353.8 372.6L357.4 372.6L360.9 372.6L364.4 372.6L368.0 369.9L371.4 322.3L374.9 322.3L378.5 322.3L382.0 320.3L385.7 320.4L389.4 320.4L392.6 250.1L396.0 250.1L399.7 250.1L403.2 248.6L406.9 248.6L410.5 248.7L413.9 248.7L417.5 248.7L421.1 248.7L424.3 248.7L427.8 248.9L431.3 248.9L434.8 247.1L438.6 246.0L442.2 246.4L445.3 246.4L448.8 244.2L452.4 244.2L455.9 244.2L459.6 244.3L463.2 244.3L466.4 242.5L469.9 242.5L473.5 239.9L476.9 239.9L480.7 239.9L484.2 239.6L487.4 239.6L490.9 240.7L494.5 240.7L498.0 240.7L501.7 240.7L505.3 237.8L508.4 236.1L511.9 236.1L515.5 236.1L519.0 236.1L522.7 236.1L526.3 232.5L529.4 229.5L532.9 229.5L536.5 229.5L540.0 229.5L543.7 229.5L547.4 225.3L550.5 223.6L554.0 223.6L557.6 223.6L561.0 218.3L564.7 222.1L568.3 222.1L571.5 222.1L574.9 222.1L578.5 220.9L590.5 310.9L594.1 310.9L597.2 309.1L600.9 309.1L604.5 309.1L607.6 309.1L611.1 309.1L614.7 308.3L618.1 301.1L621.8 301.0L625.4 300.7L628.6 300.3L632.1 300.3L635.6 299.3L639.1 299.3L642.7 299.3L646.3 299.3L649.5 299.3L653.2 286.1L656.8 286.1L659.9 284.2L670.5 282.9L674.2 282.7L683.1 188.3L686.6 188.3L690.2 187.6L693.6 187.6L697.4 185.5L701.0 185.5L704.1 183.7L707.6 183.7L711.2 183.7L714.7 182.5L718.1 182.5L721.8 182.5L725.2 179.1L728.9 179.1L732.6 179.1L735.8 178.0L739.3 178.0L742.9 176.4L746.3 176.5L749.8 176.5L753.5 176.5L757.0 176.5L760.7 172.8L764.3 172.8L767.5 165.6L771.0 165.6L774.6 159.9L789.8 310.6L793.5 310.6L797.0 310.6L800.2 305.9L803.7 305.9L807.2 305.9L810.6 187.4L814.4 187.4L817.9 181.9L821.1 181.9L821.1 270.0Z"/><path id="line-today" d="M142.4 270.0L145.8 270.0L149.5 270.0L152.9 270.0L156.4 270.0L160.0 270.0L163.5 270.0L167.2 270.0L170.9 270.0L174.0 270.0L177.5 261.8L181.2 261.8L184.6 261.8L188.4 261.8L192.0 261.8L195.2 261.8L198.7 261.8L202.3 261.8L205.9 261.4L209.4 261.4L213.1 261.4L216.2 261.4L219.8 261.4L223.4 261.4L226.6 261.4L230.2 261.3L233.8 261.3L237.3 261.3L240.8 261.3L244.4 261.3L259.7 371.3L263.3 371.3L266.4 369.4L270.1 369.8L273.7 369.9L276.8 369.9L280.5 369.9L284.1 370.0L287.2 370.0L290.7 370.0L294.3 370.0L297.7 370.0L301.2 370.0L304.8 370.0L308.2 370.0L311.7 370.0L315.3 370.1L318.7 370.1L322.5 370.1L326.0 370.1L329.2 370.1L332.8 370.1L336.3 367.2L339.8 367.3L343.5 372.6L347.1 372.7L350.2 372.6L353.8 372.6L357.4 372.6L360.9 372.6L364.4 372.6L368.0 369.9L371.4 322.3L374.9 322.3L378.5 322.3L382.0 320.3L385.7 320.4L389.4 320.4L392.6 250.1L396.0 250.1L399.7 250.1L403.2 248.6L406.9 248.6L410.5 248.7L413.9 248.7L417.5 248.7L421.1 248.7L424.3 248.7L427.8 248.9L431.3 248.9L434.8 247.1L438.6 246.0L442.2 246.4L445.3 246.4L448.8 244.2L452.4 244.2L455.9 244.2L459.6 244.3L463.2 244.3L466.4 242.5L469.9 242.5L473.5 239.9L476.9 239.9L480.7 239.9L484.2 239.6L487.4 239.6L490.9 240.7L494.5 240.7L498.0 240.7L501.7 240.7L505.3 237.8L508.4 236.1L511.9 236.1L515.5 236.1L519.0 236.1L522.7 236.1L526.3 232.5L529.4 229.5L532.9 229.5L536.5 229.5L540.0 229.5L543.7 229.5L547.4 225.3L550.5 223.6L554.0 223.6L557.6 223.6L561.0 218.3L564.7 222.1L568.3 222.1L571.5 222.1L574.9 222.1L578.5 220.9L590.5 310.9L594.1 310.9L597.2 309.1L600.9 309.1L604.5 309.1L607.6 309.1L611.1 309.1L614.7 308.3L618.1 301.1L621.8 301.0L625.4 300.7L628.6 300.3L632.1 300.3L635.6 299.3L639.1 299.3L642.7 299.3L646.3 299.3L649.5 299.3L653.2 286.1L656.8 286.1L659.9 284.2L670.5 282.9L674.2 282.7L683.1 188.3L686.6 188.3L690.2 187.6L693.6 187.6L697.4 185.5L701.0 185.5L704.1 183.7L707.6 183.7L711.2 183.7L714.7 182.5L718.1 182.5L721.8 182.5L725.2 179.1L728.9 179.1L732.6 179.1L735.8 178.0L739.3 178.0L742.9 176.4L746.3 176.5L749.8 176.5L753.5 176.5L757.0 176.5L760.7 172.8L764.3 172.8L767.5 165.6L771.0 165.6L774.6 159.9L789.8 310.6L793.5 310.6L797.0 310.6L800.2 305.9L803.7 305.9L807.2 305.9L810.6 187.4L814.4 187.4L817.9 181.9L821.1 181.9"/><clipPath id="up-today"><rect x="140" y="112" width="996" height="158.0"/></clipPath><clipPath id="down-today"><rect x="140" y="270.0" width="996" height="158.0"/></clipPath></defs>
<use href="#shape-today" fill="#1d8a53" fill-opacity="0.15" clip-path="url(#up-today)"/>
<use href="#line-today" fill="none" stroke="#1d8a53" stroke-width="2.25" stroke-linejoin="round" stroke-linecap="round" clip-path="url(#up-today)"/>
<use href="#shape-today" fill="#c4402b" fill-opacity="0.15" clip-path="url(#down-today)"/>
<use href="#line-today" fill="none" stroke="#c4402b" stroke-width="2.25" stroke-linejoin="round" stroke-linecap="round" clip-path="url(#down-today)"/>
<circle cx="821.1" cy="181.9" r="5" fill="#1d8a53" stroke="#ffffff" stroke-width="2.5"/>
<text x="833.1" y="177.4" text-anchor="start" font-size="15" font-weight="700" fill="#1d8a53" stroke="#ffffff" stroke-width="4" stroke-linejoin="round" paint-order="stroke">+223,114,130 Alz</text>
<text x="833.1" y="194.4" text-anchor="start" font-size="13" font-weight="600" fill="#16211b" stroke="#ffffff" stroke-width="4" stroke-linejoin="round" paint-order="stroke">net worth 3,994,548,310</text>
</g>
<g transform="translate(20,510)">
<rect width="1160" height="470" rx="12" fill="#ffffff" stroke="#dbe3de"/>
<text x="24" y="32" font-size="18" font-weight="700" letter-spacing="1.4" fill="#6741d9">BOT · NET WORTH BY DAY</text>
<text x="24" y="60" font-size="21" font-weight="700" fill="#16211b">Last 7 days</text>
<text x="24" y="84" fill="#5f6b65">each day starts again at its first reading after midnight</text>
<text x="1136" y="62" font-size="30" font-weight="700" text-anchor="end" fill="#1d8a53">+2,873,535,175</text>
<text x="1136" y="84" font-size="11" text-anchor="end" fill="#5f6b65">Alz, the 6 daily changes added up</text>
<rect x="282.3" y="93" width="142.3" height="335" fill="#f5f8f6"/>
<rect x="566.9" y="93" width="142.3" height="335" fill="#f5f8f6"/>
<rect x="851.4" y="93" width="142.3" height="335" fill="#f5f8f6"/>
<line x1="140" x2="1136" y1="428.0" y2="428.0" stroke="#e3e9e5" stroke-width="1" stroke-dasharray="3 4"/>
<text x="130" y="428.0" text-anchor="end" dominant-baseline="middle" font-weight="400" fill="#5f6b65">-3,000,000,000</text>
<line x1="140" x2="1136" y1="372.4" y2="372.4" stroke="#e3e9e5" stroke-width="1" stroke-dasharray="3 4"/>
<text x="130" y="372.4" text-anchor="end" dominant-baseline="middle" font-weight="400" fill="#5f6b65">-2,000,000,000</text>
<line x1="140" x2="1136" y1="316.8" y2="316.8" stroke="#e3e9e5" stroke-width="1" stroke-dasharray="3 4"/>
<text x="130" y="316.8" text-anchor="end" dominant-baseline="middle" font-weight="400" fill="#5f6b65">-1,000,000,000</text>
<line x1="140" x2="1136" y1="261.2" y2="261.2" stroke="#16211b" stroke-width="1.5"/>
<text x="130" y="261.2" text-anchor="end" dominant-baseline="middle" font-weight="700" fill="#16211b">day start</text>
<line x1="140" x2="1136" y1="205.6" y2="205.6" stroke="#e3e9e5" stroke-width="1" stroke-dasharray="3 4"/>
<text x="130" y="205.6" text-anchor="end" dominant-baseline="middle" font-weight="400" fill="#5f6b65">+1,000,000,000</text>
<line x1="140" x2="1136" y1="150.0" y2="150.0" stroke="#e3e9e5" stroke-width="1" stroke-dasharray="3 4"/>
<text x="130" y="150.0" text-anchor="end" dominant-baseline="middle" font-weight="400" fill="#5f6b65">+2,000,000,000</text>
<text x="150.0" y="116" font-weight="700" fill="#16211b">Sun 04 Oct</text>
<line x1="140.0" x2="140.0" y1="428" y2="433" stroke="#5f6b65" stroke-width="1"/>
<text x="140.0" y="448" font-size="11" text-anchor="middle" fill="#5f6b65">00:00</text>
<line x1="211.1" x2="211.1" y1="428" y2="433" stroke="#5f6b65" stroke-width="1"/>
<text x="211.1" y="448" font-size="11" text-anchor="middle" fill="#5f6b65">12:00</text>
<line x1="282.3" x2="282.3" y1="428" y2="433" stroke="#5f6b65" stroke-width="1"/>
<text x="150.0" y="134" font-weight="700" fill="#c4402b">-116,551,402</text>
<defs><path id="shape-day0" d="M140.1 261.2L140.1 261.2L141.6 261.2L144.1 261.0L145.6 261.0L147.1 260.9L148.6 260.8L149.6 260.8L151.1 260.6L152.6 258.7L154.1 258.7L155.6 257.8L157.1 256.6L158.6 256.6L160.1 256.8L162.6 256.3L164.1 256.8L165.6 257.8L167.1 257.9L168.6 257.9L170.1 257.9L171.6 257.9L173.1 257.9L174.6 258.0L176.1 257.9L177.6 258.0L180.7 257.9L182.3 257.9L183.7 257.9L185.2 258.0L186.7 256.7L188.3 256.7L189.8 256.7L191.3 256.7L192.8 256.7L194.3 255.9L199.6 295.2L201.1 293.3L202.6 293.3L204.1 290.7L205.6 289.5L207.1 289.5L208.6 285.6L210.1 284.7L211.6 283.4L213.1 282.6L214.6 282.7L216.1 282.9L217.6 282.6L219.1 282.2L220.7 281.6L222.1 281.0L223.6 283.0L225.1 283.1L226.6 283.3L228.1 285.2L229.6 285.7L231.2 285.7L232.7 285.7L234.1 285.7L235.7 285.7L237.2 285.8L241.2 383.0L242.7 383.5L244.2 383.6L245.7 383.6L250.1 382.4L251.6 382.3L253.0 382.3L254.5 382.5L256.1 382.5L257.6 382.1L259.1 382.2L260.6 381.6L262.1 381.5L263.6 381.5L265.1 381.5L266.6 380.8L268.1 380.8L269.6 380.8L271.1 380.0L272.6 379.5L274.2 379.5L275.7 379.5L277.1 378.8L278.7 378.8L282.1 267.7L282.1 261.2Z"/><path id="line-day0" d="M140.1 261.2L141.6 261.2L144.1 261.0L145.6 261.0L147.1 260.9L148.6 260.8L149.6 260.8L151.1 260.6L152.6 258.7L154.1 258.7L155.6 257.8L157.1 256.6L158.6 256.6L160.1 256.8L162.6 256.3L164.1 256.8L165.6 257.8L167.1 257.9L168.6 257.9L170.1 257.9L171.6 257.9L173.1 257.9L174.6 258.0L176.1 257.9L177.6 258.0L180.7 257.9L182.3 257.9L183.7 257.9L185.2 258.0L186.7 256.7L188.3 256.7L189.8 256.7L191.3 256.7L192.8 256.7L194.3 255.9L199.6 295.2L201.1 293.3L202.6 293.3L204.1 290.7L205.6 289.5L207.1 289.5L208.6 285.6L210.1 284.7L211.6 283.4L213.1 282.6L214.6 282.7L216.1 282.9L217.6 282.6L219.1 282.2L220.7 281.6L222.1 281.0L223.6 283.0L225.1 283.1L226.6 283.3L228.1 285.2L229.6 285.7L231.2 285.7L232.7 285.7L234.1 285.7L235.7 285.7L237.2 285.8L241.2 383.0L242.7 383.5L244.2 383.6L245.7 383.6L250.1 382.4L251.6 382.3L253.0 382.3L254.5 382.5L256.1 382.5L257.6 382.1L259.1 382.2L260.6 381.6L262.1 381.5L263.6 381.5L265.1 381.5L266.6 380.8L268.1 380.8L269.6 380.8L271.1 380.0L272.6 379.5L274.2 379.5L275.7 379.5L277.1 378.8L278.7 378.8L282.1 267.7"/><clipPath id="up-day0"><rect x="140" y="150" width="996" height="111.2"/></clipPath><clipPath id="down-day0"><rect x="140" y="261.2" width="996" height="166.8"/></clipPath></defs>
<use href="#shape-day0" fill="#1d8a53" fill-opacity="0.15" clip-path="url(#up-day0)"/>
<use href="#line-day0" fill="none" stroke="#1d8a53" stroke-width="2.25" stroke-linejoin="round" stroke-linecap="round" clip-path="url(#up-day0)"/>
<use href="#shape-day0" fill="#c4402b" fill-opacity="0.15" clip-path="url(#down-day0)"/>
<use href="#line-day0" fill="none" stroke="#c4402b" stroke-width="2.25" stroke-linejoin="round" stroke-linecap="round" clip-path="url(#down-day0)"/>
<circle cx="282.1" cy="267.7" r="5" fill="#c4402b" stroke="#ffffff" stroke-width="2.5"/>
<text x="292.3" y="116" font-weight="700" fill="#16211b">Mon 05 Oct</text>
<line x1="282.3" x2="282.3" y1="428" y2="433" stroke="#5f6b65" stroke-width="1"/>
<text x="282.3" y="448" font-size="11" text-anchor="middle" fill="#5f6b65">00:00</text>
<line x1="353.4" x2="353.4" y1="428" y2="433" stroke="#5f6b65" stroke-width="1"/>
<text x="353.4" y="448" font-size="11" text-anchor="middle" fill="#5f6b65">12:00</text>
<line x1="424.6" x2="424.6" y1="428" y2="433" stroke="#5f6b65" stroke-width="1"/>
<text x="292.3" y="134" font-weight="700" fill="#1d8a53">+716,721,329</text>
<defs><path id="shape-day1" d="M282.5 261.2L282.5 261.2L284.0 261.2L285.5 261.1L287.0 261.1L288.5 261.1L290.0 261.0L291.5 261.0L293.0 260.8L294.5 260.4L296.0 260.3L297.5 260.2L299.0 259.9L300.5 259.9L302.0 259.9L303.5 260.1L305.0 260.1L306.5 260.1L308.0 260.0L309.5 260.0L311.0 259.8L312.5 259.7L314.0 259.7L315.6 259.7L317.0 259.6L318.5 259.7L320.1 259.5L321.6 259.5L323.1 259.4L324.6 259.4L326.0 259.3L327.5 259.3L329.0 258.2L330.6 256.5L332.1 256.4L333.6 254.5L335.1 252.7L338.7 251.9L340.2 251.3L341.7 251.0L343.2 251.0L344.7 250.7L346.1 250.2L347.6 250.1L349.2 250.1L350.6 250.0L352.2 250.0L353.6 249.6L355.2 249.5L356.6 249.1L358.1 249.1L359.6 249.1L361.1 247.9L362.2 247.9L363.7 247.7L365.2 247.6L366.7 248.0L372.1 226.3L373.6 226.3L375.1 224.8L376.6 224.8L378.1 224.6L379.6 224.2L381.1 224.2L382.7 224.4L384.1 225.5L385.6 225.8L387.2 225.4L388.6 225.4L390.1 225.4L391.6 225.4L394.9 225.4L396.5 225.4L397.9 225.4L399.4 225.1L400.9 225.0L402.4 225.0L403.9 225.0L405.4 224.4L406.9 224.1L408.4 224.1L409.9 224.1L411.4 224.1L412.9 224.1L414.4 224.1L415.9 224.1L417.4 224.1L418.9 224.1L420.5 223.0L421.9 222.6L423.4 221.7L424.4 221.4L424.4 261.2Z"/><path id="line-day1" d="M282.5 261.2L284.0 261.2L285.5 261.1L287.0 261.1L288.5 261.1L290.0 261.0L291.5 261.0L293.0 260.8L294.5 260.4L296.0 260.3L297.5 260.2L299.0 259.9L300.5 259.9L302.0 259.9L303.5 260.1L305.0 260.1L306.5 260.1L308.0 260.0L309.5 260.0L311.0 259.8L312.5 259.7L314.0 259.7L315.6 259.7L317.0 259.6L318.5 259.7L320.1 259.5L321.6 259.5L323.1 259.4L324.6 259.4L326.0 259.3L327.5 259.3L329.0 258.2L330.6 256.5L332.1 256.4L333.6 254.5L335.1 252.7L338.7 251.9L340.2 251.3L341.7 251.0L343.2 251.0L344.7 250.7L346.1 250.2L347.6 250.1L349.2 250.1L350.6 250.0L352.2 250.0L353.6 249.6L355.2 249.5L356.6 249.1L358.1 249.1L359.6 249.1L361.1 247.9L362.2 247.9L363.7 247.7L365.2 247.6L366.7 248.0L372.1 226.3L373.6 226.3L375.1 224.8L376.6 224.8L378.1 224.6L379.6 224.2L381.1 224.2L382.7 224.4L384.1 225.5L385.6 225.8L387.2 225.4L388.6 225.4L390.1 225.4L391.6 225.4L394.9 225.4L396.5 225.4L397.9 225.4L399.4 225.1L400.9 225.0L402.4 225.0L403.9 225.0L405.4 224.4L406.9 224.1L408.4 224.1L409.9 224.1L411.4 224.1L412.9 224.1L414.4 224.1L415.9 224.1L417.4 224.1L418.9 224.1L420.5 223.0L421.9 222.6L423.4 221.7L424.4 221.4"/><clipPath id="up-day1"><rect x="140" y="150" width="996" height="111.2"/></clipPath><clipPath id="down-day1"><rect x="140" y="261.2" width="996" height="166.8"/></clipPath></defs>
<use href="#shape-day1" fill="#1d8a53" fill-opacity="0.15" clip-path="url(#up-day1)"/>
<use href="#line-day1" fill="none" stroke="#1d8a53" stroke-width="2.25" stroke-linejoin="round" stroke-linecap="round" clip-path="url(#up-day1)"/>
<use href="#shape-day1" fill="#c4402b" fill-opacity="0.15" clip-path="url(#down-day1)"/>
<use href="#line-day1" fill="none" stroke="#c4402b" stroke-width="2.25" stroke-linejoin="round" stroke-linecap="round" clip-path="url(#down-day1)"/>
<circle cx="424.4" cy="221.4" r="5" fill="#1d8a53" stroke="#ffffff" stroke-width="2.5"/>
<text x="434.6" y="116" font-weight="700" fill="#16211b">Tue 06 Oct</text>
<line x1="424.6" x2="424.6" y1="428" y2="433" stroke="#5f6b65" stroke-width="1"/>
<text x="424.6" y="448" font-size="11" text-anchor="middle" fill="#5f6b65">00:00</text>
<line x1="495.7" x2="495.7" y1="428" y2="433" stroke="#5f6b65" stroke-width="1"/>
<text x="495.7" y="448" font-size="11" text-anchor="middle" fill="#5f6b65">12:00</text>
<line x1="566.9" x2="566.9" y1="428" y2="433" stroke="#5f6b65" stroke-width="1"/>
<text x="434.6" y="134" font-weight="700" fill="#1d8a53">+641,106,490</text>
<defs><path id="shape-day2" d="M424.9 261.2L424.9 261.2L426.4 261.1L427.9 261.1L429.4 260.9L430.9 260.9L432.4 260.9L433.9 260.9L435.4 260.3L436.9 260.3L438.4 260.1L439.9 260.1L441.4 260.1L442.9 259.9L444.4 259.9L448.8 259.4L450.3 258.6L451.8 258.5L453.3 258.0L454.8 258.0L456.3 258.0L457.8 257.8L459.3 257.2L460.8 257.2L462.3 256.9L463.8 256.7L467.0 254.4L468.5 254.4L470.0 252.7L471.5 252.1L473.0 251.7L474.5 251.7L476.0 251.6L477.5 251.6L479.0 250.8L480.5 249.8L482.0 249.8L483.5 249.2L485.0 246.7L486.5 246.5L488.0 244.8L489.5 243.9L491.0 244.1L492.5 244.2L494.0 244.5L502.6 242.4L504.1 242.2L505.6 241.7L507.0 242.3L508.6 242.4L510.0 242.3L511.5 242.5L513.0 242.5L514.6 242.3L516.1 223.7L517.6 223.7L519.1 223.7L520.6 223.7L522.1 223.5L523.6 223.4L525.1 223.0L526.6 223.0L528.1 222.9L529.6 222.9L531.1 222.9L532.2 222.8L533.7 222.9L535.2 222.8L536.7 222.8L538.2 222.9L539.7 223.6L541.2 224.3L542.7 224.9L544.2 225.2L545.2 225.6L545.2 261.2Z"/><path id="line-day2" d="M424.9 261.2L426.4 261.1L427.9 261.1L429.4 260.9L430.9 260.9L432.4 260.9L433.9 260.9L435.4 260.3L436.9 260.3L438.4 260.1L439.9 260.1L441.4 260.1L442.9 259.9L444.4 259.9L448.8 259.4L450.3 258.6L451.8 258.5L453.3 258.0L454.8 258.0L456.3 258.0L457.8 257.8L459.3 257.2L460.8 257.2L462.3 256.9L463.8 256.7L467.0 254.4L468.5 254.4L470.0 252.7L471.5 252.1L473.0 251.7L474.5 251.7L476.0 251.6L477.5 251.6L479.0 250.8L480.5 249.8L482.0 249.8L483.5 249.2L485.0 246.7L486.5 246.5L488.0 244.8L489.5 243.9L491.0 244.1L492.5 244.2L494.0 244.5L502.6 242.4L504.1 242.2L505.6 241.7L507.0 242.3L508.6 242.4L510.0 242.3L511.5 242.5L513.0 242.5L514.6 242.3L516.1 223.7L517.6 223.7L519.1 223.7L520.6 223.7L522.1 223.5L523.6 223.4L525.1 223.0L526.6 223.0L528.1 222.9L529.6 222.9L531.1 222.9L532.2 222.8L533.7 222.9L535.2 222.8L536.7 222.8L538.2 222.9L539.7 223.6L541.2 224.3L542.7 224.9L544.2 225.2L545.2 225.6"/><clipPath id="up-day2"><rect x="140" y="150" width="996" height="111.2"/></clipPath><clipPath id="down-day2"><rect x="140" y="261.2" width="996" height="166.8"/></clipPath></defs>
<use href="#shape-day2" fill="#1d8a53" fill-opacity="0.15" clip-path="url(#up-day2)"/>
<use href="#line-day2" fill="none" stroke="#1d8a53" stroke-width="2.25" stroke-linejoin="round" stroke-linecap="round" clip-path="url(#up-day2)"/>
<use href="#shape-day2" fill="#c4402b" fill-opacity="0.15" clip-path="url(#down-day2)"/>
<use href="#line-day2" fill="none" stroke="#c4402b" stroke-width="2.25" stroke-linejoin="round" stroke-linecap="round" clip-path="url(#down-day2)"/>
<circle cx="545.2" cy="225.6" r="5" fill="#1d8a53" stroke="#ffffff" stroke-width="2.5"/>
<text x="576.9" y="116" font-weight="700" fill="#16211b">Wed 07 Oct</text>
<line x1="566.9" x2="566.9" y1="428" y2="433" stroke="#5f6b65" stroke-width="1"/>
<text x="566.9" y="448" font-size="11" text-anchor="middle" fill="#5f6b65">00:00</text>
<line x1="638.0" x2="638.0" y1="428" y2="433" stroke="#5f6b65" stroke-width="1"/>
<text x="638.0" y="448" font-size="11" text-anchor="middle" fill="#5f6b65">12:00</text>
<line x1="709.1" x2="709.1" y1="428" y2="433" stroke="#5f6b65" stroke-width="1"/>
<text x="719.1" y="116" font-weight="700" fill="#16211b">Thu 08 Oct</text>
<line x1="709.1" x2="709.1" y1="428" y2="433" stroke="#5f6b65" stroke-width="1"/>
<text x="709.1" y="448" font-size="11" text-anchor="middle" fill="#5f6b65">00:00</text>
<line x1="780.3" x2="780.3" y1="428" y2="433" stroke="#5f6b65" stroke-width="1"/>
<text x="780.3" y="448" font-size="11" text-anchor="middle" fill="#5f6b65">12:00</text>
<line x1="851.4" x2="851.4" y1="428" y2="433" stroke="#5f6b65" stroke-width="1"/>
<text x="719.1" y="134" font-weight="700" fill="#c4402b">-348,469</text>
<defs><path id="shape-day4" d="M836.8 261.2L836.8 261.2L838.3 261.1L839.8 261.4L841.3 261.4L842.8 261.3L844.3 261.2L845.8 261.3L847.3 261.4L848.8 261.4L850.3 261.2L851.3 261.2L851.3 261.2Z"/><path id="line-day4" d="M836.8 261.2L838.3 261.1L839.8 261.4L841.3 261.4L842.8 261.3L844.3 261.2L845.8 261.3L847.3 261.4L848.8 261.4L850.3 261.2L851.3 261.2"/><clipPath id="up-day4"><rect x="140" y="150" width="996" height="111.2"/></clipPath><clipPath id="down-day4"><rect x="140" y="261.2" width="996" height="166.8"/></clipPath></defs>
<use href="#shape-day4" fill="#1d8a53" fill-opacity="0.15" clip-path="url(#up-day4)"/>
<use href="#line-day4" fill="none" stroke="#1d8a53" stroke-width="2.25" stroke-linejoin="round" stroke-linecap="round" clip-path="url(#up-day4)"/>
<use href="#shape-day4" fill="#c4402b" fill-opacity="0.15" clip-path="url(#down-day4)"/>
<use href="#line-day4" fill="none" stroke="#c4402b" stroke-width="2.25" stroke-linejoin="round" stroke-linecap="round" clip-path="url(#down-day4)"/>
<circle cx="851.3" cy="261.2" r="5" fill="#c4402b" stroke="#ffffff" stroke-width="2.5"/>
<text x="861.4" y="116" font-weight="700" fill="#16211b">Fri 09 Oct</text>
<line x1="851.4" x2="851.4" y1="428" y2="433" stroke="#5f6b65" stroke-width="1"/>
<text x="851.4" y="448" font-size="11" text-anchor="middle" fill="#5f6b65">00:00</text>
<line x1="922.6" x2="922.6" y1="428" y2="433" stroke="#5f6b65" stroke-width="1"/>
<text x="922.6" y="448" font-size="11" text-anchor="middle" fill="#5f6b65">12:00</text>
<line x1="993.7" x2="993.7" y1="428" y2="433" stroke="#5f6b65" stroke-width="1"/>
<text x="861.4" y="134" font-weight="700" fill="#1d8a53">+1,409,493,097</text>
<defs><path id="shape-day5" d="M851.8 261.2L851.8 261.2L853.3 261.2L859.3 202.0L860.8 201.3L862.3 201.5L863.8 201.5L865.3 201.5L866.8 201.5L868.3 201.5L869.8 200.3L871.2 200.3L873.3 212.3L874.8 212.2L876.3 209.9L877.8 209.6L879.3 209.6L880.8 202.5L882.3 200.7L883.8 199.9L885.3 199.9L886.8 201.2L888.3 195.4L889.8 194.7L891.3 194.7L892.8 190.1L894.3 189.2L895.8 190.4L897.3 190.5L898.8 190.7L900.4 191.2L901.8 191.2L903.4 191.2L904.8 191.2L906.3 191.4L909.2 208.1L910.7 207.7L912.1 207.3L913.6 207.4L915.1 207.2L916.6 207.2L918.1 196.0L919.6 195.7L921.1 196.1L922.6 196.6L924.1 196.7L925.6 188.9L926.7 188.9L928.2 187.7L929.7 187.4L931.2 187.2L932.7 187.7L934.2 187.4L935.7 187.4L937.3 187.0L938.8 186.8L940.3 186.7L943.0 197.7L944.5 198.0L946.0 191.6L947.5 191.5L949.0 191.5L950.5 191.5L952.1 191.6L953.6 191.6L955.1 191.6L956.6 191.6L958.0 191.6L959.5 184.6L961.1 185.0L962.6 185.1L964.1 185.2L965.6 185.2L967.0 185.2L968.5 184.8L970.0 184.6L971.5 184.6L973.0 184.6L974.5 184.4L976.0 184.4L977.5 184.4L979.0 183.9L980.5 183.9L982.0 183.9L983.5 183.9L985.0 183.9L986.6 183.8L988.1 183.8L989.6 182.8L991.0 182.8L992.5 182.8L993.6 182.8L993.6 261.2Z"/><path id="line-day5" d="M851.8 261.2L853.3 261.2L859.3 202.0L860.8 201.3L862.3 201.5L863.8 201.5L865.3 201.5L866.8 201.5L868.3 201.5L869.8 200.3L871.2 200.3L873.3 212.3L874.8 212.2L876.3 209.9L877.8 209.6L879.3 209.6L880.8 202.5L882.3 200.7L883.8 199.9L885.3 199.9L886.8 201.2L888.3 195.4L889.8 194.7L891.3 194.7L892.8 190.1L894.3 189.2L895.8 190.4L897.3 190.5L898.8 190.7L900.4 191.2L901.8 191.2L903.4 191.2L904.8 191.2L906.3 191.4L909.2 208.1L910.7 207.7L912.1 207.3L913.6 207.4L915.1 207.2L916.6 207.2L918.1 196.0L919.6 195.7L921.1 196.1L922.6 196.6L924.1 196.7L925.6 188.9L926.7 188.9L928.2 187.7L929.7 187.4L931.2 187.2L932.7 187.7L934.2 187.4L935.7 187.4L937.3 187.0L938.8 186.8L940.3 186.7L943.0 197.7L944.5 198.0L946.0 191.6L947.5 191.5L949.0 191.5L950.5 191.5L952.1 191.6L953.6 191.6L955.1 191.6L956.6 191.6L958.0 191.6L959.5 184.6L961.1 185.0L962.6 185.1L964.1 185.2L965.6 185.2L967.0 185.2L968.5 184.8L970.0 184.6L971.5 184.6L973.0 184.6L974.5 184.4L976.0 184.4L977.5 184.4L979.0 183.9L980.5 183.9L982.0 183.9L983.5 183.9L985.0 183.9L986.6 183.8L988.1 183.8L989.6 182.8L991.0 182.8L992.5 182.8L993.6 182.8"/><clipPath id="up-day5"><rect x="140" y="150" width="996" height="111.2"/></clipPath><clipPath id="down-day5"><rect x="140" y="261.2" width="996" height="166.8"/></clipPath></defs>
<use href="#shape-day5" fill="#1d8a53" fill-opacity="0.15" clip-path="url(#up-day5)"/>
<use href="#line-day5" fill="none" stroke="#1d8a53" stroke-width="2.25" stroke-linejoin="round" stroke-linecap="round" clip-path="url(#up-day5)"/>
<use href="#shape-day5" fill="#c4402b" fill-opacity="0.15" clip-path="url(#down-day5)"/>
<use href="#line-day5" fill="none" stroke="#c4402b" stroke-width="2.25" stroke-linejoin="round" stroke-linecap="round" clip-path="url(#down-day5)"/>
<circle cx="993.6" cy="182.8" r="5" fill="#1d8a53" stroke="#ffffff" stroke-width="2.5"/>
<text x="1003.7" y="116" font-weight="700" fill="#2b5d87">Today 10 Oct</text>
<line x1="993.7" x2="993.7" y1="428" y2="433" stroke="#5f6b65" stroke-width="1"/>
<text x="993.7" y="448" font-size="11" text-anchor="middle" fill="#5f6b65">00:00</text>
<line x1="1064.9" x2="1064.9" y1="428" y2="433" stroke="#5f6b65" stroke-width="1"/>
<text x="1064.9" y="448" font-size="11" text-anchor="middle" fill="#5f6b65">12:00</text>
<line x1="1136.0" x2="1136.0" y1="428" y2="433" stroke="#5f6b65" stroke-width="1"/>
<text x="1003.7" y="134" font-weight="700" fill="#1d8a53">+223,114,130</text>
<defs><path id="shape-day6" d="M994.1 261.2L994.1 261.2L995.6 261.2L997.1 261.2L998.6 261.2L1000.1 260.0L1001.6 260.0L1003.1 260.0L1004.6 260.0L1006.1 260.0L1007.6 260.0L1010.8 275.5L1012.3 275.3L1013.8 275.3L1015.2 275.3L1016.7 275.3L1018.2 275.3L1019.8 275.3L1021.3 275.3L1022.8 275.6L1024.3 275.6L1025.8 275.6L1027.3 268.6L1028.8 268.3L1030.3 258.4L1031.8 258.2L1033.4 258.2L1034.8 258.2L1036.4 257.8L1037.8 257.6L1039.4 257.6L1040.8 257.3L1042.4 257.0L1043.8 257.1L1045.4 257.1L1046.8 256.4L1048.4 256.4L1049.8 255.5L1051.4 255.5L1052.9 254.7L1054.4 254.5L1055.8 254.5L1058.6 267.0L1060.1 266.7L1061.5 266.6L1063.1 265.5L1064.5 265.3L1066.0 265.3L1067.5 263.5L1070.0 263.0L1072.3 249.6L1073.9 249.3L1075.3 249.1L1076.8 248.9L1078.4 248.4L1079.8 248.0L1081.4 248.0L1082.9 247.5L1084.4 245.7L1087.6 266.9L1089.0 266.3L1090.6 248.8L1091.0 248.8L1091.0 261.2Z"/><path id="line-day6" d="M994.1 261.2L995.6 261.2L997.1 261.2L998.6 261.2L1000.1 260.0L1001.6 260.0L1003.1 260.0L1004.6 260.0L1006.1 260.0L1007.6 260.0L1010.8 275.5L1012.3 275.3L1013.8 275.3L1015.2 275.3L1016.7 275.3L1018.2 275.3L1019.8 275.3L1021.3 275.3L1022.8 275.6L1024.3 275.6L1025.8 275.6L1027.3 268.6L1028.8 268.3L1030.3 258.4L1031.8 258.2L1033.4 258.2L1034.8 258.2L1036.4 257.8L1037.8 257.6L1039.4 257.6L1040.8 257.3L1042.4 257.0L1043.8 257.1L1045.4 257.1L1046.8 256.4L1048.4 256.4L1049.8 255.5L1051.4 255.5L1052.9 254.7L1054.4 254.5L1055.8 254.5L1058.6 267.0L1060.1 266.7L1061.5 266.6L1063.1 265.5L1064.5 265.3L1066.0 265.3L1067.5 263.5L1070.0 263.0L1072.3 249.6L1073.9 249.3L1075.3 249.1L1076.8 248.9L1078.4 248.4L1079.8 248.0L1081.4 248.0L1082.9 247.5L1084.4 245.7L1087.6 266.9L1089.0 266.3L1090.6 248.8L1091.0 248.8"/><clipPath id="up-day6"><rect x="140" y="150" width="996" height="111.2"/></clipPath><clipPath id="down-day6"><rect x="140" y="261.2" width="996" height="166.8"/></clipPath></defs>
<use href="#shape-day6" fill="#1d8a53" fill-opacity="0.15" clip-path="url(#up-day6)"/>
<use href="#line-day6" fill="none" stroke="#1d8a53" stroke-width="2.25" stroke-linejoin="round" stroke-linecap="round" clip-path="url(#up-day6)"/>
<use href="#shape-day6" fill="#c4402b" fill-opacity="0.15" clip-path="url(#down-day6)"/>
<use href="#line-day6" fill="none" stroke="#c4402b" stroke-width="2.25" stroke-linejoin="round" stroke-linecap="round" clip-path="url(#down-day6)"/>
<circle cx="1091.0" cy="248.8" r="5" fill="#1d8a53" stroke="#ffffff" stroke-width="2.5"/>
</g>
<g transform="translate(20,1000)">
<rect width="1160" height="470" rx="12" fill="#152131" stroke="#24364a"/>
<text x="24" y="32" font-size="18" font-weight="700" letter-spacing="1.4" fill="#ffd166">BOT · CONTINUOUS NETWORTH</text>
<text x="24" y="60" font-size="21" font-weight="700" fill="#eaf1f8">Today</text>
<text x="24" y="84" fill="#93a6ba">Sat 10 Oct 2026 · carried over at <tspan font-weight="700" fill="#eaf1f8">3,771,439,398</tspan> from 09 Oct 23:58 · now <tspan font-weight="700" fill="#eaf1f8">3,994,548,310</tspan> at 16:24 Central</text>
<text x="1136" y="62" font-size="30" font-weight="700" text-anchor="end" fill="#3ddc84">+223,108,912</text>
<text x="1136" y="84" font-size="11" text-anchor="end" fill="#93a6ba">Alz since 09 Oct 23:58</text>
<line x1="140" x2="1136" y1="428.0" y2="428.0" stroke="#243548" stroke-width="1" stroke-dasharray="3 4"/>
<text x="130" y="428.0" text-anchor="end" dominant-baseline="middle" font-weight="400" fill="#93a6ba">-400,000,000</text>
<line x1="140" x2="1136" y1="349.0" y2="349.0" stroke="#243548" stroke-width="1" stroke-dasharray="3 4"/>
<text x="130" y="349.0" text-anchor="end" dominant-baseline="middle" font-weight="400" fill="#93a6ba">-200,000,000</text>
<line x1="140" x2="1136" y1="270.0" y2="270.0" stroke="#eaf1f8" stroke-width="1.5"/>
<text x="130" y="270.0" text-anchor="end" dominant-baseline="middle" font-weight="700" fill="#eaf1f8">3,771,439,398</text>
<line x1="140" x2="1136" y1="191.0" y2="191.0" stroke="#243548" stroke-width="1" stroke-dasharray="3 4"/>
<text x="130" y="191.0" text-anchor="end" dominant-baseline="middle" font-weight="400" fill="#93a6ba">+200,000,000</text>
<line x1="140" x2="1136" y1="112.0" y2="112.0" stroke="#243548" stroke-width="1" stroke-dasharray="3 4"/>
<text x="130" y="112.0" text-anchor="end" dominant-baseline="middle" font-weight="400" fill="#93a6ba">+400,000,000</text>
<line x1="140.0" x2="140.0" y1="428" y2="433" stroke="#93a6ba" stroke-width="1"/>
<text x="140.0" y="448" font-size="11" text-anchor="middle" fill="#93a6ba">00:00</text>
<line x1="223.0" x2="223.0" y1="428" y2="433" stroke="#93a6ba" stroke-width="1"/>
<text x="223.0" y="448" font-size="11" text-anchor="middle" fill="#93a6ba">02:00</text>
<line x1="306.0" x2="306.0" y1="428" y2="433" stroke="#93a6ba" stroke-width="1"/>
<text x="306.0" y="448" font-size="11" text-anchor="middle" fill="#93a6ba">04:00</text>
<line x1="389.0" x2="389.0" y1="112" y2="428" stroke="#243548" stroke-width="1"/>
<line x1="389.0" x2="389.0" y1="428" y2="433" stroke="#93a6ba" stroke-width="1"/>
<text x="389.0" y="448" font-size="11" text-anchor="middle" fill="#93a6ba">06:00</text>
<line x1="472.0" x2="472.0" y1="428" y2="433" stroke="#93a6ba" stroke-width="1"/>
<text x="472.0" y="448" font-size="11" text-anchor="middle" fill="#93a6ba">08:00</text>
<line x1="555.0" x2="555.0" y1="428" y2="433" stroke="#93a6ba" stroke-width="1"/>
<text x="555.0" y="448" font-size="11" text-anchor="middle" fill="#93a6ba">10:00</text>
<line x1="638.0" x2="638.0" y1="112" y2="428" stroke="#243548" stroke-width="1"/>
<line x1="638.0" x2="638.0" y1="428" y2="433" stroke="#93a6ba" stroke-width="1"/>
<text x="638.0" y="448" font-size="11" text-anchor="middle" fill="#93a6ba">12:00</text>
<line x1="721.0" x2="721.0" y1="428" y2="433" stroke="#93a6ba" stroke-width="1"/>
<text x="721.0" y="448" font-size="11" text-anchor="middle" fill="#93a6ba">14:00</text>
<line x1="804.0" x2="804.0" y1="428" y2="433" stroke="#93a6ba" stroke-width="1"/>
<text x="804.0" y="448" font-size="11" text-anchor="middle" fill="#93a6ba">16:00</text>
<line x1="887.0" x2="887.0" y1="112" y2="428" stroke="#243548" stroke-width="1"/>
<line x1="887.0" x2="887.0" y1="428" y2="433" stroke="#93a6ba" stroke-width="1"/>
<text x="887.0" y="448" font-size="11" text-anchor="middle" fill="#93a6ba">18:00</text>
<line x1="970.0" x2="970.0" y1="428" y2="433" stroke="#93a6ba" stroke-width="1"/>
<text x="970.0" y="448" font-size="11" text-anchor="middle" fill="#93a6ba">20:00</text>
<line x1="1053.0" x2="1053.0" y1="428" y2="433" stroke="#93a6ba" stroke-width="1"/>
<text x="1053.0" y="448" font-size="11" text-anchor="middle" fill="#93a6ba">22:00</text>
<line x1="1136.0" x2="1136.0" y1="428" y2="433" stroke="#93a6ba" stroke-width="1"/>
<defs><path id="shape-flow-today" d="M140.0 270.0L140.0 270.0L142.4 270.0L142.4 270.0L145.8 270.0L145.8 270.0L149.5 270.0L149.5 270.0L152.9 270.0L152.9 270.0L156.4 270.0L156.4 270.0L160.0 270.0L160.0 270.0L167.2 270.0L167.2 270.0L170.9 270.0L170.9 270.0L174.0 270.0L174.0 270.0L177.5 270.0L177.5 261.8L181.2 261.8L181.2 261.8L184.6 261.8L184.6 261.8L188.4 261.8L188.4 261.8L192.0 261.8L192.0 261.8L195.2 261.8L195.2 261.8L198.7 261.8L198.7 261.8L202.3 261.8L202.3 261.8L205.9 261.8L205.9 261.4L209.4 261.4L209.4 261.4L213.1 261.4L213.1 261.4L216.2 261.4L216.2 261.4L219.8 261.4L219.8 261.4L223.4 261.4L223.4 261.4L226.6 261.4L226.6 261.4L230.2 261.4L230.2 261.3L233.8 261.3L233.8 261.3L237.3 261.3L237.3 261.3L240.8 261.3L240.8 261.3L244.4 261.3L244.4 261.3L259.7 261.3L259.7 371.3L266.4 371.3L266.4 369.4L270.1 369.4L270.1 369.8L273.7 369.8L273.7 369.9L276.8 369.9L276.8 369.9L280.5 369.9L280.5 369.9L284.1 369.9L284.1 370.0L287.2 370.0L287.2 370.0L294.3 370.0L294.3 370.0L297.7 370.0L297.7 370.0L301.2 370.0L301.2 370.0L304.8 370.0L304.8 370.0L308.2 370.0L308.2 370.0L311.7 370.0L311.7 370.0L315.3 370.0L315.3 370.1L318.7 370.1L318.7 370.1L322.5 370.1L322.5 370.1L326.0 370.1L326.0 370.1L336.3 370.1L336.3 367.2L339.8 367.2L339.8 367.3L343.5 367.3L343.5 372.6L347.1 372.6L347.1 372.7L350.2 372.7L350.2 372.6L353.8 372.6L353.8 372.6L368.0 372.6L368.0 369.9L371.4 369.9L371.4 322.3L374.9 322.3L374.9 322.3L378.5 322.3L378.5 322.3L382.0 322.3L382.0 320.4L385.7 320.4L385.7 320.4L389.4 320.4L389.4 320.4L392.6 320.4L392.6 250.1L396.0 250.1L396.0 250.1L399.7 250.1L399.7 250.1L403.2 250.1L403.2 248.6L406.9 248.6L406.9 248.7L410.5 248.7L410.5 248.7L417.5 248.7L417.5 248.7L421.1 248.7L421.1 248.7L424.3 248.7L424.3 248.7L427.8 248.7L427.8 248.9L434.8 248.9L434.8 247.1L438.6 247.1L438.6 246.0L442.2 246.0L442.2 246.4L448.8 246.4L448.8 244.2L452.4 244.2L452.4 244.2L455.9 244.2L455.9 244.2L459.6 244.2L459.6 244.3L463.2 244.3L463.2 244.3L466.4 244.3L466.4 242.5L469.9 242.5L469.9 242.5L473.5 242.5L473.5 239.9L476.9 239.9L476.9 239.9L480.7 239.9L480.7 239.9L484.2 239.9L484.2 239.6L487.4 239.6L487.4 239.6L490.9 239.6L490.9 240.7L494.5 240.7L494.5 240.7L498.0 240.7L498.0 240.7L501.7 240.7L501.7 240.7L505.3 240.7L505.3 237.9L508.4 237.9L508.4 236.1L511.9 236.1L511.9 236.1L515.5 236.1L515.5 236.1L519.0 236.1L519.0 236.1L526.3 236.1L526.3 232.5L529.4 232.5L529.4 229.5L532.9 229.5L532.9 229.5L547.4 229.5L547.4 225.3L550.5 225.3L550.5 223.6L561.0 223.6L561.0 218.3L564.7 218.3L564.7 222.1L568.3 222.1L568.3 222.1L578.5 222.1L578.5 220.9L590.5 220.9L590.5 310.9L597.2 310.9L597.2 309.1L600.9 309.1L600.9 309.1L604.5 309.1L604.5 309.1L607.6 309.1L607.6 309.1L614.7 309.1L614.7 308.3L618.1 308.3L618.1 301.1L621.8 301.1L621.8 301.0L625.4 301.0L625.4 300.7L628.6 300.7L628.6 300.3L632.1 300.3L632.1 300.3L635.6 300.3L635.6 299.3L653.2 299.3L653.2 286.1L659.9 286.1L659.9 284.2L670.5 284.2L670.5 282.9L674.2 282.9L674.2 282.7L683.1 282.7L683.1 188.3L690.2 188.3L690.2 187.6L693.6 187.6L693.6 187.6L697.4 187.6L697.4 185.5L704.1 185.5L704.1 183.7L707.6 183.7L707.6 183.7L714.7 183.7L714.7 182.5L718.1 182.5L718.1 182.5L725.2 182.5L725.2 179.1L728.9 179.1L728.9 179.1L735.8 179.1L735.8 178.0L739.3 178.0L739.3 178.0L742.9 178.0L742.9 176.4L746.3 176.4L746.3 176.5L753.5 176.5L753.5 176.5L760.7 176.5L760.7 172.8L767.5 172.8L767.5 165.6L774.6 165.6L774.6 159.9L789.8 159.9L789.8 310.6L800.2 310.6L800.2 306.0L810.6 306.0L810.6 187.4L817.9 187.4L817.9 181.9L821.1 181.9L821.1 181.9L821.1 270.0Z"/><path id="line-flow-today" d="M140.0 270.0L142.4 270.0L142.4 270.0L145.8 270.0L145.8 270.0L149.5 270.0L149.5 270.0L152.9 270.0L152.9 270.0L156.4 270.0L156.4 270.0L160.0 270.0L160.0 270.0L167.2 270.0L167.2 270.0L170.9 270.0L170.9 270.0L174.0 270.0L174.0 270.0L177.5 270.0L177.5 261.8L181.2 261.8L181.2 261.8L184.6 261.8L184.6 261.8L188.4 261.8L188.4 261.8L192.0 261.8L192.0 261.8L195.2 261.8L195.2 261.8L198.7 261.8L198.7 261.8L202.3 261.8L202.3 261.8L205.9 261.8L205.9 261.4L209.4 261.4L209.4 261.4L213.1 261.4L213.1 261.4L216.2 261.4L216.2 261.4L219.8 261.4L219.8 261.4L223.4 261.4L223.4 261.4L226.6 261.4L226.6 261.4L230.2 261.4L230.2 261.3L233.8 261.3L233.8 261.3L237.3 261.3L237.3 261.3L240.8 261.3L240.8 261.3L244.4 261.3L244.4 261.3L259.7 261.3L259.7 371.3L266.4 371.3L266.4 369.4L270.1 369.4L270.1 369.8L273.7 369.8L273.7 369.9L276.8 369.9L276.8 369.9L280.5 369.9L280.5 369.9L284.1 369.9L284.1 370.0L287.2 370.0L287.2 370.0L294.3 370.0L294.3 370.0L297.7 370.0L297.7 370.0L301.2 370.0L301.2 370.0L304.8 370.0L304.8 370.0L308.2 370.0L308.2 370.0L311.7 370.0L311.7 370.0L315.3 370.0L315.3 370.1L318.7 370.1L318.7 370.1L322.5 370.1L322.5 370.1L326.0 370.1L326.0 370.1L336.3 370.1L336.3 367.2L339.8 367.2L339.8 367.3L343.5 367.3L343.5 372.6L347.1 372.6L347.1 372.7L350.2 372.7L350.2 372.6L353.8 372.6L353.8 372.6L368.0 372.6L368.0 369.9L371.4 369.9L371.4 322.3L374.9 322.3L374.9 322.3L378.5 322.3L378.5 322.3L382.0 322.3L382.0 320.4L385.7 320.4L385.7 320.4L389.4 320.4L389.4 320.4L392.6 320.4L392.6 250.1L396.0 250.1L396.0 250.1L399.7 250.1L399.7 250.1L403.2 250.1L403.2 248.6L406.9 248.6L406.9 248.7L410.5 248.7L410.5 248.7L417.5 248.7L417.5 248.7L421.1 248.7L421.1 248.7L424.3 248.7L424.3 248.7L427.8 248.7L427.8 248.9L434.8 248.9L434.8 247.1L438.6 247.1L438.6 246.0L442.2 246.0L442.2 246.4L448.8 246.4L448.8 244.2L452.4 244.2L452.4 244.2L455.9 244.2L455.9 244.2L459.6 244.2L459.6 244.3L463.2 244.3L463.2 244.3L466.4 244.3L466.4 242.5L469.9 242.5L469.9 242.5L473.5 242.5L473.5 239.9L476.9 239.9L476.9 239.9L480.7 239.9L480.7 239.9L484.2 239.9L484.2 239.6L487.4 239.6L487.4 239.6L490.9 239.6L490.9 240.7L494.5 240.7L494.5 240.7L498.0 240.7L498.0 240.7L501.7 240.7L501.7 240.7L505.3 240.7L505.3 237.9L508.4 237.9L508.4 236.1L511.9 236.1L511.9 236.1L515.5 236.1L515.5 236.1L519.0 236.1L519.0 236.1L526.3 236.1L526.3 232.5L529.4 232.5L529.4 229.5L532.9 229.5L532.9 229.5L547.4 229.5L547.4 225.3L550.5 225.3L550.5 223.6L561.0 223.6L561.0 218.3L564.7 218.3L564.7 222.1L568.3 222.1L568.3 222.1L578.5 222.1L578.5 220.9L590.5 220.9L590.5 310.9L597.2 310.9L597.2 309.1L600.9 309.1L600.9 309.1L604.5 309.1L604.5 309.1L607.6 309.1L607.6 309.1L614.7 309.1L614.7 308.3L618.1 308.3L618.1 301.1L621.8 301.1L621.8 301.0L625.4 301.0L625.4 300.7L628.6 300.7L628.6 300.3L632.1 300.3L632.1 300.3L635.6 300.3L635.6 299.3L653.2 299.3L653.2 286.1L659.9 286.1L659.9 284.2L670.5 284.2L670.5 282.9L674.2 282.9L674.2 282.7L683.1 282.7L683.1 188.3L690.2 188.3L690.2 187.6L693.6 187.6L693.6 187.6L697.4 187.6L697.4 185.5L704.1 185.5L704.1 183.7L707.6 183.7L707.6 183.7L714.7 183.7L714.7 182.5L718.1 182.5L718.1 182.5L725.2 182.5L725.2 179.1L728.9 179.1L728.9 179.1L735.8 179.1L735.8 178.0L739.3 178.0L739.3 178.0L742.9 178.0L742.9 176.4L746.3 176.4L746.3 176.5L753.5 176.5L753.5 176.5L760.7 176.5L760.7 172.8L767.5 172.8L767.5 165.6L774.6 165.6L774.6 159.9L789.8 159.9L789.8 310.6L800.2 310.6L800.2 306.0L810.6 306.0L810.6 187.4L817.9 187.4L817.9 181.9L821.1 181.9L821.1 181.9"/><clipPath id="up-flow-today"><rect x="140" y="112" width="996" height="158.0"/></clipPath><clipPath id="down-flow-today"><rect x="140" y="270.0" width="996" height="158.0"/></clipPath></defs>
<use href="#shape-flow-today" fill="#3ddc84" fill-opacity="0.15" clip-path="url(#up-flow-today)"/>
<use href="#line-flow-today" fill="none" stroke="#3ddc84" stroke-width="2.25" stroke-linejoin="round" stroke-linecap="round" clip-path="url(#up-flow-today)"/>
<use href="#shape-flow-today" fill="#ff6b6b" fill-opacity="0.15" clip-path="url(#down-flow-today)"/>
<use href="#line-flow-today" fill="none" stroke="#ff6b6b" stroke-width="2.25" stroke-linejoin="round" stroke-linecap="round" clip-path="url(#down-flow-today)"/>
<circle cx="821.1" cy="181.9" r="5" fill="#3ddc84" stroke="#152131" stroke-width="2.5"/>
<text x="833.1" y="177.4" text-anchor="start" font-size="15" font-weight="700" fill="#3ddc84" stroke="#152131" stroke-width="4" stroke-linejoin="round" paint-order="stroke">+223,108,912 Alz</text>
<text x="833.1" y="194.4" text-anchor="start" font-size="13" font-weight="600" fill="#eaf1f8" stroke="#152131" stroke-width="4" stroke-linejoin="round" paint-order="stroke">net worth 3,994,548,310</text>
</g>
<g transform="translate(20,1490)">
<rect width="1160" height="470" rx="12" fill="#152131" stroke="#24364a"/>
<text x="24" y="32" font-size="18" font-weight="700" letter-spacing="1.4" fill="#ffd166">BOT · CONTINUOUS NETWORTH</text>
<text x="24" y="60" font-size="21" font-weight="700" fill="#eaf1f8">Last 7 days</text>
<text x="24" y="84" fill="#93a6ba">from <tspan font-weight="700" fill="#eaf1f8">3,779,747,884</tspan> at Sat 03 Oct 23:55 · now <tspan font-weight="700" fill="#eaf1f8">3,994,548,310</tspan> at Sat 10 Oct 16:24 Central</text>
<text x="1136" y="62" font-size="30" font-weight="700" text-anchor="end" fill="#3ddc84">+214,800,426</text>
<text x="1136" y="84" font-size="11" text-anchor="end" fill="#93a6ba">Alz since Sat 03 Oct 23:55</text>
<rect x="282.3" y="93" width="142.3" height="335" fill="#1b2b3d"/>
<rect x="566.9" y="93" width="142.3" height="335" fill="#1b2b3d"/>
<rect x="851.4" y="93" width="142.3" height="335" fill="#1b2b3d"/>
<line x1="140" x2="1136" y1="428.0" y2="428.0" stroke="#243548" stroke-width="1" stroke-dasharray="3 4"/>
<text x="130" y="428.0" text-anchor="end" dominant-baseline="middle" font-weight="400" fill="#93a6ba">-3,000,000,000</text>
<line x1="140" x2="1136" y1="372.4" y2="372.4" stroke="#243548" stroke-width="1" stroke-dasharray="3 4"/>
<text x="130" y="372.4" text-anchor="end" dominant-baseline="middle" font-weight="400" fill="#93a6ba">-2,000,000,000</text>
<line x1="140" x2="1136" y1="316.8" y2="316.8" stroke="#243548" stroke-width="1" stroke-dasharray="3 4"/>
<text x="130" y="316.8" text-anchor="end" dominant-baseline="middle" font-weight="400" fill="#93a6ba">-1,000,000,000</text>
<line x1="140" x2="1136" y1="261.2" y2="261.2" stroke="#eaf1f8" stroke-width="1.5"/>
<text x="130" y="261.2" text-anchor="end" dominant-baseline="middle" font-weight="700" fill="#eaf1f8">3,779,747,884</text>
<line x1="140" x2="1136" y1="205.6" y2="205.6" stroke="#243548" stroke-width="1" stroke-dasharray="3 4"/>
<text x="130" y="205.6" text-anchor="end" dominant-baseline="middle" font-weight="400" fill="#93a6ba">+1,000,000,000</text>
<line x1="140" x2="1136" y1="150.0" y2="150.0" stroke="#243548" stroke-width="1" stroke-dasharray="3 4"/>
<text x="130" y="150.0" text-anchor="end" dominant-baseline="middle" font-weight="400" fill="#93a6ba">+2,000,000,000</text>
<text x="150.0" y="116" font-weight="700" fill="#eaf1f8">Sun 04 Oct</text>
<line x1="140.0" x2="140.0" y1="428" y2="433" stroke="#93a6ba" stroke-width="1"/>
<text x="140.0" y="448" font-size="11" text-anchor="middle" fill="#93a6ba">00:00</text>
<line x1="211.1" x2="211.1" y1="428" y2="433" stroke="#93a6ba" stroke-width="1"/>
<text x="211.1" y="448" font-size="11" text-anchor="middle" fill="#93a6ba">12:00</text>
<line x1="282.3" x2="282.3" y1="428" y2="433" stroke="#93a6ba" stroke-width="1"/>
<text x="292.3" y="116" font-weight="700" fill="#eaf1f8">Mon 05 Oct</text>
<line x1="282.3" x2="282.3" y1="428" y2="433" stroke="#93a6ba" stroke-width="1"/>
<text x="282.3" y="448" font-size="11" text-anchor="middle" fill="#93a6ba">00:00</text>
<line x1="353.4" x2="353.4" y1="428" y2="433" stroke="#93a6ba" stroke-width="1"/>
<text x="353.4" y="448" font-size="11" text-anchor="middle" fill="#93a6ba">12:00</text>
<line x1="424.6" x2="424.6" y1="428" y2="433" stroke="#93a6ba" stroke-width="1"/>
<text x="434.6" y="116" font-weight="700" fill="#eaf1f8">Tue 06 Oct</text>
<line x1="424.6" x2="424.6" y1="428" y2="433" stroke="#93a6ba" stroke-width="1"/>
<text x="424.6" y="448" font-size="11" text-anchor="middle" fill="#93a6ba">00:00</text>
<line x1="495.7" x2="495.7" y1="428" y2="433" stroke="#93a6ba" stroke-width="1"/>
<text x="495.7" y="448" font-size="11" text-anchor="middle" fill="#93a6ba">12:00</text>
<line x1="566.9" x2="566.9" y1="428" y2="433" stroke="#93a6ba" stroke-width="1"/>
<text x="576.9" y="116" font-weight="700" fill="#eaf1f8">Wed 07 Oct</text>
<line x1="566.9" x2="566.9" y1="428" y2="433" stroke="#93a6ba" stroke-width="1"/>
<text x="566.9" y="448" font-size="11" text-anchor="middle" fill="#93a6ba">00:00</text>
<line x1="638.0" x2="638.0" y1="428" y2="433" stroke="#93a6ba" stroke-width="1"/>
<text x="638.0" y="448" font-size="11" text-anchor="middle" fill="#93a6ba">12:00</text>
<line x1="709.1" x2="709.1" y1="428" y2="433" stroke="#93a6ba" stroke-width="1"/>
<text x="719.1" y="116" font-weight="700" fill="#eaf1f8">Thu 08 Oct</text>
<line x1="709.1" x2="709.1" y1="428" y2="433" stroke="#93a6ba" stroke-width="1"/>
<text x="709.1" y="448" font-size="11" text-anchor="middle" fill="#93a6ba">00:00</text>
<line x1="780.3" x2="780.3" y1="428" y2="433" stroke="#93a6ba" stroke-width="1"/>
<text x="780.3" y="448" font-size="11" text-anchor="middle" fill="#93a6ba">12:00</text>
<line x1="851.4" x2="851.4" y1="428" y2="433" stroke="#93a6ba" stroke-width="1"/>
<text x="861.4" y="116" font-weight="700" fill="#eaf1f8">Fri 09 Oct</text>
<line x1="851.4" x2="851.4" y1="428" y2="433" stroke="#93a6ba" stroke-width="1"/>
<text x="851.4" y="448" font-size="11" text-anchor="middle" fill="#93a6ba">00:00</text>
<line x1="922.6" x2="922.6" y1="428" y2="433" stroke="#93a6ba" stroke-width="1"/>
<text x="922.6" y="448" font-size="11" text-anchor="middle" fill="#93a6ba">12:00</text>
<line x1="993.7" x2="993.7" y1="428" y2="433" stroke="#93a6ba" stroke-width="1"/>
<text x="1003.7" y="116" font-weight="700" fill="#7cc4ff">Today 10 Oct</text>
<line x1="993.7" x2="993.7" y1="428" y2="433" stroke="#93a6ba" stroke-width="1"/>
<text x="993.7" y="448" font-size="11" text-anchor="middle" fill="#93a6ba">00:00</text>
<line x1="1064.9" x2="1064.9" y1="428" y2="433" stroke="#93a6ba" stroke-width="1"/>
<text x="1064.9" y="448" font-size="11" text-anchor="middle" fill="#93a6ba">12:00</text>
<line x1="1136.0" x2="1136.0" y1="428" y2="433" stroke="#93a6ba" stroke-width="1"/>
<defs><path id="shape-flow-week" d="M140.0 261.2L140.0 261.2L142.1 261.2L142.1 261.2L145.1 261.2L145.1 261.0L148.1 261.0L148.1 260.8L150.6 260.8L150.6 260.6L153.6 260.6L153.6 258.7L156.6 258.7L156.6 256.5L158.6 256.5L158.6 256.6L161.6 256.6L161.6 256.1L164.6 256.1L164.6 257.7L167.1 257.7L167.1 257.9L169.6 257.9L169.6 257.9L172.6 257.9L172.6 257.9L175.1 257.9L175.1 258.0L177.6 258.0L177.6 258.0L181.8 258.0L181.8 257.9L184.2 257.9L184.2 257.9L186.7 257.9L186.7 256.7L189.8 256.7L189.8 256.7L192.3 256.7L192.3 256.7L198.6 256.7L198.6 295.0L201.1 295.0L201.1 293.3L208.1 293.3L208.1 285.6L211.1 285.6L211.1 283.4L214.1 283.4L214.1 282.7L217.1 282.7L217.1 282.6L220.1 282.6L220.1 281.6L222.6 281.6L222.6 281.1L225.1 281.1L225.1 283.1L227.1 283.1L227.1 283.7L229.6 283.7L229.6 285.7L232.2 285.7L232.2 285.7L235.1 285.7L235.1 285.7L237.6 285.7L237.6 285.9L242.2 285.9L242.2 383.5L244.7 383.5L244.7 383.6L251.0 383.6L251.0 382.3L253.6 382.3L253.6 382.4L257.0 382.4L257.0 382.1L260.1 382.1L260.1 381.6L262.6 381.6L262.6 381.5L272.6 381.5L272.6 379.5L277.1 379.5L277.1 378.8L281.6 378.8L281.6 267.7L284.0 267.7L284.0 267.7L288.0 267.7L288.0 267.6L290.0 267.6L290.0 267.5L292.5 267.5L292.5 267.4L295.1 267.4L295.1 266.7L297.5 266.7L297.5 266.7L301.0 266.7L301.0 266.4L303.0 266.4L303.0 266.6L306.0 266.6L306.0 266.5L307.5 266.5L307.5 266.5L310.0 266.5L310.0 266.4L313.6 266.4L313.6 266.2L316.1 266.2L316.1 266.1L319.1 266.1L319.1 266.0L321.6 266.0L321.6 266.0L324.1 266.0L324.1 265.9L327.5 265.9L327.5 265.8L331.1 265.8L331.1 262.9L335.1 262.9L335.1 259.2L340.2 259.2L340.2 257.7L343.2 257.7L343.2 257.5L346.6 257.5L346.6 256.6L348.7 256.6L348.7 256.6L351.1 256.6L351.1 256.4L355.2 256.4L355.2 256.0L357.6 256.0L357.6 255.6L361.6 255.6L361.6 254.4L364.7 254.4L364.7 254.1L371.1 254.1L371.1 232.8L375.1 232.8L375.1 231.3L378.1 231.3L378.1 231.1L380.1 231.1L380.1 230.7L382.1 230.7L382.1 230.4L384.6 230.4L384.6 232.3L386.6 232.3L386.6 231.9L388.6 231.9L388.6 231.9L390.6 231.9L390.6 231.9L394.4 231.9L394.4 231.9L395.9 231.9L395.9 231.9L398.4 231.9L398.4 231.6L400.4 231.6L400.4 231.5L402.4 231.5L402.4 231.5L406.4 231.5L406.4 230.6L409.4 230.6L409.4 230.6L412.4 230.6L412.4 230.6L414.4 230.6L414.4 230.6L419.9 230.6L419.9 229.5L423.9 229.5L423.9 227.8L428.9 227.8L428.9 225.8L431.9 225.8L431.9 225.7L435.4 225.7L435.4 225.1L437.9 225.1L437.9 224.9L440.4 224.9L440.4 224.9L447.8 224.9L447.8 224.2L452.8 224.2L452.8 222.8L454.8 222.8L454.8 222.7L456.3 222.7L456.3 222.7L457.8 222.7L457.8 222.5L461.8 222.5L461.8 221.7L470.0 221.7L470.0 217.5L475.0 217.5L475.0 216.4L480.5 216.4L480.5 214.6L486.5 214.6L486.5 211.3L490.0 211.3L490.0 208.8L492.0 208.8L492.0 209.0L494.0 209.0L494.0 209.2L504.6 209.2L504.6 206.9L507.0 206.9L507.0 207.1L510.0 207.1L510.0 207.1L512.1 207.1L512.1 207.3L514.6 207.3L514.6 207.0L518.1 207.0L518.1 188.5L521.1 188.5L521.1 188.5L524.1 188.5L524.1 187.8L527.1 187.8L527.1 187.7L529.6 187.7L529.6 187.7L532.6 187.7L532.6 187.6L535.6 187.6L535.6 187.5L537.7 187.5L537.7 187.6L539.7 187.6L539.7 188.4L542.1 188.4L542.1 189.4L544.6 189.4L544.6 190.3L838.3 190.3L838.3 339.9L839.8 339.9L839.8 340.2L841.8 340.2L841.8 340.1L844.3 340.1L844.3 340.0L847.3 340.0L847.3 340.2L848.8 340.2L848.8 340.2L850.8 340.2L850.8 340.0L852.3 340.0L852.3 340.0L858.3 340.0L858.3 280.8L861.3 280.8L861.3 280.3L863.3 280.3L863.3 280.3L864.8 280.3L864.8 280.3L866.8 280.3L866.8 280.3L868.3 280.3L868.3 280.3L870.3 280.3L870.3 279.2L872.3 279.2L872.3 291.2L874.3 291.2L874.3 291.0L877.8 291.0L877.8 288.4L879.8 288.4L879.8 281.3L883.8 281.3L883.8 278.7L885.8 278.7L885.8 278.7L887.3 278.7L887.3 280.5L889.8 280.5L889.8 273.5L892.8 273.5L892.8 269.0L895.3 269.0L895.3 269.2L897.3 269.2L897.3 269.3L898.8 269.3L898.8 269.5L900.9 269.5L900.9 270.0L902.3 270.0L902.3 270.0L904.3 270.0L904.3 269.9L906.3 269.9L906.3 270.3L910.2 270.3L910.2 286.5L913.6 286.5L913.6 286.3L915.1 286.3L915.1 286.1L916.6 286.1L916.6 286.0L918.6 286.0L918.6 274.8L920.1 274.8L920.1 274.6L921.6 274.6L921.6 275.0L923.1 275.0L923.1 275.5L925.6 275.5L925.6 267.7L929.2 267.7L929.2 266.6L931.2 266.6L931.2 266.0L933.2 266.0L933.2 266.6L935.2 266.6L935.2 266.3L937.7 266.3L937.7 265.9L940.7 265.9L940.7 264.7L945.1 264.7L945.1 270.3L946.6 270.3L946.6 270.4L948.1 270.4L948.1 270.4L949.6 270.4L949.6 270.4L951.0 270.4L951.0 270.4L952.6 270.4L952.6 270.4L954.1 270.4L954.1 270.4L955.6 270.4L955.6 270.4L957.1 270.4L957.1 270.4L959.1 270.4L959.1 263.5L961.1 263.5L961.1 263.9L963.1 263.9L963.1 264.1L964.6 264.1L964.6 264.1L966.1 264.1L966.1 264.1L967.5 264.1L967.5 263.8L969.0 263.8L969.0 263.7L970.5 263.7L970.5 263.5L972.0 263.5L972.0 263.5L973.5 263.5L973.5 263.4L975.0 263.4L975.0 263.3L976.5 263.3L976.5 263.3L978.0 263.3L978.0 262.7L979.5 262.7L979.5 262.7L981.1 262.7L981.1 262.8L982.6 262.8L982.6 262.7L984.0 262.7L984.0 262.7L985.5 262.7L985.5 262.7L988.6 262.7L988.6 262.3L990.1 262.3L990.1 261.7L991.6 261.7L991.6 261.7L993.0 261.7L993.0 261.7L994.5 261.7L994.5 261.7L996.1 261.7L996.1 261.7L998.1 261.7L998.1 261.7L999.6 261.7L999.6 260.5L1001.1 260.5L1001.1 260.5L1002.6 260.5L1002.6 260.5L1004.2 260.5L1004.2 260.5L1005.6 260.5L1005.6 260.5L1007.1 260.5L1007.1 260.4L1008.6 260.4L1008.6 260.4L1012.3 260.4L1012.3 275.7L1013.8 275.7L1013.8 275.7L1015.8 275.7L1015.8 275.7L1017.3 275.7L1017.3 275.7L1018.8 275.7L1018.8 275.7L1020.3 275.7L1020.3 275.8L1022.8 275.8L1022.8 276.1L1024.3 276.1L1024.3 276.1L1027.3 276.1L1027.3 269.0L1028.8 269.0L1028.8 268.7L1030.3 268.7L1030.3 258.9L1031.8 258.9L1031.8 258.7L1033.9 258.7L1033.9 258.7L1035.8 258.7L1035.8 258.4L1037.8 258.4L1037.8 258.0L1039.4 258.0L1039.4 258.0L1040.8 258.0L1040.8 257.8L1042.4 257.8L1042.4 257.4L1043.8 257.4L1043.8 257.5L1045.4 257.5L1045.4 257.5L1046.8 257.5L1046.8 256.9L1048.9 256.9L1048.9 256.4L1051.9 256.4L1051.9 255.4L1054.4 255.4L1054.4 254.9L1058.1 254.9L1058.1 267.4L1060.1 267.4L1060.1 267.2L1062.0 267.2L1062.0 266.0L1063.5 266.0L1063.5 265.9L1067.0 265.9L1067.0 263.9L1070.0 263.9L1070.0 263.4L1072.8 263.4L1072.8 250.1L1074.8 250.1L1074.8 249.5L1077.3 249.5L1077.3 248.9L1079.3 248.9L1079.3 248.7L1081.4 248.7L1081.4 248.5L1084.4 248.5L1084.4 246.2L1089.5 246.2L1089.5 250.0L1091.0 250.0L1091.0 249.3L1091.0 261.2Z"/><path id="line-flow-week" d="M140.0 261.2L142.1 261.2L142.1 261.2L145.1 261.2L145.1 261.0L148.1 261.0L148.1 260.8L150.6 260.8L150.6 260.6L153.6 260.6L153.6 258.7L156.6 258.7L156.6 256.5L158.6 256.5L158.6 256.6L161.6 256.6L161.6 256.1L164.6 256.1L164.6 257.7L167.1 257.7L167.1 257.9L169.6 257.9L169.6 257.9L172.6 257.9L172.6 257.9L175.1 257.9L175.1 258.0L177.6 258.0L177.6 258.0L181.8 258.0L181.8 257.9L184.2 257.9L184.2 257.9L186.7 257.9L186.7 256.7L189.8 256.7L189.8 256.7L192.3 256.7L192.3 256.7L198.6 256.7L198.6 295.0L201.1 295.0L201.1 293.3L208.1 293.3L208.1 285.6L211.1 285.6L211.1 283.4L214.1 283.4L214.1 282.7L217.1 282.7L217.1 282.6L220.1 282.6L220.1 281.6L222.6 281.6L222.6 281.1L225.1 281.1L225.1 283.1L227.1 283.1L227.1 283.7L229.6 283.7L229.6 285.7L232.2 285.7L232.2 285.7L235.1 285.7L235.1 285.7L237.6 285.7L237.6 285.9L242.2 285.9L242.2 383.5L244.7 383.5L244.7 383.6L251.0 383.6L251.0 382.3L253.6 382.3L253.6 382.4L257.0 382.4L257.0 382.1L260.1 382.1L260.1 381.6L262.6 381.6L262.6 381.5L272.6 381.5L272.6 379.5L277.1 379.5L277.1 378.8L281.6 378.8L281.6 267.7L284.0 267.7L284.0 267.7L288.0 267.7L288.0 267.6L290.0 267.6L290.0 267.5L292.5 267.5L292.5 267.4L295.1 267.4L295.1 266.7L297.5 266.7L297.5 266.7L301.0 266.7L301.0 266.4L303.0 266.4L303.0 266.6L306.0 266.6L306.0 266.5L307.5 266.5L307.5 266.5L310.0 266.5L310.0 266.4L313.6 266.4L313.6 266.2L316.1 266.2L316.1 266.1L319.1 266.1L319.1 266.0L321.6 266.0L321.6 266.0L324.1 266.0L324.1 265.9L327.5 265.9L327.5 265.8L331.1 265.8L331.1 262.9L335.1 262.9L335.1 259.2L340.2 259.2L340.2 257.7L343.2 257.7L343.2 257.5L346.6 257.5L346.6 256.6L348.7 256.6L348.7 256.6L351.1 256.6L351.1 256.4L355.2 256.4L355.2 256.0L357.6 256.0L357.6 255.6L361.6 255.6L361.6 254.4L364.7 254.4L364.7 254.1L371.1 254.1L371.1 232.8L375.1 232.8L375.1 231.3L378.1 231.3L378.1 231.1L380.1 231.1L380.1 230.7L382.1 230.7L382.1 230.4L384.6 230.4L384.6 232.3L386.6 232.3L386.6 231.9L388.6 231.9L388.6 231.9L390.6 231.9L390.6 231.9L394.4 231.9L394.4 231.9L395.9 231.9L395.9 231.9L398.4 231.9L398.4 231.6L400.4 231.6L400.4 231.5L402.4 231.5L402.4 231.5L406.4 231.5L406.4 230.6L409.4 230.6L409.4 230.6L412.4 230.6L412.4 230.6L414.4 230.6L414.4 230.6L419.9 230.6L419.9 229.5L423.9 229.5L423.9 227.8L428.9 227.8L428.9 225.8L431.9 225.8L431.9 225.7L435.4 225.7L435.4 225.1L437.9 225.1L437.9 224.9L440.4 224.9L440.4 224.9L447.8 224.9L447.8 224.2L452.8 224.2L452.8 222.8L454.8 222.8L454.8 222.7L456.3 222.7L456.3 222.7L457.8 222.7L457.8 222.5L461.8 222.5L461.8 221.7L470.0 221.7L470.0 217.5L475.0 217.5L475.0 216.4L480.5 216.4L480.5 214.6L486.5 214.6L486.5 211.3L490.0 211.3L490.0 208.8L492.0 208.8L492.0 209.0L494.0 209.0L494.0 209.2L504.6 209.2L504.6 206.9L507.0 206.9L507.0 207.1L510.0 207.1L510.0 207.1L512.1 207.1L512.1 207.3L514.6 207.3L514.6 207.0L518.1 207.0L518.1 188.5L521.1 188.5L521.1 188.5L524.1 188.5L524.1 187.8L527.1 187.8L527.1 187.7L529.6 187.7L529.6 187.7L532.6 187.7L532.6 187.6L535.6 187.6L535.6 187.5L537.7 187.5L537.7 187.6L539.7 187.6L539.7 188.4L542.1 188.4L542.1 189.4L544.6 189.4L544.6 190.3L838.3 190.3L838.3 339.9L839.8 339.9L839.8 340.2L841.8 340.2L841.8 340.1L844.3 340.1L844.3 340.0L847.3 340.0L847.3 340.2L848.8 340.2L848.8 340.2L850.8 340.2L850.8 340.0L852.3 340.0L852.3 340.0L858.3 340.0L858.3 280.8L861.3 280.8L861.3 280.3L863.3 280.3L863.3 280.3L864.8 280.3L864.8 280.3L866.8 280.3L866.8 280.3L868.3 280.3L868.3 280.3L870.3 280.3L870.3 279.2L872.3 279.2L872.3 291.2L874.3 291.2L874.3 291.0L877.8 291.0L877.8 288.4L879.8 288.4L879.8 281.3L883.8 281.3L883.8 278.7L885.8 278.7L885.8 278.7L887.3 278.7L887.3 280.5L889.8 280.5L889.8 273.5L892.8 273.5L892.8 269.0L895.3 269.0L895.3 269.2L897.3 269.2L897.3 269.3L898.8 269.3L898.8 269.5L900.9 269.5L900.9 270.0L902.3 270.0L902.3 270.0L904.3 270.0L904.3 269.9L906.3 269.9L906.3 270.3L910.2 270.3L910.2 286.5L913.6 286.5L913.6 286.3L915.1 286.3L915.1 286.1L916.6 286.1L916.6 286.0L918.6 286.0L918.6 274.8L920.1 274.8L920.1 274.6L921.6 274.6L921.6 275.0L923.1 275.0L923.1 275.5L925.6 275.5L925.6 267.7L929.2 267.7L929.2 266.6L931.2 266.6L931.2 266.0L933.2 266.0L933.2 266.6L935.2 266.6L935.2 266.3L937.7 266.3L937.7 265.9L940.7 265.9L940.7 264.7L945.1 264.7L945.1 270.3L946.6 270.3L946.6 270.4L948.1 270.4L948.1 270.4L949.6 270.4L949.6 270.4L951.0 270.4L951.0 270.4L952.6 270.4L952.6 270.4L954.1 270.4L954.1 270.4L955.6 270.4L955.6 270.4L957.1 270.4L957.1 270.4L959.1 270.4L959.1 263.5L961.1 263.5L961.1 263.9L963.1 263.9L963.1 264.1L964.6 264.1L964.6 264.1L966.1 264.1L966.1 264.1L967.5 264.1L967.5 263.8L969.0 263.8L969.0 263.7L970.5 263.7L970.5 263.5L972.0 263.5L972.0 263.5L973.5 263.5L973.5 263.4L975.0 263.4L975.0 263.3L976.5 263.3L976.5 263.3L978.0 263.3L978.0 262.7L979.5 262.7L979.5 262.7L981.1 262.7L981.1 262.8L982.6 262.8L982.6 262.7L984.0 262.7L984.0 262.7L985.5 262.7L985.5 262.7L988.6 262.7L988.6 262.3L990.1 262.3L990.1 261.7L991.6 261.7L991.6 261.7L993.0 261.7L993.0 261.7L994.5 261.7L994.5 261.7L996.1 261.7L996.1 261.7L998.1 261.7L998.1 261.7L999.6 261.7L999.6 260.5L1001.1 260.5L1001.1 260.5L1002.6 260.5L1002.6 260.5L1004.2 260.5L1004.2 260.5L1005.6 260.5L1005.6 260.5L1007.1 260.5L1007.1 260.4L1008.6 260.4L1008.6 260.4L1012.3 260.4L1012.3 275.7L1013.8 275.7L1013.8 275.7L1015.8 275.7L1015.8 275.7L1017.3 275.7L1017.3 275.7L1018.8 275.7L1018.8 275.7L1020.3 275.7L1020.3 275.8L1022.8 275.8L1022.8 276.1L1024.3 276.1L1024.3 276.1L1027.3 276.1L1027.3 269.0L1028.8 269.0L1028.8 268.7L1030.3 268.7L1030.3 258.9L1031.8 258.9L1031.8 258.7L1033.9 258.7L1033.9 258.7L1035.8 258.7L1035.8 258.4L1037.8 258.4L1037.8 258.0L1039.4 258.0L1039.4 258.0L1040.8 258.0L1040.8 257.8L1042.4 257.8L1042.4 257.4L1043.8 257.4L1043.8 257.5L1045.4 257.5L1045.4 257.5L1046.8 257.5L1046.8 256.9L1048.9 256.9L1048.9 256.4L1051.9 256.4L1051.9 255.4L1054.4 255.4L1054.4 254.9L1058.1 254.9L1058.1 267.4L1060.1 267.4L1060.1 267.2L1062.0 267.2L1062.0 266.0L1063.5 266.0L1063.5 265.9L1067.0 265.9L1067.0 263.9L1070.0 263.9L1070.0 263.4L1072.8 263.4L1072.8 250.1L1074.8 250.1L1074.8 249.5L1077.3 249.5L1077.3 248.9L1079.3 248.9L1079.3 248.7L1081.4 248.7L1081.4 248.5L1084.4 248.5L1084.4 246.2L1089.5 246.2L1089.5 250.0L1091.0 250.0L1091.0 249.3"/><clipPath id="up-flow-week"><rect x="140" y="150" width="996" height="111.2"/></clipPath><clipPath id="down-flow-week"><rect x="140" y="261.2" width="996" height="166.8"/></clipPath></defs>
<use href="#shape-flow-week" fill="#3ddc84" fill-opacity="0.15" clip-path="url(#up-flow-week)"/>
<use href="#line-flow-week" fill="none" stroke="#3ddc84" stroke-width="2.25" stroke-linejoin="round" stroke-linecap="round" clip-path="url(#up-flow-week)"/>
<use href="#shape-flow-week" fill="#ff6b6b" fill-opacity="0.15" clip-path="url(#down-flow-week)"/>
<use href="#line-flow-week" fill="none" stroke="#ff6b6b" stroke-width="2.25" stroke-linejoin="round" stroke-linecap="round" clip-path="url(#down-flow-week)"/>
<circle cx="1091.0" cy="249.3" r="5" fill="#3ddc84" stroke="#152131" stroke-width="2.5"/>
<text x="1079.0" y="276.3" text-anchor="end" font-size="15" font-weight="700" fill="#3ddc84" stroke="#152131" stroke-width="4" stroke-linejoin="round" paint-order="stroke">+214,800,426 Alz</text>
<text x="1079.0" y="293.3" text-anchor="end" font-size="13" font-weight="600" fill="#eaf1f8" stroke="#152131" stroke-width="4" stroke-linejoin="round" paint-order="stroke">net worth 3,994,548,310</text>
</g>
</svg>
