<svg xmlns="http://www.w3.org/2000/svg" width="1200" height="1980" viewBox="0 0 1200 1980" font-family="Segoe UI, Helvetica Neue, Arial, sans-serif" font-size="13" style="font-variant-numeric: tabular-nums">
<rect width="1200" height="1980" fill="#eef2ef"/>
<g transform="translate(20,20)">
<rect width="1160" height="470" rx="12" fill="#ffffff" stroke="#dbe3de"/>
<text x="24" y="32" font-size="18" font-weight="700" letter-spacing="1.4" fill="#6741d9">TRUNG · NET WORTH TODAY</text>
<text x="24" y="60" font-size="21" font-weight="700" fill="#16211b">Since midnight</text>
<text x="24" y="84" fill="#5f6b65">Wed 07 Oct 2026 · started at <tspan font-weight="700" fill="#16211b">4,256,773,022</tspan> at 01:14 · now <tspan font-weight="700" fill="#16211b">4,347,326,726</tspan> at 10:28 Central</text>
<text x="1136" y="62" font-size="30" font-weight="700" text-anchor="end" fill="#1d8a53">+90,553,704</text>
<text x="1136" y="84" font-size="11" text-anchor="end" fill="#5f6b65">Alz since 01:14</text>
<line x1="140" x2="1136" y1="428.0" y2="428.0" stroke="#e3e9e5" stroke-width="1" stroke-dasharray="3 4"/>
<text x="130" y="428.0" text-anchor="end" dominant-baseline="middle" font-weight="400" fill="#5f6b65">-200,000,000</text>
<line x1="140" x2="1136" y1="349.0" y2="349.0" stroke="#e3e9e5" stroke-width="1" stroke-dasharray="3 4"/>
<text x="130" y="349.0" text-anchor="end" dominant-baseline="middle" font-weight="400" fill="#5f6b65">-100,000,000</text>
<line x1="140" x2="1136" y1="270.0" y2="270.0" stroke="#16211b" stroke-width="1.5"/>
<text x="130" y="270.0" text-anchor="end" dominant-baseline="middle" font-weight="700" fill="#16211b">4,256,773,022</text>
<line x1="140" x2="1136" y1="191.0" y2="191.0" stroke="#e3e9e5" stroke-width="1" stroke-dasharray="3 4"/>
<text x="130" y="191.0" text-anchor="end" dominant-baseline="middle" font-weight="400" fill="#5f6b65">+100,000,000</text>
<line x1="140" x2="1136" y1="112.0" y2="112.0" stroke="#e3e9e5" stroke-width="1" stroke-dasharray="3 4"/>
<text x="130" y="112.0" text-anchor="end" dominant-baseline="middle" font-weight="400" fill="#5f6b65">+200,000,000</text>
<line x1="140.0" x2="140.0" y1="428" y2="433" stroke="#5f6b65" stroke-width="1"/>
<text x="140.0" y="448" font-size="11" text-anchor="middle" fill="#5f6b65">00:00</text>
<line x1="223.0" x2="223.0" y1="428" y2="433" stroke="#5f6b65" stroke-width="1"/>
<text x="223.0" y="448" font-size="11" text-anchor="middle" fill="#5f6b65">02:00</text>
<line x1="306.0" x2="306.0" y1="428" y2="433" stroke="#5f6b65" stroke-width="1"/>
<text x="306.0" y="448" font-size="11" text-anchor="middle" fill="#5f6b65">04:00</text>
<line x1="389.0" x2="389.0" y1="112" y2="428" stroke="#e3e9e5" stroke-width="1"/>
<line x1="389.0" x2="389.0" y1="428" y2="433" stroke="#5f6b65" stroke-width="1"/>
<text x="389.0" y="448" font-size="11" text-anchor="middle" fill="#5f6b65">06:00</text>
<line x1="472.0" x2="472.0" y1="428" y2="433" stroke="#5f6b65" stroke-width="1"/>
<text x="472.0" y="448" font-size="11" text-anchor="middle" fill="#5f6b65">08:00</text>
<line x1="555.0" x2="555.0" y1="428" y2="433" stroke="#5f6b65" stroke-width="1"/>
<text x="555.0" y="448" font-size="11" text-anchor="middle" fill="#5f6b65">10:00</text>
<line x1="638.0" x2="638.0" y1="112" y2="428" stroke="#e3e9e5" stroke-width="1"/>
<line x1="638.0" x2="638.0" y1="428" y2="433" stroke="#5f6b65" stroke-width="1"/>
<text x="638.0" y="448" font-size="11" text-anchor="middle" fill="#5f6b65">12:00</text>
<line x1="721.0" x2="721.0" y1="428" y2="433" stroke="#5f6b65" stroke-width="1"/>
<text x="721.0" y="448" font-size="11" text-anchor="middle" fill="#5f6b65">14:00</text>
<line x1="804.0" x2="804.0" y1="428" y2="433" stroke="#5f6b65" stroke-width="1"/>
<text x="804.0" y="448" font-size="11" text-anchor="middle" fill="#5f6b65">16:00</text>
<line x1="887.0" x2="887.0" y1="112" y2="428" stroke="#e3e9e5" stroke-width="1"/>
<line x1="887.0" x2="887.0" y1="428" y2="433" stroke="#5f6b65" stroke-width="1"/>
<text x="887.0" y="448" font-size="11" text-anchor="middle" fill="#5f6b65">18:00</text>
<line x1="970.0" x2="970.0" y1="428" y2="433" stroke="#5f6b65" stroke-width="1"/>
<text x="970.0" y="448" font-size="11" text-anchor="middle" fill="#5f6b65">20:00</text>
<line x1="1053.0" x2="1053.0" y1="428" y2="433" stroke="#5f6b65" stroke-width="1"/>
<text x="1053.0" y="448" font-size="11" text-anchor="middle" fill="#5f6b65">22:00</text>
<line x1="1136.0" x2="1136.0" y1="428" y2="433" stroke="#5f6b65" stroke-width="1"/>
<defs><path id="shape-today" d="M191.4 270.0L191.4 270.0L194.9 270.0L198.3 270.0L201.9 259.3L205.5 259.3L208.8 259.3L212.4 257.8L216.0 257.8L219.4 257.9L223.0 257.9L226.7 257.9L229.8 257.8L233.4 257.8L237.0 257.8L240.4 257.8L244.1 257.8L247.7 257.8L250.9 257.8L254.6 257.8L258.2 366.5L261.3 366.5L265.0 366.5L268.7 366.5L271.9 366.5L275.4 366.5L279.0 366.5L282.4 366.5L286.2 366.5L289.8 366.5L293.0 366.5L296.7 366.5L300.3 366.5L303.5 366.5L307.2 366.5L310.8 366.5L314.0 366.5L317.7 366.5L321.3 366.5L324.5 366.5L328.0 366.5L331.7 366.5L335.2 366.5L338.9 366.5L342.5 366.5L345.7 366.5L349.2 366.5L352.8 366.5L536.1 181.6L539.7 181.6L543.0 181.6L546.6 181.6L550.2 181.6L553.5 150.0L557.2 150.0L560.7 150.0L564.2 198.5L567.9 198.5L571.5 198.5L574.6 198.5L574.6 270.0Z"/><path id="line-today" d="M191.4 270.0L194.9 270.0L198.3 270.0L201.9 259.3L205.5 259.3L208.8 259.3L212.4 257.8L216.0 257.8L219.4 257.9L223.0 257.9L226.7 257.9L229.8 257.8L233.4 257.8L237.0 257.8L240.4 257.8L244.1 257.8L247.7 257.8L250.9 257.8L254.6 257.8L258.2 366.5L261.3 366.5L265.0 366.5L268.7 366.5L271.9 366.5L275.4 366.5L279.0 366.5L282.4 366.5L286.2 366.5L289.8 366.5L293.0 366.5L296.7 366.5L300.3 366.5L303.5 366.5L307.2 366.5L310.8 366.5L314.0 366.5L317.7 366.5L321.3 366.5L324.5 366.5L328.0 366.5L331.7 366.5L335.2 366.5L338.9 366.5L342.5 366.5L345.7 366.5L349.2 366.5L352.8 366.5L536.1 181.6L539.7 181.6L543.0 181.6L546.6 181.6L550.2 181.6L553.5 150.0L557.2 150.0L560.7 150.0L564.2 198.5L567.9 198.5L571.5 198.5L574.6 198.5"/><clipPath id="up-today"><rect x="140" y="112" width="996" height="158.0"/></clipPath><clipPath id="down-today"><rect x="140" y="270.0" width="996" height="158.0"/></clipPath></defs>
<use href="#shape-today" fill="#1d8a53" fill-opacity="0.15" clip-path="url(#up-today)"/>
<use href="#line-today" fill="none" stroke="#1d8a53" stroke-width="2.25" stroke-linejoin="round" stroke-linecap="round" clip-path="url(#up-today)"/>
<use href="#shape-today" fill="#c4402b" fill-opacity="0.15" clip-path="url(#down-today)"/>
<use href="#line-today" fill="none" stroke="#c4402b" stroke-width="2.25" stroke-linejoin="round" stroke-linecap="round" clip-path="url(#down-today)"/>
<circle cx="574.6" cy="198.5" r="5" fill="#1d8a53" stroke="#ffffff" stroke-width="2.5"/>
<text x="586.6" y="194.0" text-anchor="start" font-size="15" font-weight="700" fill="#1d8a53" stroke="#ffffff" stroke-width="4" stroke-linejoin="round" paint-order="stroke">+90,553,704 Alz</text>
<text x="586.6" y="211.0" text-anchor="start" font-size="13" font-weight="600" fill="#16211b" stroke="#ffffff" stroke-width="4" stroke-linejoin="round" paint-order="stroke">net worth 4,347,326,726</text>
</g>
<g transform="translate(20,510)">
<rect width="1160" height="470" rx="12" fill="#ffffff" stroke="#dbe3de"/>
<text x="24" y="32" font-size="18" font-weight="700" letter-spacing="1.4" fill="#6741d9">TRUNG · NET WORTH BY DAY</text>
<text x="24" y="60" font-size="21" font-weight="700" fill="#16211b">Last 7 days</text>
<text x="24" y="84" fill="#5f6b65">each day starts again at its first reading after midnight</text>
<text x="1136" y="62" font-size="30" font-weight="700" text-anchor="end" fill="#1d8a53">+90,553,704</text>
<text x="1136" y="84" font-size="11" text-anchor="end" fill="#5f6b65">Alz, the 1 daily changes added up</text>
<rect x="282.3" y="93" width="142.3" height="335" fill="#f5f8f6"/>
<rect x="566.9" y="93" width="142.3" height="335" fill="#f5f8f6"/>
<rect x="851.4" y="93" width="142.3" height="335" fill="#f5f8f6"/>
<line x1="140" x2="1136" y1="428.0" y2="428.0" stroke="#e3e9e5" stroke-width="1" stroke-dasharray="3 4"/>
<text x="130" y="428.0" text-anchor="end" dominant-baseline="middle" font-weight="400" fill="#5f6b65">-200,000,000</text>
<line x1="140" x2="1136" y1="358.5" y2="358.5" stroke="#e3e9e5" stroke-width="1" stroke-dasharray="3 4"/>
<text x="130" y="358.5" text-anchor="end" dominant-baseline="middle" font-weight="400" fill="#5f6b65">-100,000,000</text>
<line x1="140" x2="1136" y1="289.0" y2="289.0" stroke="#16211b" stroke-width="1.5"/>
<text x="130" y="289.0" text-anchor="end" dominant-baseline="middle" font-weight="700" fill="#16211b">day start</text>
<line x1="140" x2="1136" y1="219.5" y2="219.5" stroke="#e3e9e5" stroke-width="1" stroke-dasharray="3 4"/>
<text x="130" y="219.5" text-anchor="end" dominant-baseline="middle" font-weight="400" fill="#5f6b65">+100,000,000</text>
<line x1="140" x2="1136" y1="150.0" y2="150.0" stroke="#e3e9e5" stroke-width="1" stroke-dasharray="3 4"/>
<text x="130" y="150.0" text-anchor="end" dominant-baseline="middle" font-weight="400" fill="#5f6b65">+200,000,000</text>
<text x="150.0" y="116" font-weight="700" fill="#16211b">Thu 01 Oct</text>
<line x1="140.0" x2="140.0" y1="428" y2="433" stroke="#5f6b65" stroke-width="1"/>
<text x="140.0" y="448" font-size="11" text-anchor="middle" fill="#5f6b65">00:00</text>
<line x1="211.1" x2="211.1" y1="428" y2="433" stroke="#5f6b65" stroke-width="1"/>
<text x="211.1" y="448" font-size="11" text-anchor="middle" fill="#5f6b65">12:00</text>
<line x1="282.3" x2="282.3" y1="428" y2="433" stroke="#5f6b65" stroke-width="1"/>
<text x="292.3" y="116" font-weight="700" fill="#16211b">Fri 02 Oct</text>
<line x1="282.3" x2="282.3" y1="428" y2="433" stroke="#5f6b65" stroke-width="1"/>
<text x="282.3" y="448" font-size="11" text-anchor="middle" fill="#5f6b65">00:00</text>
<line x1="353.4" x2="353.4" y1="428" y2="433" stroke="#5f6b65" stroke-width="1"/>
<text x="353.4" y="448" font-size="11" text-anchor="middle" fill="#5f6b65">12:00</text>
<line x1="424.6" x2="424.6" y1="428" y2="433" stroke="#5f6b65" stroke-width="1"/>
<text x="434.6" y="116" font-weight="700" fill="#16211b">Sat 03 Oct</text>
<line x1="424.6" x2="424.6" y1="428" y2="433" stroke="#5f6b65" stroke-width="1"/>
<text x="424.6" y="448" font-size="11" text-anchor="middle" fill="#5f6b65">00:00</text>
<line x1="495.7" x2="495.7" y1="428" y2="433" stroke="#5f6b65" stroke-width="1"/>
<text x="495.7" y="448" font-size="11" text-anchor="middle" fill="#5f6b65">12:00</text>
<line x1="566.9" x2="566.9" y1="428" y2="433" stroke="#5f6b65" stroke-width="1"/>
<text x="576.9" y="116" font-weight="700" fill="#16211b">Sun 04 Oct</text>
<line x1="566.9" x2="566.9" y1="428" y2="433" stroke="#5f6b65" stroke-width="1"/>
<text x="566.9" y="448" font-size="11" text-anchor="middle" fill="#5f6b65">00:00</text>
<line x1="638.0" x2="638.0" y1="428" y2="433" stroke="#5f6b65" stroke-width="1"/>
<text x="638.0" y="448" font-size="11" text-anchor="middle" fill="#5f6b65">12:00</text>
<line x1="709.1" x2="709.1" y1="428" y2="433" stroke="#5f6b65" stroke-width="1"/>
<text x="719.1" y="116" font-weight="700" fill="#16211b">Mon 05 Oct</text>
<line x1="709.1" x2="709.1" y1="428" y2="433" stroke="#5f6b65" stroke-width="1"/>
<text x="709.1" y="448" font-size="11" text-anchor="middle" fill="#5f6b65">00:00</text>
<line x1="780.3" x2="780.3" y1="428" y2="433" stroke="#5f6b65" stroke-width="1"/>
<text x="780.3" y="448" font-size="11" text-anchor="middle" fill="#5f6b65">12:00</text>
<line x1="851.4" x2="851.4" y1="428" y2="433" stroke="#5f6b65" stroke-width="1"/>
<text x="861.4" y="116" font-weight="700" fill="#16211b">Tue 06 Oct</text>
<line x1="851.4" x2="851.4" y1="428" y2="433" stroke="#5f6b65" stroke-width="1"/>
<text x="851.4" y="448" font-size="11" text-anchor="middle" fill="#5f6b65">00:00</text>
<line x1="922.6" x2="922.6" y1="428" y2="433" stroke="#5f6b65" stroke-width="1"/>
<text x="922.6" y="448" font-size="11" text-anchor="middle" fill="#5f6b65">12:00</text>
<line x1="993.7" x2="993.7" y1="428" y2="433" stroke="#5f6b65" stroke-width="1"/>
<text x="1003.7" y="116" font-weight="700" fill="#2b5d87">Today 07 Oct</text>
<line x1="993.7" x2="993.7" y1="428" y2="433" stroke="#5f6b65" stroke-width="1"/>
<text x="993.7" y="448" font-size="11" text-anchor="middle" fill="#5f6b65">00:00</text>
<line x1="1064.9" x2="1064.9" y1="428" y2="433" stroke="#5f6b65" stroke-width="1"/>
<text x="1064.9" y="448" font-size="11" text-anchor="middle" fill="#5f6b65">12:00</text>
<line x1="1136.0" x2="1136.0" y1="428" y2="433" stroke="#5f6b65" stroke-width="1"/>
<text x="1003.7" y="134" font-weight="700" fill="#1d8a53">+90,553,704</text>
<defs><path id="shape-day6" d="M1001.1 289.0L1001.1 289.0L1002.6 279.6L1004.1 278.3L1005.6 278.3L1007.1 278.2L1008.6 278.3L1010.1 278.3L1011.6 373.9L1013.1 373.9L1014.6 373.9L1016.1 373.9L1017.6 373.9L1019.1 373.9L1020.6 373.9L1022.1 373.9L1023.6 373.9L1050.8 211.2L1052.3 211.2L1053.8 183.5L1055.4 226.1L1055.8 226.1L1055.8 289.0Z"/><path id="line-day6" d="M1001.1 289.0L1002.6 279.6L1004.1 278.3L1005.6 278.3L1007.1 278.2L1008.6 278.3L1010.1 278.3L1011.6 373.9L1013.1 373.9L1014.6 373.9L1016.1 373.9L1017.6 373.9L1019.1 373.9L1020.6 373.9L1022.1 373.9L1023.6 373.9L1050.8 211.2L1052.3 211.2L1053.8 183.5L1055.4 226.1L1055.8 226.1"/><clipPath id="up-day6"><rect x="140" y="150" width="996" height="139.0"/></clipPath><clipPath id="down-day6"><rect x="140" y="289.0" width="996" height="139.0"/></clipPath></defs>
<use href="#shape-day6" fill="#1d8a53" fill-opacity="0.15" clip-path="url(#up-day6)"/>
<use href="#line-day6" fill="none" stroke="#1d8a53" stroke-width="2.25" stroke-linejoin="round" stroke-linecap="round" clip-path="url(#up-day6)"/>
<use href="#shape-day6" fill="#c4402b" fill-opacity="0.15" clip-path="url(#down-day6)"/>
<use href="#line-day6" fill="none" stroke="#c4402b" stroke-width="2.25" stroke-linejoin="round" stroke-linecap="round" clip-path="url(#down-day6)"/>
<circle cx="1055.8" cy="226.1" r="5" fill="#1d8a53" stroke="#ffffff" stroke-width="2.5"/>
</g>
<g transform="translate(20,1000)">
<rect width="1160" height="470" rx="12" fill="#152131" stroke="#24364a"/>
<text x="24" y="32" font-size="18" font-weight="700" letter-spacing="1.4" fill="#ffd166">TRUNG · CONTINUOUS NETWORTH</text>
<text x="24" y="60" font-size="21" font-weight="700" fill="#eaf1f8">Today</text>
<text x="24" y="84" fill="#93a6ba">Wed 07 Oct 2026 · started at <tspan font-weight="700" fill="#eaf1f8">4,256,773,022</tspan> at 01:14 · now <tspan font-weight="700" fill="#eaf1f8">4,347,326,726</tspan> at 10:28 Central</text>
<text x="1136" y="62" font-size="30" font-weight="700" text-anchor="end" fill="#3ddc84">+90,553,704</text>
<text x="1136" y="84" font-size="11" text-anchor="end" fill="#93a6ba">Alz since 01:14</text>
<line x1="140" x2="1136" y1="428.0" y2="428.0" stroke="#243548" stroke-width="1" stroke-dasharray="3 4"/>
<text x="130" y="428.0" text-anchor="end" dominant-baseline="middle" font-weight="400" fill="#93a6ba">-200,000,000</text>
<line x1="140" x2="1136" y1="349.0" y2="349.0" stroke="#243548" stroke-width="1" stroke-dasharray="3 4"/>
<text x="130" y="349.0" text-anchor="end" dominant-baseline="middle" font-weight="400" fill="#93a6ba">-100,000,000</text>
<line x1="140" x2="1136" y1="270.0" y2="270.0" stroke="#eaf1f8" stroke-width="1.5"/>
<text x="130" y="270.0" text-anchor="end" dominant-baseline="middle" font-weight="700" fill="#eaf1f8">4,256,773,022</text>
<line x1="140" x2="1136" y1="191.0" y2="191.0" stroke="#243548" stroke-width="1" stroke-dasharray="3 4"/>
<text x="130" y="191.0" text-anchor="end" dominant-baseline="middle" font-weight="400" fill="#93a6ba">+100,000,000</text>
<line x1="140" x2="1136" y1="112.0" y2="112.0" stroke="#243548" stroke-width="1" stroke-dasharray="3 4"/>
<text x="130" y="112.0" text-anchor="end" dominant-baseline="middle" font-weight="400" fill="#93a6ba">+200,000,000</text>
<line x1="140.0" x2="140.0" y1="428" y2="433" stroke="#93a6ba" stroke-width="1"/>
<text x="140.0" y="448" font-size="11" text-anchor="middle" fill="#93a6ba">00:00</text>
<line x1="223.0" x2="223.0" y1="428" y2="433" stroke="#93a6ba" stroke-width="1"/>
<text x="223.0" y="448" font-size="11" text-anchor="middle" fill="#93a6ba">02:00</text>
<line x1="306.0" x2="306.0" y1="428" y2="433" stroke="#93a6ba" stroke-width="1"/>
<text x="306.0" y="448" font-size="11" text-anchor="middle" fill="#93a6ba">04:00</text>
<line x1="389.0" x2="389.0" y1="112" y2="428" stroke="#243548" stroke-width="1"/>
<line x1="389.0" x2="389.0" y1="428" y2="433" stroke="#93a6ba" stroke-width="1"/>
<text x="389.0" y="448" font-size="11" text-anchor="middle" fill="#93a6ba">06:00</text>
<line x1="472.0" x2="472.0" y1="428" y2="433" stroke="#93a6ba" stroke-width="1"/>
<text x="472.0" y="448" font-size="11" text-anchor="middle" fill="#93a6ba">08:00</text>
<line x1="555.0" x2="555.0" y1="428" y2="433" stroke="#93a6ba" stroke-width="1"/>
<text x="555.0" y="448" font-size="11" text-anchor="middle" fill="#93a6ba">10:00</text>
<line x1="638.0" x2="638.0" y1="112" y2="428" stroke="#243548" stroke-width="1"/>
<line x1="638.0" x2="638.0" y1="428" y2="433" stroke="#93a6ba" stroke-width="1"/>
<text x="638.0" y="448" font-size="11" text-anchor="middle" fill="#93a6ba">12:00</text>
<line x1="721.0" x2="721.0" y1="428" y2="433" stroke="#93a6ba" stroke-width="1"/>
<text x="721.0" y="448" font-size="11" text-anchor="middle" fill="#93a6ba">14:00</text>
<line x1="804.0" x2="804.0" y1="428" y2="433" stroke="#93a6ba" stroke-width="1"/>
<text x="804.0" y="448" font-size="11" text-anchor="middle" fill="#93a6ba">16:00</text>
<line x1="887.0" x2="887.0" y1="112" y2="428" stroke="#243548" stroke-width="1"/>
<line x1="887.0" x2="887.0" y1="428" y2="433" stroke="#93a6ba" stroke-width="1"/>
<text x="887.0" y="448" font-size="11" text-anchor="middle" fill="#93a6ba">18:00</text>
<line x1="970.0" x2="970.0" y1="428" y2="433" stroke="#93a6ba" stroke-width="1"/>
<text x="970.0" y="448" font-size="11" text-anchor="middle" fill="#93a6ba">20:00</text>
<line x1="1053.0" x2="1053.0" y1="428" y2="433" stroke="#93a6ba" stroke-width="1"/>
<text x="1053.0" y="448" font-size="11" text-anchor="middle" fill="#93a6ba">22:00</text>
<line x1="1136.0" x2="1136.0" y1="428" y2="433" stroke="#93a6ba" stroke-width="1"/>
<defs><path id="shape-flow-today" d="M191.4 270.0L191.4 270.0L201.9 270.0L201.9 259.3L205.5 259.3L205.5 259.3L212.4 259.3L212.4 257.8L216.0 257.8L216.0 257.8L219.4 257.8L219.4 257.9L223.0 257.9L223.0 257.9L229.8 257.9L229.8 257.8L233.4 257.8L233.4 257.8L237.0 257.8L237.0 257.8L240.4 257.8L240.4 257.8L247.7 257.8L247.7 257.8L250.9 257.8L250.9 257.8L254.6 257.8L254.6 257.8L258.2 257.8L258.2 366.5L536.1 366.5L536.1 181.6L553.5 181.6L553.5 150.0L564.2 150.0L564.2 198.5L574.6 198.5L574.6 198.5L574.6 270.0Z"/><path id="line-flow-today" d="M191.4 270.0L201.9 270.0L201.9 259.3L205.5 259.3L205.5 259.3L212.4 259.3L212.4 257.8L216.0 257.8L216.0 257.8L219.4 257.8L219.4 257.9L223.0 257.9L223.0 257.9L229.8 257.9L229.8 257.8L233.4 257.8L233.4 257.8L237.0 257.8L237.0 257.8L240.4 257.8L240.4 257.8L247.7 257.8L247.7 257.8L250.9 257.8L250.9 257.8L254.6 257.8L254.6 257.8L258.2 257.8L258.2 366.5L536.1 366.5L536.1 181.6L553.5 181.6L553.5 150.0L564.2 150.0L564.2 198.5L574.6 198.5L574.6 198.5"/><clipPath id="up-flow-today"><rect x="140" y="112" width="996" height="158.0"/></clipPath><clipPath id="down-flow-today"><rect x="140" y="270.0" width="996" height="158.0"/></clipPath></defs>
<use href="#shape-flow-today" fill="#3ddc84" fill-opacity="0.15" clip-path="url(#up-flow-today)"/>
<use href="#line-flow-today" fill="none" stroke="#3ddc84" stroke-width="2.25" stroke-linejoin="round" stroke-linecap="round" clip-path="url(#up-flow-today)"/>
<use href="#shape-flow-today" fill="#ff6b6b" fill-opacity="0.15" clip-path="url(#down-flow-today)"/>
<use href="#line-flow-today" fill="none" stroke="#ff6b6b" stroke-width="2.25" stroke-linejoin="round" stroke-linecap="round" clip-path="url(#down-flow-today)"/>
<circle cx="574.6" cy="198.5" r="5" fill="#3ddc84" stroke="#152131" stroke-width="2.5"/>
<text x="586.6" y="194.0" text-anchor="start" font-size="15" font-weight="700" fill="#3ddc84" stroke="#152131" stroke-width="4" stroke-linejoin="round" paint-order="stroke">+90,553,704 Alz</text>
<text x="586.6" y="211.0" text-anchor="start" font-size="13" font-weight="600" fill="#eaf1f8" stroke="#152131" stroke-width="4" stroke-linejoin="round" paint-order="stroke">net worth 4,347,326,726</text>
</g>
<g transform="translate(20,1490)">
<rect width="1160" height="470" rx="12" fill="#152131" stroke="#24364a"/>
<text x="24" y="32" font-size="18" font-weight="700" letter-spacing="1.4" fill="#ffd166">TRUNG · CONTINUOUS NETWORTH</text>
<text x="24" y="60" font-size="21" font-weight="700" fill="#eaf1f8">Last 7 days</text>
<text x="24" y="84" fill="#93a6ba">from <tspan font-weight="700" fill="#eaf1f8">4,256,773,022</tspan> at Wed 07 Oct 01:14 · now <tspan font-weight="700" fill="#eaf1f8">4,347,326,726</tspan> at Wed 07 Oct 10:28 Central</text>
<text x="1136" y="62" font-size="30" font-weight="700" text-anchor="end" fill="#3ddc84">+90,553,704</text>
<text x="1136" y="84" font-size="11" text-anchor="end" fill="#93a6ba">Alz since Wed 07 Oct 01:14</text>
<rect x="282.3" y="93" width="142.3" height="335" fill="#1b2b3d"/>
<rect x="566.9" y="93" width="142.3" height="335" fill="#1b2b3d"/>
<rect x="851.4" y="93" width="142.3" height="335" fill="#1b2b3d"/>
<line x1="140" x2="1136" y1="428.0" y2="428.0" stroke="#eaf1f8" stroke-width="1.5"/>
<text x="130" y="428.0" text-anchor="end" dominant-baseline="middle" font-weight="700" fill="#eaf1f8">4,256,773,022</text>
<line x1="140" x2="1136" y1="372.4" y2="372.4" stroke="#243548" stroke-width="1" stroke-dasharray="3 4"/>
<text x="130" y="372.4" text-anchor="end" dominant-baseline="middle" font-weight="400" fill="#93a6ba">+25,000,000</text>
<line x1="140" x2="1136" y1="316.8" y2="316.8" stroke="#243548" stroke-width="1" stroke-dasharray="3 4"/>
<text x="130" y="316.8" text-anchor="end" dominant-baseline="middle" font-weight="400" fill="#93a6ba">+50,000,000</text>
<line x1="140" x2="1136" y1="261.2" y2="261.2" stroke="#243548" stroke-width="1" stroke-dasharray="3 4"/>
<text x="130" y="261.2" text-anchor="end" dominant-baseline="middle" font-weight="400" fill="#93a6ba">+75,000,000</text>
<line x1="140" x2="1136" y1="205.6" y2="205.6" stroke="#243548" stroke-width="1" stroke-dasharray="3 4"/>
<text x="130" y="205.6" text-anchor="end" dominant-baseline="middle" font-weight="400" fill="#93a6ba">+100,000,000</text>
<line x1="140" x2="1136" y1="150.0" y2="150.0" stroke="#243548" stroke-width="1" stroke-dasharray="3 4"/>
<text x="130" y="150.0" text-anchor="end" dominant-baseline="middle" font-weight="400" fill="#93a6ba">+125,000,000</text>
<text x="150.0" y="116" font-weight="700" fill="#eaf1f8">Thu 01 Oct</text>
<line x1="140.0" x2="140.0" y1="428" y2="433" stroke="#93a6ba" stroke-width="1"/>
<text x="140.0" y="448" font-size="11" text-anchor="middle" fill="#93a6ba">00:00</text>
<line x1="211.1" x2="211.1" y1="428" y2="433" stroke="#93a6ba" stroke-width="1"/>
<text x="211.1" y="448" font-size="11" text-anchor="middle" fill="#93a6ba">12:00</text>
<line x1="282.3" x2="282.3" y1="428" y2="433" stroke="#93a6ba" stroke-width="1"/>
<text x="292.3" y="116" font-weight="700" fill="#eaf1f8">Fri 02 Oct</text>
<line x1="282.3" x2="282.3" y1="428" y2="433" stroke="#93a6ba" stroke-width="1"/>
<text x="282.3" y="448" font-size="11" text-anchor="middle" fill="#93a6ba">00:00</text>
<line x1="353.4" x2="353.4" y1="428" y2="433" stroke="#93a6ba" stroke-width="1"/>
<text x="353.4" y="448" font-size="11" text-anchor="middle" fill="#93a6ba">12:00</text>
<line x1="424.6" x2="424.6" y1="428" y2="433" stroke="#93a6ba" stroke-width="1"/>
<text x="434.6" y="116" font-weight="700" fill="#eaf1f8">Sat 03 Oct</text>
<line x1="424.6" x2="424.6" y1="428" y2="433" stroke="#93a6ba" stroke-width="1"/>
<text x="424.6" y="448" font-size="11" text-anchor="middle" fill="#93a6ba">00:00</text>
<line x1="495.7" x2="495.7" y1="428" y2="433" stroke="#93a6ba" stroke-width="1"/>
<text x="495.7" y="448" font-size="11" text-anchor="middle" fill="#93a6ba">12:00</text>
<line x1="566.9" x2="566.9" y1="428" y2="433" stroke="#93a6ba" stroke-width="1"/>
<text x="576.9" y="116" font-weight="700" fill="#eaf1f8">Sun 04 Oct</text>
<line x1="566.9" x2="566.9" y1="428" y2="433" stroke="#93a6ba" stroke-width="1"/>
<text x="566.9" y="448" font-size="11" text-anchor="middle" fill="#93a6ba">00:00</text>
<line x1="638.0" x2="638.0" y1="428" y2="433" stroke="#93a6ba" stroke-width="1"/>
<text x="638.0" y="448" font-size="11" text-anchor="middle" fill="#93a6ba">12:00</text>
<line x1="709.1" x2="709.1" y1="428" y2="433" stroke="#93a6ba" stroke-width="1"/>
<text x="719.1" y="116" font-weight="700" fill="#eaf1f8">Mon 05 Oct</text>
<line x1="709.1" x2="709.1" y1="428" y2="433" stroke="#93a6ba" stroke-width="1"/>
<text x="709.1" y="448" font-size="11" text-anchor="middle" fill="#93a6ba">00:00</text>
<line x1="780.3" x2="780.3" y1="428" y2="433" stroke="#93a6ba" stroke-width="1"/>
<text x="780.3" y="448" font-size="11" text-anchor="middle" fill="#93a6ba">12:00</text>
<line x1="851.4" x2="851.4" y1="428" y2="433" stroke="#93a6ba" stroke-width="1"/>
<text x="861.4" y="116" font-weight="700" fill="#eaf1f8">Tue 06 Oct</text>
<line x1="851.4" x2="851.4" y1="428" y2="433" stroke="#93a6ba" stroke-width="1"/>
<text x="851.4" y="448" font-size="11" text-anchor="middle" fill="#93a6ba">00:00</text>
<line x1="922.6" x2="922.6" y1="428" y2="433" stroke="#93a6ba" stroke-width="1"/>
<text x="922.6" y="448" font-size="11" text-anchor="middle" fill="#93a6ba">12:00</text>
<line x1="993.7" x2="993.7" y1="428" y2="433" stroke="#93a6ba" stroke-width="1"/>
<text x="1003.7" y="116" font-weight="700" fill="#7cc4ff">Today 07 Oct</text>
<line x1="993.7" x2="993.7" y1="428" y2="433" stroke="#93a6ba" stroke-width="1"/>
<text x="993.7" y="448" font-size="11" text-anchor="middle" fill="#93a6ba">00:00</text>
<line x1="1064.9" x2="1064.9" y1="428" y2="433" stroke="#93a6ba" stroke-width="1"/>
<text x="1064.9" y="448" font-size="11" text-anchor="middle" fill="#93a6ba">12:00</text>
<line x1="1136.0" x2="1136.0" y1="428" y2="433" stroke="#93a6ba" stroke-width="1"/>
<defs><path id="shape-flow-week" d="M1001.1 428.0L1001.1 428.0L1004.1 428.0L1004.1 393.7L1005.6 393.7L1005.6 393.9L1007.6 393.9L1007.6 393.6L1009.6 393.6L1009.6 393.7L1050.3 393.7L1050.3 179.2L1055.8 179.2L1055.8 226.6L1055.8 428.0Z"/><path id="line-flow-week" d="M1001.1 428.0L1004.1 428.0L1004.1 393.7L1005.6 393.7L1005.6 393.9L1007.6 393.9L1007.6 393.6L1009.6 393.6L1009.6 393.7L1050.3 393.7L1050.3 179.2L1055.8 179.2L1055.8 226.6"/><clipPath id="up-flow-week"><rect x="140" y="150" width="996" height="278.0"/></clipPath><clipPath id="down-flow-week"><rect x="140" y="428.0" width="996" height="0.0"/></clipPath></defs>
<use href="#shape-flow-week" fill="#3ddc84" fill-opacity="0.15" clip-path="url(#up-flow-week)"/>
<use href="#line-flow-week" fill="none" stroke="#3ddc84" stroke-width="2.25" stroke-linejoin="round" stroke-linecap="round" clip-path="url(#up-flow-week)"/>
<use href="#shape-flow-week" fill="#ff6b6b" fill-opacity="0.15" clip-path="url(#down-flow-week)"/>
<use href="#line-flow-week" fill="none" stroke="#ff6b6b" stroke-width="2.25" stroke-linejoin="round" stroke-linecap="round" clip-path="url(#down-flow-week)"/>
<circle cx="1055.8" cy="226.6" r="5" fill="#3ddc84" stroke="#152131" stroke-width="2.5"/>
<text x="1043.8" y="253.6" text-anchor="end" font-size="15" font-weight="700" fill="#3ddc84" stroke="#152131" stroke-width="4" stroke-linejoin="round" paint-order="stroke">+90,553,704 Alz</text>
<text x="1043.8" y="270.6" text-anchor="end" font-size="13" font-weight="600" fill="#eaf1f8" stroke="#152131" stroke-width="4" stroke-linejoin="round" paint-order="stroke">net worth 4,347,326,726</text>
</g>
</svg>
