<svg xmlns="http://www.w3.org/2000/svg" width="1200" height="1980" viewBox="0 0 1200 1980" font-family="Segoe UI, Helvetica Neue, Arial, sans-serif" font-size="13" style="font-variant-numeric: tabular-nums">
<rect width="1200" height="1980" fill="#eef2ef"/>
<g transform="translate(20,20)">
<rect width="1160" height="470" rx="12" fill="#ffffff" stroke="#dbe3de"/>
<text x="24" y="32" font-size="18" font-weight="700" letter-spacing="1.4" fill="#6741d9">TRUNG · NET WORTH TODAY</text>
<text x="24" y="60" font-size="21" font-weight="700" fill="#16211b">Since midnight</text>
<text x="24" y="84" fill="#5f6b65">Thu 08 Oct 2026 · started at <tspan font-weight="700" fill="#16211b">4,794,913,246</tspan> at 00:04 · now <tspan font-weight="700" fill="#16211b">5,395,949,519</tspan> at 20:40 Central</text>
<text x="1136" y="62" font-size="30" font-weight="700" text-anchor="end" fill="#1d8a53">+601,036,273</text>
<text x="1136" y="84" font-size="11" text-anchor="end" fill="#5f6b65">Alz since 00:04</text>
<line x1="140" x2="1136" y1="428.0" y2="428.0" stroke="#e3e9e5" stroke-width="1" stroke-dasharray="3 4"/>
<text x="130" y="428.0" text-anchor="end" dominant-baseline="middle" font-weight="400" fill="#5f6b65">-750,000,000</text>
<line x1="140" x2="1136" y1="375.3" y2="375.3" stroke="#e3e9e5" stroke-width="1" stroke-dasharray="3 4"/>
<text x="130" y="375.3" text-anchor="end" dominant-baseline="middle" font-weight="400" fill="#5f6b65">-500,000,000</text>
<line x1="140" x2="1136" y1="322.7" y2="322.7" stroke="#e3e9e5" stroke-width="1" stroke-dasharray="3 4"/>
<text x="130" y="322.7" text-anchor="end" dominant-baseline="middle" font-weight="400" fill="#5f6b65">-250,000,000</text>
<line x1="140" x2="1136" y1="270.0" y2="270.0" stroke="#16211b" stroke-width="1.5"/>
<text x="130" y="270.0" text-anchor="end" dominant-baseline="middle" font-weight="700" fill="#16211b">4,794,913,246</text>
<line x1="140" x2="1136" y1="217.3" y2="217.3" stroke="#e3e9e5" stroke-width="1" stroke-dasharray="3 4"/>
<text x="130" y="217.3" text-anchor="end" dominant-baseline="middle" font-weight="400" fill="#5f6b65">+250,000,000</text>
<line x1="140" x2="1136" y1="164.7" y2="164.7" stroke="#e3e9e5" stroke-width="1" stroke-dasharray="3 4"/>
<text x="130" y="164.7" text-anchor="end" dominant-baseline="middle" font-weight="400" fill="#5f6b65">+500,000,000</text>
<line x1="140" x2="1136" y1="112.0" y2="112.0" stroke="#e3e9e5" stroke-width="1" stroke-dasharray="3 4"/>
<text x="130" y="112.0" text-anchor="end" dominant-baseline="middle" font-weight="400" fill="#5f6b65">+750,000,000</text>
<line x1="140.0" x2="140.0" y1="428" y2="433" stroke="#5f6b65" stroke-width="1"/>
<text x="140.0" y="448" font-size="11" text-anchor="middle" fill="#5f6b65">00:00</text>
<line x1="223.0" x2="223.0" y1="428" y2="433" stroke="#5f6b65" stroke-width="1"/>
<text x="223.0" y="448" font-size="11" text-anchor="middle" fill="#5f6b65">02:00</text>
<line x1="306.0" x2="306.0" y1="428" y2="433" stroke="#5f6b65" stroke-width="1"/>
<text x="306.0" y="448" font-size="11" text-anchor="middle" fill="#5f6b65">04:00</text>
<line x1="389.0" x2="389.0" y1="112" y2="428" stroke="#e3e9e5" stroke-width="1"/>
<line x1="389.0" x2="389.0" y1="428" y2="433" stroke="#5f6b65" stroke-width="1"/>
<text x="389.0" y="448" font-size="11" text-anchor="middle" fill="#5f6b65">06:00</text>
<line x1="472.0" x2="472.0" y1="428" y2="433" stroke="#5f6b65" stroke-width="1"/>
<text x="472.0" y="448" font-size="11" text-anchor="middle" fill="#5f6b65">08:00</text>
<line x1="555.0" x2="555.0" y1="428" y2="433" stroke="#5f6b65" stroke-width="1"/>
<text x="555.0" y="448" font-size="11" text-anchor="middle" fill="#5f6b65">10:00</text>
<line x1="638.0" x2="638.0" y1="112" y2="428" stroke="#e3e9e5" stroke-width="1"/>
<line x1="638.0" x2="638.0" y1="428" y2="433" stroke="#5f6b65" stroke-width="1"/>
<text x="638.0" y="448" font-size="11" text-anchor="middle" fill="#5f6b65">12:00</text>
<line x1="721.0" x2="721.0" y1="428" y2="433" stroke="#5f6b65" stroke-width="1"/>
<text x="721.0" y="448" font-size="11" text-anchor="middle" fill="#5f6b65">14:00</text>
<line x1="804.0" x2="804.0" y1="428" y2="433" stroke="#5f6b65" stroke-width="1"/>
<text x="804.0" y="448" font-size="11" text-anchor="middle" fill="#5f6b65">16:00</text>
<line x1="887.0" x2="887.0" y1="112" y2="428" stroke="#e3e9e5" stroke-width="1"/>
<line x1="887.0" x2="887.0" y1="428" y2="433" stroke="#5f6b65" stroke-width="1"/>
<text x="887.0" y="448" font-size="11" text-anchor="middle" fill="#5f6b65">18:00</text>
<line x1="970.0" x2="970.0" y1="428" y2="433" stroke="#5f6b65" stroke-width="1"/>
<text x="970.0" y="448" font-size="11" text-anchor="middle" fill="#5f6b65">20:00</text>
<line x1="1053.0" x2="1053.0" y1="428" y2="433" stroke="#5f6b65" stroke-width="1"/>
<text x="1053.0" y="448" font-size="11" text-anchor="middle" fill="#5f6b65">22:00</text>
<line x1="1136.0" x2="1136.0" y1="428" y2="433" stroke="#5f6b65" stroke-width="1"/>
<defs><path id="shape-today" d="M142.9 270.0L142.9 270.0L152.7 262.8L156.2 262.8L177.4 262.8L181.0 262.8L184.6 262.4L187.9 262.4L191.6 277.1L195.1 277.1L198.5 261.7L202.0 260.8L205.6 260.8L208.9 260.8L212.6 260.8L216.2 260.8L219.4 260.8L223.1 260.2L226.6 260.2L230.0 260.2L233.7 258.7L237.3 258.7L240.9 257.9L244.4 258.0L248.0 258.0L251.1 258.0L254.8 257.5L258.4 257.5L261.5 257.5L265.2 257.5L268.8 257.5L272.0 257.5L275.7 257.5L279.3 257.5L294.3 382.4L297.8 382.4L301.1 382.4L304.7 382.4L308.2 382.4L311.6 382.4L315.2 382.4L318.7 382.4L322.0 357.6L325.6 337.2L329.2 337.2L332.5 337.2L336.1 335.6L339.7 335.6L343.0 335.8L346.6 336.0L350.2 336.0L353.5 336.1L357.1 336.3L360.7 336.5L364.0 336.7L367.6 336.7L371.1 336.7L374.5 336.6L378.1 336.6L381.7 332.7L385.0 332.7L388.6 276.2L392.2 236.9L395.5 236.9L399.1 231.5L402.6 231.5L406.0 231.5L409.6 227.1L413.2 230.8L416.5 230.8L420.1 230.8L423.7 230.8L427.0 230.8L430.7 230.8L434.2 230.8L437.6 230.4L441.2 231.6L444.7 233.0L448.0 233.0L451.6 233.4L455.2 233.4L458.5 233.8L462.2 233.8L465.7 231.8L469.0 231.6L472.7 231.6L476.2 231.6L479.6 231.6L483.2 231.6L486.7 231.6L490.0 231.6L493.7 231.6L497.2 231.2L500.5 231.2L504.1 230.7L507.7 230.7L511.0 230.7L514.6 230.7L518.2 230.7L521.5 230.7L525.1 230.7L528.7 223.5L532.0 223.5L535.6 223.5L539.1 223.5L542.5 221.0L546.1 217.4L549.7 217.4L553.0 217.4L556.6 217.4L560.1 211.6L563.5 211.0L567.1 210.1L570.7 210.1L574.0 210.0L577.7 210.0L581.2 210.0L584.6 210.0L588.2 206.0L591.7 206.0L595.1 206.0L598.7 206.0L602.3 205.8L605.6 205.8L609.3 206.6L612.8 206.6L616.2 206.6L619.8 206.6L623.3 206.6L626.7 206.6L630.4 186.6L633.9 186.7L646.0 305.9L649.5 305.9L652.8 305.9L656.4 305.9L723.0 188.3L726.6 188.3L729.9 180.8L733.6 180.8L737.2 179.5L740.6 179.5L769.9 172.4L773.4 172.4L776.6 171.8L780.0 171.8L783.6 171.8L787.0 168.7L790.7 168.7L794.3 166.2L797.5 166.2L801.2 166.2L804.8 160.6L807.9 160.6L811.4 160.6L815.0 160.6L818.4 160.6L821.9 160.6L825.6 160.6L829.0 160.6L832.5 160.6L836.1 160.6L839.6 158.1L843.0 158.1L846.7 157.4L850.1 157.4L853.6 157.4L857.2 157.4L860.7 155.3L864.4 155.3L867.8 155.3L871.3 152.5L874.8 152.5L878.4 152.8L881.9 153.5L885.4 154.1L888.9 151.4L892.3 151.4L896.1 152.0L899.7 152.7L902.9 153.3L906.5 153.9L910.1 153.9L913.6 154.2L917.3 154.6L920.9 154.6L924.2 154.6L927.7 154.6L931.3 154.6L934.6 154.6L938.1 153.3L941.7 152.5L945.1 152.5L948.7 152.0L952.3 152.0L955.6 152.0L959.2 152.0L962.9 152.0L966.1 150.7L969.7 150.8L973.4 150.8L976.7 150.8L980.3 150.8L983.9 150.8L987.3 150.8L990.8 150.8L994.5 150.8L997.9 143.4L997.9 270.0Z"/><path id="line-today" d="M142.9 270.0L152.7 262.8L156.2 262.8L177.4 262.8L181.0 262.8L184.6 262.4L187.9 262.4L191.6 277.1L195.1 277.1L198.5 261.7L202.0 260.8L205.6 260.8L208.9 260.8L212.6 260.8L216.2 260.8L219.4 260.8L223.1 260.2L226.6 260.2L230.0 260.2L233.7 258.7L237.3 258.7L240.9 257.9L244.4 258.0L248.0 258.0L251.1 258.0L254.8 257.5L258.4 257.5L261.5 257.5L265.2 257.5L268.8 257.5L272.0 257.5L275.7 257.5L279.3 257.5L294.3 382.4L297.8 382.4L301.1 382.4L304.7 382.4L308.2 382.4L311.6 382.4L315.2 382.4L318.7 382.4L322.0 357.6L325.6 337.2L329.2 337.2L332.5 337.2L336.1 335.6L339.7 335.6L343.0 335.8L346.6 336.0L350.2 336.0L353.5 336.1L357.1 336.3L360.7 336.5L364.0 336.7L367.6 336.7L371.1 336.7L374.5 336.6L378.1 336.6L381.7 332.7L385.0 332.7L388.6 276.2L392.2 236.9L395.5 236.9L399.1 231.5L402.6 231.5L406.0 231.5L409.6 227.1L413.2 230.8L416.5 230.8L420.1 230.8L423.7 230.8L427.0 230.8L430.7 230.8L434.2 230.8L437.6 230.4L441.2 231.6L444.7 233.0L448.0 233.0L451.6 233.4L455.2 233.4L458.5 233.8L462.2 233.8L465.7 231.8L469.0 231.6L472.7 231.6L476.2 231.6L479.6 231.6L483.2 231.6L486.7 231.6L490.0 231.6L493.7 231.6L497.2 231.2L500.5 231.2L504.1 230.7L507.7 230.7L511.0 230.7L514.6 230.7L518.2 230.7L521.5 230.7L525.1 230.7L528.7 223.5L532.0 223.5L535.6 223.5L539.1 223.5L542.5 221.0L546.1 217.4L549.7 217.4L553.0 217.4L556.6 217.4L560.1 211.6L563.5 211.0L567.1 210.1L570.7 210.1L574.0 210.0L577.7 210.0L581.2 210.0L584.6 210.0L588.2 206.0L591.7 206.0L595.1 206.0L598.7 206.0L602.3 205.8L605.6 205.8L609.3 206.6L612.8 206.6L616.2 206.6L619.8 206.6L623.3 206.6L626.7 206.6L630.4 186.6L633.9 186.7L646.0 305.9L649.5 305.9L652.8 305.9L656.4 305.9L723.0 188.3L726.6 188.3L729.9 180.8L733.6 180.8L737.2 179.5L740.6 179.5L769.9 172.4L773.4 172.4L776.6 171.8L780.0 171.8L783.6 171.8L787.0 168.7L790.7 168.7L794.3 166.2L797.5 166.2L801.2 166.2L804.8 160.6L807.9 160.6L811.4 160.6L815.0 160.6L818.4 160.6L821.9 160.6L825.6 160.6L829.0 160.6L832.5 160.6L836.1 160.6L839.6 158.1L843.0 158.1L846.7 157.4L850.1 157.4L853.6 157.4L857.2 157.4L860.7 155.3L864.4 155.3L867.8 155.3L871.3 152.5L874.8 152.5L878.4 152.8L881.9 153.5L885.4 154.1L888.9 151.4L892.3 151.4L896.1 152.0L899.7 152.7L902.9 153.3L906.5 153.9L910.1 153.9L913.6 154.2L917.3 154.6L920.9 154.6L924.2 154.6L927.7 154.6L931.3 154.6L934.6 154.6L938.1 153.3L941.7 152.5L945.1 152.5L948.7 152.0L952.3 152.0L955.6 152.0L959.2 152.0L962.9 152.0L966.1 150.7L969.7 150.8L973.4 150.8L976.7 150.8L980.3 150.8L983.9 150.8L987.3 150.8L990.8 150.8L994.5 150.8L997.9 143.4"/><clipPath id="up-today"><rect x="140" y="112" width="996" height="158.0"/></clipPath><clipPath id="down-today"><rect x="140" y="270.0" width="996" height="158.0"/></clipPath></defs>
<use href="#shape-today" fill="#1d8a53" fill-opacity="0.15" clip-path="url(#up-today)"/>
<use href="#line-today" fill="none" stroke="#1d8a53" stroke-width="2.25" stroke-linejoin="round" stroke-linecap="round" clip-path="url(#up-today)"/>
<use href="#shape-today" fill="#c4402b" fill-opacity="0.15" clip-path="url(#down-today)"/>
<use href="#line-today" fill="none" stroke="#c4402b" stroke-width="2.25" stroke-linejoin="round" stroke-linecap="round" clip-path="url(#down-today)"/>
<circle cx="997.9" cy="143.4" r="5" fill="#1d8a53" stroke="#ffffff" stroke-width="2.5"/>
<text x="985.9" y="127.0" text-anchor="end" font-size="15" font-weight="700" fill="#1d8a53" stroke="#ffffff" stroke-width="4" stroke-linejoin="round" paint-order="stroke">+601,036,273 Alz</text>
<text x="985.9" y="144.0" text-anchor="end" font-size="13" font-weight="600" fill="#16211b" stroke="#ffffff" stroke-width="4" stroke-linejoin="round" paint-order="stroke">net worth 5,395,949,519</text>
</g>
<g transform="translate(20,510)">
<rect width="1160" height="470" rx="12" fill="#ffffff" stroke="#dbe3de"/>
<text x="24" y="32" font-size="18" font-weight="700" letter-spacing="1.4" fill="#6741d9">TRUNG · NET WORTH BY DAY</text>
<text x="24" y="60" font-size="21" font-weight="700" fill="#16211b">Last 7 days</text>
<text x="24" y="84" fill="#5f6b65">each day starts again at its first reading after midnight</text>
<text x="1136" y="62" font-size="30" font-weight="700" text-anchor="end" fill="#1d8a53">+1,139,176,497</text>
<text x="1136" y="84" font-size="11" text-anchor="end" fill="#5f6b65">Alz, the 2 daily changes added up</text>
<rect x="282.3" y="93" width="142.3" height="335" fill="#f5f8f6"/>
<rect x="566.9" y="93" width="142.3" height="335" fill="#f5f8f6"/>
<rect x="851.4" y="93" width="142.3" height="335" fill="#f5f8f6"/>
<line x1="140" x2="1136" y1="428.0" y2="428.0" stroke="#e3e9e5" stroke-width="1" stroke-dasharray="3 4"/>
<text x="130" y="428.0" text-anchor="end" dominant-baseline="middle" font-weight="400" fill="#5f6b65">-750,000,000</text>
<line x1="140" x2="1136" y1="381.7" y2="381.7" stroke="#e3e9e5" stroke-width="1" stroke-dasharray="3 4"/>
<text x="130" y="381.7" text-anchor="end" dominant-baseline="middle" font-weight="400" fill="#5f6b65">-500,000,000</text>
<line x1="140" x2="1136" y1="335.3" y2="335.3" stroke="#e3e9e5" stroke-width="1" stroke-dasharray="3 4"/>
<text x="130" y="335.3" text-anchor="end" dominant-baseline="middle" font-weight="400" fill="#5f6b65">-250,000,000</text>
<line x1="140" x2="1136" y1="289.0" y2="289.0" stroke="#16211b" stroke-width="1.5"/>
<text x="130" y="289.0" text-anchor="end" dominant-baseline="middle" font-weight="700" fill="#16211b">day start</text>
<line x1="140" x2="1136" y1="242.7" y2="242.7" stroke="#e3e9e5" stroke-width="1" stroke-dasharray="3 4"/>
<text x="130" y="242.7" text-anchor="end" dominant-baseline="middle" font-weight="400" fill="#5f6b65">+250,000,000</text>
<line x1="140" x2="1136" y1="196.3" y2="196.3" stroke="#e3e9e5" stroke-width="1" stroke-dasharray="3 4"/>
<text x="130" y="196.3" text-anchor="end" dominant-baseline="middle" font-weight="400" fill="#5f6b65">+500,000,000</text>
<line x1="140" x2="1136" y1="150.0" y2="150.0" stroke="#e3e9e5" stroke-width="1" stroke-dasharray="3 4"/>
<text x="130" y="150.0" text-anchor="end" dominant-baseline="middle" font-weight="400" fill="#5f6b65">+750,000,000</text>
<text x="150.0" y="116" font-weight="700" fill="#16211b">Fri 02 Oct</text>
<line x1="140.0" x2="140.0" y1="428" y2="433" stroke="#5f6b65" stroke-width="1"/>
<text x="140.0" y="448" font-size="11" text-anchor="middle" fill="#5f6b65">00:00</text>
<line x1="211.1" x2="211.1" y1="428" y2="433" stroke="#5f6b65" stroke-width="1"/>
<text x="211.1" y="448" font-size="11" text-anchor="middle" fill="#5f6b65">12:00</text>
<line x1="282.3" x2="282.3" y1="428" y2="433" stroke="#5f6b65" stroke-width="1"/>
<text x="292.3" y="116" font-weight="700" fill="#16211b">Sat 03 Oct</text>
<line x1="282.3" x2="282.3" y1="428" y2="433" stroke="#5f6b65" stroke-width="1"/>
<text x="282.3" y="448" font-size="11" text-anchor="middle" fill="#5f6b65">00:00</text>
<line x1="353.4" x2="353.4" y1="428" y2="433" stroke="#5f6b65" stroke-width="1"/>
<text x="353.4" y="448" font-size="11" text-anchor="middle" fill="#5f6b65">12:00</text>
<line x1="424.6" x2="424.6" y1="428" y2="433" stroke="#5f6b65" stroke-width="1"/>
<text x="434.6" y="116" font-weight="700" fill="#16211b">Sun 04 Oct</text>
<line x1="424.6" x2="424.6" y1="428" y2="433" stroke="#5f6b65" stroke-width="1"/>
<text x="424.6" y="448" font-size="11" text-anchor="middle" fill="#5f6b65">00:00</text>
<line x1="495.7" x2="495.7" y1="428" y2="433" stroke="#5f6b65" stroke-width="1"/>
<text x="495.7" y="448" font-size="11" text-anchor="middle" fill="#5f6b65">12:00</text>
<line x1="566.9" x2="566.9" y1="428" y2="433" stroke="#5f6b65" stroke-width="1"/>
<text x="576.9" y="116" font-weight="700" fill="#16211b">Mon 05 Oct</text>
<line x1="566.9" x2="566.9" y1="428" y2="433" stroke="#5f6b65" stroke-width="1"/>
<text x="566.9" y="448" font-size="11" text-anchor="middle" fill="#5f6b65">00:00</text>
<line x1="638.0" x2="638.0" y1="428" y2="433" stroke="#5f6b65" stroke-width="1"/>
<text x="638.0" y="448" font-size="11" text-anchor="middle" fill="#5f6b65">12:00</text>
<line x1="709.1" x2="709.1" y1="428" y2="433" stroke="#5f6b65" stroke-width="1"/>
<text x="719.1" y="116" font-weight="700" fill="#16211b">Tue 06 Oct</text>
<line x1="709.1" x2="709.1" y1="428" y2="433" stroke="#5f6b65" stroke-width="1"/>
<text x="709.1" y="448" font-size="11" text-anchor="middle" fill="#5f6b65">00:00</text>
<line x1="780.3" x2="780.3" y1="428" y2="433" stroke="#5f6b65" stroke-width="1"/>
<text x="780.3" y="448" font-size="11" text-anchor="middle" fill="#5f6b65">12:00</text>
<line x1="851.4" x2="851.4" y1="428" y2="433" stroke="#5f6b65" stroke-width="1"/>
<text x="861.4" y="116" font-weight="700" fill="#16211b">Wed 07 Oct</text>
<line x1="851.4" x2="851.4" y1="428" y2="433" stroke="#5f6b65" stroke-width="1"/>
<text x="851.4" y="448" font-size="11" text-anchor="middle" fill="#5f6b65">00:00</text>
<line x1="922.6" x2="922.6" y1="428" y2="433" stroke="#5f6b65" stroke-width="1"/>
<text x="922.6" y="448" font-size="11" text-anchor="middle" fill="#5f6b65">12:00</text>
<line x1="993.7" x2="993.7" y1="428" y2="433" stroke="#5f6b65" stroke-width="1"/>
<text x="861.4" y="134" font-weight="700" fill="#1d8a53">+538,140,224</text>
<defs><path id="shape-day5" d="M858.8 289.0L858.8 289.0L860.3 286.5L861.8 286.1L863.3 286.2L864.8 286.1L866.3 286.1L867.8 286.1L869.3 311.7L870.8 311.7L872.3 311.7L873.8 311.7L875.3 311.7L876.8 311.7L878.3 311.7L879.8 311.7L881.3 311.7L908.5 268.3L910.0 268.3L911.5 260.9L913.1 272.2L914.5 244.3L916.0 236.7L917.5 229.9L924.4 229.1L925.9 229.1L927.4 284.6L928.9 279.9L930.4 279.9L931.9 279.9L933.4 279.9L934.9 279.9L936.4 279.9L937.9 279.9L939.3 279.9L940.8 279.9L942.3 279.9L943.8 279.9L947.9 209.1L953.1 214.0L956.0 215.0L957.5 215.7L959.0 215.9L960.5 216.3L962.0 216.2L963.5 216.6L965.0 207.5L966.5 202.9L968.0 197.0L969.5 197.0L971.0 197.0L972.5 197.0L974.0 197.0L975.5 197.0L977.1 197.0L978.5 197.0L981.0 192.5L982.5 192.5L984.0 192.5L989.1 189.5L990.6 189.5L992.1 189.7L993.6 189.3L993.6 289.0Z"/><path id="line-day5" d="M858.8 289.0L860.3 286.5L861.8 286.1L863.3 286.2L864.8 286.1L866.3 286.1L867.8 286.1L869.3 311.7L870.8 311.7L872.3 311.7L873.8 311.7L875.3 311.7L876.8 311.7L878.3 311.7L879.8 311.7L881.3 311.7L908.5 268.3L910.0 268.3L911.5 260.9L913.1 272.2L914.5 244.3L916.0 236.7L917.5 229.9L924.4 229.1L925.9 229.1L927.4 284.6L928.9 279.9L930.4 279.9L931.9 279.9L933.4 279.9L934.9 279.9L936.4 279.9L937.9 279.9L939.3 279.9L940.8 279.9L942.3 279.9L943.8 279.9L947.9 209.1L953.1 214.0L956.0 215.0L957.5 215.7L959.0 215.9L960.5 216.3L962.0 216.2L963.5 216.6L965.0 207.5L966.5 202.9L968.0 197.0L969.5 197.0L971.0 197.0L972.5 197.0L974.0 197.0L975.5 197.0L977.1 197.0L978.5 197.0L981.0 192.5L982.5 192.5L984.0 192.5L989.1 189.5L990.6 189.5L992.1 189.7L993.6 189.3"/><clipPath id="up-day5"><rect x="140" y="150" width="996" height="139.0"/></clipPath><clipPath id="down-day5"><rect x="140" y="289.0" width="996" height="139.0"/></clipPath></defs>
<use href="#shape-day5" fill="#1d8a53" fill-opacity="0.15" clip-path="url(#up-day5)"/>
<use href="#line-day5" fill="none" stroke="#1d8a53" stroke-width="2.25" stroke-linejoin="round" stroke-linecap="round" clip-path="url(#up-day5)"/>
<use href="#shape-day5" fill="#c4402b" fill-opacity="0.15" clip-path="url(#down-day5)"/>
<use href="#line-day5" fill="none" stroke="#c4402b" stroke-width="2.25" stroke-linejoin="round" stroke-linecap="round" clip-path="url(#down-day5)"/>
<circle cx="993.6" cy="189.3" r="5" fill="#1d8a53" stroke="#ffffff" stroke-width="2.5"/>
<text x="1003.7" y="116" font-weight="700" fill="#2b5d87">Today 08 Oct</text>
<line x1="993.7" x2="993.7" y1="428" y2="433" stroke="#5f6b65" stroke-width="1"/>
<text x="993.7" y="448" font-size="11" text-anchor="middle" fill="#5f6b65">00:00</text>
<line x1="1064.9" x2="1064.9" y1="428" y2="433" stroke="#5f6b65" stroke-width="1"/>
<text x="1064.9" y="448" font-size="11" text-anchor="middle" fill="#5f6b65">12:00</text>
<line x1="1136.0" x2="1136.0" y1="428" y2="433" stroke="#5f6b65" stroke-width="1"/>
<text x="1003.7" y="134" font-weight="700" fill="#1d8a53">+601,036,273</text>
<defs><path id="shape-day6" d="M994.1 289.0L994.1 289.0L999.1 282.7L1000.6 282.3L1002.1 281.7L1003.6 280.9L1005.1 280.9L1006.6 280.4L1008.1 278.4L1009.6 278.4L1011.1 278.0L1012.6 278.0L1015.8 387.9L1017.2 387.9L1018.7 387.9L1020.2 348.1L1021.7 346.7L1023.2 347.1L1024.7 347.3L1026.2 347.7L1027.7 347.6L1029.2 294.4L1030.7 255.2L1032.2 251.3L1033.7 254.5L1035.2 254.5L1036.7 255.2L1038.2 256.8L1039.7 257.2L1041.2 255.2L1042.7 255.2L1044.2 255.2L1045.7 254.4L1047.2 254.4L1048.7 254.4L1050.2 248.1L1051.7 242.7L1053.2 242.7L1054.7 236.3L1056.2 236.2L1057.7 232.7L1059.2 232.7L1060.8 233.3L1062.3 233.3L1063.8 215.7L1066.5 320.6L1077.0 217.2L1078.5 210.5L1083.7 203.1L1085.1 202.6L1086.7 199.9L1088.2 197.7L1089.6 192.7L1091.1 192.8L1092.6 192.8L1094.1 190.6L1095.7 189.9L1097.2 188.1L1098.7 185.6L1100.2 187.1L1101.7 185.2L1103.2 186.9L1104.8 187.5L1106.2 187.5L1107.7 186.3L1109.2 185.2L1110.7 185.2L1112.2 184.1L1113.8 184.2L1115.3 184.2L1116.3 177.6L1116.3 289.0Z"/><path id="line-day6" d="M994.1 289.0L999.1 282.7L1000.6 282.3L1002.1 281.7L1003.6 280.9L1005.1 280.9L1006.6 280.4L1008.1 278.4L1009.6 278.4L1011.1 278.0L1012.6 278.0L1015.8 387.9L1017.2 387.9L1018.7 387.9L1020.2 348.1L1021.7 346.7L1023.2 347.1L1024.7 347.3L1026.2 347.7L1027.7 347.6L1029.2 294.4L1030.7 255.2L1032.2 251.3L1033.7 254.5L1035.2 254.5L1036.7 255.2L1038.2 256.8L1039.7 257.2L1041.2 255.2L1042.7 255.2L1044.2 255.2L1045.7 254.4L1047.2 254.4L1048.7 254.4L1050.2 248.1L1051.7 242.7L1053.2 242.7L1054.7 236.3L1056.2 236.2L1057.7 232.7L1059.2 232.7L1060.8 233.3L1062.3 233.3L1063.8 215.7L1066.5 320.6L1077.0 217.2L1078.5 210.5L1083.7 203.1L1085.1 202.6L1086.7 199.9L1088.2 197.7L1089.6 192.7L1091.1 192.8L1092.6 192.8L1094.1 190.6L1095.7 189.9L1097.2 188.1L1098.7 185.6L1100.2 187.1L1101.7 185.2L1103.2 186.9L1104.8 187.5L1106.2 187.5L1107.7 186.3L1109.2 185.2L1110.7 185.2L1112.2 184.1L1113.8 184.2L1115.3 184.2L1116.3 177.6"/><clipPath id="up-day6"><rect x="140" y="150" width="996" height="139.0"/></clipPath><clipPath id="down-day6"><rect x="140" y="289.0" width="996" height="139.0"/></clipPath></defs>
<use href="#shape-day6" fill="#1d8a53" fill-opacity="0.15" clip-path="url(#up-day6)"/>
<use href="#line-day6" fill="none" stroke="#1d8a53" stroke-width="2.25" stroke-linejoin="round" stroke-linecap="round" clip-path="url(#up-day6)"/>
<use href="#shape-day6" fill="#c4402b" fill-opacity="0.15" clip-path="url(#down-day6)"/>
<use href="#line-day6" fill="none" stroke="#c4402b" stroke-width="2.25" stroke-linejoin="round" stroke-linecap="round" clip-path="url(#down-day6)"/>
<circle cx="1116.3" cy="177.6" r="5" fill="#1d8a53" stroke="#ffffff" stroke-width="2.5"/>
</g>
<g transform="translate(20,1000)">
<rect width="1160" height="470" rx="12" fill="#152131" stroke="#24364a"/>
<text x="24" y="32" font-size="18" font-weight="700" letter-spacing="1.4" fill="#ffd166">TRUNG · CONTINUOUS NETWORTH</text>
<text x="24" y="60" font-size="21" font-weight="700" fill="#eaf1f8">Today</text>
<text x="24" y="84" fill="#93a6ba">Thu 08 Oct 2026 · carried over at <tspan font-weight="700" fill="#eaf1f8">4,794,913,246</tspan> from 07 Oct 23:58 · now <tspan font-weight="700" fill="#eaf1f8">5,395,949,519</tspan> at 20:40 Central</text>
<text x="1136" y="62" font-size="30" font-weight="700" text-anchor="end" fill="#3ddc84">+601,036,273</text>
<text x="1136" y="84" font-size="11" text-anchor="end" fill="#93a6ba">Alz since 07 Oct 23:58</text>
<line x1="140" x2="1136" y1="428.0" y2="428.0" stroke="#243548" stroke-width="1" stroke-dasharray="3 4"/>
<text x="130" y="428.0" text-anchor="end" dominant-baseline="middle" font-weight="400" fill="#93a6ba">-750,000,000</text>
<line x1="140" x2="1136" y1="375.3" y2="375.3" stroke="#243548" stroke-width="1" stroke-dasharray="3 4"/>
<text x="130" y="375.3" text-anchor="end" dominant-baseline="middle" font-weight="400" fill="#93a6ba">-500,000,000</text>
<line x1="140" x2="1136" y1="322.7" y2="322.7" stroke="#243548" stroke-width="1" stroke-dasharray="3 4"/>
<text x="130" y="322.7" text-anchor="end" dominant-baseline="middle" font-weight="400" fill="#93a6ba">-250,000,000</text>
<line x1="140" x2="1136" y1="270.0" y2="270.0" stroke="#eaf1f8" stroke-width="1.5"/>
<text x="130" y="270.0" text-anchor="end" dominant-baseline="middle" font-weight="700" fill="#eaf1f8">4,794,913,246</text>
<line x1="140" x2="1136" y1="217.3" y2="217.3" stroke="#243548" stroke-width="1" stroke-dasharray="3 4"/>
<text x="130" y="217.3" text-anchor="end" dominant-baseline="middle" font-weight="400" fill="#93a6ba">+250,000,000</text>
<line x1="140" x2="1136" y1="164.7" y2="164.7" stroke="#243548" stroke-width="1" stroke-dasharray="3 4"/>
<text x="130" y="164.7" text-anchor="end" dominant-baseline="middle" font-weight="400" fill="#93a6ba">+500,000,000</text>
<line x1="140" x2="1136" y1="112.0" y2="112.0" stroke="#243548" stroke-width="1" stroke-dasharray="3 4"/>
<text x="130" y="112.0" text-anchor="end" dominant-baseline="middle" font-weight="400" fill="#93a6ba">+750,000,000</text>
<line x1="140.0" x2="140.0" y1="428" y2="433" stroke="#93a6ba" stroke-width="1"/>
<text x="140.0" y="448" font-size="11" text-anchor="middle" fill="#93a6ba">00:00</text>
<line x1="223.0" x2="223.0" y1="428" y2="433" stroke="#93a6ba" stroke-width="1"/>
<text x="223.0" y="448" font-size="11" text-anchor="middle" fill="#93a6ba">02:00</text>
<line x1="306.0" x2="306.0" y1="428" y2="433" stroke="#93a6ba" stroke-width="1"/>
<text x="306.0" y="448" font-size="11" text-anchor="middle" fill="#93a6ba">04:00</text>
<line x1="389.0" x2="389.0" y1="112" y2="428" stroke="#243548" stroke-width="1"/>
<line x1="389.0" x2="389.0" y1="428" y2="433" stroke="#93a6ba" stroke-width="1"/>
<text x="389.0" y="448" font-size="11" text-anchor="middle" fill="#93a6ba">06:00</text>
<line x1="472.0" x2="472.0" y1="428" y2="433" stroke="#93a6ba" stroke-width="1"/>
<text x="472.0" y="448" font-size="11" text-anchor="middle" fill="#93a6ba">08:00</text>
<line x1="555.0" x2="555.0" y1="428" y2="433" stroke="#93a6ba" stroke-width="1"/>
<text x="555.0" y="448" font-size="11" text-anchor="middle" fill="#93a6ba">10:00</text>
<line x1="638.0" x2="638.0" y1="112" y2="428" stroke="#243548" stroke-width="1"/>
<line x1="638.0" x2="638.0" y1="428" y2="433" stroke="#93a6ba" stroke-width="1"/>
<text x="638.0" y="448" font-size="11" text-anchor="middle" fill="#93a6ba">12:00</text>
<line x1="721.0" x2="721.0" y1="428" y2="433" stroke="#93a6ba" stroke-width="1"/>
<text x="721.0" y="448" font-size="11" text-anchor="middle" fill="#93a6ba">14:00</text>
<line x1="804.0" x2="804.0" y1="428" y2="433" stroke="#93a6ba" stroke-width="1"/>
<text x="804.0" y="448" font-size="11" text-anchor="middle" fill="#93a6ba">16:00</text>
<line x1="887.0" x2="887.0" y1="112" y2="428" stroke="#243548" stroke-width="1"/>
<line x1="887.0" x2="887.0" y1="428" y2="433" stroke="#93a6ba" stroke-width="1"/>
<text x="887.0" y="448" font-size="11" text-anchor="middle" fill="#93a6ba">18:00</text>
<line x1="970.0" x2="970.0" y1="428" y2="433" stroke="#93a6ba" stroke-width="1"/>
<text x="970.0" y="448" font-size="11" text-anchor="middle" fill="#93a6ba">20:00</text>
<line x1="1053.0" x2="1053.0" y1="428" y2="433" stroke="#93a6ba" stroke-width="1"/>
<text x="1053.0" y="448" font-size="11" text-anchor="middle" fill="#93a6ba">22:00</text>
<line x1="1136.0" x2="1136.0" y1="428" y2="433" stroke="#93a6ba" stroke-width="1"/>
<defs><path id="shape-flow-today" d="M140.0 270.0L140.0 270.0L152.7 270.0L152.7 262.8L177.4 262.8L177.4 262.8L184.6 262.8L184.6 262.4L191.6 262.4L191.6 277.1L198.5 277.1L198.5 261.7L202.0 261.7L202.0 260.8L205.6 260.8L205.6 260.8L208.9 260.8L208.9 260.8L212.6 260.8L212.6 260.8L216.2 260.8L216.2 260.8L223.1 260.8L223.1 260.2L226.6 260.2L226.6 260.2L233.7 260.2L233.7 258.7L240.9 258.7L240.9 257.9L244.4 257.9L244.4 258.0L248.0 258.0L248.0 258.0L254.8 258.0L254.8 257.5L258.4 257.5L258.4 257.5L265.2 257.5L265.2 257.5L268.8 257.5L268.8 257.5L272.0 257.5L272.0 257.5L275.7 257.5L275.7 257.5L294.3 257.5L294.3 382.4L297.8 382.4L297.8 382.4L301.1 382.4L301.1 382.4L308.2 382.4L308.2 382.4L311.6 382.4L311.6 382.4L322.0 382.4L322.0 357.6L325.6 357.6L325.6 337.2L336.1 337.2L336.1 335.6L339.7 335.6L339.7 335.6L343.0 335.6L343.0 335.8L346.6 335.8L346.6 336.0L353.5 336.0L353.5 336.1L357.1 336.1L357.1 336.3L360.7 336.3L360.7 336.5L364.0 336.5L364.0 336.7L371.1 336.7L371.1 336.7L374.5 336.7L374.5 336.6L381.7 336.6L381.7 332.7L388.6 332.7L388.6 276.2L392.2 276.2L392.2 236.9L399.1 236.9L399.1 231.5L402.6 231.5L402.6 231.5L409.6 231.5L409.6 227.1L413.2 227.1L413.2 230.8L420.1 230.8L420.1 230.8L423.7 230.8L423.7 230.8L427.0 230.8L427.0 230.8L430.7 230.8L430.7 230.8L437.6 230.8L437.6 230.4L441.2 230.4L441.2 231.6L444.7 231.6L444.7 233.0L448.0 233.0L448.0 233.0L451.6 233.0L451.6 233.4L458.5 233.4L458.5 233.8L462.2 233.8L462.2 233.8L465.7 233.8L465.7 231.8L469.0 231.8L469.0 231.6L476.2 231.6L476.2 231.6L479.6 231.6L479.6 231.6L483.2 231.6L483.2 231.6L486.7 231.6L486.7 231.6L490.0 231.6L490.0 231.6L493.7 231.6L493.7 231.6L497.2 231.6L497.2 231.2L504.1 231.2L504.1 230.7L507.7 230.7L507.7 230.7L528.7 230.7L528.7 223.5L542.5 223.5L542.5 221.0L546.1 221.0L546.1 217.4L560.1 217.4L560.1 211.6L563.5 211.6L563.5 211.0L567.1 211.0L567.1 210.1L570.7 210.1L570.7 210.1L574.0 210.1L574.0 210.0L577.7 210.0L577.7 210.0L581.2 210.0L581.2 210.0L584.6 210.0L584.6 210.0L588.2 210.0L588.2 206.0L591.7 206.0L591.7 206.0L595.1 206.0L595.1 206.0L602.3 206.0L602.3 205.8L609.3 205.8L609.3 206.6L630.4 206.6L630.4 186.6L633.9 186.6L633.9 186.7L646.0 186.7L646.0 305.9L649.5 305.9L649.5 305.9L652.8 305.9L652.8 305.9L656.4 305.9L656.4 305.9L723.0 305.9L723.0 188.3L729.9 188.3L729.9 180.8L737.2 180.8L737.2 179.5L769.9 179.5L769.9 172.4L776.6 172.4L776.6 171.8L787.0 171.8L787.0 168.7L794.3 168.7L794.3 166.2L804.8 166.2L804.8 160.6L807.9 160.6L807.9 160.6L811.4 160.6L811.4 160.6L815.0 160.6L815.0 160.6L818.4 160.6L818.4 160.6L821.9 160.6L821.9 160.6L825.6 160.6L825.6 160.6L832.5 160.6L832.5 160.6L836.1 160.6L836.1 160.6L839.6 160.6L839.6 158.1L846.7 158.1L846.7 157.4L860.7 157.4L860.7 155.3L871.3 155.3L871.3 152.5L878.4 152.5L878.4 152.8L881.9 152.8L881.9 153.5L885.4 153.5L885.4 154.1L888.9 154.1L888.9 151.4L896.1 151.4L896.1 152.0L899.7 152.0L899.7 152.7L902.9 152.7L902.9 153.3L906.5 153.3L906.5 153.9L913.6 153.9L913.6 154.2L917.3 154.2L917.3 154.6L920.9 154.6L920.9 154.6L927.7 154.6L927.7 154.6L931.3 154.6L931.3 154.6L938.1 154.6L938.1 153.3L941.7 153.3L941.7 152.5L948.7 152.5L948.7 152.0L952.3 152.0L952.3 152.0L955.6 152.0L955.6 152.0L966.1 152.0L966.1 150.7L969.7 150.7L969.7 150.8L973.4 150.8L973.4 150.8L976.7 150.8L976.7 150.8L983.9 150.8L983.9 150.8L987.3 150.8L987.3 150.8L997.9 150.8L997.9 143.4L997.9 270.0Z"/><path id="line-flow-today" d="M140.0 270.0L152.7 270.0L152.7 262.8L177.4 262.8L177.4 262.8L184.6 262.8L184.6 262.4L191.6 262.4L191.6 277.1L198.5 277.1L198.5 261.7L202.0 261.7L202.0 260.8L205.6 260.8L205.6 260.8L208.9 260.8L208.9 260.8L212.6 260.8L212.6 260.8L216.2 260.8L216.2 260.8L223.1 260.8L223.1 260.2L226.6 260.2L226.6 260.2L233.7 260.2L233.7 258.7L240.9 258.7L240.9 257.9L244.4 257.9L244.4 258.0L248.0 258.0L248.0 258.0L254.8 258.0L254.8 257.5L258.4 257.5L258.4 257.5L265.2 257.5L265.2 257.5L268.8 257.5L268.8 257.5L272.0 257.5L272.0 257.5L275.7 257.5L275.7 257.5L294.3 257.5L294.3 382.4L297.8 382.4L297.8 382.4L301.1 382.4L301.1 382.4L308.2 382.4L308.2 382.4L311.6 382.4L311.6 382.4L322.0 382.4L322.0 357.6L325.6 357.6L325.6 337.2L336.1 337.2L336.1 335.6L339.7 335.6L339.7 335.6L343.0 335.6L343.0 335.8L346.6 335.8L346.6 336.0L353.5 336.0L353.5 336.1L357.1 336.1L357.1 336.3L360.7 336.3L360.7 336.5L364.0 336.5L364.0 336.7L371.1 336.7L371.1 336.7L374.5 336.7L374.5 336.6L381.7 336.6L381.7 332.7L388.6 332.7L388.6 276.2L392.2 276.2L392.2 236.9L399.1 236.9L399.1 231.5L402.6 231.5L402.6 231.5L409.6 231.5L409.6 227.1L413.2 227.1L413.2 230.8L420.1 230.8L420.1 230.8L423.7 230.8L423.7 230.8L427.0 230.8L427.0 230.8L430.7 230.8L430.7 230.8L437.6 230.8L437.6 230.4L441.2 230.4L441.2 231.6L444.7 231.6L444.7 233.0L448.0 233.0L448.0 233.0L451.6 233.0L451.6 233.4L458.5 233.4L458.5 233.8L462.2 233.8L462.2 233.8L465.7 233.8L465.7 231.8L469.0 231.8L469.0 231.6L476.2 231.6L476.2 231.6L479.6 231.6L479.6 231.6L483.2 231.6L483.2 231.6L486.7 231.6L486.7 231.6L490.0 231.6L490.0 231.6L493.7 231.6L493.7 231.6L497.2 231.6L497.2 231.2L504.1 231.2L504.1 230.7L507.7 230.7L507.7 230.7L528.7 230.7L528.7 223.5L542.5 223.5L542.5 221.0L546.1 221.0L546.1 217.4L560.1 217.4L560.1 211.6L563.5 211.6L563.5 211.0L567.1 211.0L567.1 210.1L570.7 210.1L570.7 210.1L574.0 210.1L574.0 210.0L577.7 210.0L577.7 210.0L581.2 210.0L581.2 210.0L584.6 210.0L584.6 210.0L588.2 210.0L588.2 206.0L591.7 206.0L591.7 206.0L595.1 206.0L595.1 206.0L602.3 206.0L602.3 205.8L609.3 205.8L609.3 206.6L630.4 206.6L630.4 186.6L633.9 186.6L633.9 186.7L646.0 186.7L646.0 305.9L649.5 305.9L649.5 305.9L652.8 305.9L652.8 305.9L656.4 305.9L656.4 305.9L723.0 305.9L723.0 188.3L729.9 188.3L729.9 180.8L737.2 180.8L737.2 179.5L769.9 179.5L769.9 172.4L776.6 172.4L776.6 171.8L787.0 171.8L787.0 168.7L794.3 168.7L794.3 166.2L804.8 166.2L804.8 160.6L807.9 160.6L807.9 160.6L811.4 160.6L811.4 160.6L815.0 160.6L815.0 160.6L818.4 160.6L818.4 160.6L821.9 160.6L821.9 160.6L825.6 160.6L825.6 160.6L832.5 160.6L832.5 160.6L836.1 160.6L836.1 160.6L839.6 160.6L839.6 158.1L846.7 158.1L846.7 157.4L860.7 157.4L860.7 155.3L871.3 155.3L871.3 152.5L878.4 152.5L878.4 152.8L881.9 152.8L881.9 153.5L885.4 153.5L885.4 154.1L888.9 154.1L888.9 151.4L896.1 151.4L896.1 152.0L899.7 152.0L899.7 152.7L902.9 152.7L902.9 153.3L906.5 153.3L906.5 153.9L913.6 153.9L913.6 154.2L917.3 154.2L917.3 154.6L920.9 154.6L920.9 154.6L927.7 154.6L927.7 154.6L931.3 154.6L931.3 154.6L938.1 154.6L938.1 153.3L941.7 153.3L941.7 152.5L948.7 152.5L948.7 152.0L952.3 152.0L952.3 152.0L955.6 152.0L955.6 152.0L966.1 152.0L966.1 150.7L969.7 150.7L969.7 150.8L973.4 150.8L973.4 150.8L976.7 150.8L976.7 150.8L983.9 150.8L983.9 150.8L987.3 150.8L987.3 150.8L997.9 150.8L997.9 143.4"/><clipPath id="up-flow-today"><rect x="140" y="112" width="996" height="158.0"/></clipPath><clipPath id="down-flow-today"><rect x="140" y="270.0" width="996" height="158.0"/></clipPath></defs>
<use href="#shape-flow-today" fill="#3ddc84" fill-opacity="0.15" clip-path="url(#up-flow-today)"/>
<use href="#line-flow-today" fill="none" stroke="#3ddc84" stroke-width="2.25" stroke-linejoin="round" stroke-linecap="round" clip-path="url(#up-flow-today)"/>
<use href="#shape-flow-today" fill="#ff6b6b" fill-opacity="0.15" clip-path="url(#down-flow-today)"/>
<use href="#line-flow-today" fill="none" stroke="#ff6b6b" stroke-width="2.25" stroke-linejoin="round" stroke-linecap="round" clip-path="url(#down-flow-today)"/>
<circle cx="997.9" cy="143.4" r="5" fill="#3ddc84" stroke="#152131" stroke-width="2.5"/>
<text x="985.9" y="127.0" text-anchor="end" font-size="15" font-weight="700" fill="#3ddc84" stroke="#152131" stroke-width="4" stroke-linejoin="round" paint-order="stroke">+601,036,273 Alz</text>
<text x="985.9" y="144.0" text-anchor="end" font-size="13" font-weight="600" fill="#eaf1f8" stroke="#152131" stroke-width="4" stroke-linejoin="round" paint-order="stroke">net worth 5,395,949,519</text>
</g>
<g transform="translate(20,1490)">
<rect width="1160" height="470" rx="12" fill="#152131" stroke="#24364a"/>
<text x="24" y="32" font-size="18" font-weight="700" letter-spacing="1.4" fill="#ffd166">TRUNG · CONTINUOUS NETWORTH</text>
<text x="24" y="60" font-size="21" font-weight="700" fill="#eaf1f8">Last 7 days</text>
<text x="24" y="84" fill="#93a6ba">from <tspan font-weight="700" fill="#eaf1f8">4,256,773,022</tspan> at Wed 07 Oct 01:14 · now <tspan font-weight="700" fill="#eaf1f8">5,395,949,519</tspan> at Thu 08 Oct 20:40 Central</text>
<text x="1136" y="62" font-size="30" font-weight="700" text-anchor="end" fill="#3ddc84">+1,139,176,497</text>
<text x="1136" y="84" font-size="11" text-anchor="end" fill="#93a6ba">Alz since Wed 07 Oct 01:14</text>
<rect x="282.3" y="93" width="142.3" height="335" fill="#1b2b3d"/>
<rect x="566.9" y="93" width="142.3" height="335" fill="#1b2b3d"/>
<rect x="851.4" y="93" width="142.3" height="335" fill="#1b2b3d"/>
<line x1="140" x2="1136" y1="428.0" y2="428.0" stroke="#eaf1f8" stroke-width="1.5"/>
<text x="130" y="428.0" text-anchor="end" dominant-baseline="middle" font-weight="700" fill="#eaf1f8">4,256,773,022</text>
<line x1="140" x2="1136" y1="372.4" y2="372.4" stroke="#243548" stroke-width="1" stroke-dasharray="3 4"/>
<text x="130" y="372.4" text-anchor="end" dominant-baseline="middle" font-weight="400" fill="#93a6ba">+250,000,000</text>
<line x1="140" x2="1136" y1="316.8" y2="316.8" stroke="#243548" stroke-width="1" stroke-dasharray="3 4"/>
<text x="130" y="316.8" text-anchor="end" dominant-baseline="middle" font-weight="400" fill="#93a6ba">+500,000,000</text>
<line x1="140" x2="1136" y1="261.2" y2="261.2" stroke="#243548" stroke-width="1" stroke-dasharray="3 4"/>
<text x="130" y="261.2" text-anchor="end" dominant-baseline="middle" font-weight="400" fill="#93a6ba">+750,000,000</text>
<line x1="140" x2="1136" y1="205.6" y2="205.6" stroke="#243548" stroke-width="1" stroke-dasharray="3 4"/>
<text x="130" y="205.6" text-anchor="end" dominant-baseline="middle" font-weight="400" fill="#93a6ba">+1,000,000,000</text>
<line x1="140" x2="1136" y1="150.0" y2="150.0" stroke="#243548" stroke-width="1" stroke-dasharray="3 4"/>
<text x="130" y="150.0" text-anchor="end" dominant-baseline="middle" font-weight="400" fill="#93a6ba">+1,250,000,000</text>
<text x="150.0" y="116" font-weight="700" fill="#eaf1f8">Fri 02 Oct</text>
<line x1="140.0" x2="140.0" y1="428" y2="433" stroke="#93a6ba" stroke-width="1"/>
<text x="140.0" y="448" font-size="11" text-anchor="middle" fill="#93a6ba">00:00</text>
<line x1="211.1" x2="211.1" y1="428" y2="433" stroke="#93a6ba" stroke-width="1"/>
<text x="211.1" y="448" font-size="11" text-anchor="middle" fill="#93a6ba">12:00</text>
<line x1="282.3" x2="282.3" y1="428" y2="433" stroke="#93a6ba" stroke-width="1"/>
<text x="292.3" y="116" font-weight="700" fill="#eaf1f8">Sat 03 Oct</text>
<line x1="282.3" x2="282.3" y1="428" y2="433" stroke="#93a6ba" stroke-width="1"/>
<text x="282.3" y="448" font-size="11" text-anchor="middle" fill="#93a6ba">00:00</text>
<line x1="353.4" x2="353.4" y1="428" y2="433" stroke="#93a6ba" stroke-width="1"/>
<text x="353.4" y="448" font-size="11" text-anchor="middle" fill="#93a6ba">12:00</text>
<line x1="424.6" x2="424.6" y1="428" y2="433" stroke="#93a6ba" stroke-width="1"/>
<text x="434.6" y="116" font-weight="700" fill="#eaf1f8">Sun 04 Oct</text>
<line x1="424.6" x2="424.6" y1="428" y2="433" stroke="#93a6ba" stroke-width="1"/>
<text x="424.6" y="448" font-size="11" text-anchor="middle" fill="#93a6ba">00:00</text>
<line x1="495.7" x2="495.7" y1="428" y2="433" stroke="#93a6ba" stroke-width="1"/>
<text x="495.7" y="448" font-size="11" text-anchor="middle" fill="#93a6ba">12:00</text>
<line x1="566.9" x2="566.9" y1="428" y2="433" stroke="#93a6ba" stroke-width="1"/>
<text x="576.9" y="116" font-weight="700" fill="#eaf1f8">Mon 05 Oct</text>
<line x1="566.9" x2="566.9" y1="428" y2="433" stroke="#93a6ba" stroke-width="1"/>
<text x="566.9" y="448" font-size="11" text-anchor="middle" fill="#93a6ba">00:00</text>
<line x1="638.0" x2="638.0" y1="428" y2="433" stroke="#93a6ba" stroke-width="1"/>
<text x="638.0" y="448" font-size="11" text-anchor="middle" fill="#93a6ba">12:00</text>
<line x1="709.1" x2="709.1" y1="428" y2="433" stroke="#93a6ba" stroke-width="1"/>
<text x="719.1" y="116" font-weight="700" fill="#eaf1f8">Tue 06 Oct</text>
<line x1="709.1" x2="709.1" y1="428" y2="433" stroke="#93a6ba" stroke-width="1"/>
<text x="709.1" y="448" font-size="11" text-anchor="middle" fill="#93a6ba">00:00</text>
<line x1="780.3" x2="780.3" y1="428" y2="433" stroke="#93a6ba" stroke-width="1"/>
<text x="780.3" y="448" font-size="11" text-anchor="middle" fill="#93a6ba">12:00</text>
<line x1="851.4" x2="851.4" y1="428" y2="433" stroke="#93a6ba" stroke-width="1"/>
<text x="861.4" y="116" font-weight="700" fill="#eaf1f8">Wed 07 Oct</text>
<line x1="851.4" x2="851.4" y1="428" y2="433" stroke="#93a6ba" stroke-width="1"/>
<text x="851.4" y="448" font-size="11" text-anchor="middle" fill="#93a6ba">00:00</text>
<line x1="922.6" x2="922.6" y1="428" y2="433" stroke="#93a6ba" stroke-width="1"/>
<text x="922.6" y="448" font-size="11" text-anchor="middle" fill="#93a6ba">12:00</text>
<line x1="993.7" x2="993.7" y1="428" y2="433" stroke="#93a6ba" stroke-width="1"/>
<text x="1003.7" y="116" font-weight="700" fill="#7cc4ff">Today 08 Oct</text>
<line x1="993.7" x2="993.7" y1="428" y2="433" stroke="#93a6ba" stroke-width="1"/>
<text x="993.7" y="448" font-size="11" text-anchor="middle" fill="#93a6ba">00:00</text>
<line x1="1064.9" x2="1064.9" y1="428" y2="433" stroke="#93a6ba" stroke-width="1"/>
<text x="1064.9" y="448" font-size="11" text-anchor="middle" fill="#93a6ba">12:00</text>
<line x1="1136.0" x2="1136.0" y1="428" y2="433" stroke="#93a6ba" stroke-width="1"/>
<defs><path id="shape-flow-week" d="M858.8 428.0L858.8 428.0L861.8 428.0L861.8 424.6L863.3 424.6L863.3 424.6L865.3 424.6L865.3 424.6L867.3 424.6L867.3 424.6L908.0 424.6L908.0 403.1L914.0 403.1L914.0 374.3L917.5 374.3L917.5 357.1L926.4 357.1L926.4 355.0L928.9 355.0L928.9 417.1L952.6 417.1L952.6 337.7L955.5 337.7L955.5 338.8L957.0 338.8L957.0 339.8L959.0 339.8L959.0 340.3L960.5 340.3L960.5 340.7L962.4 340.7L962.4 340.8L964.0 340.8L964.0 339.2L966.0 339.2L966.0 324.7L969.0 324.7L969.0 317.6L970.5 317.6L970.5 317.6L972.0 317.6L972.0 317.6L973.5 317.6L973.5 317.6L975.5 317.6L975.5 317.6L977.1 317.6L977.1 317.6L978.5 317.6L978.5 317.7L981.0 317.7L981.0 312.2L983.0 312.2L983.0 312.2L984.5 312.2L984.5 312.2L990.1 312.2L990.1 308.6L991.6 308.6L991.6 308.7L993.6 308.7L993.6 308.3L1000.1 308.3L1000.1 300.3L1002.6 300.3L1002.6 298.6L1004.1 298.6L1004.1 298.6L1006.1 298.6L1006.1 298.0L1008.6 298.0L1008.6 295.6L1010.6 295.6L1010.6 295.1L1012.6 295.1L1012.6 295.1L1016.3 295.1L1016.3 427.0L1018.2 427.0L1018.2 427.0L1021.7 427.0L1021.7 377.6L1023.2 377.6L1023.2 378.0L1025.2 378.0L1025.2 378.5L1027.2 378.5L1027.2 378.6L1029.7 378.6L1029.7 273.4L1032.2 273.4L1032.2 263.1L1034.2 263.1L1034.2 266.9L1036.2 266.9L1036.2 266.5L1037.7 266.5L1037.7 269.2L1039.7 269.2L1039.7 270.1L1041.7 270.1L1041.7 267.8L1043.2 267.8L1043.2 267.8L1044.7 267.8L1044.7 267.4L1049.2 267.4L1049.2 259.3L1053.7 259.3L1053.7 246.6L1055.2 246.6L1055.2 245.1L1056.7 245.1L1056.7 245.0L1058.2 245.0L1058.2 240.8L1060.8 240.8L1060.8 241.4L1066.0 241.4L1066.0 346.2L1067.5 346.2L1067.5 346.2L1079.0 346.2L1079.0 212.8L1086.1 212.8L1086.1 201.4L1089.1 201.4L1089.1 192.8L1090.6 192.8L1090.6 192.8L1092.6 192.8L1092.6 192.8L1094.7 192.8L1094.7 189.4L1099.2 189.4L1099.2 184.6L1100.7 184.6L1100.7 183.1L1102.7 183.1L1102.7 185.1L1104.8 185.1L1104.8 186.5L1106.8 186.5L1106.8 186.5L1109.2 186.5L1109.2 183.8L1111.7 183.8L1111.7 182.4L1113.2 182.4L1113.2 182.5L1116.3 182.5L1116.3 174.6L1116.3 428.0Z"/><path id="line-flow-week" d="M858.8 428.0L861.8 428.0L861.8 424.6L863.3 424.6L863.3 424.6L865.3 424.6L865.3 424.6L867.3 424.6L867.3 424.6L908.0 424.6L908.0 403.1L914.0 403.1L914.0 374.3L917.5 374.3L917.5 357.1L926.4 357.1L926.4 355.0L928.9 355.0L928.9 417.1L952.6 417.1L952.6 337.7L955.5 337.7L955.5 338.8L957.0 338.8L957.0 339.8L959.0 339.8L959.0 340.3L960.5 340.3L960.5 340.7L962.4 340.7L962.4 340.8L964.0 340.8L964.0 339.2L966.0 339.2L966.0 324.7L969.0 324.7L969.0 317.6L970.5 317.6L970.5 317.6L972.0 317.6L972.0 317.6L973.5 317.6L973.5 317.6L975.5 317.6L975.5 317.6L977.1 317.6L977.1 317.6L978.5 317.6L978.5 317.7L981.0 317.7L981.0 312.2L983.0 312.2L983.0 312.2L984.5 312.2L984.5 312.2L990.1 312.2L990.1 308.6L991.6 308.6L991.6 308.7L993.6 308.7L993.6 308.3L1000.1 308.3L1000.1 300.3L1002.6 300.3L1002.6 298.6L1004.1 298.6L1004.1 298.6L1006.1 298.6L1006.1 298.0L1008.6 298.0L1008.6 295.6L1010.6 295.6L1010.6 295.1L1012.6 295.1L1012.6 295.1L1016.3 295.1L1016.3 427.0L1018.2 427.0L1018.2 427.0L1021.7 427.0L1021.7 377.6L1023.2 377.6L1023.2 378.0L1025.2 378.0L1025.2 378.5L1027.2 378.5L1027.2 378.6L1029.7 378.6L1029.7 273.4L1032.2 273.4L1032.2 263.1L1034.2 263.1L1034.2 266.9L1036.2 266.9L1036.2 266.5L1037.7 266.5L1037.7 269.2L1039.7 269.2L1039.7 270.1L1041.7 270.1L1041.7 267.8L1043.2 267.8L1043.2 267.8L1044.7 267.8L1044.7 267.4L1049.2 267.4L1049.2 259.3L1053.7 259.3L1053.7 246.6L1055.2 246.6L1055.2 245.1L1056.7 245.1L1056.7 245.0L1058.2 245.0L1058.2 240.8L1060.8 240.8L1060.8 241.4L1066.0 241.4L1066.0 346.2L1067.5 346.2L1067.5 346.2L1079.0 346.2L1079.0 212.8L1086.1 212.8L1086.1 201.4L1089.1 201.4L1089.1 192.8L1090.6 192.8L1090.6 192.8L1092.6 192.8L1092.6 192.8L1094.7 192.8L1094.7 189.4L1099.2 189.4L1099.2 184.6L1100.7 184.6L1100.7 183.1L1102.7 183.1L1102.7 185.1L1104.8 185.1L1104.8 186.5L1106.8 186.5L1106.8 186.5L1109.2 186.5L1109.2 183.8L1111.7 183.8L1111.7 182.4L1113.2 182.4L1113.2 182.5L1116.3 182.5L1116.3 174.6"/><clipPath id="up-flow-week"><rect x="140" y="150" width="996" height="278.0"/></clipPath><clipPath id="down-flow-week"><rect x="140" y="428.0" width="996" height="0.0"/></clipPath></defs>
<use href="#shape-flow-week" fill="#3ddc84" fill-opacity="0.15" clip-path="url(#up-flow-week)"/>
<use href="#line-flow-week" fill="none" stroke="#3ddc84" stroke-width="2.25" stroke-linejoin="round" stroke-linecap="round" clip-path="url(#up-flow-week)"/>
<use href="#shape-flow-week" fill="#ff6b6b" fill-opacity="0.15" clip-path="url(#down-flow-week)"/>
<use href="#line-flow-week" fill="none" stroke="#ff6b6b" stroke-width="2.25" stroke-linejoin="round" stroke-linecap="round" clip-path="url(#down-flow-week)"/>
<circle cx="1116.3" cy="174.6" r="5" fill="#3ddc84" stroke="#152131" stroke-width="2.5"/>
<text x="1104.3" y="165.0" text-anchor="end" font-size="15" font-weight="700" fill="#3ddc84" stroke="#152131" stroke-width="4" stroke-linejoin="round" paint-order="stroke">+1,139,176,497 Alz</text>
<text x="1104.3" y="182.0" text-anchor="end" font-size="13" font-weight="600" fill="#eaf1f8" stroke="#152131" stroke-width="4" stroke-linejoin="round" paint-order="stroke">net worth 5,395,949,519</text>
</g>
</svg>
